<svg width="71" height="71" viewBox="0 0 71 71" fill="none" xmlns="http://www.w3.org/2000/svg">
<path d="M69.9734 35.6427C69.9592 35.6942 69.9447 35.7479 69.9301 35.8037C69.9198 35.86 69.9119 35.9144 69.9064 35.9668C69.9005 36.0235 69.897 36.0783 69.8958 36.1312C69.8987 36.1889 69.9017 36.2444 69.9049 36.2977C69.5824 36.3434 69.2729 36.3905 68.9765 36.439C68.6801 36.4875 68.3745 36.5395 68.0597 36.5949C67.7489 36.6551 67.4177 36.7198 67.0662 36.789C66.719 36.8587 66.3334 36.9376 65.9092 37.0257L65.9079 37.0388L68.4812 38.2015C68.7214 38.3104 68.9368 38.4035 69.1273 38.4808C69.3179 38.5581 69.4936 38.6294 69.6545 38.6948C69.6236 38.7799 69.6049 38.8529 69.5985 38.9141C69.5917 38.9796 69.5953 39.0506 69.6093 39.1271C69.3934 39.1663 69.13 39.216 68.8191 39.2763C68.5122 39.3413 68.1805 39.4104 67.8242 39.4835C67.4674 39.561 67.097 39.6415 66.7131 39.725C66.3335 39.8089 65.9629 39.8916 65.6013 39.973L65.6 39.9861C65.6374 40.0076 65.7449 40.0564 65.9223 40.1323C66.0993 40.2126 66.3126 40.3055 66.562 40.411C66.8114 40.5165 67.0797 40.6306 67.3671 40.7533C67.6588 40.8765 67.9359 40.9915 68.1984 41.0984C68.4648 41.2101 68.7018 41.3077 68.9093 41.3912C69.1213 41.4751 69.2698 41.5326 69.3548 41.5635C69.3372 41.6058 69.3243 41.6442 69.3163 41.6787C69.3078 41.7175 69.3015 41.7566 69.2974 41.7959C69.292 41.8483 69.2951 41.9236 69.3069 42.022C69.1858 41.9564 68.9465 41.8387 68.589 41.6689C68.2359 41.4996 67.7479 41.2698 67.1249 40.9796C66.4976 40.689 66.005 40.461 65.6471 40.2956C65.2887 40.1345 65.0568 40.0309 64.9513 39.9845C64.9641 39.9461 64.9767 39.9099 64.9891 39.8759C64.9971 39.8414 65.0032 39.8045 65.0073 39.7653C65.0137 39.7041 65.0105 39.6288 64.9978 39.5391C65.2278 39.4925 65.4938 39.4387 65.7959 39.3776C66.0981 39.3164 66.4341 39.2478 66.804 39.1717L68.8766 38.7261L68.8779 38.713C68.7097 38.6336 68.493 38.5315 68.228 38.4067C67.9629 38.2819 67.6408 38.1335 67.2615 37.9615L65.2585 37.0438C65.2894 36.9587 65.3081 36.8856 65.3145 36.8245C65.3218 36.7546 65.3191 36.6749 65.3064 36.5853C65.9184 36.4727 66.5244 36.355 67.1243 36.2323C67.7242 36.1096 68.3306 35.9875 68.9436 35.8662C69.1915 35.8171 69.4036 35.773 69.5798 35.734C69.756 35.6951 69.8872 35.6646 69.9734 35.6427Z" fill="#333333" fill-opacity="0.7"/>
<path d="M68.9273 43.1496C68.8633 43.3552 68.8033 43.5459 68.7473 43.7218C68.6944 43.903 68.6424 44.0891 68.5915 44.28C68.5405 44.4709 68.4934 44.6559 68.4501 44.8352C68.411 45.0156 68.368 45.2109 68.321 45.421C68.2851 45.4023 68.2529 45.3869 68.2243 45.3747C68.1946 45.3668 68.1649 45.3589 68.1352 45.351C68.0631 45.3317 67.9978 45.3211 67.9393 45.3191C67.9927 45.1698 68.0384 45.0411 68.0764 44.9331C68.1185 44.8262 68.1576 44.714 68.1935 44.5963C68.2326 44.4841 68.2735 44.3564 68.3162 44.2133C68.3589 44.0702 68.4097 43.8884 68.4686 43.6678C68.3001 43.6183 68.1555 43.5729 68.0347 43.5316C67.9128 43.4945 67.7862 43.4584 67.6547 43.4233L66.8258 43.2089C66.7862 43.3574 66.7506 43.491 66.7189 43.6097C66.6903 43.7339 66.6622 43.8559 66.6348 43.9758C66.6073 44.0957 66.5814 44.2183 66.5571 44.3435C66.5316 44.4731 66.5048 44.6159 66.4768 44.772C66.4208 44.7434 66.3568 44.7195 66.2846 44.7002C66.2125 44.681 66.1472 44.6704 66.0887 44.6684C66.1054 44.6228 66.1294 44.5497 66.1608 44.4491C66.1965 44.3495 66.2351 44.2304 66.2767 44.0915C66.3214 43.958 66.368 43.8092 66.4164 43.6449C66.4648 43.4806 66.5122 43.3115 66.5586 43.1376L65.7141 42.9053C65.6675 42.8929 65.5911 42.8725 65.4851 42.8442C65.3779 42.8201 65.267 42.7928 65.1525 42.7623C65.038 42.7317 64.9341 42.7039 64.8408 42.679C64.7463 42.6584 64.6927 42.6463 64.68 42.6429L64.6392 42.7956C64.5294 43.2071 64.449 43.5423 64.3981 43.8013C64.346 44.0646 64.3147 44.2584 64.3042 44.3829C64.2227 44.3475 64.1587 44.3236 64.112 44.3111C64.0823 44.3032 64.0484 44.2942 64.0102 44.284C63.9752 44.2792 63.9459 44.2782 63.9224 44.281C63.9864 44.0754 64.047 43.8826 64.1041 43.7024C64.157 43.5212 64.209 43.3351 64.2599 43.1442C64.3109 42.9534 64.3591 42.764 64.4047 42.5763C64.4461 42.3874 64.4902 42.1879 64.5372 41.9778C64.8138 42.0652 65.0866 42.1494 65.3558 42.2304C65.6281 42.3167 65.8746 42.3893 66.0951 42.4482L67.3549 42.7844C67.4313 42.8048 67.514 42.8269 67.603 42.8506C67.6964 42.8756 67.803 42.9017 67.9229 42.9292C68.047 42.9578 68.1908 42.9894 68.3542 43.0239C68.5166 43.0627 68.7076 43.1046 68.9273 43.1496Z" fill="#333333" fill-opacity="0.7"/>
<path d="M67.9032 46.6534C67.873 46.7077 67.8452 46.7558 67.8197 46.7977C67.7967 46.8453 67.7758 46.8937 67.7569 46.9429C67.738 46.9921 67.7212 47.042 67.7064 47.0928C67.6941 47.1492 67.6827 47.2036 67.672 47.2559C67.5112 47.1848 67.3607 47.1176 67.2203 47.0544C67.0826 46.9968 66.9468 46.94 66.8132 46.884C66.6836 46.8295 66.554 46.7751 66.4244 46.7207C66.2932 46.6703 66.158 46.6184 66.0186 46.5649C65.9203 46.5272 65.8035 46.4824 65.6682 46.4304C65.533 46.3785 65.3875 46.3227 65.2317 46.2629C65.0785 46.2088 64.924 46.1519 64.7682 46.0921C64.6109 46.0364 64.4626 45.9818 64.3232 45.9283C64.1864 45.8805 64.0647 45.8362 63.9582 45.7953C63.8557 45.7559 63.7799 45.7268 63.7307 45.708L63.6717 45.8617C63.5962 46.0584 63.5322 46.2313 63.4796 46.3804C63.4271 46.5296 63.3801 46.6644 63.3385 46.7848C63.3011 46.9068 63.2676 47.0185 63.2381 47.1201C63.2126 47.2231 63.1864 47.3283 63.1593 47.4355C63.1256 47.4131 63.096 47.3923 63.0704 47.3731C63.0433 47.358 63.0154 47.345 62.9867 47.3339C62.9334 47.3135 62.868 47.3001 62.7905 47.2939C62.8402 47.1766 62.886 47.0696 62.9278 46.9728C62.9697 46.876 63.01 46.7833 63.0487 46.6947C63.0817 46.6086 63.1168 46.5233 63.1539 46.4388C63.1869 46.3528 63.2208 46.2646 63.2554 46.1745C63.3277 45.9859 63.3981 45.7966 63.4663 45.6065C63.5289 45.4189 63.5939 45.2252 63.6612 45.0253C63.927 45.1414 64.1894 45.2539 64.4486 45.3628C64.7062 45.4758 64.9416 45.5732 65.1547 45.655L66.372 46.1222C66.5851 46.204 66.8252 46.289 67.0922 46.3774C67.3577 46.4699 67.628 46.5619 67.9032 46.6534Z" fill="#333333" fill-opacity="0.7"/>
<path d="M65.5242 52.113C65.2815 52.5607 64.9657 52.9314 64.5769 53.225C64.5565 53.1889 64.5043 53.1332 64.4203 53.0577C64.3364 52.9823 64.26 52.9159 64.1912 52.8586L64.1985 52.8176C64.4401 52.7588 64.6565 52.6589 64.8478 52.5179C65.0429 52.379 65.197 52.2053 65.3099 51.9969C65.4459 51.746 65.5248 51.4992 65.5466 51.2563C65.5722 51.0155 65.5436 50.7828 65.4607 50.558C65.3777 50.3333 65.2404 50.1215 65.0485 49.9227C64.8567 49.7238 64.6141 49.5449 64.3208 49.3859C64.0236 49.2248 63.7393 49.1182 63.468 49.066C63.2006 49.0159 62.95 49.0174 62.7165 49.0706C62.4829 49.1238 62.2703 49.2258 62.0787 49.3766C61.891 49.5295 61.7291 49.7314 61.5931 49.9822C61.4906 50.1714 61.4258 50.3784 61.3987 50.6034C61.3696 50.8323 61.3822 51.1038 61.4366 51.418L61.4009 51.4286L61.0876 51.1913C61.0751 51.0946 61.0727 50.9885 61.0804 50.8728C61.0921 50.7593 61.1136 50.6412 61.1452 50.5184C61.1708 50.3975 61.2073 50.275 61.2546 50.1508C61.2998 50.0305 61.3517 49.9163 61.4103 49.8082C61.5735 49.5072 61.7715 49.2525 62.0043 49.0441C62.2371 48.8357 62.4916 48.684 62.7678 48.589C63.0457 48.5 63.3394 48.4695 63.6489 48.4974C63.9622 48.5274 64.279 48.6292 64.5994 48.8029C64.9274 48.9807 65.1936 49.1898 65.3978 49.4304C65.6037 49.6768 65.7462 49.9438 65.8251 50.2312C65.904 50.5187 65.9175 50.8207 65.8658 51.1372C65.818 51.4558 65.7041 51.7811 65.5242 52.113Z" fill="#333333" fill-opacity="0.7"/>
<path d="M61.9158 53.5432C61.6483 53.3364 61.3849 53.1855 61.1255 53.0904C60.8695 52.998 60.622 52.9592 60.383 52.9742C60.1439 52.9892 59.9177 53.0557 59.7044 53.1737C59.4945 53.2945 59.3036 53.466 59.1318 53.6883C58.9599 53.9106 58.842 54.1385 58.778 54.372C58.7148 54.6117 58.7061 54.8491 58.7518 55.0842C58.7976 55.3194 58.8974 55.5491 59.0513 55.7735C59.2087 56.0006 59.4211 56.2176 59.6886 56.4243C60.2234 56.8378 60.7344 57.0275 61.2214 56.9933C61.7118 56.9618 62.1316 56.7203 62.4806 56.2688C62.6498 56.0499 62.7663 55.8238 62.8303 55.5902C62.8943 55.3567 62.9035 55.1224 62.8577 54.8873C62.812 54.6521 62.7104 54.421 62.553 54.1939C62.3956 53.9669 62.1832 53.7499 61.9158 53.5432ZM62.6694 56.423C62.4438 56.7148 62.195 56.9469 61.9229 57.1194C61.6543 57.2947 61.3743 57.4056 61.0829 57.4523C60.7889 57.5024 60.4893 57.4845 60.1841 57.3983C59.8824 57.3149 59.5856 57.1604 59.2939 56.9349C59.0021 56.7093 58.7761 56.4597 58.6159 56.1861C58.4591 55.9151 58.368 55.631 58.3425 55.3338C58.3143 55.0401 58.3494 54.7399 58.4478 54.4331C58.5497 54.129 58.7135 53.831 58.939 53.5393C59.1619 53.251 59.4076 53.0192 59.6762 52.844C59.9422 52.6723 60.2222 52.5613 60.5162 52.5112C60.8075 52.4645 61.1054 52.4811 61.4098 52.5611C61.715 52.6472 62.0152 52.8044 62.3105 53.0326C62.5953 53.2528 62.8174 53.4966 62.9768 53.7641C63.1363 54.0317 63.2314 54.3105 63.2623 54.6008C63.294 54.8971 63.2606 55.1987 63.1622 55.5055C63.0645 55.8185 62.9003 56.1243 62.6694 56.423Z" fill="#333333" fill-opacity="0.7"/>
<path d="M59.7566 59.8047C59.4465 59.6759 59.15 59.5556 58.867 59.4437C58.5869 59.3352 58.2991 59.2247 58.0037 59.1122C57.705 59.0026 57.388 58.8858 57.0528 58.7618C56.7173 58.644 56.3421 58.5116 55.9273 58.3647C55.9451 58.4371 55.9681 58.5285 55.9963 58.6389C56.0245 58.7492 56.0536 58.8705 56.0837 59.0027C56.1167 59.1382 56.1523 59.2832 56.1905 59.4376C56.2255 59.595 56.2619 59.7539 56.2997 59.9146L56.8931 62.3719L56.8294 62.429C56.5121 62.1475 56.1935 61.8612 55.8736 61.5701C55.5534 61.2853 55.2422 61.0072 54.9399 60.7357C54.6372 60.4705 54.3494 60.2185 54.0764 59.9798C53.8034 59.741 53.557 59.5286 53.3371 59.3425C53.3884 59.3142 53.4334 59.2856 53.4723 59.2566C53.5112 59.2277 53.5503 59.1956 53.5895 59.1604C53.6353 59.1194 53.6796 59.0768 53.7224 59.0325C53.7623 58.9849 53.7875 58.9505 53.798 58.9293C53.9931 59.1141 54.203 59.3121 54.4278 59.5233C54.6525 59.7345 54.8774 59.9427 55.1025 60.1477C55.3243 60.3557 55.539 60.5524 55.7465 60.7378C55.9537 60.9294 56.1403 61.0981 56.3065 61.244L56.3163 61.2352C56.2302 60.8761 56.1543 60.5579 56.0886 60.2808C56.0196 60.0065 55.9569 59.7591 55.9006 59.5384C55.8442 59.3177 55.7929 59.119 55.7465 58.9424C55.6999 58.772 55.6558 58.611 55.6143 58.4595C55.5729 58.308 55.5312 58.1596 55.4894 58.0143C55.4472 57.8752 55.4023 57.7298 55.3547 57.5779L55.3988 57.5384C55.9671 57.7777 56.5392 58.0048 57.115 58.2196C57.6938 58.4377 58.2905 58.6693 58.9052 58.9142L58.915 58.9054C58.3728 58.1297 57.9366 57.5214 57.6062 57.0806C57.2788 56.643 57.0374 56.3376 56.8821 56.1643C56.9268 56.1419 56.9638 56.1206 56.9928 56.1004C57.0187 56.0832 57.0463 56.0614 57.0757 56.035C57.1051 56.0086 57.1314 55.9821 57.1546 55.9554C57.1746 55.9316 57.1982 55.8987 57.2253 55.8566C57.7013 56.5914 58.1607 57.288 58.6036 57.9464C59.0461 58.611 59.4582 59.2055 59.84 59.73L59.7566 59.8047Z" fill="#333333" fill-opacity="0.7"/>
<path d="M55.1206 63.542C54.9364 63.6535 54.765 63.7565 54.6064 63.851C54.4466 63.9516 54.2843 64.0564 54.1196 64.1655C53.9549 64.2746 53.7969 64.3819 53.6456 64.4873C53.4967 64.5965 53.3351 64.7141 53.1606 64.8402C53.1461 64.8024 53.1322 64.7695 53.1188 64.7414C53.1019 64.7158 53.0849 64.6902 53.0679 64.6646C53.0267 64.6024 52.9849 64.5511 52.9424 64.5108C53.0814 64.4345 53.2009 64.3685 53.301 64.3128C53.4034 64.2607 53.5071 64.2026 53.612 64.1384C53.7156 64.0802 53.8309 64.0118 53.9578 63.933C54.0846 63.8543 54.2432 63.7519 54.4336 63.6258C54.3403 63.477 54.2621 63.3471 54.1991 63.2361C54.1325 63.1275 54.0616 63.0165 53.9864 62.903L53.5082 62.1929C53.3801 62.2778 53.2648 62.3541 53.1623 62.422C53.0586 62.496 52.9567 62.5687 52.8567 62.6403C52.7566 62.7118 52.6559 62.7864 52.5546 62.864C52.4497 62.9441 52.335 63.0332 52.2105 63.1315C52.1875 63.073 52.1554 63.0126 52.1142 62.9504C52.073 62.8881 52.0312 62.8369 51.9887 62.7966C52.0313 62.7736 52.0978 62.7348 52.1881 62.6803C52.2808 62.6294 52.3887 62.5658 52.5119 62.4895C52.6339 62.4192 52.7675 62.3386 52.9127 62.2478C53.0578 62.1569 53.2054 62.0617 53.3555 61.9624L52.8774 61.2285C52.8507 61.1883 52.8071 61.1224 52.7465 61.0309C52.6822 60.9418 52.6173 60.8478 52.5519 60.749C52.4864 60.6502 52.427 60.5605 52.3737 60.48C52.3167 60.4019 52.2846 60.3574 52.2773 60.3464L52.1455 60.4337C51.7905 60.6688 51.508 60.8664 51.2981 61.0265C51.0846 61.189 50.9326 61.3134 50.8422 61.3996C50.8047 61.3191 50.7726 61.2587 50.746 61.2185C50.729 61.1928 50.7096 61.1636 50.6878 61.1306C50.6647 61.1038 50.6435 61.0836 50.624 61.0702C50.8082 60.9587 50.9815 60.8545 51.1437 60.7576C51.3035 60.657 51.4658 60.5522 51.6305 60.4431C51.7952 60.334 51.9568 60.2243 52.1154 60.1139C52.2716 60 52.437 59.8799 52.6115 59.7538C52.7605 60.0026 52.9089 60.2466 53.0568 60.4857C53.2034 60.7309 53.3397 60.9486 53.4657 61.139L54.1857 62.226C54.2294 62.2919 54.2766 62.3633 54.3275 62.4401C54.3809 62.5207 54.4433 62.611 54.5149 62.711C54.5888 62.8147 54.6755 62.9337 54.775 63.0679C54.8707 63.2046 54.9859 63.3626 55.1206 63.542Z" fill="#333333" fill-opacity="0.7"/>
<path d="M50.6822 66.2242C50.3975 66.34 50.1288 66.4489 49.8762 66.5506C49.6253 66.6563 49.3713 66.7658 49.1142 66.8792C48.8571 66.9925 48.6049 67.106 48.3576 67.2198C48.1081 67.3393 47.8465 67.4642 47.5728 67.5944C47.5671 67.5489 47.5601 67.5112 47.5518 67.4813C47.5434 67.4514 47.5321 67.4204 47.518 67.3883C47.4932 67.332 47.4557 67.2742 47.4055 67.2148C47.4952 67.1896 47.594 67.1581 47.702 67.1201C47.81 67.0821 47.9231 67.0394 48.0414 66.9921C48.1574 66.9506 48.2737 66.9041 48.3902 66.8528C48.5045 66.8072 48.6158 66.7606 48.7243 66.7128L48.492 66.1531C48.4465 66.0388 48.4025 65.9335 48.36 65.8371C48.3175 65.7406 48.2776 65.6502 48.2405 65.5659L47.7041 64.3486C47.6191 64.1558 47.5177 63.9366 47.3999 63.6911C47.2781 63.4473 47.1448 63.1774 46.9999 62.8814C47.0597 62.8647 47.1155 62.8497 47.1672 62.8365C47.2132 62.821 47.2603 62.8027 47.3085 62.7814C47.3567 62.7602 47.406 62.7361 47.4565 62.709C47.5012 62.6798 47.5458 62.6505 47.5905 62.6212C47.697 62.8957 47.803 63.1632 47.9082 63.4239C48.0095 63.6863 48.1052 63.92 48.1955 64.1248L48.7346 65.3481C48.7736 65.4365 48.8143 65.5289 48.8568 65.6253C48.8992 65.7217 48.9473 65.8253 49.0009 65.936L49.2546 66.4791C49.4956 66.3729 49.7311 66.2595 49.9611 66.139C50.1887 66.0242 50.3734 65.9261 50.5149 65.8445C50.5249 65.9217 50.5432 65.9904 50.5698 66.0506C50.5839 66.0828 50.6012 66.1111 50.6217 66.1357C50.6381 66.1621 50.6583 66.1915 50.6822 66.2242Z" fill="#333333" fill-opacity="0.7"/>
<path d="M45.4231 65.959C45.3347 65.6328 45.2158 65.3534 45.0664 65.121C44.9182 64.8928 44.7442 64.7125 44.5446 64.5801C44.345 64.4477 44.1245 64.3642 43.8831 64.3296C43.6429 64.2991 43.3872 64.3207 43.116 64.3942C42.8448 64.4677 42.6132 64.5782 42.4212 64.7257C42.2262 64.8787 42.0759 65.0627 41.9704 65.2777C41.865 65.4928 41.8059 65.7362 41.7931 66.008C41.7815 66.2841 41.8199 66.5853 41.9083 66.9115C42.0851 67.5641 42.378 68.0237 42.7869 68.2904C43.1969 68.5614 43.6773 68.6222 44.2282 68.473C44.4951 68.4006 44.7246 68.2907 44.9166 68.1431C45.1086 67.9956 45.2573 67.8143 45.3627 67.5992C45.4682 67.3841 45.5267 67.1386 45.5384 66.8625C45.55 66.5865 45.5116 66.2853 45.4231 65.959ZM44.2855 68.7099C43.9296 68.8063 43.5911 68.8412 43.27 68.8145C42.9501 68.792 42.6599 68.7115 42.3994 68.5728C42.1348 68.4353 41.9067 68.2401 41.7154 67.9872C41.5252 67.7386 41.3819 67.4363 41.2854 67.0803C41.189 66.7244 41.1595 66.389 41.1969 66.0741C41.2356 65.7634 41.3344 65.4819 41.4934 65.2296C41.6483 64.9784 41.8575 64.7602 42.1212 64.5751C42.386 64.3941 42.6963 64.2555 43.0523 64.159C43.404 64.0637 43.7398 64.0273 44.0597 64.0497C44.3754 64.0733 44.6656 64.1539 44.9303 64.2914C45.1907 64.4301 45.4182 64.6231 45.6126 64.8706C45.804 65.1235 45.9484 65.4301 46.046 65.7902C46.1402 66.1377 46.1701 66.4662 46.1357 66.7757C46.1013 67.0852 46.0088 67.365 45.8583 67.615C45.7046 67.8705 45.4959 68.0907 45.2323 68.2759C44.9655 68.4665 44.6499 68.6111 44.2855 68.7099Z" fill="#333333" fill-opacity="0.7"/>
<path d="M37.7837 66.7248C37.7752 66.567 37.7609 66.3831 37.7407 66.1732C37.7208 65.9676 37.6994 65.7336 37.6764 65.471C37.5882 65.467 37.4869 65.4637 37.3725 65.4611C37.2539 65.4631 37.1442 65.4668 37.0433 65.4723C36.8855 65.4808 36.7423 65.5149 36.6136 65.5747C36.4849 65.6344 36.3772 65.7149 36.2903 65.8164C36.1994 65.9224 36.1311 66.0426 36.0856 66.177C36.0404 66.3157 36.0222 66.4684 36.0312 66.6349C36.0429 66.8497 36.1029 67.0246 36.2113 67.1594C36.2633 67.2269 36.3279 67.2828 36.405 67.327C36.4778 67.3714 36.5698 67.406 36.681 67.4307C36.7925 67.4599 36.9275 67.4768 37.086 67.4814C37.2404 67.4906 37.425 67.4894 37.6398 67.4778L37.8239 67.4679L37.7837 66.7248ZM37.8918 69.4558C37.8856 69.2583 37.8832 69.0518 37.8847 68.8363C37.8819 68.621 37.8761 68.4323 37.8673 68.2701L37.8371 67.7112L37.4557 67.7318C37.3066 67.7399 37.1606 67.7631 37.0176 67.8016C36.8702 67.8404 36.7414 67.8979 36.6313 67.9742C36.5169 68.0551 36.428 68.1589 36.3645 68.2854C36.2966 68.4122 36.2675 68.5654 36.2773 68.7452C36.2917 69.0126 36.386 69.2119 36.5602 69.3432C36.7346 69.4788 37.0191 69.536 37.4136 69.5147C37.4925 69.5104 37.5735 69.5038 37.6565 69.4949C37.7352 69.4863 37.8136 69.4733 37.8918 69.4558ZM38.538 69.6979C38.4587 69.6934 38.3508 69.6904 38.2144 69.689C38.0739 69.6922 37.951 69.6966 37.8458 69.7023C37.7275 69.7087 37.6115 69.7194 37.498 69.7343C37.3804 69.7539 37.2624 69.7669 37.144 69.7733C36.6662 69.7991 36.3112 69.7391 36.0791 69.5934C35.847 69.4477 35.7224 69.217 35.7054 68.9014C35.6897 68.6121 35.7686 68.3638 35.9421 68.1566C36.1114 67.954 36.38 67.7988 36.7478 67.6909L36.7471 67.6778C36.2896 67.6717 35.9594 67.5819 35.7565 67.4082C35.5539 67.2389 35.4427 66.9701 35.4227 66.6019C35.4121 66.4046 35.4463 66.2247 35.5255 66.0622C35.6002 65.8998 35.709 65.7577 35.8519 65.6356C35.995 65.518 36.1658 65.423 36.3641 65.3507C36.5627 65.2828 36.7803 65.2425 37.017 65.2297C37.1222 65.224 37.23 65.2248 37.3403 65.232C37.446 65.2351 37.5536 65.2337 37.6632 65.2277C37.7597 65.2225 37.8604 65.2149 37.9653 65.2048C38.0703 65.1947 38.1794 65.18 38.2927 65.1607C38.2952 65.4508 38.2996 65.7363 38.306 66.0173C38.3083 66.303 38.3156 66.5598 38.3279 66.7877L38.3983 68.0897C38.4005 68.1292 38.407 68.2101 38.418 68.3326C38.4291 68.4551 38.441 68.5952 38.454 68.7528C38.4669 68.9103 38.4823 69.0744 38.5004 69.2449C38.514 69.4156 38.5265 69.5666 38.538 69.6979Z" fill="#333333" fill-opacity="0.7"/>
<path d="M33.8332 69.8129C33.6192 69.7901 33.4204 69.7682 33.237 69.7474C33.0489 69.7306 32.8563 69.7158 32.6592 69.7028C32.4621 69.6899 32.2713 69.6795 32.0871 69.6718C31.9025 69.6685 31.7026 69.6642 31.4874 69.6588C31.4987 69.62 31.5076 69.5854 31.514 69.555C31.516 69.5243 31.518 69.4937 31.52 69.463C31.5249 69.3885 31.5227 69.3224 31.5133 69.2646C31.6701 69.2881 31.8052 69.3079 31.9185 69.3242C32.0316 69.3448 32.1493 69.3613 32.2716 69.3738C32.3893 69.3903 32.5225 69.4057 32.6712 69.4198C32.8198 69.434 33.0081 69.4485 33.2358 69.4635C33.2517 69.2886 33.2682 69.1379 33.2853 69.0114C33.2981 68.8846 33.3089 68.7534 33.3178 68.6176L33.3673 67.7629C33.214 67.7528 33.076 67.7438 32.9534 67.7357C32.826 67.7317 32.7009 67.7279 32.578 67.7243C32.455 67.7206 32.3297 67.7189 32.2021 67.7194C32.0701 67.7195 31.9248 67.721 31.7663 67.7237C31.7834 67.6633 31.7945 67.5958 31.7994 67.5213C31.8042 67.4469 31.802 67.3807 31.7926 67.3229C31.8405 67.3304 31.9169 67.3399 32.0217 67.3511C32.1263 67.3668 32.2507 67.3816 32.395 67.3955C32.5346 67.4134 32.6897 67.4302 32.8602 67.4458C33.0308 67.4614 33.2059 67.4751 33.3855 67.4869L33.4494 66.6134C33.4526 66.5652 33.4578 66.4864 33.465 66.3768C33.4678 66.267 33.4731 66.153 33.4809 66.0347C33.4886 65.9164 33.4957 65.8091 33.502 65.7127C33.5039 65.6161 33.5054 65.5612 33.5062 65.548L33.3485 65.5377C32.9236 65.5098 32.5791 65.4959 32.3151 65.4962C32.0468 65.4962 31.8505 65.5031 31.7264 65.5169C31.7453 65.4302 31.7564 65.3627 31.7595 65.3145C31.7615 65.2839 31.7638 65.2488 31.7664 65.2094C31.7643 65.174 31.7596 65.1451 31.7523 65.1227C31.9664 65.1455 32.1673 65.1675 32.3551 65.1887C32.5432 65.2054 32.7358 65.2203 32.933 65.2332C33.1301 65.2461 33.3252 65.2568 33.5182 65.265C33.7115 65.2689 33.9158 65.2736 34.131 65.2789C34.0989 65.5672 34.0693 65.8512 34.0421 66.131C34.0102 66.4149 33.9868 66.6707 33.9719 66.8985L33.8864 68.1996C33.8812 68.2784 33.8756 68.3638 33.8696 68.4558C33.8633 68.5522 33.8582 68.6619 33.8546 68.7848C33.8506 68.9121 33.8475 69.0593 33.8454 69.2264C33.8388 69.3931 33.8348 69.5886 33.8332 69.8129Z" fill="#333333" fill-opacity="0.7"/>
<path d="M30.2968 69.5226C30.2459 69.5084 30.154 69.4864 30.0211 69.4566C29.8839 69.426 29.736 69.3933 29.5772 69.3585C29.4177 69.3281 29.2607 69.2959 29.1063 69.262C28.9467 69.2316 28.8173 69.2069 28.7182 69.188L27.5603 68.9671C27.5085 68.9572 27.4477 68.9479 27.3779 68.939C27.3038 68.9294 27.2344 68.9184 27.1697 68.906C27.1042 68.898 27.0473 68.8916 26.999 68.8869C26.9465 68.8813 26.9159 68.8777 26.9073 68.8761L26.9295 68.7596C27.0757 68.649 27.2923 68.4624 27.5793 68.1998C27.8619 67.9364 28.2175 67.5953 28.646 67.1764C29.0745 66.7576 29.4462 66.3905 29.7611 66.0752C30.0708 65.7633 30.325 65.4967 30.5237 65.2754C30.515 65.2737 30.4598 65.2587 30.3579 65.2303C30.251 65.2055 30.1263 65.1795 29.984 65.1523C29.8288 65.1227 29.6386 65.0887 29.4135 65.0502C29.1876 65.0161 28.9613 64.9841 28.7346 64.9542C28.5079 64.9244 28.2985 64.8979 28.1062 64.8746C27.914 64.8513 27.7714 64.8376 27.6784 64.8332C27.6936 64.8004 27.7088 64.7675 27.724 64.7347C27.7349 64.701 27.744 64.6647 27.7514 64.6259C27.758 64.5914 27.7624 64.5565 27.7647 64.5212C27.7618 64.4894 27.7598 64.4532 27.7586 64.4128C28.0157 64.4707 28.2279 64.5179 28.3953 64.5543C28.5583 64.5899 28.6933 64.6201 28.8003 64.645C28.9081 64.6655 28.9965 64.6824 29.0655 64.6956C29.1345 64.7087 29.2014 64.7215 29.2661 64.7338C29.4342 64.7659 29.6175 64.8008 29.8159 64.8387C30.0151 64.8722 30.2117 64.9075 30.4058 64.9445C30.6006 64.9772 30.7869 65.0082 30.9645 65.0377C31.1422 65.0671 31.2918 65.0911 31.4133 65.1099L31.3924 65.2198C31.2139 65.3824 31.0153 65.568 30.7968 65.7766C30.5782 65.9852 30.3533 66.2038 30.122 66.4323C29.8864 66.66 29.6529 66.888 29.4216 67.1166C29.186 67.3442 28.9658 67.5615 28.761 67.7682C28.5562 67.975 28.3732 68.1613 28.212 68.3272C28.0464 68.4922 27.9163 68.6238 27.8216 68.722C27.8431 68.7261 27.8945 68.7381 27.9756 68.7581C28.0524 68.7772 28.1533 68.7987 28.2784 68.8225C28.7225 68.9072 29.1278 68.9734 29.4942 69.0209C29.8562 69.0676 30.1492 69.1012 30.3733 69.1215C30.3377 69.1907 30.3142 69.2555 30.3027 69.3159C30.2961 69.3504 30.2943 69.3836 30.2971 69.4154C30.2949 69.4507 30.2948 69.4864 30.2968 69.5226Z" fill="#333333" fill-opacity="0.7"/>
<path d="M25.6462 65.9214C25.5714 65.8959 25.4765 65.8612 25.3616 65.8174C25.2467 65.7735 25.1145 65.7261 24.9649 65.675C24.9275 65.6622 24.8818 65.6466 24.8278 65.6282C24.7723 65.6139 24.7135 65.5962 24.6511 65.5749C24.5847 65.5522 24.5203 65.5302 24.4579 65.509C24.3901 65.4904 24.3291 65.4719 24.2751 65.4535L24.4266 67.2726L25.6462 65.9214ZM23.9338 68.0437L23.7923 65.9915C23.7399 65.1665 23.6919 64.4983 23.6483 63.9871C23.6034 63.4801 23.5716 63.1584 23.5532 63.0223C23.6071 63.0546 23.6603 63.082 23.7129 63.1046C23.7614 63.1258 23.8147 63.1463 23.8728 63.1662C23.931 63.186 23.9899 63.2038 24.0495 63.2195C24.1063 63.2296 24.1611 63.239 24.2138 63.2477C24.2036 63.5087 24.2077 63.8023 24.2262 64.1287C24.2433 64.4592 24.2631 64.7954 24.2857 65.137C24.4158 65.1907 24.5494 65.241 24.6865 65.2878C24.8236 65.3346 24.9587 65.3806 25.0916 65.426C25.2204 65.47 25.352 65.5126 25.4864 65.5538C25.6166 65.5936 25.7419 65.634 25.8624 65.6752C26.022 65.4931 26.1634 65.3302 26.2866 65.1867C26.4056 65.0418 26.5128 64.9114 26.608 64.7954C26.6991 64.6781 26.7797 64.5711 26.8498 64.4744C26.9185 64.3819 26.9809 64.2941 27.037 64.2112C27.0784 64.2393 27.1172 64.2618 27.1531 64.2787C27.185 64.2942 27.2196 64.3083 27.257 64.3211C27.2943 64.3339 27.3324 64.3446 27.3713 64.3532C27.4101 64.3618 27.4524 64.3669 27.4982 64.3686C27.273 64.6072 27.0134 64.8851 26.7196 65.2023C26.4217 65.5181 26.1174 65.8457 25.8067 66.185C25.4919 66.5229 25.1834 66.8559 24.8812 67.1842C24.5734 67.5152 24.2971 67.8152 24.0522 68.0842L23.9338 68.0437Z" fill="#333333" fill-opacity="0.7"/>
<path d="M20.8532 66.7413C20.8019 66.7063 20.7565 66.6743 20.717 66.6451C20.6716 66.618 20.6253 66.5928 20.578 66.5696C20.5307 66.5464 20.4824 66.5252 20.4332 66.5059C20.3781 66.4887 20.3249 66.4724 20.2738 66.4571C20.359 66.3033 20.4394 66.1594 20.5149 66.0253C20.5846 65.8932 20.6533 65.7631 20.721 65.6349C20.7868 65.5107 20.8526 65.3865 20.9184 65.2623C20.9803 65.1362 21.0441 65.0061 21.1098 64.8721C21.1562 64.7775 21.2113 64.6652 21.2751 64.5351C21.3389 64.405 21.4075 64.2651 21.481 64.1153C21.5486 63.9676 21.6191 63.8188 21.6926 63.669C21.7621 63.5173 21.8297 63.3744 21.8954 63.2404C21.9553 63.1084 22.0103 62.9912 22.0606 62.8887C22.1089 62.7901 22.1447 62.7172 22.1679 62.6699L22.0201 62.5974C21.8309 62.5046 21.6644 62.4254 21.5205 62.3598C21.3767 62.2941 21.2467 62.2352 21.1304 62.1831C21.0123 62.1349 20.9039 62.0916 20.8055 62.0531C20.7051 62.0185 20.6027 61.983 20.4984 61.9465C20.5237 61.9148 20.547 61.8872 20.5684 61.8635C20.5859 61.8378 20.6014 61.8112 20.6149 61.7836C20.6401 61.7323 20.6592 61.6684 20.6724 61.5917C20.7847 61.6517 20.8872 61.7069 20.9799 61.7572C21.0726 61.8076 21.1613 61.856 21.2461 61.9024C21.3289 61.943 21.4107 61.9856 21.4915 62.0301C21.5743 62.0707 21.659 62.1123 21.7457 62.1548C21.9271 62.2438 22.1093 62.3307 22.2926 62.4157C22.4738 62.4948 22.661 62.5768 22.854 62.6617C22.7146 62.9161 22.5791 63.1674 22.4475 63.4158C22.3119 63.6623 22.1939 63.888 22.0934 64.093L21.5192 65.2636C21.4187 65.4686 21.3125 65.7001 21.2006 65.9582C21.0848 66.2143 20.969 66.4753 20.8532 66.7413Z" fill="#333333" fill-opacity="0.7"/>
<path d="M15.8365 63.9837C15.7929 63.9395 15.7546 63.8993 15.7215 63.863C15.6822 63.8276 15.6417 63.794 15.5997 63.762C15.5578 63.7301 15.5146 63.7 15.47 63.6715C15.4193 63.644 15.3703 63.6177 15.3231 63.5928C15.5304 63.3423 15.715 63.1215 15.8771 62.9304C16.0357 62.7366 16.1908 62.5402 16.3424 62.3411L16.5379 62.0843C16.001 61.659 15.64 61.3758 15.4548 61.2348C15.2697 61.0939 14.9007 60.8212 14.3479 60.4168L14.2242 60.5792C14.1258 60.7084 14.0424 60.8215 13.9741 60.9185C13.9023 61.0128 13.8323 61.1084 13.7639 61.2054C13.693 61.3058 13.6171 61.4164 13.5363 61.537C13.4494 61.6584 13.3429 61.8091 13.2169 61.989C13.1733 61.9448 13.135 61.9046 13.1019 61.8683C13.0626 61.8329 13.022 61.7993 12.9801 61.7673C12.9382 61.7354 12.895 61.7053 12.8504 61.6768C12.7997 61.6492 12.7507 61.623 12.7035 61.5981C12.8921 61.372 13.0768 61.1512 13.2575 60.9356C13.4347 60.7174 13.5911 60.5193 13.7268 60.3411L14.5167 59.3038C14.6523 59.1256 14.8031 58.9204 14.969 58.688C15.1287 58.4565 15.2911 58.2215 15.4562 57.983C15.4936 58.028 15.5319 58.0683 15.5712 58.1037C15.6104 58.1391 15.651 58.1728 15.6929 58.2047C15.7349 58.2366 15.7781 58.2668 15.8227 58.2952C15.8638 58.3209 15.9127 58.3472 15.9696 58.374C15.7836 58.5965 15.602 58.8169 15.4248 59.0351C15.2441 59.2507 15.0846 59.4493 14.9463 59.6309L14.5354 60.1705C14.5249 60.1625 14.5616 60.1905 14.6454 60.2543C14.7266 60.3216 14.8265 60.4005 14.9453 60.4909C15.0641 60.5814 15.188 60.6758 15.3173 60.7742C15.4439 60.8761 15.5456 60.9563 15.6224 61.0148C15.6888 61.0653 15.8141 61.158 15.9984 61.2928C16.1765 61.4284 16.4188 61.6102 16.7254 61.8381L17.1363 61.2985C17.2719 61.1203 17.4227 60.9151 17.5886 60.6827C17.7483 60.4512 17.9107 60.2162 18.0758 59.9777C18.1132 60.0228 18.1515 60.063 18.1908 60.0984C18.2301 60.1338 18.2706 60.1675 18.3126 60.1994C18.3545 60.2313 18.3977 60.2615 18.4423 60.2899C18.4834 60.3157 18.5323 60.3419 18.5892 60.3687C18.4032 60.5912 18.2216 60.8116 18.0444 61.0298C17.8637 61.2454 17.7042 61.444 17.5659 61.6256L16.776 62.663C16.6377 62.8446 16.4887 63.0512 16.3289 63.2827C16.1657 63.5115 16.0016 63.7452 15.8365 63.9837Z" fill="#333333" fill-opacity="0.7"/>
<path d="M12.7086 58.5331C12.9562 58.3029 13.148 58.0676 13.2841 57.8271C13.417 57.5897 13.4956 57.3518 13.5197 57.1135C13.5439 56.8752 13.5152 56.6411 13.4334 56.4114C13.3485 56.1847 13.2104 55.9684 13.019 55.7626C12.8277 55.5569 12.6221 55.4034 12.4021 55.3022C12.1759 55.2008 11.9431 55.1535 11.7036 55.1603C11.4642 55.1672 11.2212 55.2282 10.9748 55.3435C10.7251 55.4618 10.4764 55.636 10.2289 55.8662C9.73376 56.3266 9.46339 56.7998 9.41777 57.2859C9.36893 57.7749 9.53882 58.2284 9.92745 58.6463C10.1158 58.8489 10.3199 59.0007 10.5399 59.1019C10.7599 59.2031 10.9896 59.2503 11.2291 59.2435C11.4685 59.2366 11.7131 59.1741 11.9628 59.0558C12.2125 58.9375 12.4611 58.7633 12.7086 58.5331ZM9.74454 58.8074C9.49342 58.5374 9.30491 58.254 9.17902 57.9575C9.0499 57.6639 8.98605 57.3696 8.98746 57.0745C8.98587 56.7763 9.05243 56.4836 9.18712 56.1965C9.31859 55.9124 9.51936 55.6447 9.78942 55.3936C10.0595 55.1425 10.3426 54.9602 10.6387 54.8467C10.9316 54.7362 11.2267 54.6926 11.5241 54.7158C11.8185 54.7358 12.109 54.8194 12.3956 54.9665C12.6791 55.1166 12.9463 55.3267 13.1975 55.5967C13.4456 55.8636 13.6342 56.1438 13.7633 56.4374C13.8894 56.7277 13.9533 57.0221 13.9549 57.3203C13.9535 57.6154 13.8885 57.9066 13.76 58.1939C13.6254 58.481 13.4214 58.7516 13.1481 59.0057C12.8845 59.2508 12.6077 59.4303 12.3178 59.544C12.0279 59.6577 11.7372 59.7061 11.4458 59.6893C11.1482 59.6723 10.8561 59.5902 10.5695 59.4431C10.2766 59.2958 10.0016 59.0839 9.74454 58.8074Z" fill="#333333" fill-opacity="0.7"/>
<path d="M6.88887 55.3858C7.06667 55.1009 7.23387 54.828 7.39045 54.5671C7.54334 54.3085 7.69942 54.0427 7.8587 53.7696C8.01563 53.4929 8.18265 53.1993 8.35978 52.8888C8.53085 52.5771 8.7228 52.2286 8.93562 51.8434C8.86121 51.8491 8.76727 51.8569 8.6538 51.8666C8.54033 51.8764 8.41591 51.8853 8.28056 51.8934C8.14149 51.9038 7.99267 51.9152 7.83408 51.9277C7.67313 51.9364 7.51033 51.9463 7.34568 51.9574L4.8244 52.1411L4.77844 52.0689C5.1081 51.8019 5.44264 51.5344 5.78206 51.2664C6.11542 50.9971 6.44069 50.7355 6.75789 50.4816C7.06903 50.2264 7.36467 49.9836 7.64483 49.7534C7.92499 49.5231 8.17484 49.3147 8.39438 49.1281C8.41391 49.1834 8.43478 49.2325 8.457 49.2756C8.47922 49.3187 8.50447 49.3625 8.53275 49.4069C8.56574 49.4588 8.60059 49.5095 8.63729 49.559C8.67769 49.6061 8.70749 49.6366 8.72668 49.6504C8.51252 49.8127 8.28287 49.9874 8.03774 50.1746C7.7926 50.3618 7.5505 50.5497 7.31142 50.7382C7.06999 50.923 6.84085 51.1027 6.62399 51.2771C6.40108 51.4501 6.2041 51.6067 6.03304 51.7467L6.04011 51.7578C6.40847 51.7316 6.73474 51.7087 7.01892 51.6892C7.30075 51.666 7.55514 51.6446 7.78208 51.6251C8.00902 51.6056 8.2134 51.5874 8.39523 51.5706C8.57099 51.5525 8.73699 51.5353 8.89322 51.5191C9.04945 51.503 9.20266 51.4862 9.35283 51.4687C9.49694 51.4498 9.64779 51.4293 9.80537 51.4071L9.83719 51.4571C9.50819 51.9786 9.19064 52.5059 8.88453 53.0389C8.57472 53.5742 8.24875 54.1251 7.90662 54.6914L7.91369 54.7025C8.76761 54.2944 9.43903 53.9635 9.92794 53.7097C10.4132 53.4582 10.7539 53.27 10.9502 53.1451C10.965 53.1929 10.98 53.2328 10.9952 53.2648C11.008 53.2931 11.025 53.3239 11.0462 53.3572C11.0674 53.3905 11.0893 53.4209 11.1118 53.4481C11.132 53.4717 11.1606 53.5003 11.1977 53.534C10.3949 53.8834 9.63262 54.2228 8.91069 54.552C8.18271 54.8799 7.5288 55.1893 6.94897 55.4802L6.88887 55.3858Z" fill="#333333" fill-opacity="0.7"/>
<path d="M3.96171 50.2045C3.88225 50.0044 3.80904 49.8183 3.74208 49.6463C3.66932 49.472 3.59277 49.2947 3.51244 49.1142C3.4321 48.9337 3.35243 48.7601 3.27344 48.5935C3.19043 48.4286 3.10118 48.2497 3.00568 48.0567C3.04535 48.0487 3.08011 48.0404 3.10997 48.0319C3.13805 48.0194 3.16612 48.0069 3.1942 47.9944C3.26238 47.9641 3.31986 47.9313 3.36665 47.896C3.41888 48.0458 3.4642 48.1746 3.5026 48.2824C3.53698 48.3921 3.57717 48.5039 3.62314 48.618C3.66332 48.7299 3.71176 48.8549 3.76845 48.993C3.82514 49.1312 3.8999 49.3045 3.99274 49.5131C4.15495 49.4457 4.296 49.3901 4.41588 49.3464C4.53398 49.2986 4.65519 49.247 4.77953 49.1917L5.55894 48.8375C5.49646 48.6972 5.44022 48.5708 5.39023 48.4585C5.33445 48.344 5.27955 48.2315 5.22556 48.121C5.17156 48.0105 5.11466 47.8988 5.05486 47.7861C4.99328 47.6693 4.92434 47.5414 4.84804 47.4024C4.90954 47.3894 4.97439 47.3678 5.04257 47.3374C5.11075 47.3071 5.16824 47.2743 5.21502 47.2391C5.23065 47.285 5.25788 47.3569 5.29672 47.455C5.33154 47.5548 5.37641 47.6718 5.43131 47.8059C5.48042 47.9378 5.53778 48.0829 5.6034 48.2411C5.66901 48.3993 5.73842 48.5606 5.81162 48.7251L6.61444 48.3749C6.65856 48.3553 6.73075 48.3231 6.83102 48.2785C6.9295 48.2299 7.03289 48.1814 7.14118 48.1332C7.24947 48.085 7.34773 48.0413 7.43596 48.002C7.52242 47.9587 7.57166 47.9344 7.58369 47.9291L7.51942 47.7847C7.34624 47.3956 7.19808 47.0844 7.07492 46.8509C6.94997 46.6133 6.85248 46.4429 6.78243 46.3395C6.868 46.3159 6.93285 46.2942 6.97697 46.2746C7.00504 46.2621 7.03713 46.2478 7.07322 46.2317C7.10352 46.2134 7.12692 46.1958 7.1434 46.1788C7.22286 46.3789 7.29696 46.567 7.36571 46.743C7.43846 46.9173 7.51501 47.0947 7.59535 47.2751C7.67569 47.4556 7.75714 47.6332 7.8397 47.8079C7.92628 47.9808 8.01732 48.1637 8.11282 48.3567C7.84275 48.4625 7.57759 48.5685 7.31733 48.6747C7.05128 48.7787 6.81398 48.8772 6.60542 48.97L5.41423 49.5002C5.34204 49.5324 5.26383 49.5672 5.1796 49.6047C5.09137 49.644 4.99199 49.6906 4.88147 49.7446C4.76695 49.8004 4.63527 49.8662 4.48643 49.9421C4.33581 50.0139 4.1609 50.1014 3.96171 50.2045Z" fill="#333333" fill-opacity="0.7"/>
<path d="M2.09988 45.7075C2.03483 45.507 2.00364 45.3256 2.00632 45.1632C2.00482 45.0022 2.03385 44.8427 2.09341 44.6849C2.18213 44.7023 2.27022 44.7106 2.35769 44.7099C2.4438 44.7051 2.54939 44.6962 2.67444 44.6833L2.69883 44.7585C2.3551 45.0362 2.23948 45.3483 2.35196 45.6949C2.4292 45.9329 2.56529 46.1034 2.76023 46.2063C2.95517 46.3092 3.16538 46.324 3.39087 46.2508C3.49527 46.217 3.58656 46.1712 3.66477 46.1135C3.7388 46.0572 3.80187 45.9813 3.854 45.8859C3.90477 45.7864 3.94391 45.6652 3.97142 45.5224C3.99758 45.3755 4.01498 45.1944 4.02363 44.9793C4.03363 44.7683 4.05589 44.588 4.09039 44.4384C4.12355 44.2845 4.17109 44.1537 4.23303 44.0459C4.29498 43.9381 4.37481 43.8499 4.47254 43.7813C4.56891 43.7084 4.68391 43.6504 4.81753 43.607C5.01797 43.5419 5.21807 43.5185 5.41785 43.5368C5.61209 43.5522 5.79421 43.6085 5.9642 43.7056C6.13284 43.7986 6.28314 43.9275 6.41511 44.0924C6.54709 44.2573 6.65034 44.4545 6.72487 44.6842C6.78992 44.8846 6.82241 45.0772 6.82233 45.2618C6.8209 45.4423 6.78121 45.6329 6.70326 45.8336C6.62279 45.8274 6.54017 45.8288 6.45541 45.8378C6.36929 45.8427 6.25322 45.8619 6.10718 45.8955L6.08278 45.8203C6.25622 45.6579 6.3743 45.4741 6.43701 45.2692C6.4942 45.0614 6.4862 44.8447 6.41302 44.6192C6.37101 44.4898 6.3115 44.3776 6.23451 44.2825C6.15199 44.1847 6.05818 44.109 5.95309 44.0554C5.84383 44.0032 5.72814 43.9738 5.60602 43.9673C5.47837 43.9579 5.34773 43.9749 5.21411 44.0183C5.00114 44.0874 4.85094 44.2077 4.76351 44.3792C4.67472 44.5464 4.6229 44.7779 4.60806 45.0735C4.5967 45.2803 4.57992 45.4703 4.55772 45.6437C4.52999 45.8142 4.48504 45.9673 4.42288 46.1028C4.36072 46.2384 4.27581 46.3537 4.16815 46.4486C4.05632 46.5449 3.90854 46.6229 3.72481 46.6825C3.54525 46.7408 3.37156 46.7602 3.20373 46.7408C3.03589 46.7214 2.88289 46.6696 2.74473 46.5852C2.60104 46.4979 2.47494 46.3796 2.36645 46.2302C2.25378 46.0822 2.16493 45.9079 2.09988 45.7075Z" fill="#333333" fill-opacity="0.7"/>
<path d="M0.49127 37.4496C0.501471 37.3972 0.51173 37.3426 0.522049 37.2858C0.527979 37.2288 0.531656 37.174 0.533079 37.1214C0.534621 37.0643 0.533909 37.0094 0.530944 36.9566C0.523709 36.8993 0.516414 36.8442 0.50906 36.7913C0.827169 36.7209 1.13211 36.6501 1.42389 36.5789C1.71567 36.5077 2.01634 36.4324 2.32591 36.3529C2.63121 36.269 2.95644 36.1789 3.30159 36.0829C3.64235 35.9867 4.02077 35.8783 4.43685 35.7578L4.43721 35.7447L1.78203 34.7836C1.53413 34.6934 1.31222 34.6172 1.11627 34.5548C0.920331 34.4924 0.73963 34.4348 0.574171 34.382C0.598485 34.2948 0.611473 34.2205 0.613133 34.1591C0.614912 34.0933 0.605839 34.0228 0.585912 33.9476C0.798222 33.8918 1.05703 33.822 1.36233 33.738C1.66336 33.6495 1.9887 33.5551 2.33836 33.4547C2.68814 33.35 3.0512 33.2412 3.42754 33.1284C3.7995 33.0155 4.16262 32.9046 4.51691 32.7956L4.51726 32.7824C4.47824 32.7638 4.36734 32.7234 4.18456 32.6614C4.00191 32.595 3.78218 32.5188 3.5254 32.4328C3.26861 32.3468 2.99225 32.2537 2.69632 32.1535C2.396 32.0531 2.11086 31.9598 1.84091 31.8734C1.56668 31.7826 1.32288 31.7035 1.10951 31.6363C0.89174 31.5689 0.739268 31.5231 0.65209 31.4988C0.666442 31.4552 0.676286 31.416 0.681623 31.381C0.687079 31.3416 0.690341 31.3022 0.691409 31.2627C0.692832 31.21 0.683876 31.1351 0.664543 31.038C0.790387 31.0941 1.03804 31.193 1.40751 31.3347C1.77259 31.4763 2.27686 31.6678 2.92031 31.9092C3.56815 32.1507 4.07687 32.3401 4.44645 32.4775C4.81616 32.6104 5.05539 32.6959 5.16416 32.734C5.15431 32.7733 5.14453 32.8103 5.1348 32.8452C5.12946 32.8802 5.12626 32.9174 5.12519 32.9569C5.12353 33.0184 5.13249 33.0933 5.15206 33.1816C4.92635 33.2458 4.66523 33.32 4.36871 33.4042C4.07218 33.4884 3.74245 33.5827 3.37951 33.6871L1.34738 34.2909L1.34703 34.3041C1.52091 34.3703 1.74478 34.4554 2.01865 34.5594C2.29252 34.6634 2.62516 34.7866 3.01657 34.9289L5.08428 35.6897C5.05997 35.7769 5.04698 35.8512 5.04532 35.9126C5.04342 35.9828 5.05226 36.0621 5.07183 36.1505C4.47024 36.3099 3.87512 36.4739 3.28647 36.6424C2.69781 36.811 2.10257 36.9793 1.50075 37.1475C1.25737 37.2156 1.04933 37.2758 0.876631 37.3283C0.703936 37.3807 0.575483 37.4211 0.49127 37.4496Z" fill="#333333" fill-opacity="0.7"/>
<path d="M0.96073 29.8392C1.00886 29.6294 1.05416 29.4347 1.09665 29.255C1.13562 29.0703 1.17325 28.8808 1.20952 28.6866C1.24579 28.4924 1.2787 28.3043 1.30823 28.1222C1.33346 27.9393 1.3615 27.7414 1.39236 27.5283C1.42959 27.5442 1.46291 27.5571 1.49231 27.5671C1.52252 27.5727 1.55273 27.5783 1.58294 27.584C1.6563 27.5977 1.72224 27.6033 1.78076 27.6008C1.7388 27.7538 1.70302 27.8855 1.67343 27.9961C1.63953 28.1059 1.60913 28.2208 1.58225 28.3409C1.55186 28.4558 1.5208 28.5862 1.48908 28.7321C1.45736 28.878 1.42054 29.0632 1.37863 29.2876C1.55044 29.3241 1.69812 29.3584 1.82165 29.3904C1.946 29.4181 2.07506 29.4445 2.20884 29.4694L3.05157 29.6202C3.07978 29.4691 3.10517 29.3332 3.12774 29.2123C3.1468 29.0864 3.16546 28.9626 3.18371 28.8409C3.20197 28.7193 3.21846 28.5951 3.23321 28.4683C3.24876 28.3373 3.26457 28.1928 3.28064 28.0351C3.33864 28.0593 3.40432 28.0783 3.47768 28.092C3.55105 28.1057 3.61699 28.1113 3.67551 28.1088C3.66233 28.1555 3.64391 28.2302 3.62025 28.333C3.59227 28.4349 3.56282 28.5567 3.53191 28.6983C3.49749 28.8348 3.4624 28.9868 3.42665 29.1543C3.3909 29.3218 3.3565 29.494 3.32345 29.6709L4.18318 29.8382C4.23065 29.8471 4.30833 29.8616 4.41622 29.8817C4.52491 29.8976 4.63752 29.9164 4.75404 29.9381C4.87056 29.9599 4.97629 29.9796 5.07123 29.9974C5.16698 30.0108 5.22132 30.0187 5.23427 30.0211L5.26329 29.8658C5.34147 29.4472 5.39611 29.1068 5.42722 28.8446C5.45912 28.5782 5.47557 28.3825 5.47656 28.2576C5.56045 28.2867 5.62614 28.3057 5.67361 28.3145C5.70381 28.3202 5.73834 28.3266 5.77718 28.3339C5.81251 28.336 5.84177 28.3348 5.86496 28.3302C5.81683 28.54 5.77112 28.7369 5.72783 28.9209C5.68886 29.1056 5.65123 29.2951 5.61496 29.4893C5.57869 29.6835 5.54498 29.876 5.51383 30.0666C5.48699 30.2581 5.45814 30.4604 5.42728 30.6735C5.14487 30.6074 4.86638 30.5442 4.5918 30.484C4.31371 30.4186 4.06246 30.365 3.83806 30.3231L2.55635 30.0837C2.47867 30.0692 2.39452 30.0535 2.30389 30.0365C2.20895 30.0188 2.10066 30.0008 1.97902 29.9825C1.85307 29.9635 1.70729 29.943 1.54169 29.921C1.37689 29.8946 1.18324 29.8674 0.96073 29.8392Z" fill="#333333" fill-opacity="0.7"/>
<path d="M1.71485 26.2519C1.74091 26.1955 1.76507 26.1455 1.78734 26.1017C1.80667 26.0525 1.8239 26.0027 1.83902 25.9522C1.85414 25.9018 1.86716 25.8507 1.87808 25.799C1.88605 25.7418 1.89339 25.6867 1.9001 25.6337C2.0658 25.6925 2.22098 25.7482 2.36565 25.8007C2.50737 25.8478 2.64699 25.8942 2.7845 25.94C2.91782 25.9845 3.05113 26.029 3.18444 26.0736C3.31901 26.1139 3.45779 26.1555 3.60077 26.1983C3.7017 26.2286 3.82155 26.2645 3.96033 26.3061C4.09911 26.3477 4.2484 26.3924 4.4082 26.4403C4.56506 26.4827 4.72339 26.5279 4.8832 26.5758C5.04426 26.6194 5.19629 26.6627 5.33927 26.7055C5.47931 26.7429 5.60399 26.778 5.71333 26.8108C5.81847 26.8423 5.89627 26.8656 5.94673 26.8807L5.99399 26.723C6.05448 26.5212 6.10531 26.3439 6.14647 26.1912C6.18763 26.0386 6.22438 25.9007 6.25672 25.7774C6.28486 25.653 6.30984 25.539 6.33168 25.4356C6.34931 25.3308 6.36757 25.224 6.38646 25.1151C6.42178 25.1349 6.45291 25.1534 6.47982 25.1706C6.508 25.1836 6.53681 25.1945 6.56625 25.2034C6.62092 25.2197 6.68715 25.2281 6.76494 25.2285C6.72419 25.3492 6.68659 25.4594 6.65214 25.5591C6.61769 25.6587 6.5845 25.7542 6.55257 25.8455C6.5261 25.9338 6.49753 26.0215 6.46686 26.1085C6.4404 26.1968 6.4133 26.2872 6.38558 26.3798C6.32761 26.5732 6.27174 26.7673 6.21798 26.962C6.16968 27.1538 6.11949 27.3518 6.06741 27.5562C5.79364 27.4604 5.52344 27.368 5.25681 27.2789C4.99145 27.1857 4.74943 27.1063 4.53075 27.0407L3.28176 26.6664C3.06308 26.6009 2.81727 26.5341 2.54435 26.4661C2.27269 26.3938 1.99619 26.3224 1.71485 26.2519Z" fill="#333333" fill-opacity="0.7"/>
<path d="M3.64356 20.6905C3.85066 20.2253 4.13661 19.8312 4.50142 19.5082C4.52458 19.5426 4.58094 19.5941 4.67049 19.6628C4.76005 19.7315 4.84137 19.7917 4.91444 19.8435L4.9104 19.8849C4.67411 19.9623 4.4661 20.0788 4.28638 20.2342C4.10264 20.3879 3.96257 20.573 3.86616 20.7896C3.75012 21.0503 3.69069 21.3026 3.68787 21.5464C3.68105 21.7884 3.72772 22.0183 3.82789 22.2358C3.92806 22.4534 4.0815 22.6539 4.28823 22.8372C4.49495 23.0205 4.75072 23.18 5.05554 23.3157C5.36436 23.4532 5.65606 23.5374 5.93062 23.5683C6.20118 23.5974 6.45081 23.5764 6.67952 23.5052C6.90823 23.434 7.11223 23.3158 7.29152 23.1505C7.46679 22.9834 7.61245 22.7696 7.7285 22.5089C7.81598 22.3123 7.86446 22.1009 7.87395 21.8744C7.88523 21.644 7.85151 21.3743 7.77278 21.0653L7.80756 21.052L8.13841 21.2641C8.15841 21.3595 8.16905 21.4652 8.17032 21.5811C8.16758 21.6952 8.15525 21.8146 8.13334 21.9394C8.11722 22.062 8.09041 22.187 8.05289 22.3145C8.01716 22.4379 7.9743 22.5558 7.92431 22.6681C7.78506 22.981 7.6075 23.2503 7.39162 23.4762C7.17575 23.7021 6.93383 23.8731 6.66587 23.9893C6.39568 24.0997 6.10524 24.153 5.79456 24.1492C5.47986 24.1437 5.15607 24.0669 4.82318 23.9187C4.48226 23.7669 4.20066 23.5791 3.97836 23.3552C3.75383 23.1255 3.59105 22.8705 3.49003 22.59C3.389 22.3096 3.35196 22.0096 3.37888 21.69C3.4018 21.3686 3.49003 21.0355 3.64356 20.6905Z" fill="#333333" fill-opacity="0.7"/>
<path d="M7.13211 18.9718C7.41462 19.1574 7.68885 19.2877 7.95479 19.3626C8.21706 19.4351 8.46681 19.4548 8.70403 19.4215C8.94124 19.3883 9.16169 19.3046 9.36535 19.1706C9.56535 19.0341 9.7425 18.8484 9.89679 18.6136C10.0511 18.3788 10.1512 18.1425 10.1971 17.9048C10.2417 17.6609 10.2322 17.4236 10.1686 17.1926C10.1049 16.9617 9.98779 16.7403 9.81712 16.5283C9.64279 16.314 9.41436 16.114 9.13185 15.9284C8.56683 15.5571 8.04286 15.4072 7.55993 15.4786C7.07334 15.5476 6.67335 15.8206 6.35994 16.2975C6.20806 16.5287 6.10917 16.7631 6.06327 17.0009C6.01737 17.2386 6.02624 17.4729 6.08988 17.7039C6.15352 17.9348 6.27251 18.1574 6.44684 18.3718C6.62117 18.5861 6.8496 18.7861 7.13211 18.9718ZM6.15993 16.1582C6.36244 15.85 6.59272 15.5995 6.85079 15.4066C7.10519 15.2113 7.37584 15.0792 7.66274 15.0103C7.95206 14.9378 8.25217 14.9327 8.56308 14.9952C8.87033 15.0552 9.17804 15.1865 9.48624 15.389C9.79443 15.5915 10.0389 15.8231 10.2196 16.0837C10.3967 16.3418 10.5093 16.6181 10.5576 16.9124C10.6082 17.2031 10.5962 17.5052 10.5216 17.8186C10.4433 18.1296 10.3029 18.4392 10.1004 18.7474C9.90032 19.0519 9.67307 19.3018 9.41867 19.4971C9.16668 19.6888 8.89603 19.8209 8.60672 19.8934C8.31982 19.9623 8.02154 19.9686 7.71189 19.9122C7.40097 19.8497 7.08959 19.716 6.77772 19.5111C6.47687 19.3134 6.2367 19.0873 6.05723 18.8328C5.87776 18.5783 5.76149 18.3076 5.70844 18.0206C5.65412 17.7275 5.66428 17.4242 5.7389 17.1108C5.81226 16.7913 5.9526 16.4738 6.15993 16.1582Z" fill="#333333" fill-opacity="0.7"/>
<path d="M8.8007 12.5626C9.11969 12.6675 9.42456 12.7648 9.71529 12.8548C10.0028 12.9416 10.2982 13.0299 10.6013 13.1195C10.9075 13.206 11.2324 13.2983 11.5761 13.3964C11.9197 13.4882 12.3039 13.5917 12.7287 13.7066C12.7054 13.6357 12.6755 13.5463 12.639 13.4384C12.6025 13.3305 12.5642 13.2118 12.5241 13.0823C12.4808 12.9497 12.4343 12.8079 12.3844 12.6568C12.3376 12.5026 12.2892 12.3469 12.2391 12.1896L11.4601 9.78465L11.5193 9.72281C11.8572 9.97937 12.1967 10.2406 12.5378 10.5064C12.8788 10.766 13.2104 11.0196 13.5325 11.2671C13.8544 11.5085 14.1606 11.7378 14.451 11.9551C14.7414 12.1723 15.0034 12.3653 15.2368 12.5341C15.1878 12.5662 15.1451 12.5982 15.1085 12.63C15.0719 12.6619 15.0354 12.6968 14.999 12.7349C14.9565 12.7793 14.9156 12.8252 14.8762 12.8726C14.8401 12.9231 14.8176 12.9593 14.8087 12.9812C14.6001 12.8119 14.3757 12.6305 14.1355 12.437C13.8953 12.2435 13.6552 12.0531 13.4151 11.8659C13.1781 11.6754 12.949 11.4957 12.728 11.3266C12.5068 11.1513 12.3079 10.9973 12.1311 10.8645L12.122 10.8741C12.2352 11.2256 12.3351 11.537 12.4218 11.8083C12.5115 12.0765 12.5928 12.3185 12.6658 12.5343C12.7389 12.75 12.8052 12.9442 12.8648 13.1168C12.9244 13.2831 12.9806 13.4403 13.0335 13.5882C13.0864 13.7361 13.1392 13.8808 13.192 14.0225C13.2446 14.158 13.3005 14.2996 13.3596 14.4474L13.3186 14.4902C12.7337 14.2949 12.146 14.1121 11.5554 13.9418C10.9617 13.7684 10.3491 13.583 9.71755 13.3857L9.70844 13.3952C10.3081 14.1273 10.7895 14.7006 11.1525 15.1149C11.5124 15.5263 11.7763 15.8124 11.9444 15.9733C11.9015 15.9991 11.8663 16.0231 11.8388 16.0455C11.8144 16.0646 11.7885 16.0885 11.7612 16.117C11.7339 16.1455 11.7097 16.174 11.6886 16.2024C11.6705 16.2277 11.6495 16.2623 11.6256 16.3063C11.095 15.6099 10.5838 14.9503 10.0921 14.3276C9.60017 13.6987 9.14391 13.1374 8.72328 12.6435L8.8007 12.5626Z" fill="#333333" fill-opacity="0.7"/>
<path d="M13.067 8.53196C13.2421 8.4067 13.4051 8.29089 13.5559 8.18451C13.7076 8.07198 13.8613 7.95501 14.0172 7.83362C14.173 7.71222 14.3223 7.59314 14.4651 7.47638C14.6052 7.35615 14.7574 7.22648 14.9217 7.08736C14.939 7.12393 14.9554 7.15568 14.9708 7.18263C14.9897 7.20687 15.0086 7.23112 15.0275 7.25536C15.0733 7.31424 15.119 7.36215 15.1645 7.39908C15.0317 7.4858 14.9176 7.56077 14.8221 7.62399C14.724 7.68373 14.6251 7.74964 14.5254 7.82172C14.4265 7.88763 14.3168 7.96471 14.1963 8.05297C14.0759 8.14122 13.9256 8.25549 13.7455 8.39577C13.85 8.53701 13.9378 8.66055 14.0091 8.76638C14.0839 8.86952 14.1631 8.97478 14.2467 9.08214L14.778 9.75348C14.8992 9.65906 15.0083 9.57409 15.1053 9.49855C15.203 9.41686 15.299 9.33651 15.3933 9.25751C15.4876 9.17851 15.5822 9.09644 15.6773 9.01128C15.7758 8.92342 15.8834 8.82574 15.9999 8.71823C16.0273 8.77481 16.0639 8.83254 16.1098 8.89142C16.1557 8.9503 16.2013 8.99821 16.2468 9.03514C16.206 9.06135 16.1427 9.1051 16.0569 9.16638C15.9683 9.2242 15.8656 9.29588 15.7486 9.38144C15.6324 9.46084 15.5054 9.55141 15.3676 9.65316C15.2298 9.7549 15.0899 9.86108 14.9479 9.97168L15.4809 10.6667C15.5106 10.7048 15.5591 10.7671 15.6266 10.8537C15.6975 10.9376 15.7694 11.0263 15.8422 11.1198C15.915 11.2134 15.9811 11.2982 16.0405 11.3744C16.1033 11.4479 16.1387 11.4898 16.1468 11.5002L16.2715 11.4031C16.6075 11.1414 16.874 10.9228 17.071 10.747C17.2715 10.5686 17.4135 10.433 17.4969 10.3401C17.5405 10.4175 17.5771 10.4752 17.6068 10.5133C17.6257 10.5376 17.6473 10.5653 17.6715 10.5965C17.6966 10.6215 17.7193 10.6399 17.7397 10.6519C17.5646 10.7771 17.3999 10.8943 17.2456 11.0034C17.094 11.1159 16.9402 11.2329 16.7844 11.3543C16.6285 11.4757 16.4757 11.5974 16.326 11.7196C16.179 11.8452 16.0234 11.9776 15.8591 12.1167C15.6914 11.88 15.5247 11.6481 15.359 11.4211C15.194 11.1879 15.0414 10.9812 14.9011 10.8011L14.0999 9.77243C14.0514 9.71009 13.9988 9.64255 13.9421 9.56982C13.8828 9.49362 13.8136 9.40838 13.7346 9.3141C13.6529 9.21635 13.5573 9.10437 13.4479 8.97816C13.3419 8.84924 13.2149 8.70051 13.067 8.53196Z" fill="#333333" fill-opacity="0.7"/>
<path d="M17.2538 5.51357C17.5286 5.37586 17.788 5.24646 18.032 5.12538C18.2738 5.00042 18.5185 4.87145 18.766 4.73848C19.0135 4.6055 19.2561 4.47267 19.4938 4.33998C19.7333 4.20134 19.9844 4.05647 20.2471 3.90537C20.2562 3.95028 20.2662 3.98731 20.2769 4.01646C20.2875 4.0456 20.3012 4.07565 20.3178 4.10659C20.3469 4.16073 20.3888 4.21548 20.4434 4.27083C20.356 4.30287 20.2599 4.34202 20.1552 4.38831C20.0505 4.4346 19.941 4.48594 19.8268 4.54233C19.7143 4.59277 19.6021 4.64812 19.4899 4.70837C19.3795 4.76268 19.2721 4.81789 19.1677 4.87399L19.4429 5.41391C19.4972 5.52427 19.5493 5.62586 19.5991 5.71868C19.649 5.81149 19.6957 5.89851 19.7394 5.97972L20.3689 7.15152C20.4687 7.33715 20.5868 7.54778 20.7234 7.78339C20.8638 8.01693 21.0177 8.27561 21.1852 8.55943C21.1269 8.58078 21.0724 8.60006 21.0219 8.61726C20.9773 8.63624 20.9317 8.65821 20.8853 8.68314C20.8389 8.70807 20.7916 8.73598 20.7434 8.76686C20.7012 8.79952 20.6589 8.83219 20.6167 8.86486C20.4891 8.59952 20.3626 8.34101 20.2374 8.08935C20.116 7.83561 20.0023 7.61012 19.8964 7.41289L19.2637 6.23529C19.218 6.15021 19.1702 6.06126 19.1203 5.96845C19.0705 5.87563 19.0145 5.77612 18.9525 5.66991L18.6572 5.14826C18.4252 5.27292 18.1993 5.40428 17.9794 5.54234C17.7613 5.67446 17.5849 5.78669 17.4501 5.87903C17.4341 5.8029 17.4106 5.73583 17.3794 5.67782C17.3628 5.64688 17.3433 5.61995 17.321 5.59704C17.3026 5.57204 17.2802 5.54422 17.2538 5.51357Z" fill="#333333" fill-opacity="0.7"/>
<path d="M22.5275 5.35095C22.6415 5.66919 22.7821 5.93824 22.9495 6.15809C23.1153 6.37381 23.303 6.53975 23.5125 6.65592C23.722 6.77208 23.9484 6.83787 24.1918 6.8533C24.4336 6.86459 24.6868 6.82287 24.9513 6.72813C25.2158 6.63338 25.438 6.50487 25.6176 6.34257C25.8 6.17467 25.9352 5.97934 26.0233 5.7566C26.1114 5.53385 26.151 5.28649 26.1422 5.01451C26.1319 4.73841 26.0698 4.44123 25.9558 4.12299C25.7278 3.48651 25.3995 3.05152 24.9708 2.81802C24.5406 2.5804 24.0568 2.55781 23.5195 2.75025C23.2592 2.84352 23.0391 2.97129 22.8594 3.13358C22.6797 3.29588 22.5458 3.4884 22.4577 3.71114C22.3697 3.93389 22.3308 4.18332 22.341 4.45942C22.3513 4.73553 22.4135 5.03271 22.5275 5.35095ZM23.4436 2.51865C23.7908 2.3943 24.1254 2.33271 24.4476 2.3339C24.7683 2.33094 25.064 2.38826 25.3346 2.50584C25.6094 2.62194 25.8521 2.79846 26.0629 3.0354C26.2722 3.26821 26.439 3.5582 26.5634 3.90538C26.6877 4.25255 26.7437 4.58458 26.7313 4.90146C26.7174 5.21421 26.6412 5.50265 26.5026 5.76679C26.3682 6.02944 26.1769 6.26351 25.9287 6.46898C25.6791 6.67031 25.3807 6.83316 25.0335 6.95751C24.6905 7.08038 24.3586 7.14329 24.0379 7.14624C23.7213 7.14771 23.4256 7.0904 23.1509 6.9743C22.8803 6.85672 22.6383 6.68226 22.4248 6.45093C22.2141 6.21399 22.0458 5.91987 21.9199 5.56856C21.7985 5.22965 21.7427 4.90457 21.7525 4.5933C21.7622 4.28203 21.8322 3.99581 21.9625 3.73463C22.0955 3.46784 22.286 3.23171 22.5342 3.02624C22.785 2.81516 23.0881 2.64596 23.4436 2.51865Z" fill="#333333" fill-opacity="0.7"/>
<path d="M30.1029 3.96708C30.1235 4.12377 30.152 4.30601 30.1882 4.51378C30.2239 4.7172 30.2632 4.94892 30.3064 5.20892C30.3945 5.20616 30.4958 5.20167 30.6101 5.19547C30.7282 5.18434 30.8373 5.17218 30.9374 5.15899C31.0941 5.13834 31.2343 5.0933 31.358 5.02387C31.4817 4.95443 31.5829 4.86582 31.6617 4.75802C31.7443 4.6453 31.8031 4.5202 31.8381 4.38275C31.8726 4.24094 31.8789 4.08734 31.8571 3.92194C31.829 3.70867 31.7557 3.53898 31.6373 3.41289C31.5802 3.34956 31.5115 3.29883 31.4312 3.2607C31.3553 3.222 31.2609 3.19458 31.1481 3.17845C31.0347 3.15797 30.8988 3.15152 30.7403 3.15911C30.5857 3.16177 30.4018 3.17715 30.1885 3.20525L30.0057 3.22933L30.1029 3.96708ZM29.7851 1.25248C29.8065 1.44892 29.8248 1.65463 29.8398 1.86963C29.8592 2.08405 29.8795 2.27178 29.9007 2.43282L29.9739 2.98777L30.3525 2.93788C30.5005 2.91838 30.6443 2.88393 30.7839 2.83454C30.9279 2.78458 31.0519 2.71732 31.1559 2.63277C31.2636 2.54329 31.3443 2.43303 31.3979 2.30199C31.4558 2.17037 31.4731 2.01533 31.4495 1.83688C31.4146 1.57137 31.3052 1.37988 31.1214 1.26239C30.9371 1.14055 30.6491 1.10543 30.2574 1.15704C30.179 1.16736 30.0988 1.18015 30.0167 1.1954C29.9389 1.21007 29.8617 1.2291 29.7851 1.25248ZM29.1222 1.06085C29.2017 1.05923 29.3095 1.05389 29.4455 1.04481C29.5854 1.03082 29.7075 1.01694 29.812 1.00317C29.9295 0.987689 30.0443 0.96814 30.1563 0.944525C30.2721 0.915984 30.3888 0.893972 30.5063 0.878488C30.9807 0.815981 31.3392 0.84845 31.5819 0.975894C31.8245 1.10334 31.9664 1.32375 32.0077 1.63713C32.0456 1.9244 31.986 2.17801 31.829 2.39796C31.6758 2.61298 31.4199 2.78839 31.0614 2.92418L31.0631 2.93724C31.5198 2.90807 31.856 2.97227 32.0716 3.12984C32.2866 3.28306 32.4182 3.54248 32.4663 3.90809C32.4922 4.10395 32.4719 4.28597 32.4054 4.45413C32.3434 4.62171 32.2458 4.77184 32.1128 4.9045C31.9791 5.03281 31.8162 5.14062 31.624 5.22794C31.4312 5.3109 31.2173 5.36786 30.9823 5.39883C30.8778 5.41259 30.7703 5.42011 30.6598 5.42139C30.5542 5.42645 30.447 5.43615 30.3382 5.45048C30.2424 5.4631 30.1426 5.47847 30.0387 5.49658C29.9348 5.5147 29.8272 5.53774 29.7157 5.56571C29.6909 5.27672 29.6645 4.99237 29.6365 4.71266C29.6123 4.42803 29.5853 4.17255 29.5555 3.94622L29.3852 2.65352C29.38 2.61435 29.3672 2.53411 29.3468 2.41281C29.3264 2.29152 29.3037 2.15281 29.2787 1.99669C29.2537 1.84057 29.2257 1.67822 29.1946 1.50961C29.1679 1.34044 29.1437 1.19085 29.1222 1.06085Z" fill="#333333" fill-opacity="0.7"/>
<path d="M33.7252 0.577943C33.9404 0.584232 34.1403 0.590699 34.3248 0.597343C34.5136 0.599547 34.7068 0.599505 34.9043 0.597217C35.1018 0.59493 35.2928 0.590523 35.4771 0.583998C35.6614 0.573083 35.861 0.56199 36.076 0.550719C36.0677 0.59033 36.0615 0.625525 36.0575 0.656305C36.0578 0.687033 36.0582 0.717762 36.0585 0.748491C36.0594 0.823119 36.0668 0.88889 36.0806 0.945806C35.9224 0.934466 35.7862 0.925067 35.6719 0.917609C35.5577 0.905762 35.439 0.898355 35.3161 0.895388C35.1974 0.887981 35.0635 0.882947 34.9142 0.880286C34.7649 0.877624 34.5761 0.877616 34.3478 0.880259C34.3454 1.0559 34.3406 1.20743 34.3333 1.33484C34.3304 1.46219 34.3297 1.59391 34.3313 1.73L34.3478 2.58594C34.5014 2.58416 34.6397 2.58256 34.7626 2.58114C34.8899 2.57527 35.0149 2.56943 35.1378 2.56362C35.2607 2.55781 35.3857 2.54977 35.5129 2.53952C35.6445 2.52921 35.7892 2.51656 35.9471 2.50156C35.9347 2.56317 35.9289 2.63129 35.9297 2.70592C35.9306 2.78055 35.9379 2.84632 35.9518 2.90323C35.9034 2.8994 35.8266 2.8959 35.7212 2.89273C35.6157 2.88517 35.4905 2.88004 35.3456 2.87733C35.205 2.87017 35.0491 2.86539 34.8779 2.86298C34.7066 2.86058 34.531 2.86042 34.351 2.8625L34.3546 3.73835C34.3551 3.78664 34.356 3.86566 34.3573 3.9754C34.363 4.0851 34.3665 4.19921 34.3678 4.31773C34.3692 4.43626 34.3705 4.54381 34.3716 4.64039C34.3771 4.73691 34.3799 4.79176 34.3801 4.80493L34.5381 4.8031C34.9639 4.79817 35.3084 4.7854 35.5716 4.76479C35.8392 4.74413 36.0343 4.72211 36.157 4.69874C36.1448 4.78669 36.139 4.85481 36.1396 4.90309C36.1399 4.93382 36.1403 4.96894 36.1408 5.00845C36.1456 5.04352 36.1525 5.07198 36.1615 5.09382C35.9463 5.08753 35.7443 5.08109 35.5554 5.0745C35.3666 5.0723 35.1735 5.07234 34.9759 5.07463C34.7784 5.07691 34.583 5.08137 34.3899 5.088C34.1969 5.09901 33.9929 5.11016 33.7779 5.12143C33.7877 4.83155 33.7953 4.54608 33.8009 4.26503C33.8107 3.97954 33.8143 3.72265 33.8117 3.49438L33.7966 2.1906C33.7957 2.11158 33.7947 2.02598 33.7936 1.93379C33.7925 1.83722 33.789 1.7275 33.7832 1.60463C33.7774 1.47738 33.7691 1.33039 33.7584 1.16368C33.7521 0.996919 33.741 0.801673 33.7252 0.577943Z" fill="#333333" fill-opacity="0.7"/>
<path d="M37.2198 0.576615C37.2717 0.586655 37.3651 0.601188 37.4999 0.620214C37.6391 0.639713 37.7892 0.660395 37.9502 0.682258C38.1117 0.699758 38.2708 0.719203 38.4274 0.740594C38.5889 0.758093 38.7199 0.772282 38.8203 0.78316L39.9921 0.910147C40.0445 0.915823 40.1059 0.920262 40.1762 0.923464C40.2508 0.92714 40.3209 0.932525 40.3864 0.939619C40.4523 0.942349 40.5095 0.944133 40.558 0.944971C40.6109 0.946281 40.6417 0.94741 40.6504 0.948356L40.6376 1.0662C40.5007 1.18826 40.2999 1.3917 40.035 1.67652C39.7744 1.96181 39.4474 2.33043 39.054 2.78237C38.6606 3.23431 38.3197 3.63012 38.0312 3.96979C37.7475 4.30556 37.5156 4.59174 37.3354 4.82834C37.3441 4.82928 37.4004 4.8398 37.5042 4.85988C37.6128 4.87606 37.7391 4.89196 37.8832 4.90757C38.0403 4.9246 38.2326 4.94322 38.46 4.96345C38.6879 4.97932 38.9161 4.993 39.1444 5.0045C39.3728 5.016 39.5837 5.02561 39.7772 5.03332C39.9706 5.04104 40.1139 5.04332 40.207 5.04015C40.1945 5.07413 40.182 5.1081 40.1695 5.14207C40.1613 5.17651 40.1551 5.21337 40.1508 5.25265C40.1471 5.28757 40.1455 5.32272 40.146 5.35811C40.1515 5.38961 40.1564 5.42547 40.1609 5.4657C39.8999 5.42859 39.6846 5.39864 39.5149 5.37583C39.3495 5.35349 39.2125 5.33423 39.1038 5.31804C38.9947 5.30622 38.9052 5.29652 38.8354 5.28895C38.7656 5.28139 38.6979 5.27405 38.6325 5.26696C38.4622 5.24852 38.2767 5.22841 38.076 5.20666C37.8747 5.18927 37.6759 5.16993 37.4795 5.14865C37.2826 5.13173 37.0945 5.11576 36.915 5.10073C36.7356 5.0857 36.5846 5.07375 36.4619 5.06487L36.474 4.95358C36.6388 4.77714 36.8217 4.57618 37.0228 4.35068C37.2239 4.12518 37.4305 3.88924 37.6427 3.64287C37.8592 3.39696 38.0735 3.15082 38.2857 2.90445C38.5022 2.65855 38.7042 2.42432 38.8917 2.20177C39.0792 1.97921 39.2467 1.77877 39.3941 1.60045C39.5458 1.42259 39.6649 1.28095 39.7514 1.17551C39.7296 1.17314 39.6775 1.16529 39.595 1.15193C39.5169 1.13906 39.4146 1.12576 39.288 1.11205C38.8385 1.06333 38.4292 1.03002 38.0602 1.01212C37.6956 0.994684 37.4008 0.984819 37.1758 0.982521C37.2057 0.910688 37.2239 0.844219 37.2306 0.783115C37.2343 0.748198 37.2335 0.714991 37.2281 0.683493C37.2275 0.648104 37.2248 0.612477 37.2198 0.576615Z" fill="#333333" fill-opacity="0.7"/>
<path d="M42.1631 3.77925C42.2397 3.79876 42.337 3.82581 42.4551 3.86042C42.5731 3.89502 42.7087 3.93183 42.8618 3.97084C42.9001 3.9806 42.9469 3.99252 43.0022 4.00661C43.0586 4.01644 43.1187 4.02949 43.1825 4.04575C43.2506 4.06309 43.3165 4.07989 43.3804 4.09614C43.4495 4.10923 43.5117 4.12282 43.567 4.13691L43.2716 2.33558L42.1631 3.77925ZM43.7017 1.52775L44.0056 3.56229C44.1234 4.38057 44.2242 5.04278 44.3082 5.54892C44.3933 6.05081 44.4504 6.3689 44.4796 6.50319C44.4233 6.47526 44.368 6.45212 44.3138 6.43377C44.2639 6.41651 44.2091 6.4003 44.1495 6.38512C44.09 6.36995 44.0299 6.3569 43.9692 6.34599C43.9118 6.3404 43.8564 6.33537 43.8032 6.33087C43.7926 6.06995 43.7652 5.77755 43.7209 5.45366C43.6776 5.12551 43.6312 4.79203 43.5816 4.45321C43.4476 4.41002 43.3105 4.37054 43.1701 4.33478C43.0297 4.29901 42.8914 4.26379 42.7553 4.22911C42.6234 4.19551 42.4888 4.1635 42.3516 4.13307C42.2187 4.10372 42.0905 4.07334 41.9671 4.04191C41.8225 4.23611 41.6945 4.40963 41.5831 4.56246C41.4759 4.71637 41.3794 4.8549 41.2937 4.97803C41.2122 5.10224 41.1404 5.21532 41.0782 5.31726C41.017 5.41494 40.9618 5.50733 40.9124 5.59442C40.8689 5.56974 40.8285 5.55039 40.7913 5.53638C40.7584 5.52346 40.7227 5.51212 40.6844 5.50236C40.6462 5.49261 40.6073 5.48498 40.568 5.47948C40.5286 5.47398 40.486 5.47219 40.4402 5.47412C40.6458 5.21843 40.8824 4.92082 41.1501 4.58129C41.4221 4.24284 41.6995 3.89217 41.9822 3.52928C42.2692 3.16748 42.5503 2.81097 42.8255 2.45976C43.106 2.10538 43.3577 1.78442 43.5805 1.49686L43.7017 1.52775Z" fill="#333333" fill-opacity="0.7"/>
<path d="M46.9213 2.57997C46.9752 2.6108 47.0229 2.63919 47.0646 2.66517C47.1119 2.68868 47.1601 2.71014 47.2091 2.72957C47.258 2.749 47.3078 2.76639 47.3584 2.78174C47.4147 2.79462 47.4689 2.8067 47.5211 2.81797C47.4482 2.97796 47.3793 3.12774 47.3145 3.26733C47.2554 3.40445 47.1971 3.53954 47.1396 3.67258C47.0837 3.80154 47.0278 3.93051 46.9719 4.05947C46.9201 4.19005 46.8667 4.32471 46.8116 4.46346C46.7727 4.56139 46.7266 4.67769 46.6732 4.81236C46.6197 4.94702 46.5623 5.09188 46.5007 5.24695C46.4449 5.39955 46.3863 5.55339 46.3247 5.70845C46.2673 5.86514 46.211 6.01285 46.156 6.1516C46.1066 6.28788 46.0609 6.40907 46.0188 6.51517C45.9784 6.61718 45.9484 6.69268 45.929 6.74164L46.082 6.80236C46.2779 6.88007 46.4501 6.94603 46.5986 7.00024C46.7471 7.05444 46.8814 7.10298 47.0013 7.14585C47.1229 7.18464 47.2343 7.21939 47.3354 7.25008C47.4382 7.2767 47.5431 7.30412 47.6499 7.33236C47.6272 7.36584 47.6061 7.39525 47.5866 7.42058C47.5712 7.44752 47.5578 7.47528 47.5465 7.50384C47.5254 7.55689 47.5114 7.62215 47.5042 7.69962C47.3875 7.64858 47.281 7.6016 47.1847 7.55866C47.0884 7.51572 46.9961 7.4744 46.908 7.4347C46.8223 7.4007 46.7374 7.36466 46.6533 7.32658C46.5676 7.29258 46.4799 7.25777 46.3901 7.22215C46.2024 7.14768 46.0139 7.07524 45.8245 7.00485C45.6377 6.94015 45.4447 6.87303 45.2456 6.80347C45.3647 6.53901 45.4801 6.27781 45.5919 6.01988C45.7078 5.76358 45.8078 5.52933 45.892 5.31713L46.3728 4.10517C46.457 3.89297 46.5448 3.65386 46.6362 3.38784C46.7316 3.12344 46.8267 2.85415 46.9213 2.57997Z" fill="#333333" fill-opacity="0.7"/>
<path d="M52.2575 4.98207C52.3043 5.02282 52.3456 5.05999 52.3814 5.09358C52.4233 5.12588 52.4663 5.15633 52.5106 5.18493C52.5548 5.21354 52.6002 5.2403 52.6469 5.26522C52.6995 5.28884 52.7504 5.31126 52.7994 5.33249C52.6119 5.59815 52.4447 5.83247 52.2978 6.03545C52.1546 6.24081 52.015 6.44856 51.8791 6.6587L51.7039 6.92966C52.2719 7.31259 52.6535 7.56723 52.8489 7.69358C53.0443 7.81992 53.4331 8.0635 54.0154 8.42431L54.1262 8.25289C54.2144 8.11648 54.2889 7.99732 54.3495 7.8954C54.4139 7.79587 54.4764 7.69514 54.5371 7.59322C54.6002 7.48761 54.6673 7.37159 54.7386 7.24517C54.816 7.11744 54.9106 6.95903 55.0224 6.76993C55.0692 6.81068 55.1106 6.84785 55.1463 6.88145C55.1882 6.91374 55.2312 6.94419 55.2755 6.97279C55.3197 7.0014 55.3651 7.02816 55.4118 7.05308C55.4645 7.0767 55.5153 7.09912 55.5643 7.12036C55.3935 7.3602 55.2263 7.59452 55.0627 7.82331C54.9028 8.05448 54.762 8.26408 54.6405 8.45209L53.9325 9.547C53.8109 9.73501 53.6763 9.95122 53.5287 10.1956C53.3872 10.4387 53.2433 10.6855 53.0971 10.9359C53.0563 10.8939 53.015 10.8567 52.9731 10.8244C52.9313 10.7921 52.8882 10.7617 52.844 10.7331C52.7997 10.7045 52.7543 10.6777 52.7077 10.6528C52.6648 10.6303 52.6139 10.6078 52.5551 10.5855C52.7235 10.3494 52.8877 10.1157 53.0476 9.88452C53.2113 9.65573 53.3551 9.44549 53.479 9.25379L53.8473 8.68421C53.8584 8.69137 53.8197 8.66634 53.7312 8.60912C53.6451 8.54823 53.5394 8.47725 53.414 8.3962C53.2887 8.31515 53.1578 8.23053 53.0214 8.14233C52.8874 8.05044 52.7798 7.97827 52.6987 7.92583C52.6287 7.88054 52.4966 7.79775 52.3025 7.67748C52.1145 7.55591 51.859 7.39327 51.5358 7.18956L51.1675 7.75914C51.046 7.94715 50.9114 8.16335 50.7638 8.40775C50.6223 8.65084 50.4784 8.89762 50.3322 9.14808C50.2914 9.10603 50.2501 9.06886 50.2082 9.03657C50.1664 9.00428 50.1233 8.97383 50.0791 8.94522C50.0348 8.91662 49.9894 8.88985 49.9428 8.86493C49.8998 8.8424 49.849 8.81997 49.7902 8.79766C49.9586 8.5615 50.1228 8.32783 50.2827 8.09666C50.4463 7.86787 50.5901 7.65763 50.7141 7.46593L51.4221 6.37102C51.546 6.17932 51.6788 5.96192 51.8203 5.71883C51.9655 5.47812 52.1112 5.23254 52.2575 4.98207Z" fill="#333333" fill-opacity="0.7"/>
<path d="M55.791 10.1654C55.5617 10.4138 55.3884 10.663 55.271 10.9131C55.1566 11.16 55.0964 11.4032 55.0905 11.6427C55.0845 11.8821 55.131 12.1133 55.23 12.3361C55.332 12.5557 55.4862 12.7608 55.6927 12.9514C55.8992 13.142 56.1159 13.2793 56.343 13.3635C56.5762 13.4473 56.812 13.4767 57.0502 13.4517C57.2884 13.4266 57.526 13.3472 57.763 13.2135C58.0029 13.0765 58.2376 12.8838 58.4668 12.6354C58.9254 12.1386 59.1589 11.6462 59.1674 11.1581C59.1788 10.6668 58.9748 10.2275 58.5555 9.84044C58.3522 9.65284 58.1371 9.51698 57.91 9.43286C57.683 9.34873 57.4503 9.3192 57.2121 9.34426C56.9739 9.36932 56.7348 9.45034 56.4949 9.58731C56.2549 9.72429 56.0203 9.91697 55.791 10.1654ZM58.7256 9.66587C58.9965 9.916 59.2061 10.1841 59.3542 10.4702C59.5053 10.7531 59.5914 11.0417 59.6125 11.336C59.6369 11.6333 59.5928 11.9302 59.4804 12.2267C59.371 12.52 59.1912 12.8022 58.941 13.0732C58.6909 13.3441 58.4225 13.5475 58.1359 13.6832C57.8523 13.8157 57.5613 13.8817 57.2631 13.8812C56.968 13.8837 56.672 13.8225 56.375 13.6977C56.0809 13.5697 55.7984 13.3806 55.5274 13.1304C55.2597 12.8833 55.0503 12.6183 54.8991 12.3354C54.7512 12.0555 54.6651 11.7669 54.6408 11.4696C54.6197 11.1753 54.6623 10.88 54.7685 10.5837C54.8809 10.2872 55.0637 10.0018 55.3168 9.72763C55.561 9.46311 55.8233 9.26311 56.1037 9.12762C56.3841 8.99214 56.6702 8.92167 56.962 8.91621C57.26 8.9105 57.5575 8.97006 57.8546 9.09488C58.1578 9.21945 58.4481 9.40978 58.7256 9.66587Z" fill="#333333" fill-opacity="0.7"/>
<path d="M61.8387 12.8519C61.6833 13.1496 61.5376 13.4345 61.4015 13.7067C61.2689 13.9762 61.1337 14.2532 60.9958 14.5377C60.8606 14.8257 60.7166 15.1313 60.5638 15.4544C60.4172 15.7784 60.2526 16.1405 60.0699 16.5409C60.1437 16.5295 60.2368 16.5146 60.3491 16.4962C60.4615 16.4777 60.5849 16.4593 60.7192 16.4408C60.8571 16.4198 61.0046 16.3969 61.1618 16.3724C61.3216 16.3513 61.4831 16.3289 61.6464 16.3052L64.1462 15.9285L64.1975 15.997C63.8893 16.2885 63.5763 16.5809 63.2585 16.8742C62.9468 17.1683 62.6425 17.4541 62.3458 17.7315C62.0551 18.0099 61.779 18.2746 61.5173 18.5257C61.2557 18.7768 61.0226 19.0038 60.818 19.2066C60.7943 19.1531 60.7697 19.1057 60.7442 19.0644C60.7188 19.0231 60.6902 18.9814 60.6586 18.9393C60.6218 18.8901 60.5831 18.8422 60.5427 18.7957C60.4988 18.7518 60.4668 18.7237 60.4466 18.7114C60.6477 18.5332 60.8632 18.3413 61.0933 18.1359C61.3233 17.9304 61.5503 17.7245 61.7742 17.5182C62.0007 17.3154 62.2154 17.1187 62.4182 16.9282C62.6272 16.7385 62.8116 16.5673 62.9714 16.4145L62.9635 16.404C62.5982 16.4584 62.2747 16.5063 61.9928 16.5475C61.7136 16.5923 61.4616 16.6331 61.2368 16.67C61.0121 16.7069 60.8097 16.7407 60.6297 16.7714C60.4558 16.803 60.2916 16.8329 60.1371 16.861C59.9826 16.8891 59.8311 16.9176 59.6827 16.9466C59.5405 16.9764 59.3917 17.0085 59.2362 17.0427L59.2007 16.9953C59.4887 16.45 59.7648 15.9 60.0291 15.3451C60.2969 14.7875 60.5796 14.2133 60.8773 13.6224L60.8694 13.6118C60.0493 14.0842 59.4053 14.4657 58.9373 14.7563C58.4728 15.0443 58.1475 15.2581 57.9614 15.3977C57.9429 15.3512 57.9249 15.3126 57.9074 15.2818C57.8924 15.2546 57.8731 15.2252 57.8494 15.1936C57.8257 15.162 57.8016 15.1334 57.777 15.108C57.755 15.086 57.7243 15.0597 57.6848 15.029C58.4583 14.6189 59.1924 14.2221 59.8869 13.8384C60.5875 13.4555 61.2158 13.0969 61.7716 12.7623L61.8387 12.8519Z" fill="#333333" fill-opacity="0.7"/>
<path d="M65.1473 17.7624C65.2421 17.9557 65.3296 18.1355 65.4097 18.3018C65.4958 18.4699 65.5859 18.6408 65.6801 18.8144C65.7742 18.9881 65.8672 19.155 65.9589 19.315C66.0545 19.4729 66.1574 19.6443 66.2676 19.8293C66.2287 19.8404 66.1947 19.8513 66.1656 19.8621C66.1386 19.8767 66.1115 19.8914 66.0845 19.906C66.0189 19.9416 65.9642 19.9788 65.9203 20.0175C65.8565 19.8723 65.8013 19.7474 65.7546 19.6429C65.7118 19.5363 65.6631 19.4279 65.6083 19.3177C65.5596 19.2093 65.5016 19.0885 65.4343 18.9552C65.367 18.8218 65.279 18.6548 65.1702 18.4541C65.0137 18.534 64.8774 18.6003 64.7613 18.6533C64.6473 18.7101 64.5305 18.7709 64.4108 18.8358L63.6613 19.2495C63.7345 19.3846 63.8004 19.5062 63.859 19.6143C63.9236 19.7241 63.987 19.832 64.0495 19.938C64.1119 20.044 64.1773 20.1508 64.2457 20.2586C64.3162 20.3702 64.3949 20.4923 64.4818 20.625C64.4215 20.6427 64.3585 20.6693 64.2929 20.7049C64.2273 20.7405 64.1725 20.7776 64.1286 20.8164C64.1095 20.7719 64.0767 20.7022 64.0304 20.6075C63.9879 20.5107 63.934 20.3975 63.8689 20.2681C63.8096 20.1404 63.7412 20.0002 63.6634 19.8476C63.5857 19.695 63.5039 19.5396 63.4182 19.3813L62.645 19.7929C62.6026 19.8159 62.5331 19.8536 62.4366 19.9059C62.3422 19.962 62.2429 20.0184 62.1387 20.0748C62.0345 20.1313 61.9399 20.1826 61.855 20.2286C61.7722 20.2785 61.725 20.3066 61.7134 20.3129L61.7887 20.4518C61.9917 20.8262 62.1636 21.125 62.3046 21.3482C62.4476 21.5753 62.5581 21.7376 62.636 21.8352C62.5525 21.8655 62.4895 21.8921 62.4471 21.9151C62.4201 21.9298 62.3892 21.9465 62.3545 21.9653C62.3257 21.9859 62.3037 22.0053 62.2886 22.0235C62.1938 21.8302 62.1053 21.6485 62.0231 21.4783C61.937 21.3102 61.8468 21.1394 61.7527 20.9657C61.6586 20.792 61.5635 20.6213 61.4676 20.4536C61.3679 20.2879 61.2629 20.1127 61.1526 19.9277C61.4136 19.8012 61.6697 19.6749 61.9209 19.5487C62.1781 19.4243 62.407 19.3077 62.6077 19.1989L63.754 18.5776C63.8235 18.5399 63.8988 18.4991 63.9798 18.4552C64.0647 18.4092 64.1602 18.3549 64.2661 18.2925C64.376 18.228 64.5021 18.1521 64.6446 18.0649C64.7892 17.9815 64.9568 17.8807 65.1473 17.7624Z" fill="#333333" fill-opacity="0.7"/>
<path d="M67.4034 22.212C67.4833 22.4069 67.528 22.5855 67.5375 22.7477C67.5511 22.9082 67.5341 23.0693 67.4866 23.2311C67.3968 23.2205 67.3083 23.2188 67.2212 23.226C67.1357 23.2374 67.031 23.2541 66.9073 23.2764L66.8773 23.2033C67.1993 22.9005 67.2911 22.5806 67.153 22.2434C67.0581 22.0119 66.9096 21.8521 66.7075 21.7641C66.5053 21.6762 66.2946 21.6771 66.0753 21.767C65.9737 21.8086 65.8861 21.8611 65.8124 21.9245C65.7428 21.9863 65.6856 22.0666 65.6408 22.1657C65.5977 22.2688 65.5677 22.3925 65.551 22.537C65.536 22.6855 65.5322 22.8673 65.5397 23.0825C65.5456 23.2936 65.5369 23.475 65.5137 23.6269C65.4922 23.7828 65.4546 23.9168 65.4009 24.0289C65.3473 24.1411 65.2743 24.235 65.182 24.3108C65.0913 24.3907 64.981 24.4572 64.851 24.5105C64.656 24.5904 64.4583 24.6287 64.2577 24.6255C64.0628 24.6247 63.877 24.5823 63.7002 24.4982C63.5251 24.4181 63.3655 24.3008 63.2215 24.1463C63.0776 23.9918 62.9598 23.8029 62.8682 23.5795C62.7883 23.3845 62.7415 23.1949 62.7277 23.0108C62.7156 22.8307 62.7409 22.6377 62.8035 22.4317C62.8842 22.4318 62.9665 22.4242 63.0504 22.4088C63.1359 22.3975 63.2502 22.3697 63.3933 22.3252L63.4232 22.3984C63.2625 22.5734 63.1585 22.7654 63.1114 22.9745C63.0699 23.186 63.0942 23.4015 63.1841 23.6208C63.2357 23.7467 63.3034 23.8542 63.3873 23.9432C63.477 24.0345 63.5762 24.103 63.685 24.1486C63.7979 24.1924 63.9155 24.2131 64.0377 24.2104C64.1657 24.2101 64.2947 24.1834 64.4247 24.1301C64.6319 24.0452 64.7726 23.914 64.847 23.7364C64.9229 23.563 64.9572 23.3283 64.9499 23.0324C64.9457 22.8254 64.9481 22.6346 64.9573 22.46C64.9721 22.2879 65.0054 22.1319 65.0573 21.992C65.1091 21.8522 65.1851 21.7309 65.2853 21.6282C65.3896 21.5237 65.5311 21.4349 65.7099 21.3617C65.8845 21.2901 66.0563 21.2576 66.2251 21.2644C66.3939 21.2711 66.5504 21.3114 66.6945 21.3851C66.8443 21.4613 66.9789 21.5699 67.0983 21.7107C67.2218 21.8499 67.3235 22.017 67.4034 22.212Z" fill="#333333" fill-opacity="0.7"/>
<circle cx="66.8399" cy="30.0079" r="0.548918" fill="#333333" fill-opacity="0.7"/>
<circle cx="3.46489" cy="40.608" r="0.39262" fill="#333333" fill-opacity="0.7"/>
</svg>
