<svg width="112" height="112" viewBox="0 0 112 112" fill="none" xmlns="http://www.w3.org/2000/svg">
<path d="M108.521 56.3168C108.507 56.3683 108.492 56.422 108.478 56.4778C108.467 56.5341 108.459 56.5885 108.454 56.6409C108.448 56.6977 108.444 56.7525 108.443 56.8053C108.446 56.863 108.449 56.9185 108.452 56.9718C108.13 57.0175 107.82 57.0647 107.524 57.1132C107.228 57.1616 106.922 57.2136 106.607 57.269C106.296 57.3292 105.965 57.3939 105.614 57.4631C105.266 57.5328 104.881 57.6117 104.457 57.6998L104.455 57.7129L107.029 58.8756C107.269 58.9845 107.484 59.0777 107.675 59.155C107.865 59.2322 108.041 59.3036 108.202 59.3689C108.171 59.454 108.152 59.5271 108.146 59.5882C108.139 59.6537 108.143 59.7247 108.157 59.8012C107.941 59.8404 107.677 59.8902 107.367 59.9504C107.06 60.0154 106.728 60.0845 106.372 60.1576C106.015 60.2351 105.644 60.3156 105.261 60.3991C104.881 60.483 104.51 60.5657 104.149 60.6471L104.147 60.6602C104.185 60.6818 104.292 60.7305 104.47 60.8064C104.647 60.8867 104.86 60.9796 105.109 61.0851C105.359 61.1906 105.627 61.3048 105.915 61.4275C106.206 61.5506 106.483 61.6657 106.746 61.7725C107.012 61.8842 107.249 61.9818 107.457 62.0653C107.669 62.1492 107.817 62.2067 107.902 62.2376C107.885 62.2799 107.872 62.3183 107.864 62.3528C107.855 62.3916 107.849 62.4307 107.845 62.47C107.839 62.5224 107.843 62.5978 107.854 62.6961C107.733 62.6305 107.494 62.5128 107.136 62.343C106.783 62.1737 106.295 61.944 105.672 61.6538C105.045 61.3631 104.552 61.1351 104.195 60.9697C103.836 60.8087 103.604 60.705 103.499 60.6586C103.512 60.6203 103.524 60.5841 103.537 60.55C103.545 60.5156 103.551 60.4787 103.555 60.4394C103.561 60.3782 103.558 60.3029 103.545 60.2133C103.775 60.1667 104.041 60.1128 104.343 60.0517C104.646 59.9905 104.982 59.9219 105.351 59.8458L107.424 59.4002L107.425 59.3871C107.257 59.3077 107.041 59.2057 106.775 59.0809C106.51 58.9561 106.188 58.8076 105.809 58.6356L103.806 57.7179C103.837 57.6328 103.856 57.5598 103.862 57.4986C103.869 57.4288 103.867 57.349 103.854 57.2594C104.466 57.1468 105.072 57.0291 105.672 56.9064C106.272 56.7837 106.878 56.6617 107.491 56.5403C107.739 56.4912 107.951 56.4471 108.127 56.4081C108.304 56.3692 108.435 56.3387 108.521 56.3168Z" fill="#333333" fill-opacity="0.7"/>
<path d="M107.021 67.5434C106.957 67.749 106.897 67.9397 106.841 68.1156C106.788 68.2968 106.736 68.4829 106.685 68.6738C106.634 68.8647 106.587 69.0497 106.544 69.229C106.505 69.4094 106.462 69.6047 106.415 69.8148C106.379 69.7961 106.347 69.7807 106.318 69.7685C106.288 69.7606 106.259 69.7527 106.229 69.7447C106.157 69.7255 106.091 69.7149 106.033 69.7129C106.086 69.5636 106.132 69.4349 106.17 69.3269C106.212 69.22 106.251 69.1078 106.287 68.9901C106.326 68.8779 106.367 68.7502 106.41 68.6071C106.453 68.464 106.503 68.2822 106.562 68.0616C106.394 68.0121 106.249 67.9667 106.128 67.9254C106.007 67.8883 105.88 67.8522 105.748 67.8171L104.92 67.6027C104.88 67.7512 104.844 67.8848 104.813 68.0035C104.784 68.1277 104.756 68.2497 104.728 68.3696C104.701 68.4895 104.675 68.6121 104.651 68.7373C104.625 68.8669 104.598 69.0097 104.57 69.1658C104.514 69.1372 104.45 69.1133 104.378 69.094C104.306 69.0748 104.241 69.0641 104.182 69.0622C104.199 69.0166 104.223 68.9435 104.255 68.8429C104.29 68.7433 104.329 68.6241 104.37 68.4853C104.415 68.3518 104.462 68.203 104.51 68.0387C104.558 67.8744 104.606 67.7053 104.652 67.5314L103.808 67.2991C103.761 67.2867 103.685 67.2663 103.579 67.238C103.472 67.2139 103.361 67.1866 103.246 67.156C103.132 67.1255 103.028 67.0977 102.934 67.0728C102.84 67.0522 102.786 67.0401 102.774 67.0367L102.733 67.1894C102.623 67.6009 102.543 67.9361 102.492 68.1951C102.44 68.4584 102.408 68.6522 102.398 68.7767C102.316 68.7413 102.252 68.7174 102.206 68.7049C102.176 68.697 102.142 68.688 102.104 68.6778C102.069 68.6729 102.04 68.6719 102.016 68.6748C102.08 68.4692 102.141 68.2763 102.198 68.0962C102.251 67.915 102.303 67.7289 102.354 67.538C102.405 67.3471 102.453 67.1578 102.498 66.9701C102.54 66.7812 102.584 66.5817 102.631 66.3716C102.907 66.459 103.18 66.5432 103.45 66.6242C103.722 66.7105 103.968 66.7831 104.189 66.8419L105.449 67.1782C105.525 67.1986 105.608 67.2207 105.697 67.2444C105.79 67.2694 105.897 67.2955 106.017 67.323C106.141 67.3516 106.284 67.3832 106.448 67.4177C106.61 67.4565 106.801 67.4984 107.021 67.5434Z" fill="#333333" fill-opacity="0.7"/>
<path d="M105.517 72.8514C105.486 72.9057 105.458 72.9537 105.433 72.9957C105.41 73.0433 105.389 73.0917 105.37 73.1409C105.351 73.1901 105.334 73.24 105.32 73.2908C105.307 73.3472 105.296 73.4016 105.285 73.4539C105.124 73.3828 104.974 73.3156 104.834 73.2524C104.696 73.1948 104.56 73.138 104.426 73.082C104.297 73.0275 104.167 72.9731 104.038 72.9187C103.907 72.8683 103.771 72.8164 103.632 72.7629C103.534 72.7252 103.417 72.6803 103.281 72.6284C103.146 72.5765 103.001 72.5207 102.845 72.4609C102.692 72.4068 102.537 72.3498 102.382 72.2901C102.224 72.2344 102.076 72.1798 101.937 72.1263C101.8 72.0785 101.678 72.0342 101.571 71.9933C101.469 71.9539 101.393 71.9248 101.344 71.906L101.285 72.0596C101.209 72.2564 101.145 72.4293 101.093 72.5784C101.04 72.7276 100.993 72.8623 100.952 72.9828C100.914 73.1048 100.881 73.2165 100.851 73.3181C100.826 73.4211 100.8 73.5263 100.773 73.6335C100.739 73.6111 100.709 73.5903 100.684 73.5711C100.657 73.556 100.629 73.5429 100.6 73.5319C100.547 73.5115 100.481 73.4981 100.404 73.4919C100.453 73.3746 100.499 73.2676 100.541 73.1708C100.583 73.074 100.623 72.9813 100.662 72.8927C100.695 72.8066 100.73 72.7213 100.767 72.6368C100.8 72.5507 100.834 72.4626 100.869 72.3725C100.941 72.1839 101.011 71.9946 101.08 71.8045C101.142 71.6169 101.207 71.4232 101.274 71.2233C101.54 71.3394 101.803 71.4519 102.062 71.5608C102.319 71.6738 102.555 71.7711 102.768 71.8529L103.985 72.3201C104.198 72.4019 104.438 72.487 104.705 72.5754C104.971 72.6679 105.241 72.7599 105.517 72.8514Z" fill="#333333" fill-opacity="0.7"/>
<path d="M102.484 80.0872C102.242 80.5349 101.926 80.9056 101.537 81.1992C101.517 81.1631 101.464 81.1074 101.381 81.0319C101.297 80.9565 101.22 80.8901 101.151 80.8328L101.159 80.7918C101.4 80.733 101.617 80.6331 101.808 80.4921C102.003 80.3532 102.157 80.1795 102.27 79.9711C102.406 79.7202 102.485 79.4734 102.507 79.2305C102.532 78.9897 102.504 78.757 102.421 78.5322C102.338 78.3075 102.201 78.0957 102.009 77.8969C101.817 77.698 101.574 77.5191 101.281 77.3601C100.984 77.199 100.7 77.0924 100.428 77.0402C100.161 76.9901 99.9102 76.9916 99.6767 77.0448C99.4431 77.098 99.2305 77.2 99.0389 77.3508C98.8512 77.5037 98.6893 77.7056 98.5533 77.9565C98.4508 78.1456 98.386 78.3526 98.3589 78.5776C98.3298 78.8065 98.3424 79.078 98.3968 79.3922L98.3611 79.4028L98.0478 79.1655C98.0353 79.0688 98.0329 78.9627 98.0406 78.847C98.0522 78.7335 98.0738 78.6154 98.1054 78.4927C98.131 78.3717 98.1675 78.2492 98.2148 78.125C98.26 78.0047 98.3119 77.8905 98.3705 77.7824C98.5337 77.4814 98.7317 77.2267 98.9645 77.0183C99.1973 76.8099 99.4518 76.6582 99.728 76.5633C100.006 76.4742 100.3 76.4437 100.609 76.4716C100.922 76.5016 101.239 76.6034 101.56 76.7771C101.888 76.9549 102.154 77.164 102.358 77.4046C102.564 77.651 102.706 77.918 102.785 78.2054C102.864 78.4929 102.878 78.7949 102.826 79.1114C102.778 79.43 102.664 79.7553 102.484 80.0872Z" fill="#333333" fill-opacity="0.7"/>
<path d="M97.6536 83.83C97.3862 83.6232 97.1227 83.4723 96.8633 83.3772C96.6074 83.2848 96.3599 83.246 96.1208 83.261C95.8817 83.2759 95.6555 83.3424 95.4422 83.4605C95.2323 83.5813 95.0415 83.7528 94.8696 83.9751C94.6978 84.1974 94.5798 84.4253 94.5159 84.6588C94.4526 84.8985 94.4439 85.1359 94.4897 85.371C94.5354 85.6061 94.6352 85.8359 94.7891 86.0603C94.9465 86.2874 95.1589 86.5043 95.4264 86.7111C95.9613 87.1246 96.4722 87.3142 96.9592 87.2801C97.4496 87.2486 97.8694 87.0071 98.2184 86.5555C98.3876 86.3367 98.5042 86.1105 98.5682 85.877C98.6322 85.6435 98.6413 85.4092 98.5955 85.174C98.5498 84.9389 98.4482 84.7078 98.2909 84.4807C98.1335 84.2536 97.9211 84.0367 97.6536 83.83ZM98.4072 86.7098C98.1816 87.0015 97.9328 87.2337 97.6607 87.4062C97.3921 87.5814 97.1121 87.6924 96.8208 87.7391C96.5268 87.7892 96.2271 87.7712 95.9219 87.6851C95.6202 87.6017 95.3234 87.4472 95.0317 87.2217C94.7399 86.9961 94.5139 86.7465 94.3537 86.4728C94.197 86.2018 94.1058 85.9178 94.0803 85.6206C94.0521 85.3269 94.0872 85.0266 94.1857 84.7198C94.2876 84.4157 94.4513 84.1178 94.6768 83.8261C94.8997 83.5378 95.1454 83.306 95.4141 83.1308C95.68 82.9591 95.96 82.8481 96.254 82.7979C96.5454 82.7513 96.8432 82.7679 97.1476 82.8479C97.4529 82.934 97.7531 83.0912 98.0483 83.3194C98.3331 83.5395 98.5552 83.7834 98.7147 84.0509C98.8741 84.3184 98.9693 84.5973 99.0002 84.8875C99.0318 85.1839 98.9985 85.4855 98.9 85.7923C98.8024 86.1052 98.6381 86.4111 98.4072 86.7098Z" fill="#333333" fill-opacity="0.7"/>
<path d="M93.5997 92.5749C93.2897 92.4461 92.9931 92.3257 92.7101 92.2139C92.43 92.1054 92.1422 91.9948 91.8468 91.8823C91.5481 91.7728 91.2311 91.656 90.8959 91.532C90.5604 91.4142 90.1852 91.2818 89.7704 91.1348C89.7882 91.2073 89.8112 91.2987 89.8394 91.4091C89.8676 91.5194 89.8967 91.6407 89.9268 91.7729C89.9598 91.9084 89.9954 92.0533 90.0336 92.2078C90.0686 92.3651 90.105 92.5241 90.1428 92.6847L90.7363 95.1421L90.6725 95.1992C90.3552 94.9176 90.0366 94.6313 89.7168 94.3403C89.3965 94.0554 89.0853 93.7773 88.783 93.5059C88.4803 93.2407 88.1925 92.9887 87.9195 92.7499C87.6465 92.5112 87.4001 92.2988 87.1802 92.1127C87.2315 92.0844 87.2766 92.0558 87.3154 92.0268C87.3543 91.9978 87.3934 91.9658 87.4326 91.9306C87.4784 91.8896 87.5227 91.8469 87.5655 91.8026C87.6054 91.7551 87.6306 91.7207 87.6411 91.6995C87.8362 91.8842 88.0461 92.0822 88.2709 92.2935C88.4956 92.5047 88.7205 92.7128 88.9456 92.9179C89.1675 93.1258 89.3821 93.3225 89.5896 93.5079C89.7968 93.6996 89.9834 93.8683 90.1496 94.0142L90.1594 94.0054C90.0733 93.6462 89.9974 93.3281 89.9317 93.0509C89.8627 92.7767 89.8 92.5292 89.7437 92.3085C89.6873 92.0878 89.636 91.8892 89.5897 91.7125C89.543 91.5421 89.4989 91.3812 89.4574 91.2297C89.416 91.0782 89.3743 90.9298 89.3325 90.7845C89.2904 90.6454 89.2454 90.4999 89.1978 90.3481L89.2419 90.3085C89.8102 90.5479 90.3823 90.7749 90.9582 90.9898C91.5369 91.2079 92.1337 91.4394 92.7483 91.6844L92.7581 91.6756C92.216 90.8999 91.7797 90.2916 91.4493 89.8507C91.1219 89.4132 90.8805 89.1078 90.7252 88.9345C90.77 88.9121 90.8069 88.8908 90.836 88.8706C90.8618 88.8534 90.8894 88.8315 90.9188 88.8052C90.9482 88.7788 90.9745 88.7523 90.9978 88.7255C91.0177 88.7018 91.0413 88.6688 91.0684 88.6268C91.5444 89.3616 92.0038 90.0582 92.4467 90.7166C92.8892 91.3812 93.3013 91.9757 93.6831 92.5002L93.5997 92.5749Z" fill="#333333" fill-opacity="0.7"/>
<path d="M86.3995 98.5375C86.2153 98.6489 86.0439 98.7519 85.8854 98.8464C85.7255 98.947 85.5633 99.0518 85.3986 99.1609C85.2339 99.27 85.0759 99.3773 84.9246 99.4828C84.7757 99.5919 84.614 99.7095 84.4395 99.8356C84.425 99.7978 84.4111 99.7649 84.3978 99.7369C84.3808 99.7113 84.3639 99.6856 84.3469 99.66C84.3057 99.5978 84.2638 99.5465 84.2213 99.5062C84.3604 99.4299 84.4799 99.3639 84.5799 99.3082C84.6823 99.2562 84.786 99.198 84.8909 99.1338C84.9946 99.0757 85.1099 99.0072 85.2367 98.9285C85.3636 98.8497 85.5222 98.7473 85.7125 98.6212C85.6192 98.4724 85.5411 98.3425 85.4781 98.2315C85.4114 98.1229 85.3406 98.0119 85.2654 97.8985L84.7872 97.1884C84.6591 97.2732 84.5438 97.3496 84.4413 97.4175C84.3376 97.4914 84.2357 97.5642 84.1356 97.6357C84.0356 97.7073 83.9349 97.7818 83.8336 97.8595C83.7287 97.9395 83.6139 98.0287 83.4894 98.1269C83.4665 98.0684 83.4344 98.008 83.3932 97.9458C83.352 97.8836 83.3101 97.8323 83.2676 97.792C83.3103 97.769 83.3768 97.7302 83.4671 97.6757C83.5597 97.6249 83.6677 97.5613 83.7909 97.4849C83.9129 97.4147 84.0464 97.3341 84.1916 97.2432C84.3368 97.1523 84.4844 97.0572 84.6345 96.9578L84.1563 96.224C84.1297 96.1837 84.086 96.1178 84.0254 96.0263C83.9612 95.9372 83.8963 95.8433 83.8308 95.7445C83.7654 95.6456 83.706 95.556 83.6527 95.4754C83.5957 95.3973 83.5635 95.3528 83.5563 95.3418L83.4245 95.4291C83.0695 95.6642 82.787 95.8619 82.5771 96.022C82.3635 96.1845 82.2115 96.3088 82.1212 96.395C82.0837 96.3145 82.0516 96.2542 82.0249 96.2139C82.008 96.1883 81.9886 96.159 81.9667 96.1261C81.9437 96.0992 81.9224 96.079 81.903 96.0656C82.0872 95.9541 82.2604 95.8499 82.4226 95.753C82.5825 95.6524 82.7447 95.5476 82.9094 95.4385C83.0741 95.3294 83.2358 95.2197 83.3944 95.1094C83.5506 94.9954 83.716 94.8753 83.8904 94.7492C84.0395 94.9981 84.1879 95.2421 84.3357 95.4811C84.4823 95.7263 84.6186 95.9441 84.7447 96.1344L85.4647 97.2215C85.5083 97.2873 85.5556 97.3587 85.6065 97.4356C85.6598 97.5161 85.7223 97.6064 85.7938 97.7065C85.8678 97.8102 85.9545 97.9291 86.0539 98.0634C86.1497 98.2 86.2649 98.3581 86.3995 98.5375Z" fill="#333333" fill-opacity="0.7"/>
<path d="M79.5291 102.741C79.2444 102.857 78.9757 102.966 78.7231 103.068C78.4722 103.173 78.2182 103.283 77.9611 103.396C77.704 103.509 77.4518 103.623 77.2045 103.737C76.9549 103.856 76.6933 103.981 76.4197 104.111C76.414 104.066 76.407 104.028 76.3986 103.998C76.3903 103.968 76.379 103.937 76.3648 103.905C76.34 103.849 76.3026 103.791 76.2524 103.732C76.3421 103.707 76.4409 103.675 76.5489 103.637C76.6569 103.599 76.77 103.556 76.8883 103.509C77.0043 103.468 77.1206 103.421 77.2371 103.37C77.3513 103.324 77.4627 103.278 77.5712 103.23L77.3389 102.67C77.2934 102.556 77.2493 102.45 77.2068 102.354C77.1644 102.258 77.1245 102.167 77.0873 102.083L76.5509 100.866C76.466 100.673 76.3646 100.454 76.2468 100.208C76.125 99.9642 75.9916 99.6944 75.8468 99.3984C75.9066 99.3816 75.9624 99.3666 76.0141 99.3534C76.0601 99.338 76.1072 99.3196 76.1554 99.2984C76.2036 99.2771 76.2529 99.253 76.3034 99.226C76.348 99.1967 76.3927 99.1674 76.4374 99.1381C76.5439 99.4126 76.6498 99.6802 76.7551 99.9408C76.8564 100.203 76.9521 100.437 77.0424 100.642L77.5815 101.865C77.6204 101.953 77.6611 102.046 77.7036 102.142C77.7461 102.239 77.7942 102.342 77.8477 102.453L78.1015 102.996C78.3425 102.89 78.578 102.776 78.8079 102.656C79.0356 102.541 79.2203 102.443 79.3618 102.361C79.3718 102.439 79.3901 102.507 79.4167 102.568C79.4308 102.6 79.4481 102.628 79.4685 102.653C79.485 102.679 79.5051 102.708 79.5291 102.741Z" fill="#333333" fill-opacity="0.7"/>
<path d="M72.3592 103.366C72.2708 103.039 72.1518 102.76 72.0024 102.528C71.8542 102.3 71.6802 102.119 71.4806 101.987C71.281 101.854 71.0605 101.771 70.8191 101.736C70.5789 101.706 70.3232 101.727 70.052 101.801C69.7808 101.874 69.5493 101.985 69.3573 102.132C69.1622 102.285 69.0119 102.469 68.9065 102.684C68.801 102.899 68.7419 103.143 68.7291 103.415C68.7175 103.691 68.7559 103.992 68.8443 104.318C69.0212 104.971 69.314 105.43 69.7229 105.697C70.1329 105.968 70.6133 106.029 71.1642 105.88C71.4311 105.807 71.6606 105.697 71.8526 105.55C72.0446 105.402 72.1933 105.221 72.2988 105.006C72.4042 104.791 72.4628 104.545 72.4744 104.269C72.486 103.993 72.4476 103.692 72.3592 103.366ZM71.2216 106.117C70.8656 106.213 70.5271 106.248 70.206 106.221C69.8861 106.199 69.5959 106.118 69.3355 105.98C69.0708 105.842 68.8428 105.647 68.6514 105.394C68.4612 105.145 68.3179 104.843 68.2214 104.487C68.125 104.131 68.0955 103.796 68.133 103.481C68.1716 103.17 68.2704 102.889 68.4295 102.636C68.5843 102.385 68.7935 102.167 69.0572 101.982C69.322 101.801 69.6324 101.662 69.9883 101.566C70.34 101.47 70.6758 101.434 70.9957 101.456C71.3114 101.48 71.6016 101.561 71.8663 101.698C72.1268 101.837 72.3542 102.03 72.5486 102.277C72.74 102.53 72.8845 102.837 72.9821 103.197C73.0762 103.544 73.1061 103.873 73.0717 104.182C73.0373 104.492 72.9449 104.772 72.7943 105.022C72.6406 105.277 72.432 105.497 72.1683 105.683C71.9015 105.873 71.586 106.018 71.2216 106.117Z" fill="#333333" fill-opacity="0.7"/>
<path d="M60.6999 105.075C60.6913 104.918 60.677 104.734 60.6569 104.524C60.637 104.318 60.6155 104.084 60.5925 103.822C60.5044 103.818 60.4031 103.814 60.2886 103.812C60.17 103.814 60.0603 103.817 59.9595 103.823C59.8017 103.831 59.6584 103.866 59.5298 103.925C59.4011 103.985 59.2933 104.066 59.2065 104.167C59.1155 104.273 59.0473 104.393 59.0018 104.528C58.9565 104.666 58.9384 104.819 58.9474 104.986C58.959 105.2 59.019 105.375 59.1274 105.51C59.1794 105.577 59.244 105.633 59.3211 105.678C59.3939 105.722 59.4859 105.757 59.5971 105.781C59.7086 105.81 59.8436 105.827 60.0022 105.832C60.1565 105.841 60.3411 105.84 60.5559 105.828L60.7401 105.818L60.6999 105.075ZM60.808 107.806C60.8017 107.609 60.7993 107.402 60.8009 107.187C60.798 106.972 60.7922 106.783 60.7834 106.621L60.7532 106.062L60.3718 106.082C60.2228 106.09 60.0768 106.114 59.9338 106.152C59.7864 106.191 59.6576 106.248 59.5474 106.325C59.4331 106.406 59.3441 106.509 59.2806 106.636C59.2128 106.763 59.1837 106.916 59.1934 107.096C59.2079 107.363 59.3022 107.562 59.4763 107.694C59.6507 107.829 59.9352 107.887 60.3297 107.865C60.4087 107.861 60.4896 107.854 60.5727 107.846C60.6514 107.837 60.7298 107.824 60.808 107.806ZM61.4542 108.048C61.3748 108.044 61.2669 108.041 61.1306 108.04C60.99 108.043 60.8672 108.047 60.762 108.053C60.6436 108.059 60.5277 108.07 60.4142 108.085C60.2965 108.104 60.1785 108.117 60.0602 108.124C59.5823 108.15 59.2274 108.09 58.9953 107.944C58.7632 107.798 58.6386 107.568 58.6215 107.252C58.6059 106.963 58.6848 106.714 58.8582 106.507C59.0275 106.305 59.2961 106.149 59.664 106.041L59.6633 106.028C59.2057 106.022 58.8755 105.932 58.6727 105.759C58.47 105.589 58.3588 105.321 58.3389 104.952C58.3282 104.755 58.3625 104.575 58.4416 104.413C58.5163 104.25 58.6252 104.108 58.7681 103.986C58.9112 103.869 59.0819 103.774 59.2802 103.701C59.4788 103.633 59.6964 103.593 59.9332 103.58C60.0384 103.575 60.1461 103.575 60.2564 103.583C60.3621 103.586 60.4698 103.584 60.5794 103.578C60.6758 103.573 60.7765 103.565 60.8815 103.555C60.9865 103.545 61.0956 103.531 61.2088 103.511C61.2113 103.801 61.2158 104.087 61.2222 104.368C61.2244 104.654 61.2317 104.91 61.2441 105.138L61.3145 106.44C61.3166 106.48 61.3232 106.561 61.3342 106.683C61.3452 106.806 61.3572 106.946 61.3701 107.103C61.383 107.261 61.3985 107.425 61.4165 107.595C61.4301 107.766 61.4427 107.917 61.4542 108.048Z" fill="#333333" fill-opacity="0.7"/>
<path d="M54.2994 108.275C54.0853 108.252 53.8866 108.23 53.7032 108.209C53.5151 108.193 53.3225 108.178 53.1253 108.165C52.9282 108.152 52.7375 108.142 52.5532 108.134C52.3687 108.131 52.1688 108.126 51.9535 108.121C51.9649 108.082 51.9738 108.047 51.9801 108.017C51.9822 107.986 51.9842 107.956 51.9862 107.925C51.9911 107.851 51.9888 107.784 51.9794 107.727C52.1363 107.75 52.2713 107.77 52.3847 107.786C52.4977 107.807 52.6154 107.823 52.7378 107.836C52.8555 107.852 52.9887 107.868 53.1373 107.882C53.286 107.896 53.4742 107.911 53.702 107.926C53.7179 107.751 53.7344 107.6 53.7515 107.473C53.7642 107.347 53.775 107.215 53.784 107.08L53.8335 106.225C53.6802 106.215 53.5422 106.206 53.4195 106.198C53.2922 106.194 53.1671 106.19 53.0441 106.186C52.9212 106.183 52.7959 106.181 52.6683 106.181C52.5363 106.182 52.391 106.183 52.2324 106.186C52.2496 106.125 52.2606 106.058 52.2655 105.983C52.2704 105.909 52.2681 105.843 52.2587 105.785C52.3066 105.792 52.383 105.802 52.4879 105.813C52.5924 105.829 52.7168 105.844 52.8611 105.857C53.0007 105.875 53.1558 105.892 53.3264 105.908C53.4969 105.923 53.672 105.937 53.8516 105.949L53.9156 105.075C53.9188 105.027 53.9239 104.948 53.9311 104.839C53.9339 104.729 53.9392 104.615 53.947 104.497C53.9548 104.378 53.9618 104.271 53.9681 104.175C53.9701 104.078 53.9715 104.023 53.9724 104.01L53.8147 104C53.3897 103.972 53.0453 103.958 52.7813 103.958C52.5129 103.958 52.3167 103.965 52.1926 103.979C52.2115 103.892 52.2225 103.825 52.2257 103.777C52.2277 103.746 52.23 103.711 52.2326 103.671C52.2305 103.636 52.2258 103.607 52.2185 103.585C52.4325 103.608 52.6335 103.63 52.8213 103.651C53.0094 103.667 53.202 103.682 53.3991 103.695C53.5962 103.708 53.7913 103.719 53.9844 103.727C54.1777 103.731 54.382 103.736 54.5972 103.741C54.5651 104.029 54.5354 104.313 54.5082 104.593C54.4764 104.877 54.453 105.133 54.438 105.361L54.3526 106.662C54.3474 106.74 54.3418 106.826 54.3357 106.918C54.3294 107.014 54.3244 107.124 54.3207 107.247C54.3168 107.374 54.3137 107.521 54.3115 107.688C54.305 107.855 54.3009 108.051 54.2994 108.275Z" fill="#333333" fill-opacity="0.7"/>
<path d="M48.9038 107.879C48.8529 107.865 48.761 107.843 48.6281 107.813C48.4909 107.783 48.343 107.75 48.1842 107.715C48.0247 107.685 47.8677 107.653 47.7133 107.619C47.5537 107.588 47.4243 107.564 47.3252 107.545L46.1673 107.324C46.1155 107.314 46.0547 107.305 45.9849 107.296C45.9108 107.286 45.8414 107.275 45.7767 107.263C45.7112 107.255 45.6543 107.248 45.606 107.244C45.5535 107.238 45.5229 107.235 45.5143 107.233L45.5365 107.116C45.6827 107.006 45.8993 106.819 46.1863 106.557C46.4689 106.293 46.8245 105.952 47.253 105.533C47.6815 105.114 48.0532 104.747 48.3681 104.432C48.6778 104.12 48.932 103.854 49.1307 103.632C49.122 103.631 49.0668 103.616 48.9649 103.587C48.858 103.562 48.7333 103.536 48.591 103.509C48.4358 103.48 48.2456 103.446 48.0205 103.407C47.7946 103.373 47.5683 103.341 47.3416 103.311C47.1149 103.281 46.9055 103.255 46.7132 103.231C46.521 103.208 46.3784 103.194 46.2854 103.19C46.3006 103.157 46.3158 103.124 46.331 103.091C46.3419 103.058 46.351 103.022 46.3584 102.983C46.365 102.948 46.3694 102.913 46.3717 102.878C46.3688 102.846 46.3668 102.81 46.3656 102.77C46.6227 102.828 46.8349 102.875 47.0023 102.911C47.1653 102.947 47.3003 102.977 47.4073 103.002C47.5151 103.022 47.6035 103.039 47.6725 103.052C47.7415 103.066 47.8084 103.078 47.8731 103.091C48.0412 103.123 48.2245 103.158 48.4229 103.196C48.6221 103.229 48.8187 103.264 49.0128 103.301C49.2076 103.334 49.3939 103.365 49.5715 103.394C49.7492 103.424 49.8988 103.448 50.0203 103.467L49.9994 103.577C49.8209 103.739 49.6223 103.925 49.4038 104.133C49.1852 104.342 48.9603 104.561 48.729 104.789C48.4934 105.017 48.2599 105.245 48.0286 105.473C47.793 105.701 47.5728 105.918 47.368 106.125C47.1632 106.332 46.9802 106.518 46.819 106.684C46.6534 106.849 46.5233 106.981 46.4286 107.079C46.4501 107.083 46.5015 107.095 46.5826 107.115C46.6594 107.134 46.7603 107.156 46.8854 107.179C47.3295 107.264 47.7348 107.33 48.1012 107.378C48.4632 107.424 48.7562 107.458 48.9803 107.478C48.9447 107.548 48.9212 107.612 48.9097 107.673C48.9031 107.707 48.9013 107.74 48.9041 107.772C48.9019 107.808 48.9018 107.843 48.9038 107.879Z" fill="#333333" fill-opacity="0.7"/>
<path d="M41.9257 103.847C41.8509 103.821 41.7561 103.787 41.6412 103.743C41.5262 103.699 41.394 103.652 41.2444 103.6C41.207 103.588 41.1613 103.572 41.1073 103.554C41.0519 103.539 40.993 103.522 40.9307 103.5C40.8642 103.478 40.7998 103.456 40.7375 103.434C40.6696 103.416 40.6086 103.397 40.5546 103.379L40.7061 105.198L41.9257 103.847ZM40.2133 105.969L40.0718 103.917C40.0194 103.092 39.9714 102.424 39.9279 101.913C39.8829 101.406 39.8512 101.084 39.8327 100.948C39.8866 100.98 39.9399 101.007 39.9925 101.03C40.0409 101.051 40.0942 101.072 40.1524 101.092C40.2105 101.111 40.2694 101.129 40.329 101.145C40.3859 101.155 40.4406 101.164 40.4933 101.173C40.4831 101.434 40.4873 101.728 40.5058 102.054C40.5228 102.385 40.5427 102.721 40.5652 103.062C40.6953 103.116 40.8289 103.166 40.9661 103.213C41.1032 103.26 41.2382 103.306 41.3711 103.351C41.4999 103.395 41.6315 103.438 41.7659 103.479C41.8961 103.519 42.0215 103.559 42.142 103.601C42.3015 103.418 42.4429 103.256 42.5661 103.112C42.6852 102.967 42.7923 102.837 42.8875 102.721C42.9786 102.604 43.0592 102.497 43.1293 102.4C43.198 102.307 43.2604 102.22 43.3165 102.137C43.358 102.165 43.3967 102.187 43.4327 102.204C43.4645 102.22 43.4991 102.234 43.5365 102.247C43.5739 102.259 43.612 102.27 43.6508 102.279C43.6896 102.287 43.7319 102.292 43.7777 102.294C43.5525 102.533 43.293 102.811 42.9992 103.128C42.7012 103.444 42.3969 103.771 42.0863 104.11C41.7715 104.448 41.463 104.781 41.1608 105.11C40.853 105.441 40.5766 105.741 40.3317 106.01L40.2133 105.969Z" fill="#333333" fill-opacity="0.7"/>
<path d="M34.6508 103.795C34.5995 103.76 34.5541 103.728 34.5146 103.699C34.4692 103.672 34.4229 103.646 34.3756 103.623C34.3283 103.6 34.28 103.579 34.2308 103.56C34.1757 103.542 34.1225 103.526 34.0714 103.511C34.1566 103.357 34.237 103.213 34.3125 103.079C34.3822 102.947 34.4509 102.817 34.5186 102.689C34.5844 102.564 34.6502 102.44 34.716 102.316C34.7779 102.19 34.8417 102.06 34.9074 101.926C34.9538 101.831 35.0089 101.719 35.0727 101.589C35.1365 101.459 35.2051 101.319 35.2786 101.169C35.3462 101.021 35.4167 100.872 35.4901 100.723C35.5597 100.571 35.6273 100.428 35.693 100.294C35.7529 100.162 35.8079 100.045 35.8582 99.9423C35.9065 99.8437 35.9423 99.7708 35.9655 99.7235L35.8177 99.651C35.6285 99.5582 35.462 99.479 35.3181 99.4133C35.1743 99.3477 35.0443 99.2888 34.928 99.2367C34.8099 99.1885 34.7015 99.1452 34.6031 99.1067C34.5027 99.0721 34.4003 99.0365 34.296 99C34.3212 98.9684 34.3446 98.9408 34.366 98.917C34.3835 98.8914 34.399 98.8648 34.4125 98.8372C34.4377 98.7859 34.4568 98.722 34.47 98.6453C34.5823 98.7053 34.6848 98.7605 34.7775 98.8108C34.8702 98.8611 34.9589 98.9095 35.0437 98.956C35.1265 98.9966 35.2083 99.0392 35.2891 99.0837C35.3719 99.1243 35.4566 99.1659 35.5433 99.2084C35.7246 99.2973 35.9069 99.3843 36.0902 99.4693C36.2714 99.5484 36.4586 99.6304 36.6516 99.7153C36.5122 99.9697 36.3767 100.221 36.2451 100.469C36.1095 100.716 35.9915 100.942 35.891 101.147L35.3168 102.317C35.2163 102.522 35.1101 102.754 34.9982 103.012C34.8824 103.268 34.7666 103.529 34.6508 103.795Z" fill="#333333" fill-opacity="0.7"/>
<path d="M27.0915 99.7473C27.0479 99.7031 27.0095 99.6629 26.9764 99.6266C26.9372 99.5912 26.8966 99.5575 26.8547 99.5256C26.8128 99.4937 26.7695 99.4635 26.725 99.4351C26.6742 99.4075 26.6253 99.3813 26.578 99.3563C26.7853 99.1059 26.97 98.8851 27.1321 98.6939C27.2907 98.5002 27.4457 98.3037 27.5973 98.1046L27.7928 97.8479C27.2559 97.4225 26.8949 97.1394 26.7098 96.9984C26.5247 96.8575 26.1557 96.5848 25.6028 96.1803L25.4792 96.3428C25.3808 96.472 25.2974 96.5851 25.2291 96.6821C25.1573 96.7764 25.0872 96.872 25.0189 96.969C24.9479 97.0694 24.872 97.1799 24.7913 97.3005C24.7043 97.4219 24.5979 97.5726 24.4719 97.7526C24.4283 97.7084 24.3899 97.6681 24.3568 97.6319C24.3176 97.5965 24.277 97.5628 24.2351 97.5309C24.1932 97.499 24.1499 97.4688 24.1054 97.4404C24.0546 97.4128 24.0056 97.3866 23.9584 97.3616C24.1471 97.1356 24.3318 96.9148 24.5125 96.6992C24.6897 96.481 24.8461 96.2828 24.9817 96.1047L25.7716 95.0673C25.9073 94.8892 26.058 94.684 26.2239 94.4516C26.3837 94.2201 26.5461 93.9851 26.7111 93.7466C26.7485 93.7916 26.7869 93.8319 26.8261 93.8673C26.8654 93.9027 26.906 93.9363 26.9479 93.9682C26.9898 94.0002 27.033 94.0303 27.0776 94.0588C27.1187 94.0845 27.1677 94.1108 27.2246 94.1375C27.0385 94.3601 26.8569 94.5805 26.6797 94.7987C26.499 95.0142 26.3395 95.2128 26.2012 95.3945L25.7903 95.9341C25.7799 95.9261 25.8165 95.9541 25.9004 96.0179C25.9815 96.0852 26.0815 96.1641 26.2002 96.2545C26.319 96.3449 26.443 96.4394 26.5722 96.5378C26.6988 96.6397 26.8005 96.7199 26.8774 96.7784C26.9437 96.8289 27.069 96.9216 27.2533 97.0564C27.4315 97.192 27.6738 97.3738 27.9803 97.6017L28.3912 97.062C28.5269 96.8839 28.6776 96.6787 28.8435 96.4463C29.0033 96.2148 29.1657 95.9798 29.3307 95.7413C29.3682 95.7863 29.4065 95.8266 29.4457 95.862C29.485 95.8974 29.5256 95.931 29.5675 95.963C29.6094 95.9949 29.6527 96.025 29.6972 96.0535C29.7383 96.0792 29.7873 96.1055 29.8442 96.1322C29.6582 96.3548 29.4765 96.5752 29.2993 96.7934C29.1187 97.009 28.9592 97.2076 28.8209 97.3892L28.031 98.4265C27.8927 98.6082 27.7436 98.8147 27.5839 99.0463C27.4207 99.2751 27.2565 99.5088 27.0915 99.7473Z" fill="#333333" fill-opacity="0.7"/>
<path d="M21.5736 92.4932C21.8212 92.263 22.013 92.0277 22.1491 91.7872C22.282 91.5497 22.3605 91.3119 22.3847 91.0735C22.4089 90.8352 22.3801 90.6012 22.2984 90.3715C22.2134 90.1447 22.0753 89.9285 21.884 89.7227C21.6927 89.517 21.487 89.3635 21.267 89.2623C21.0408 89.1609 20.808 89.1136 20.5686 89.1204C20.3292 89.1272 20.0862 89.1883 19.8397 89.3036C19.59 89.4219 19.3414 89.5961 19.0938 89.8263C18.5987 90.2867 18.3283 90.7599 18.2827 91.2459C18.2339 91.735 18.4038 92.1885 18.7924 92.6064C18.9807 92.8089 19.1849 92.9608 19.4049 93.062C19.6249 93.1632 19.8546 93.2104 20.094 93.2035C20.3334 93.1967 20.578 93.1342 20.8277 93.0159C21.0774 92.8976 21.326 92.7234 21.5736 92.4932ZM18.6095 92.7675C18.3584 92.4974 18.1699 92.2141 18.044 91.9175C17.9149 91.624 17.851 91.3296 17.8524 91.0346C17.8508 90.7363 17.9174 90.4436 18.0521 90.1565C18.1835 89.8724 18.3843 89.6048 18.6544 89.3537C18.9244 89.1026 19.2075 88.9203 19.5036 88.8068C19.7966 88.6963 20.0917 88.6527 20.3891 88.6759C20.6834 88.6959 20.9739 88.7795 21.2606 88.9266C21.544 89.0767 21.8113 89.2867 22.0624 89.5568C22.3105 89.8236 22.4992 90.1039 22.6283 90.3974C22.7544 90.6878 22.8183 90.9821 22.8198 91.2804C22.8184 91.5755 22.7535 91.8666 22.625 92.154C22.4903 92.4411 22.2863 92.7117 22.013 92.9658C21.7494 93.2109 21.4726 93.3903 21.1827 93.5041C20.8928 93.6178 20.6022 93.6662 20.3108 93.6494C20.0132 93.6324 19.7211 93.5503 19.4344 93.4032C19.1416 93.2559 18.8666 93.044 18.6095 92.7675Z" fill="#333333" fill-opacity="0.7"/>
<path d="M13.6172 87.0756C13.795 86.7908 13.9622 86.5179 14.1188 86.2569C14.2717 85.9983 14.4278 85.7325 14.5871 85.4595C14.744 85.1827 14.911 84.8891 15.0881 84.5787C15.2592 84.2669 15.4512 83.9184 15.664 83.5332C15.5896 83.539 15.4956 83.5467 15.3822 83.5564C15.2687 83.5662 15.1443 83.5751 15.0089 83.5832C14.8699 83.5936 14.721 83.6051 14.5624 83.6175C14.4015 83.6262 14.2387 83.6362 14.074 83.6473L11.5528 83.8309L11.5068 83.7587C11.8365 83.4917 12.171 83.2242 12.5104 82.9562C12.8438 82.6869 13.1691 82.4253 13.4862 82.1714C13.7974 81.9162 14.093 81.6735 14.3732 81.4432C14.6533 81.2129 14.9032 81.0045 15.1227 80.818C15.1423 80.8732 15.1631 80.9224 15.1854 80.9655C15.2076 81.0086 15.2328 81.0523 15.2611 81.0968C15.2941 81.1486 15.329 81.1993 15.3656 81.2488C15.4061 81.296 15.4358 81.3264 15.455 81.3402C15.2409 81.5025 15.0112 81.6773 14.7661 81.8644C14.521 82.0516 14.2789 82.2395 14.0398 82.428C13.7983 82.6129 13.5692 82.7925 13.3524 82.9669C13.1294 83.14 12.9325 83.2965 12.7614 83.4366L12.7685 83.4477C13.1368 83.4214 13.4631 83.3986 13.7473 83.3791C14.0291 83.3558 14.2835 83.3345 14.5104 83.315C14.7374 83.2955 14.9418 83.2773 15.1236 83.2605C15.2993 83.2423 15.4653 83.2251 15.6216 83.209C15.7778 83.1928 15.931 83.176 16.0812 83.1585C16.2253 83.1397 16.3761 83.1191 16.5337 83.0969L16.5655 83.1469C16.2365 83.6685 15.919 84.1957 15.6129 84.7287C15.3031 85.2641 14.9771 85.8149 14.635 86.3812L14.642 86.3923C15.496 85.9843 16.1674 85.6534 16.6563 85.3995C17.1415 85.148 17.4823 84.9598 17.6786 84.8349C17.6934 84.8827 17.7084 84.9226 17.7235 84.9546C17.7363 84.9829 17.7533 85.0137 17.7745 85.047C17.7957 85.0804 17.8176 85.1107 17.8402 85.138C17.8604 85.1615 17.889 85.1902 17.926 85.2238C17.1233 85.5733 16.361 85.9126 15.6391 86.2419C14.9111 86.5698 14.2572 86.8792 13.6773 87.1701L13.6172 87.0756Z" fill="#333333" fill-opacity="0.7"/>
<path d="M8.91533 79.0094C8.83588 78.8093 8.76267 78.6232 8.69571 78.4512C8.62295 78.277 8.5464 78.0996 8.46606 77.9191C8.38572 77.7386 8.30606 77.565 8.22706 77.3984C8.14406 77.2335 8.05481 77.0546 7.95931 76.8616C7.99897 76.8536 8.03374 76.8453 8.0636 76.8368C8.09167 76.8243 8.11975 76.8118 8.14782 76.7993C8.21601 76.769 8.27349 76.7362 8.32027 76.701C8.37251 76.8507 8.41783 76.9795 8.45622 77.0873C8.49061 77.197 8.53079 77.3088 8.57677 77.4229C8.61695 77.5348 8.66539 77.6598 8.72208 77.7979C8.77877 77.9361 8.85353 78.1094 8.94636 78.318C9.10858 78.2506 9.24963 78.195 9.36951 78.1513C9.48761 78.1035 9.60882 78.052 9.73315 77.9966L10.5126 77.6425C10.4501 77.5021 10.3938 77.3757 10.3439 77.2634C10.2881 77.1489 10.2332 77.0364 10.1792 76.9259C10.1252 76.8154 10.0683 76.7037 10.0085 76.591C9.94691 76.4742 9.87797 76.3464 9.80166 76.2073C9.86317 76.1944 9.92802 76.1727 9.9962 76.1424C10.0644 76.112 10.1219 76.0792 10.1686 76.044C10.1843 76.0899 10.2115 76.1618 10.2503 76.2599C10.2852 76.3597 10.33 76.4767 10.3849 76.6108C10.434 76.7428 10.4914 76.8878 10.557 77.046C10.6226 77.2042 10.692 77.3655 10.7652 77.53L11.5681 77.1798C11.6122 77.1602 11.6844 77.1281 11.7846 77.0834C11.8831 77.0348 11.9865 76.9864 12.0948 76.9382C12.2031 76.89 12.3014 76.8462 12.3896 76.8069C12.476 76.7637 12.5253 76.7393 12.5373 76.734L12.473 76.5896C12.2999 76.2005 12.1517 75.8893 12.0285 75.6558C11.9036 75.4183 11.8061 75.2478 11.7361 75.1444C11.8216 75.1208 11.8865 75.0991 11.9306 75.0795C11.9587 75.067 11.9908 75.0527 12.0269 75.0366C12.0572 75.0183 12.0805 75.0007 12.097 74.9838C12.1765 75.1839 12.2506 75.3719 12.3193 75.548C12.3921 75.7222 12.4686 75.8996 12.549 76.0801C12.6293 76.2605 12.7108 76.4381 12.7933 76.6128C12.8799 76.7857 12.9709 76.9686 13.0664 77.1616C12.7964 77.2674 12.5312 77.3734 12.271 77.4796C12.0049 77.5837 11.7676 77.6821 11.559 77.7749L10.3679 78.3052C10.2957 78.3373 10.2175 78.3721 10.1332 78.4096C10.045 78.4489 9.94562 78.4955 9.8351 78.5495C9.72057 78.6053 9.58889 78.6711 9.44006 78.747C9.28943 78.8188 9.11453 78.9063 8.91533 79.0094Z" fill="#333333" fill-opacity="0.7"/>
<path d="M6.29907 72.8229C6.23402 72.6225 6.20283 72.4411 6.20551 72.2786C6.20401 72.1176 6.23304 71.9582 6.2926 71.8004C6.38132 71.8177 6.46941 71.8261 6.55688 71.8254C6.643 71.8205 6.74858 71.8116 6.87363 71.7987L6.89802 71.8739C6.55429 72.1516 6.43867 72.4637 6.55115 72.8103C6.62839 73.0484 6.76449 73.2188 6.95942 73.3217C7.15436 73.4246 7.36457 73.4395 7.59006 73.3663C7.69446 73.3324 7.78576 73.2866 7.86396 73.2289C7.93799 73.1726 8.00106 73.0967 8.05319 73.0013C8.10396 72.9018 8.1431 72.7806 8.17061 72.6378C8.19677 72.4909 8.21417 72.3098 8.22282 72.0947C8.23282 71.8838 8.25508 71.7035 8.28958 71.5538C8.32274 71.4 8.37028 71.2691 8.43222 71.1614C8.49417 71.0536 8.574 70.9653 8.67173 70.8967C8.7681 70.8239 8.8831 70.7658 9.01672 70.7224C9.21716 70.6574 9.41726 70.634 9.61704 70.6522C9.81128 70.6676 9.9934 70.7239 10.1634 70.8211C10.332 70.914 10.4823 71.043 10.6143 71.2078C10.7463 71.3727 10.8495 71.57 10.9241 71.7996C10.9891 72.0001 11.0216 72.1926 11.0215 72.3772C11.0201 72.5577 10.9804 72.7483 10.9025 72.949C10.822 72.9428 10.7394 72.9442 10.6546 72.9533C10.5685 72.9581 10.4524 72.9773 10.3064 73.0109L10.282 72.9357C10.4554 72.7733 10.5735 72.5896 10.6362 72.3846C10.6934 72.1768 10.6854 71.9602 10.6122 71.7347C10.5702 71.6052 10.5107 71.493 10.4337 71.398C10.3512 71.3001 10.2574 71.2244 10.1523 71.1708C10.043 71.1186 9.92733 71.0892 9.80521 71.0827C9.67756 71.0734 9.54692 71.0904 9.4133 71.1337C9.20033 71.2028 9.05013 71.3231 8.9627 71.4946C8.87391 71.6619 8.82209 71.8933 8.80725 72.1889C8.79589 72.3957 8.77911 72.5857 8.75691 72.7591C8.72918 72.9297 8.68423 73.0827 8.62207 73.2183C8.55991 73.3538 8.475 73.4691 8.36735 73.564C8.25552 73.6603 8.10773 73.7383 7.924 73.7979C7.74445 73.8562 7.57075 73.8756 7.40292 73.8563C7.23508 73.8369 7.08208 73.785 6.94392 73.7006C6.80023 73.6134 6.67413 73.4951 6.56564 73.3456C6.45297 73.1976 6.36412 73.0233 6.29907 72.8229Z" fill="#333333" fill-opacity="0.7"/>
<path d="M3.49018 59.6444C3.50038 59.592 3.51064 59.5374 3.52095 59.4806C3.52688 59.4236 3.53056 59.3688 3.53198 59.3162C3.53353 59.2591 3.53281 59.2042 3.52985 59.1514C3.52261 59.0941 3.51532 59.039 3.50797 58.9861C3.82607 58.9157 4.13102 58.8449 4.4228 58.7737C4.71457 58.7025 5.01525 58.6272 5.32482 58.5478C5.63012 58.4638 5.95534 58.3738 6.30049 58.2777C6.64126 58.1815 7.01968 58.0731 7.43576 57.9526L7.43611 57.9395L4.78093 56.9784C4.53304 56.8882 4.31112 56.812 4.11518 56.7496C3.91924 56.6872 3.73854 56.6296 3.57308 56.5768C3.59739 56.4897 3.61038 56.4154 3.61204 56.3539C3.61382 56.2881 3.60474 56.2176 3.58482 56.1424C3.79713 56.0866 4.05593 56.0168 4.36123 55.9328C4.66226 55.8443 4.9876 55.7499 5.33726 55.6496C5.68704 55.5448 6.0501 55.4361 6.42645 55.3233C6.79841 55.2103 7.16153 55.0994 7.51581 54.9904L7.51617 54.9772C7.47715 54.9586 7.36625 54.9183 7.18347 54.8562C7.00081 54.7898 6.78109 54.7136 6.5243 54.6276C6.26751 54.5416 5.99115 54.4485 5.69522 54.3483C5.3949 54.2479 5.10977 54.1546 4.83981 54.0683C4.56559 53.9774 4.32179 53.8984 4.10841 53.8311C3.89064 53.7637 3.73817 53.7179 3.65099 53.6936C3.66535 53.65 3.67519 53.6108 3.68053 53.5758C3.68598 53.5364 3.68925 53.497 3.69031 53.4575C3.69174 53.4048 3.68278 53.3299 3.66345 53.2328C3.78929 53.2889 4.03695 53.3878 4.40642 53.5295C4.77149 53.6712 5.27576 53.8626 5.91922 54.104C6.56706 54.3455 7.07577 54.5349 7.44536 54.6723C7.81506 54.8052 8.0543 54.8907 8.16306 54.9288C8.15322 54.9681 8.14343 55.0051 8.13371 55.04C8.12837 55.075 8.12517 55.1122 8.1241 55.1517C8.12244 55.2132 8.13139 55.2881 8.15096 55.3764C7.92525 55.4406 7.66413 55.5148 7.36761 55.599C7.07109 55.6832 6.74136 55.7775 6.37841 55.8819L4.34629 56.4857L4.34593 56.4989C4.51981 56.5651 4.74369 56.6502 5.01756 56.7542C5.29142 56.8582 5.62406 56.9814 6.01547 57.1237L8.08319 57.8845C8.05887 57.9717 8.04588 58.046 8.04422 58.1074C8.04233 58.1776 8.05116 58.2569 8.07073 58.3453C7.46915 58.5047 6.87403 58.6687 6.28537 58.8372C5.69672 59.0058 5.10148 59.1741 4.49966 59.3423C4.25627 59.4104 4.04823 59.4707 3.87554 59.5231C3.70284 59.5755 3.57439 59.616 3.49018 59.6444Z" fill="#333333" fill-opacity="0.7"/>
<path d="M4.12848 48.2665C4.17661 48.0567 4.22191 47.8619 4.2644 47.6823C4.30337 47.4975 4.341 47.308 4.37727 47.1138C4.41354 46.9197 4.44645 46.7315 4.47598 46.5495C4.50121 46.3666 4.52925 46.1686 4.56012 45.9556C4.59734 45.9714 4.63066 45.9844 4.66006 45.9943C4.69027 46 4.72048 46.0056 4.75069 46.0113C4.82405 46.025 4.88999 46.0306 4.94851 46.0281C4.90655 46.181 4.87077 46.3128 4.84118 46.4234C4.80728 46.5332 4.77689 46.6481 4.75 46.7681C4.71961 46.883 4.68855 47.0134 4.65683 47.1594C4.62511 47.3053 4.58829 47.4905 4.54638 47.7149C4.71819 47.7514 4.86587 47.7857 4.9894 47.8177C5.11375 47.8454 5.24281 47.8717 5.37659 47.8967L6.21932 48.0474C6.24753 47.8964 6.27293 47.7604 6.29549 47.6396C6.31455 47.5137 6.33321 47.3899 6.35146 47.2682C6.36972 47.1466 6.38622 47.0224 6.40096 46.8956C6.41651 46.7645 6.43232 46.6201 6.44839 46.4623C6.50639 46.4866 6.57207 46.5055 6.64544 46.5192C6.7188 46.5329 6.78474 46.5386 6.84326 46.5361C6.83008 46.5827 6.81166 46.6575 6.788 46.7602C6.76002 46.8622 6.73058 46.984 6.69966 47.1256C6.66524 47.2621 6.63015 47.4141 6.5944 47.5816C6.55865 47.7491 6.52425 47.9213 6.4912 48.0982L7.35093 48.2655C7.39841 48.2743 7.47608 48.2889 7.58397 48.309C7.69267 48.3248 7.80527 48.3436 7.92179 48.3654C8.03831 48.3872 8.14404 48.4069 8.23898 48.4246C8.33473 48.4381 8.38907 48.446 8.40202 48.4484L8.43104 48.293C8.50922 47.8744 8.56387 47.5341 8.59497 47.2719C8.62687 47.0054 8.64332 46.8098 8.64431 46.6849C8.72821 46.714 8.79389 46.7329 8.84136 46.7418C8.87157 46.7474 8.90609 46.7539 8.94493 46.7612C8.98026 46.7633 9.00952 46.762 9.03271 46.7574C8.98458 46.9673 8.93887 47.1642 8.89558 47.3482C8.85661 47.5329 8.81898 47.7224 8.78271 47.9166C8.74644 48.1108 8.71273 48.3032 8.68158 48.4939C8.65474 48.6854 8.62589 48.8877 8.59503 49.1008C8.31262 49.0346 8.03413 48.9714 7.75955 48.9112C7.48146 48.8459 7.23021 48.7923 7.00581 48.7503L5.7241 48.511C5.64642 48.4964 5.56227 48.4807 5.47165 48.4638C5.3767 48.4461 5.26841 48.4281 5.14677 48.4098C5.02082 48.3908 4.87504 48.3702 4.70944 48.3482C4.54464 48.3219 4.35099 48.2947 4.12848 48.2665Z" fill="#333333" fill-opacity="0.7"/>
<path d="M5.22336 42.8367C5.24941 42.7803 5.27358 42.7303 5.29585 42.6865C5.31518 42.6373 5.3324 42.5875 5.34752 42.537C5.36265 42.4866 5.37567 42.4355 5.38658 42.3838C5.39456 42.3266 5.4019 42.2715 5.40861 42.2185C5.5743 42.2773 5.72949 42.333 5.87415 42.3855C6.01588 42.4326 6.15549 42.479 6.29301 42.5248C6.42632 42.5693 6.55964 42.6138 6.69295 42.6584C6.82752 42.6987 6.9663 42.7403 7.10928 42.7831C7.21021 42.8134 7.33006 42.8493 7.46884 42.8909C7.60762 42.9325 7.75691 42.9772 7.91671 43.0251C8.07357 43.0675 8.2319 43.1127 8.3917 43.1606C8.55277 43.2042 8.70479 43.2475 8.84777 43.2904C8.98781 43.3277 9.1125 43.3628 9.22184 43.3956C9.32697 43.4271 9.40477 43.4504 9.45524 43.4655L9.5025 43.3078C9.56299 43.106 9.61381 42.9287 9.65498 42.776C9.69614 42.6234 9.73289 42.4855 9.76523 42.3622C9.79337 42.2378 9.81835 42.1238 9.84019 42.0204C9.85781 41.9156 9.87607 41.8088 9.89496 41.6999C9.93029 41.7197 9.96141 41.7382 9.98833 41.7554C10.0165 41.7684 10.0453 41.7793 10.0748 41.7882C10.1294 41.8045 10.1957 41.8129 10.2734 41.8133C10.2327 41.934 10.1951 42.0442 10.1606 42.1439C10.1262 42.2436 10.093 42.339 10.0611 42.4303C10.0346 42.5186 10.006 42.6063 9.97537 42.6933C9.94891 42.7816 9.92181 42.872 9.89409 42.9646C9.83612 43.158 9.78025 43.3521 9.72648 43.5468C9.67819 43.7386 9.628 43.9366 9.57592 44.141C9.30214 44.0452 9.03194 43.9528 8.76532 43.8637C8.49996 43.7705 8.25794 43.6911 8.03926 43.6255L6.79026 43.2512C6.57158 43.1857 6.32578 43.1189 6.05286 43.0509C5.78119 42.9786 5.50469 42.9072 5.22336 42.8367Z" fill="#333333" fill-opacity="0.7"/>
<path d="M7.65578 35.4862C7.86288 35.021 8.14883 34.6269 8.51364 34.3039C8.5368 34.3382 8.59316 34.3898 8.68271 34.4585C8.77227 34.5271 8.85359 34.5874 8.92666 34.6391L8.92262 34.6806C8.68633 34.758 8.47832 34.8744 8.2986 35.0299C8.11486 35.1836 7.97479 35.3687 7.87838 35.5853C7.76234 35.846 7.70291 36.0983 7.70009 36.3421C7.69327 36.5841 7.73994 36.8139 7.84011 37.0315C7.94028 37.2491 8.09372 37.4495 8.30045 37.6329C8.50717 37.8162 8.76294 37.9757 9.06776 38.1114C9.37658 38.2488 9.66828 38.333 9.94284 38.364C10.2134 38.3931 10.463 38.3721 10.6917 38.3009C10.9205 38.2297 11.1244 38.1114 11.3037 37.9462C11.479 37.7791 11.6247 37.5652 11.7407 37.3045C11.8282 37.108 11.8767 36.8965 11.8862 36.6701C11.8974 36.4397 11.8637 36.17 11.785 35.861L11.8198 35.8476L12.1506 36.0598C12.1706 36.1552 12.1813 36.2608 12.1825 36.3767C12.1798 36.4909 12.1675 36.6103 12.1456 36.7351C12.1294 36.8577 12.1026 36.9827 12.0651 37.1102C12.0294 37.2336 11.9865 37.3515 11.9365 37.4638C11.7973 37.7766 11.6197 38.046 11.4038 38.2718C11.188 38.4977 10.9461 38.6688 10.6781 38.7849C10.4079 38.8953 10.1175 38.9487 9.80678 38.9449C9.49208 38.9394 9.16829 38.8625 8.8354 38.7143C8.49448 38.5626 8.21288 38.3748 7.99058 38.1509C7.76605 37.9212 7.60327 37.6661 7.50225 37.3857C7.40122 37.1053 7.36418 36.8052 7.3911 36.4857C7.41402 36.1643 7.50225 35.8311 7.65578 35.4862Z" fill="#333333" fill-opacity="0.7"/>
<path d="M12.1842 31.3609C12.4667 31.5465 12.741 31.6768 13.0069 31.7517C13.2692 31.8243 13.5189 31.8439 13.7561 31.8107C13.9934 31.7774 14.2138 31.6938 14.4175 31.5597C14.6175 31.4232 14.7946 31.2375 14.9489 31.0027C15.1032 30.7679 15.2033 30.5316 15.2492 30.2939C15.2938 30.0501 15.2843 29.8127 15.2207 29.5818C15.1571 29.3508 15.0399 29.1294 14.8692 28.9174C14.6949 28.7031 14.4665 28.5031 14.184 28.3175C13.619 27.9462 13.095 27.7963 12.6121 27.8677C12.1255 27.9367 11.7255 28.2097 11.4121 28.6866C11.2602 28.9178 11.1613 29.1522 11.1154 29.39C11.0695 29.6277 11.0784 29.862 11.142 30.093C11.2056 30.3239 11.3246 30.5465 11.499 30.7609C11.6733 30.9753 11.9017 31.1753 12.1842 31.3609ZM11.2121 28.5473C11.4146 28.2391 11.6448 27.9886 11.9029 27.7957C12.1573 27.6004 12.428 27.4683 12.7149 27.3994C13.0042 27.3269 13.3043 27.3218 13.6152 27.3843C13.9224 27.4443 14.2302 27.5756 14.5384 27.7781C14.8466 27.9806 15.091 28.2122 15.2717 28.4728C15.4488 28.7309 15.5615 29.0072 15.6097 29.3015C15.6603 29.5922 15.6483 29.8943 15.5737 30.2077C15.4954 30.5187 15.355 30.8283 15.1525 31.1365C14.9524 31.441 14.7252 31.691 14.4708 31.8863C14.2188 32.0779 13.9482 32.21 13.6588 32.2825C13.3719 32.3514 13.0737 32.3577 12.764 32.3013C12.4531 32.2388 12.1417 32.1051 11.8298 31.9002C11.529 31.7025 11.2888 31.4764 11.1093 31.2219C10.9299 30.9674 10.8136 30.6967 10.7606 30.4097C10.7062 30.1166 10.7164 29.8133 10.791 29.4999C10.8644 29.1804 11.0047 28.8629 11.2121 28.5473Z" fill="#333333" fill-opacity="0.7"/>
<path d="M15.5478 22.3306C15.8668 22.4354 16.1717 22.5328 16.4624 22.6227C16.75 22.7096 17.0453 22.7978 17.3485 22.8875C17.6547 22.974 17.9796 23.0662 18.3233 23.1643C18.6668 23.2562 19.051 23.3596 19.4758 23.4745C19.4525 23.4036 19.4226 23.3142 19.3861 23.2063C19.3496 23.0985 19.3113 22.9798 19.2712 22.8502C19.228 22.7176 19.1814 22.5758 19.1315 22.4248C19.0847 22.2705 19.0363 22.1148 18.9863 21.9575L18.2073 19.5526L18.2665 19.4907C18.6043 19.7473 18.9438 20.0085 19.2849 20.2743C19.6259 20.5339 19.9575 20.7875 20.2796 21.0351C20.6016 21.2765 20.9078 21.5058 21.1982 21.723C21.4886 21.9402 21.7505 22.1332 21.9839 22.302C21.935 22.3341 21.8922 22.3661 21.8556 22.398C21.8191 22.4298 21.7826 22.4648 21.7461 22.5028C21.7036 22.5472 21.6627 22.5931 21.6234 22.6406C21.5872 22.691 21.5647 22.7272 21.5559 22.7492C21.3473 22.5798 21.1228 22.3984 20.8826 22.2049C20.6424 22.0115 20.4023 21.8211 20.1622 21.6338C19.9252 21.4434 19.6962 21.2636 19.4751 21.0945C19.254 20.9193 19.055 20.7652 18.8782 20.6325L18.8691 20.642C18.9823 20.9935 19.0823 21.3049 19.1689 21.5763C19.2586 21.8445 19.34 22.0864 19.413 22.3022C19.486 22.518 19.5523 22.7121 19.612 22.8847C19.6715 23.0511 19.7277 23.2082 19.7806 23.3561C19.8335 23.504 19.8864 23.6488 19.9391 23.7905C19.9918 23.9259 20.0476 24.0675 20.1067 24.2153L20.0658 24.2581C19.4809 24.0628 18.8931 23.88 18.3026 23.7097C17.7088 23.5363 17.0962 23.351 16.4647 23.1536L16.4556 23.1631C17.0553 23.8952 17.5366 24.4685 17.8997 24.8829C18.2595 25.2942 18.5234 25.5803 18.6915 25.7412C18.6486 25.767 18.6134 25.7911 18.586 25.8134C18.5615 25.8325 18.5357 25.8564 18.5084 25.8849C18.481 25.9135 18.4568 25.942 18.4357 25.9704C18.4176 25.9956 18.3966 26.0302 18.3728 26.0742C17.8421 25.3778 17.3309 24.7183 16.8392 24.0956C16.3473 23.4667 15.891 22.9053 15.4704 22.4114L15.5478 22.3306Z" fill="#333333" fill-opacity="0.7"/>
<path d="M22.1585 15.9139C22.3336 15.7886 22.4966 15.6728 22.6474 15.5664C22.799 15.4539 22.9528 15.3369 23.1086 15.2155C23.2645 15.0941 23.4138 14.9751 23.5566 14.8583C23.6967 14.7381 23.8489 14.6084 24.0132 14.4693C24.0305 14.5059 24.0469 14.5376 24.0623 14.5646C24.0812 14.5888 24.1001 14.613 24.119 14.6373C24.1648 14.6962 24.2105 14.7441 24.256 14.781C24.1232 14.8677 24.0091 14.9427 23.9136 15.0059C23.8155 15.0657 23.7166 15.1316 23.6169 15.2036C23.518 15.2696 23.4083 15.3466 23.2878 15.4349C23.1674 15.5231 23.0171 15.6374 22.837 15.7777C22.9414 15.9189 23.0293 16.0425 23.1006 16.1483C23.1754 16.2514 23.2546 16.3567 23.3382 16.4641L23.8695 17.1354C23.9907 17.041 24.0998 16.956 24.1968 16.8805C24.2945 16.7988 24.3905 16.7184 24.4848 16.6394C24.5791 16.5604 24.6737 16.4784 24.7688 16.3932C24.8673 16.3053 24.9749 16.2077 25.0914 16.1002C25.1188 16.1567 25.1554 16.2145 25.2013 16.2733C25.2472 16.3322 25.2928 16.3801 25.3383 16.4171C25.2975 16.4433 25.2342 16.487 25.1484 16.5483C25.0598 16.6061 24.9571 16.6778 24.8401 16.7634C24.7239 16.8428 24.5969 16.9333 24.4591 17.0351C24.3213 17.1368 24.1814 17.243 24.0394 17.3536L24.5724 18.0486C24.6021 18.0867 24.6506 18.1491 24.7181 18.2357C24.789 18.3195 24.8609 18.4082 24.9337 18.5018C25.0065 18.5953 25.0726 18.6801 25.132 18.7563C25.1948 18.8298 25.2302 18.8718 25.2383 18.8822L25.363 18.785C25.699 18.5234 25.9655 18.3047 26.1625 18.129C26.363 17.9506 26.505 17.8149 26.5884 17.7221C26.632 17.7994 26.6686 17.8572 26.6983 17.8953C26.7172 17.9195 26.7388 17.9472 26.763 17.9784C26.7881 18.0034 26.8108 18.0219 26.8312 18.0338C26.6561 18.159 26.4914 18.2762 26.3371 18.3853C26.1855 18.4978 26.0317 18.6148 25.8759 18.7362C25.72 18.8576 25.5672 18.9794 25.4175 19.1015C25.2705 19.2271 25.1149 19.3595 24.9505 19.4986C24.7829 19.2619 24.6162 19.0301 24.4505 18.803C24.2855 18.5698 24.1329 18.3631 23.9926 18.183L23.1914 17.1544C23.1429 17.092 23.0903 17.0245 23.0336 16.9517C22.9743 16.8755 22.9051 16.7903 22.8261 16.696C22.7444 16.5983 22.6488 16.4863 22.5394 16.3601C22.4334 16.2312 22.3064 16.0824 22.1585 15.9139Z" fill="#333333" fill-opacity="0.7"/>
<path d="M28.6385 11.188C28.9133 11.0503 29.1727 10.9209 29.4167 10.7998C29.6585 10.6749 29.9032 10.5459 30.1507 10.4129C30.3982 10.28 30.6408 10.1471 30.8785 10.0144C31.118 9.87581 31.3691 9.73094 31.6318 9.57984C31.6409 9.62475 31.6509 9.66178 31.6615 9.69093C31.6722 9.72007 31.6859 9.75012 31.7025 9.78106C31.7316 9.8352 31.7735 9.88995 31.8281 9.9453C31.7407 9.97733 31.6446 10.0165 31.5399 10.0628C31.4352 10.1091 31.3257 10.1604 31.2115 10.2168C31.099 10.2672 30.9867 10.3226 30.8746 10.3828C30.7642 10.4372 30.6568 10.4924 30.5524 10.5485L30.8276 11.0884C30.8819 11.1987 30.934 11.3003 30.9838 11.3931C31.0337 11.486 31.0804 11.573 31.1241 11.6542L31.7536 12.826C31.8534 13.0116 31.9715 13.2222 32.1081 13.4579C32.2485 13.6914 32.4024 13.9501 32.5699 14.2339C32.5116 14.2553 32.4571 14.2745 32.4066 14.2917C32.3619 14.3107 32.3164 14.3327 32.27 14.3576C32.2236 14.3825 32.1763 14.4104 32.1281 14.4413C32.0859 14.474 32.0436 14.5067 32.0014 14.5393C31.8738 14.274 31.7473 14.0155 31.6221 13.7638C31.5007 13.5101 31.387 13.2846 31.2811 13.0874L30.6484 11.9098C30.6027 11.8247 30.5549 11.7357 30.505 11.6429C30.4552 11.5501 30.3992 11.4506 30.3372 11.3444L30.0419 10.8227C29.8099 10.9474 29.5839 11.0788 29.3641 11.2168C29.146 11.3489 28.9696 11.4612 28.8348 11.5535C28.8188 11.4774 28.7953 11.4103 28.7641 11.3523C28.7475 11.3213 28.728 11.2944 28.7057 11.2715C28.6873 11.2465 28.6649 11.2187 28.6385 11.188Z" fill="#333333" fill-opacity="0.7"/>
<path d="M35.7559 9.97993C35.8699 10.2982 36.0105 10.5672 36.1779 10.7871C36.3437 11.0028 36.5314 11.1687 36.7409 11.2849C36.9504 11.4011 37.1768 11.4669 37.4202 11.4823C37.662 11.4936 37.9152 11.4519 38.1797 11.3571C38.4443 11.2624 38.6664 11.1339 38.8461 10.9716C39.0284 10.8037 39.1636 10.6083 39.2517 10.3856C39.3398 10.1628 39.3794 9.91547 39.3706 9.6435C39.3603 9.36739 39.2982 9.07022 39.1842 8.75197C38.9562 8.11549 38.6279 7.6805 38.1992 7.44701C37.769 7.20938 37.2852 7.18679 36.748 7.37924C36.4876 7.4725 36.2675 7.60028 36.0878 7.76257C35.9081 7.92486 35.7742 8.11738 35.6862 8.34013C35.5981 8.56287 35.5592 8.8123 35.5695 9.08841C35.5797 9.36452 35.6419 9.66169 35.7559 9.97993ZM36.672 7.14763C37.0192 7.02328 37.3538 6.9617 37.676 6.96288C37.9967 6.95993 38.2924 7.01724 38.563 7.13482C38.8378 7.25092 39.0805 7.42744 39.2913 7.66439C39.5006 7.8972 39.6674 8.18719 39.7918 8.53436C39.9161 8.88153 39.9721 9.21356 39.9597 9.53044C39.9458 9.84319 39.8696 10.1316 39.731 10.3958C39.5966 10.6584 39.4053 10.8925 39.1571 11.098C38.9075 11.2993 38.6091 11.4621 38.2619 11.5865C37.9189 11.7094 37.587 11.7723 37.2663 11.7752C36.9497 11.7767 36.654 11.7194 36.3793 11.6033C36.1087 11.4857 35.8667 11.3112 35.6532 11.0799C35.4425 10.843 35.2742 10.5489 35.1483 10.1975C35.0269 9.85864 34.9711 9.53355 34.9809 9.22228C34.9906 8.91101 35.0606 8.62479 35.1909 8.36362C35.3239 8.09683 35.5144 7.8607 35.7626 7.65523C36.0134 7.44414 36.3166 7.27495 36.672 7.14763Z" fill="#333333" fill-opacity="0.7"/>
<path d="M47.2741 7.32615C47.2947 7.48284 47.3231 7.66507 47.3594 7.87284C47.395 8.07626 47.4344 8.30798 47.4775 8.56798C47.5657 8.56522 47.667 8.56073 47.7813 8.55453C47.8994 8.5434 48.0085 8.53124 48.1086 8.51805C48.2653 8.4974 48.4055 8.45236 48.5292 8.38293C48.6529 8.31349 48.7541 8.22488 48.8329 8.11708C48.9155 8.00436 48.9742 7.87927 49.0093 7.74181C49.0437 7.6 49.0501 7.4464 49.0283 7.281C49.0002 7.06773 48.9269 6.89805 48.8084 6.77195C48.7514 6.70862 48.6827 6.65789 48.6024 6.61976C48.5264 6.58106 48.4321 6.55364 48.3192 6.53751C48.2058 6.51703 48.0699 6.51058 47.9115 6.51817C47.7569 6.52083 47.5729 6.53621 47.3597 6.56431L47.1769 6.58839L47.2741 7.32615ZM46.9562 4.61154C46.9777 4.80798 46.9959 5.01369 47.011 5.22869C47.0304 5.44311 47.0507 5.63084 47.0719 5.79188L47.145 6.34683L47.5237 6.29694C47.6717 6.27744 47.8155 6.24299 47.9551 6.1936C48.0991 6.14364 48.2231 6.07638 48.327 5.99183C48.4348 5.90235 48.5155 5.79209 48.5691 5.66105C48.627 5.52943 48.6442 5.37439 48.6207 5.19594C48.5857 4.93043 48.4764 4.73894 48.2926 4.62145C48.1083 4.49961 47.8203 4.46449 47.4285 4.5161C47.3502 4.52643 47.27 4.53921 47.1878 4.55446C47.1101 4.56913 47.0329 4.58816 46.9562 4.61154ZM46.2934 4.41991C46.3728 4.41829 46.4806 4.41295 46.6167 4.40388C46.7566 4.38988 46.8787 4.376 46.9832 4.36223C47.1007 4.34675 47.2155 4.3272 47.3275 4.30359C47.4433 4.27505 47.5599 4.25303 47.6775 4.23755C48.1519 4.17504 48.5104 4.20751 48.753 4.33496C48.9957 4.4624 49.1376 4.68281 49.1789 4.99619C49.2167 5.28346 49.1572 5.53707 49.0002 5.75702C48.8469 5.97204 48.5911 6.14745 48.2326 6.28324L48.2343 6.2963C48.691 6.26713 49.0271 6.33133 49.2427 6.4889C49.4577 6.64212 49.5893 6.90154 49.6375 7.26715C49.6633 7.46301 49.643 7.64503 49.5766 7.81319C49.5146 7.98077 49.417 8.1309 49.2839 8.26356C49.1503 8.39187 48.9874 8.49968 48.7952 8.587C48.6024 8.66996 48.3885 8.72692 48.1535 8.75789C48.049 8.77165 47.9415 8.77918 47.831 8.78045C47.7254 8.78551 47.6182 8.79521 47.5093 8.80955C47.4136 8.82216 47.3138 8.83753 47.2099 8.85564C47.106 8.87376 46.9983 8.8968 46.8869 8.92477C46.8621 8.63578 46.8357 8.35143 46.8077 8.07173C46.7835 7.78709 46.7565 7.53161 46.7267 7.30528L46.5563 6.01258C46.5512 5.97341 46.5384 5.89317 46.518 5.77187C46.4976 5.65058 46.4749 5.51187 46.4499 5.35575C46.4249 5.19964 46.3968 5.03728 46.3658 4.86868C46.3391 4.6995 46.3149 4.54991 46.2934 4.41991Z" fill="#333333" fill-opacity="0.7"/>
<path d="M53.2834 3.63389C53.4986 3.64018 53.6985 3.64665 53.8829 3.65329C54.0718 3.6555 54.2649 3.65546 54.4625 3.65317C54.66 3.65088 54.851 3.64647 55.0353 3.63995C55.2195 3.62903 55.4192 3.61794 55.6342 3.60667C55.6259 3.64628 55.6197 3.68148 55.6156 3.71226C55.616 3.74298 55.6164 3.77371 55.6167 3.80444C55.6176 3.87907 55.6249 3.94484 55.6388 4.00176C55.4806 3.99042 55.3444 3.98102 55.2301 3.97356C55.1158 3.96171 54.9972 3.95431 54.8742 3.95134C54.7556 3.94393 54.6216 3.9389 54.4723 3.93624C54.323 3.93358 54.1342 3.93357 53.906 3.93621C53.9036 4.11185 53.8988 4.26338 53.8915 4.39079C53.8886 4.51814 53.8879 4.64986 53.8895 4.78595L53.906 5.64189C54.0596 5.64011 54.1979 5.63851 54.3208 5.63709C54.4481 5.63122 54.5731 5.62538 54.696 5.61957C54.8189 5.61376 54.9439 5.60572 55.0711 5.59547C55.2027 5.58517 55.3474 5.57251 55.5053 5.55751C55.4928 5.61912 55.4871 5.68724 55.4879 5.76187C55.4888 5.8365 55.4961 5.90227 55.51 5.95918C55.4616 5.95535 55.3847 5.95185 55.2793 5.94868C55.1739 5.94112 55.0487 5.93599 54.9038 5.93328C54.7632 5.92612 54.6073 5.92134 54.436 5.91894C54.2648 5.91653 54.0892 5.91637 53.9092 5.91845L53.9127 6.7943C53.9133 6.84259 53.9142 6.92161 53.9155 7.03135C53.9211 7.14105 53.9247 7.25516 53.926 7.37368C53.9274 7.49221 53.9286 7.59976 53.9298 7.69634C53.9353 7.79286 53.9381 7.84771 53.9383 7.86088L54.0963 7.85905C54.5221 7.85412 54.8666 7.84135 55.1298 7.82074C55.3974 7.80008 55.5925 7.77806 55.7151 7.75469C55.703 7.84264 55.6972 7.91076 55.6978 7.95905C55.6981 7.98977 55.6985 8.02489 55.699 8.0644C55.7038 8.09947 55.7107 8.12793 55.7197 8.14977C55.5045 8.14349 55.3025 8.13704 55.1136 8.13045C54.9248 8.12825 54.7316 8.12829 54.5341 8.13058C54.3365 8.13286 54.1412 8.13732 53.9481 8.14395C53.7551 8.15497 53.551 8.16611 53.336 8.17738C53.3459 7.8875 53.3535 7.60203 53.3591 7.32098C53.3689 7.03549 53.3725 6.77861 53.3699 6.55033L53.3548 5.24655C53.3539 5.16753 53.3529 5.08193 53.3518 4.98975C53.3507 4.89317 53.3472 4.78345 53.3414 4.66058C53.3355 4.53333 53.3273 4.38635 53.3165 4.21963C53.3102 4.05287 53.2992 3.85762 53.2834 3.63389Z" fill="#333333" fill-opacity="0.7"/>
<path d="M58.6173 3.58552C58.6692 3.59556 58.7626 3.6101 58.8974 3.62912C59.0366 3.64862 59.1867 3.6693 59.3477 3.69117C59.5092 3.70867 59.6683 3.72811 59.825 3.7495C59.9864 3.767 60.1174 3.78119 60.2178 3.79207L61.3897 3.91906C61.442 3.92473 61.5034 3.92917 61.5737 3.93237C61.6484 3.93605 61.7184 3.94143 61.7839 3.94853C61.8498 3.95126 61.907 3.95304 61.9555 3.95388C62.0084 3.95519 62.0392 3.95632 62.0479 3.95726L62.0351 4.07511C61.8983 4.19717 61.6974 4.40061 61.4325 4.68543C61.1719 4.97072 60.845 5.33933 60.4515 5.79128C60.0581 6.24322 59.7172 6.63903 59.4287 6.97869C59.145 7.31447 58.9131 7.60065 58.7329 7.83724C58.7416 7.83819 58.7979 7.8487 58.9017 7.86878C59.0103 7.88497 59.1367 7.90087 59.2807 7.91648C59.4378 7.9335 59.6301 7.95213 59.8575 7.97236C60.0854 7.98822 60.3136 8.00191 60.5419 8.01341C60.7703 8.02491 60.9812 8.03451 61.1747 8.04223C61.3682 8.04995 61.5114 8.05222 61.6045 8.04906C61.592 8.08303 61.5795 8.117 61.567 8.15097C61.5588 8.18542 61.5526 8.22228 61.5484 8.26156C61.5446 8.29648 61.543 8.33163 61.5436 8.36702C61.549 8.39852 61.5539 8.43438 61.5584 8.47461C61.2975 8.4375 61.0821 8.40754 60.9124 8.38473C60.747 8.3624 60.61 8.34314 60.5013 8.32695C60.3922 8.31512 60.3028 8.30543 60.2329 8.29786C60.1631 8.29029 60.0954 8.28296 60.03 8.27587C59.8597 8.25742 59.6743 8.23732 59.4735 8.21557C59.2722 8.19818 59.0734 8.17884 58.877 8.15756C58.6801 8.14064 58.492 8.12466 58.3126 8.10964C58.1331 8.09461 57.9821 8.08266 57.8594 8.07378L57.8715 7.96248C58.0363 7.78605 58.2193 7.58508 58.4203 7.35959C58.6214 7.13409 58.828 6.89815 59.0402 6.65177C59.2567 6.40587 59.471 6.15973 59.6832 5.91336C59.8997 5.66745 60.1018 5.43323 60.2893 5.21067C60.4768 4.98812 60.6442 4.78768 60.7916 4.60935C60.9433 4.4315 61.0625 4.28985 61.1489 4.18442C61.1271 4.18205 61.075 4.17419 60.9925 4.16084C60.9144 4.14796 60.8121 4.13467 60.6855 4.12095C60.236 4.07224 59.8267 4.03893 59.4577 4.02102C59.0931 4.00359 58.7983 3.99373 58.5733 3.99143C58.6032 3.9196 58.6215 3.85313 58.6281 3.79202C58.6319 3.75711 58.631 3.7239 58.6256 3.6924C58.625 3.65701 58.6223 3.62138 58.6173 3.58552Z" fill="#333333" fill-opacity="0.7"/>
<path d="M65.9245 7.02184C66.0011 7.04135 66.0984 7.06841 66.2164 7.10301C66.3344 7.13761 66.47 7.17442 66.6232 7.21344C66.6615 7.22319 66.7083 7.23511 66.7636 7.2492C66.82 7.25904 66.8801 7.27208 66.9439 7.28834C67.0119 7.30568 67.0779 7.32248 67.1417 7.33874C67.2108 7.35182 67.2731 7.36541 67.3284 7.3795L67.033 5.57818L65.9245 7.02184ZM67.463 4.77034L67.767 6.80489C67.8847 7.62316 67.9856 8.28537 68.0695 8.79151C68.1546 9.2934 68.2117 9.61149 68.241 9.74579C68.1846 9.71785 68.1294 9.69471 68.0752 9.67637C68.0252 9.65911 67.9704 9.64289 67.9109 9.62772C67.8513 9.61254 67.7912 9.5995 67.7306 9.58858C67.6731 9.583 67.6177 9.57796 67.5645 9.57346C67.554 9.31254 67.5265 9.02014 67.4822 8.69625C67.439 8.36811 67.3925 8.03462 67.3429 7.6958C67.209 7.65261 67.0718 7.61314 66.9314 7.57737C66.791 7.5416 66.6527 7.50638 66.5166 7.4717C66.3847 7.4381 66.2502 7.40609 66.113 7.37566C65.98 7.34632 65.8518 7.31593 65.7284 7.2845C65.5838 7.47871 65.4558 7.65222 65.3444 7.80505C65.2372 7.95897 65.1408 8.09749 65.055 8.22062C64.9736 8.34483 64.9017 8.45791 64.8395 8.55985C64.7784 8.65754 64.7231 8.74992 64.6738 8.83701C64.6302 8.81233 64.5898 8.79298 64.5526 8.77897C64.5197 8.76605 64.4841 8.75471 64.4458 8.74496C64.4075 8.7352 64.3687 8.72757 64.3293 8.72207C64.2899 8.71657 64.2473 8.71479 64.2015 8.71671C64.4071 8.46102 64.6438 8.16341 64.9115 7.82388C65.1834 7.48543 65.4608 7.13477 65.7435 6.77188C66.0305 6.41007 66.3116 6.05357 66.5868 5.70236C66.8674 5.34798 67.119 5.02701 67.3418 4.73945L67.463 4.77034Z" fill="#333333" fill-opacity="0.7"/>
<path d="M73.2505 6.49204C73.3043 6.52287 73.3521 6.55127 73.3938 6.57724C73.4411 6.60075 73.4893 6.62222 73.5382 6.64164C73.5872 6.66107 73.637 6.67846 73.6876 6.69381C73.7439 6.70669 73.7981 6.71877 73.8503 6.73004C73.7774 6.89003 73.7085 7.03982 73.6437 7.1794C73.5846 7.31653 73.5262 7.45161 73.4687 7.58465C73.4128 7.71362 73.357 7.84258 73.3011 7.97154C73.2493 8.10212 73.1958 8.23679 73.1408 8.37553C73.1019 8.47347 73.0558 8.58976 73.0023 8.72443C72.9489 8.85909 72.8914 9.00395 72.8299 9.15902C72.7741 9.31162 72.7154 9.46546 72.6539 9.62053C72.5965 9.77721 72.5402 9.92492 72.4852 10.0637C72.4358 10.1999 72.3901 10.3211 72.348 10.4272C72.3075 10.5293 72.2776 10.6047 72.2581 10.6537L72.4112 10.7144C72.607 10.7921 72.7792 10.8581 72.9278 10.9123C73.0763 10.9665 73.2105 11.0151 73.3305 11.0579C73.4521 11.0967 73.5634 11.1315 73.6646 11.1622C73.7674 11.1888 73.8722 11.2162 73.9791 11.2444C73.9564 11.2779 73.9353 11.3073 73.9158 11.3326C73.9004 11.3596 73.887 11.3873 73.8757 11.4159C73.8546 11.469 73.8405 11.5342 73.8334 11.6117C73.7167 11.5607 73.6102 11.5137 73.5138 11.4707C73.4175 11.4278 73.3253 11.3865 73.2371 11.3468C73.1514 11.3128 73.0666 11.2767 72.9825 11.2387C72.8968 11.2047 72.8091 11.1698 72.7193 11.1342C72.5316 11.0598 72.343 10.9873 72.1537 10.9169C71.9668 10.8522 71.7739 10.7851 71.5747 10.7155C71.6938 10.4511 71.8093 10.1899 71.9211 9.93196C72.0369 9.67565 72.1369 9.4414 72.2211 9.2292L72.702 8.01724C72.7862 7.80504 72.874 7.56594 72.9653 7.29992C73.0608 7.03551 73.1558 6.76622 73.2505 6.49204Z" fill="#333333" fill-opacity="0.7"/>
<path d="M81.2906 10.0057C81.3374 10.0464 81.3788 10.0836 81.4145 10.1172C81.4564 10.1495 81.4995 10.1799 81.5437 10.2085C81.5879 10.2371 81.6334 10.2639 81.68 10.2888C81.7327 10.3124 81.7835 10.3349 81.8325 10.3561C81.6451 10.6218 81.4779 10.8561 81.3309 11.0591C81.1877 11.2644 81.0481 11.4722 80.9122 11.6823L80.737 11.9533C81.305 12.3362 81.6866 12.5908 81.882 12.7172C82.0774 12.8435 82.4662 13.0871 83.0485 13.4479L83.1593 13.2765C83.2475 13.1401 83.322 13.0209 83.3827 12.919C83.447 12.8195 83.5095 12.7187 83.5702 12.6168C83.6333 12.5112 83.7005 12.3952 83.7718 12.2688C83.8491 12.141 83.9437 11.9826 84.0555 11.7935C84.1024 11.8343 84.1437 11.8715 84.1795 11.9051C84.2213 11.9373 84.2644 11.9678 84.3086 11.9964C84.3528 12.025 84.3983 12.0518 84.4449 12.0767C84.4976 12.1003 84.5484 12.1227 84.5974 12.144C84.4267 12.3838 84.2595 12.6181 84.0958 12.8469C83.9359 13.0781 83.7952 13.2877 83.6736 13.4757L82.9656 14.5706C82.844 14.7586 82.7094 14.9748 82.5619 15.2192C82.4204 15.4623 82.2765 15.7091 82.1302 15.9595C82.0894 15.9175 82.0481 15.8803 82.0063 15.848C81.9644 15.8157 81.9214 15.7853 81.8771 15.7567C81.8329 15.7281 81.7874 15.7013 81.7408 15.6764C81.6979 15.6539 81.647 15.6314 81.5883 15.6091C81.7567 15.373 81.9208 15.1393 82.0808 14.9081C82.2444 14.6793 82.3882 14.4691 82.5121 14.2774L82.8804 13.7078C82.8915 13.715 82.8528 13.6899 82.7643 13.6327C82.6782 13.5718 82.5725 13.5009 82.4472 13.4198C82.3218 13.3388 82.1909 13.2541 82.0545 13.1659C81.9205 13.074 81.813 13.0019 81.7319 12.9494C81.6618 12.9041 81.5297 12.8214 81.3357 12.7011C81.1476 12.5795 80.8921 12.4169 80.569 12.2132L80.2007 12.7827C80.0791 12.9708 79.9445 13.187 79.7969 13.4314C79.6554 13.6744 79.5116 13.9212 79.3653 14.1717C79.3245 14.1296 79.2832 14.0925 79.2413 14.0602C79.1995 14.0279 79.1564 13.9974 79.1122 13.9688C79.068 13.9402 79.0225 13.9135 78.9759 13.8885C78.933 13.866 78.8821 13.8436 78.8234 13.8213C78.9917 13.5851 79.1559 13.3514 79.3158 13.1203C79.4795 12.8915 79.6233 12.6812 79.7472 12.4895L80.4552 11.3946C80.5792 11.2029 80.7119 10.9855 80.8534 10.7424C80.9986 10.5017 81.1443 10.2561 81.2906 10.0057Z" fill="#333333" fill-opacity="0.7"/>
<path d="M87.3421 16.7965C87.1128 17.0449 86.9394 17.2942 86.8221 17.5443C86.7077 17.7912 86.6475 18.0344 86.6415 18.2738C86.6356 18.5133 86.6821 18.7444 86.7811 18.9673C86.8831 19.1869 87.0373 19.392 87.2438 19.5826C87.4502 19.7731 87.667 19.9105 87.894 19.9946C88.1273 20.0785 88.363 20.1079 88.6013 20.0828C88.8395 20.0578 89.0771 19.9784 89.314 19.8446C89.554 19.7076 89.7886 19.515 90.0179 19.2666C90.4765 18.7698 90.71 18.2773 90.7184 17.7892C90.7299 17.2979 90.5259 16.8587 90.1065 16.4716C89.9033 16.284 89.6882 16.1481 89.4611 16.064C89.2341 15.9799 89.0014 15.9504 88.7632 15.9754C88.525 16.0005 88.2859 16.0815 88.0459 16.2185C87.806 16.3554 87.5714 16.5481 87.3421 16.7965ZM90.2766 16.297C90.5476 16.5472 90.7572 16.8153 90.9053 17.1014C91.0564 17.3843 91.1425 17.6729 91.1636 17.9672C91.1879 18.2644 91.1439 18.5614 91.0315 18.8579C90.922 19.1512 90.7423 19.4333 90.4921 19.7043C90.242 19.9753 89.9736 20.1786 89.687 20.3144C89.4034 20.4469 89.1124 20.5129 88.8142 20.5124C88.5191 20.5149 88.2231 20.4537 87.926 20.3289C87.632 20.2008 87.3495 20.0117 87.0785 19.7616C86.8108 19.5144 86.6013 19.2494 86.4502 18.9665C86.3023 18.6866 86.2162 18.398 86.1919 18.1008C86.1708 17.8065 86.2134 17.5112 86.3196 17.2149C86.432 16.9183 86.6148 16.633 86.8679 16.3588C87.112 16.0943 87.3743 15.8943 87.6547 15.7588C87.9351 15.6233 88.2213 15.5528 88.5131 15.5474C88.8111 15.5417 89.1086 15.6012 89.4057 15.726C89.7089 15.8506 89.9992 16.0409 90.2766 16.297Z" fill="#333333" fill-opacity="0.7"/>
<path d="M95.6965 21.5801C95.5411 21.8778 95.3954 22.1627 95.2593 22.4349C95.1267 22.7044 94.9915 22.9814 94.8536 23.2659C94.7184 23.5539 94.5744 23.8595 94.4216 24.1826C94.275 24.5066 94.1104 24.8688 93.9277 25.2691C94.0015 25.2577 94.0946 25.2428 94.2069 25.2244C94.3193 25.2059 94.4427 25.1875 94.577 25.169C94.7149 25.148 94.8624 25.1251 95.0196 25.1006C95.1794 25.0795 95.3409 25.0571 95.5042 25.0334L98.004 24.6567L98.0553 24.7252C97.7472 25.0167 97.4341 25.3091 97.1163 25.6024C96.8046 25.8965 96.5003 26.1823 96.2036 26.4598C95.9129 26.7381 95.6368 27.0028 95.3751 27.2539C95.1135 27.505 94.8804 27.732 94.6758 27.9348C94.6521 27.8813 94.6275 27.8339 94.602 27.7926C94.5766 27.7513 94.548 27.7096 94.5164 27.6675C94.4796 27.6183 94.4409 27.5704 94.4005 27.5239C94.3566 27.48 94.3246 27.4519 94.3044 27.4396C94.5055 27.2614 94.721 27.0695 94.9511 26.8641C95.1811 26.6586 95.4081 26.4527 95.632 26.2464C95.8585 26.0436 96.0732 25.8469 96.276 25.6564C96.485 25.4667 96.6694 25.2955 96.8292 25.1427L96.8213 25.1322C96.456 25.1866 96.1325 25.2345 95.8506 25.2757C95.5714 25.3205 95.3194 25.3613 95.0946 25.3982C94.8699 25.4351 94.6675 25.4689 94.4875 25.4996C94.3136 25.5312 94.1494 25.5611 93.9949 25.5892C93.8404 25.6173 93.6889 25.6458 93.5405 25.6748C93.3983 25.7046 93.2495 25.7367 93.094 25.7709L93.0585 25.7235C93.3465 25.1783 93.6226 24.6282 93.8869 24.0733C94.1547 23.5157 94.4374 22.9415 94.7351 22.3506L94.7272 22.34C93.9071 22.8124 93.2631 23.1939 92.7951 23.4845C92.3306 23.7725 92.0053 23.9863 91.8192 24.1259C91.8007 24.0794 91.7827 24.0408 91.7652 24.01C91.7502 23.9828 91.7309 23.9534 91.7072 23.9218C91.6835 23.8902 91.6594 23.8616 91.6348 23.8362C91.6128 23.8142 91.5821 23.7879 91.5426 23.7572C92.3161 23.3471 93.0502 22.9503 93.7447 22.5666C94.4453 22.1838 95.0736 21.8251 95.6294 21.4906L95.6965 21.5801Z" fill="#333333" fill-opacity="0.7"/>
<path d="M100.992 29.216C101.087 29.4093 101.175 29.5891 101.255 29.7554C101.341 29.9234 101.431 30.0943 101.525 30.268C101.619 30.4416 101.712 30.6085 101.804 30.7685C101.899 30.9264 102.002 31.0979 102.113 31.2828C102.074 31.2939 102.04 31.3048 102.011 31.3156C101.984 31.3303 101.956 31.3449 101.929 31.3596C101.864 31.3951 101.809 31.4323 101.765 31.4711C101.701 31.3259 101.646 31.201 101.6 31.0964C101.557 30.9898 101.508 30.8814 101.453 30.7713C101.405 30.6629 101.347 30.542 101.279 30.4087C101.212 30.2754 101.124 30.1084 101.015 29.9077C100.859 29.9875 100.722 30.0539 100.606 30.1068C100.492 30.1636 100.375 30.2245 100.256 30.2893L99.5063 30.7031C99.5795 30.8381 99.6454 30.9597 99.704 31.0678C99.7685 31.1776 99.832 31.2855 99.8944 31.3915C99.9569 31.4975 100.022 31.6044 100.091 31.7121C100.161 31.8237 100.24 31.9458 100.327 32.0785C100.266 32.0962 100.203 32.1229 100.138 32.1584C100.072 32.194 100.017 32.2312 99.9736 32.2699C99.9544 32.2254 99.9217 32.1557 99.8753 32.061C99.8328 31.9642 99.779 31.8511 99.7138 31.7216C99.6546 31.5939 99.5861 31.4538 99.5084 31.3011C99.4307 31.1485 99.3489 30.9931 99.2631 30.8349L98.49 31.2464C98.4475 31.2694 98.3781 31.3071 98.2816 31.3594C98.1872 31.4156 98.0879 31.4719 97.9837 31.5284C97.8795 31.5849 97.7849 31.6361 97.7 31.6821C97.6172 31.732 97.57 31.7601 97.5584 31.7664L97.6337 31.9053C97.8366 32.2797 98.0086 32.5785 98.1495 32.8017C98.2926 33.0288 98.4031 33.1911 98.4809 33.2887C98.3975 33.319 98.3345 33.3456 98.292 33.3686C98.265 33.3833 98.2341 33.4 98.1994 33.4189C98.1706 33.4394 98.1487 33.4588 98.1336 33.477C98.0388 33.2837 97.9503 33.102 97.868 32.9318C97.7819 32.7638 97.6918 32.5929 97.5977 32.4192C97.5035 32.2455 97.4085 32.0748 97.3126 31.9071C97.2128 31.7415 97.1078 31.5662 96.9976 31.3812C97.2586 31.2547 97.5147 31.1284 97.7659 31.0022C98.023 30.8778 98.252 30.7612 98.4527 30.6525L99.599 30.0311C99.6684 29.9935 99.7437 29.9527 99.8248 29.9087C99.9097 29.8627 100.005 29.8085 100.111 29.746C100.221 29.6815 100.347 29.6056 100.49 29.5184C100.634 29.4351 100.802 29.3342 100.992 29.216Z" fill="#333333" fill-opacity="0.7"/>
<path d="M104.163 35.3481C104.243 35.5431 104.287 35.7217 104.297 35.8838C104.31 36.0443 104.293 36.2055 104.246 36.3673C104.156 36.3566 104.068 36.3549 103.98 36.3622C103.895 36.3735 103.79 36.3903 103.667 36.4125L103.637 36.3394C103.958 36.0367 104.05 35.7167 103.912 35.3796C103.817 35.148 103.669 34.9883 103.467 34.9003C103.265 34.8123 103.054 34.8133 102.834 34.9032C102.733 34.9448 102.645 34.9973 102.572 35.0607C102.502 35.1224 102.445 35.2028 102.4 35.3018C102.357 35.4049 102.327 35.5287 102.31 35.6731C102.295 35.8216 102.291 36.0034 102.299 36.2186C102.305 36.4297 102.296 36.6112 102.273 36.763C102.251 36.9189 102.214 37.0529 102.16 37.1651C102.106 37.2772 102.033 37.3712 101.941 37.447C101.851 37.5268 101.74 37.5934 101.61 37.6466C101.415 37.7265 101.217 37.7649 101.017 37.7617C100.822 37.7609 100.636 37.7184 100.459 37.6343C100.284 37.5543 100.125 37.437 99.9807 37.2825C99.8368 37.128 99.719 36.939 99.6274 36.7156C99.5475 36.5206 99.5007 36.3311 99.4869 36.1469C99.4748 35.9669 99.5001 35.7738 99.5627 35.5679C99.6434 35.568 99.7257 35.5604 99.8096 35.545C99.8951 35.5337 100.009 35.5058 100.152 35.4614L100.182 35.5345C100.022 35.7095 99.9177 35.9016 99.8706 36.1107C99.8292 36.3222 99.8534 36.5376 99.9433 36.757C99.9949 36.8829 100.063 36.9903 100.147 37.0793C100.236 37.1707 100.335 37.2391 100.444 37.2847C100.557 37.3286 100.675 37.3492 100.797 37.3465C100.925 37.3463 101.054 37.3195 101.184 37.2662C101.391 37.1813 101.532 37.0501 101.606 36.8726C101.682 36.6991 101.716 36.4644 101.709 36.1685C101.705 35.9615 101.707 35.7707 101.716 35.5962C101.731 35.424 101.765 35.268 101.816 35.1282C101.868 34.9883 101.944 34.867 102.045 34.7643C102.149 34.6599 102.29 34.571 102.469 34.4978C102.644 34.4262 102.815 34.3938 102.984 34.4005C103.153 34.4072 103.31 34.4475 103.454 34.5213C103.604 34.5975 103.738 34.706 103.858 34.8468C103.981 34.986 104.083 35.1531 104.163 35.3481Z" fill="#333333" fill-opacity="0.7"/>
<circle cx="106.234" cy="47.6932" r="0.87243" fill="#333333" fill-opacity="0.7"/>
<circle cx="5.50683" cy="64.5405" r="0.624017" fill="#333333" fill-opacity="0.7"/>
</svg>
