<svg width="120" height="42" viewBox="0 0 120 42" fill="none" xmlns="http://www.w3.org/2000/svg">
<rect width="120" height="42" rx="12" fill="#1EAEA3"/>
<path d="M42.912 27.192C41.6213 27.192 40.5813 26.824 39.792 26.088C39.0027 25.3413 38.5867 24.472 38.544 23.48H40.864C40.9493 23.9813 41.1787 24.3707 41.552 24.648C41.9253 24.9147 42.3787 25.048 42.912 25.048C43.392 25.048 43.7813 24.9467 44.08 24.744C44.3787 24.5307 44.528 24.248 44.528 23.896C44.528 23.2667 44.0213 22.808 43.008 22.52L41.808 22.168C40.88 21.9013 40.1547 21.4853 39.632 20.92C39.1093 20.3547 38.8427 19.6507 38.832 18.808C38.832 17.7733 39.1787 16.9573 39.872 16.36C40.5653 15.752 41.488 15.448 42.64 15.448C43.8027 15.448 44.7467 15.8 45.472 16.504C46.1973 17.1973 46.5813 17.9973 46.624 18.904H44.32C44.2027 18.456 43.9893 18.1253 43.68 17.912C43.3707 17.6987 43.024 17.592 42.64 17.592C42.2133 17.592 41.8613 17.688 41.584 17.88C41.3173 18.0613 41.1787 18.3173 41.168 18.648C41.1573 18.9893 41.2693 19.2667 41.504 19.48C41.7387 19.6933 42.1013 19.8693 42.592 20.008L43.92 20.376C45.8827 20.92 46.864 22.0667 46.864 23.816C46.864 24.7973 46.496 25.608 45.76 26.248C45.0347 26.8773 44.0853 27.192 42.912 27.192ZM48.7484 27V15.64H51.0684V27H48.7484ZM58.9201 27.192C57.2028 27.192 55.7735 26.6267 54.6321 25.496C53.5015 24.3653 52.9361 22.9733 52.9361 21.32C52.9361 19.6667 53.5015 18.2747 54.6321 17.144C55.7628 16.0133 57.1815 15.448 58.8881 15.448C60.0828 15.448 61.1761 15.7787 62.1681 16.44C63.1708 17.0907 63.8641 17.944 64.2481 19H61.5921C61.3148 18.5947 60.9308 18.2747 60.4401 18.04C59.9601 17.8053 59.4428 17.688 58.8881 17.688C57.8215 17.688 56.9521 18.0347 56.2801 18.728C55.6081 19.4213 55.2721 20.2853 55.2721 21.32C55.2721 22.3547 55.6081 23.2187 56.2801 23.912C56.9521 24.6053 57.8321 24.952 58.9201 24.952C59.8268 24.952 60.5521 24.728 61.0961 24.28C61.6508 23.8213 61.9921 23.1867 62.1201 22.376H58.6481V20.2H64.5201C64.6481 21.3307 64.5895 22.3493 64.3441 23.256C64.0988 24.1627 63.7095 24.8987 63.1761 25.464C62.6428 26.0187 62.0135 26.4453 61.2881 26.744C60.5628 27.0427 59.7735 27.192 58.9201 27.192ZM76.6111 27H74.6111L68.7871 19.592V27H66.4671V15.64H68.4671L74.2911 23.048V15.64H76.6111V27ZM87.2756 27.192C85.8996 27.192 84.785 26.7653 83.9316 25.912C83.0783 25.0587 82.6516 23.928 82.6516 22.52V15.64H84.9716V22.552C84.9716 23.2987 85.1796 23.8853 85.5956 24.312C86.0116 24.7387 86.5716 24.952 87.2756 24.952C87.9796 24.952 88.5396 24.7387 88.9556 24.312C89.3716 23.8853 89.5796 23.2987 89.5796 22.552V15.64H91.8996V22.52C91.8996 23.9173 91.4676 25.048 90.6036 25.912C89.7396 26.7653 88.6303 27.192 87.2756 27.192ZM100.919 16.744C101.677 17.4693 102.055 18.376 102.055 19.464C102.055 20.552 101.677 21.464 100.919 22.2C100.162 22.9253 99.2126 23.288 98.0713 23.288H96.6153V27H94.2953V15.64H98.0713C99.2126 15.64 100.162 16.008 100.919 16.744ZM99.3193 20.648C99.6393 20.3387 99.7993 19.944 99.7993 19.464C99.7993 18.984 99.6393 18.5893 99.3193 18.28C98.9993 17.9707 98.5726 17.816 98.0393 17.816H96.6153V21.112H98.0393C98.5726 21.112 98.9993 20.9573 99.3193 20.648Z" fill="white"/>
<g clip-path="url(#clip0_745_1359)">
<path d="M24 11C19.0373 11 15 15.0373 15 20C15 24.9628 19.0373 29 24 29C28.9628 29 33 24.9628 33 20C33 15.0373 28.9628 11 24 11ZM24 26.75C20.2785 26.75 17.25 23.7215 17.25 20C17.25 16.2785 20.2785 13.25 24 13.25C27.7215 13.25 30.75 16.2785 30.75 20C30.75 23.7215 27.7215 26.75 24 26.75ZM28.5 20C28.5 22.226 26.8755 24.0793 24.75 24.437V25.25C24.75 25.664 24.414 26 24 26C23.586 26 23.25 25.664 23.25 25.25V24.437C21.1245 24.0793 19.5 22.226 19.5 20C19.5 19.586 19.836 19.25 20.25 19.25C20.664 19.25 21 19.586 21 20C21 21.6545 22.3455 23 24 23C25.6545 23 27 21.6545 27 20C27 19.586 27.336 19.25 27.75 19.25C28.164 19.25 28.5 19.586 28.5 20ZM22.5 19.9198V16.3302C22.5 15.5833 23.0107 14.8902 23.748 14.7702C24.6877 14.6172 25.5 15.3387 25.5 16.25H24.75C24.336 16.25 24 16.586 24 17C24 17.414 24.336 17.75 24.75 17.75H25.5V18.5H24.75C24.336 18.5 24 18.836 24 19.25C24 19.664 24.336 20 24.75 20H25.5C25.5 20.9113 24.6877 21.632 23.748 21.4797C23.0107 21.3597 22.5 20.6675 22.5 19.9198Z" fill="white"/>
</g>
<defs>
<clipPath id="clip0_745_1359">
<rect width="18" height="18" fill="white" transform="translate(15 11)"/>
</clipPath>
</defs>
</svg>
