<svg width="161" height="161" viewBox="0 0 161 161" fill="none" xmlns="http://www.w3.org/2000/svg">
<path d="M20.1247 31.7703C19.7725 31.2656 19.3015 30.9809 18.7116 30.9162C18.1257 30.8493 17.4951 31.0015 16.8198 31.3728C16.3451 31.6339 15.9772 31.9294 15.7163 32.2595C15.4553 32.5895 15.3024 32.9268 15.2573 33.2714C15.2123 33.616 15.2743 33.947 15.4435 34.2644C15.5876 34.5264 15.7718 34.7209 15.9963 34.848C16.2249 34.9728 16.4806 35.0454 16.7636 35.0657C17.0444 35.0818 17.3364 35.0652 17.6397 35.0157C17.9429 34.9662 18.2404 34.9013 18.532 34.8209L19.8727 34.4674C20.4083 34.3168 20.9468 34.2153 21.4882 34.1627C22.0338 34.1079 22.5592 34.1281 23.0647 34.2233C23.5742 34.3162 24.0427 34.509 24.4701 34.8017C24.8976 35.0944 25.261 35.5129 25.5603 36.0572C25.9654 36.7939 26.1338 37.5461 26.0656 38.3139C25.9952 39.0776 25.6905 39.8128 25.1517 40.5195C24.6147 41.2199 23.8428 41.847 22.8359 42.4006C21.8578 42.9385 20.9252 43.2541 20.0384 43.3473C19.1556 43.4383 18.3518 43.3046 17.627 42.9462C16.9064 42.5856 16.3001 41.9968 15.8082 41.1799L18.049 39.9477C18.3226 40.3676 18.6579 40.6576 19.0551 40.8177C19.4523 40.9777 19.8806 41.0247 20.34 40.9587C20.8035 40.8904 21.2726 40.7257 21.7474 40.4646C22.2426 40.1923 22.6359 39.8801 22.9273 39.5279C23.2206 39.1694 23.4005 38.7987 23.467 38.4156C23.5313 38.0284 23.4665 37.6537 23.2725 37.2912C23.0884 36.9661 22.8437 36.7488 22.5384 36.6395C22.2308 36.5261 21.8678 36.4912 21.4493 36.5348C21.0327 36.572 20.5678 36.6571 20.0546 36.79L18.4216 37.2083C17.2398 37.5116 16.1996 37.5586 15.3009 37.3492C14.404 37.1334 13.708 36.5754 13.2129 35.6749C12.8055 34.9342 12.6493 34.1752 12.7443 33.398C12.8434 32.6186 13.1565 31.8841 13.6835 31.1945C14.2082 30.5009 14.9105 29.9121 15.7905 29.4282C16.6827 28.9376 17.55 28.6633 18.3922 28.6052C19.2363 28.5408 20.0015 28.6771 20.6878 29.0139C21.3719 29.3467 21.9147 29.8638 22.3163 30.5651L20.1247 31.7703Z" fill="white" fill-opacity="0.9"/>
<path d="M35.4809 34.8429L32.0551 20.9093L41.1174 18.6812L41.6376 20.7971L35.0995 22.4046L36.0295 26.1874L42.0983 24.6952L42.6185 26.8111L36.5497 28.3032L37.4848 32.1064L44.0774 30.4855L44.5977 32.6014L35.4809 34.8429Z" fill="white" fill-opacity="0.9"/>
<path d="M55.1607 34.2044L55.248 19.8561L64.5801 19.9129L64.5668 22.0918L57.834 22.0508L57.8103 25.9462L64.0597 25.9842L64.0464 28.1631L57.797 28.125L57.7732 32.0414L64.562 32.0827L64.5488 34.2616L55.1607 34.2044Z" fill="white" fill-opacity="0.9"/>
<path d="M90.4919 44.5565L86.1649 42.3387L92.7097 29.5697L97.124 31.8323C98.3918 32.482 99.3498 33.2959 99.998 34.2737C100.653 35.2495 100.981 36.339 100.984 37.5423C100.986 38.7455 100.648 40.0101 99.9682 41.3361C99.2864 42.6662 98.4532 43.6825 97.4686 44.385C96.4881 45.0896 95.4034 45.46 94.2144 45.4961C93.0296 45.5344 91.7888 45.2212 90.4919 44.5565ZM89.5039 41.5229L91.4055 42.4976C92.295 42.9535 93.1201 43.1717 93.8806 43.1522C94.6433 43.1284 95.3405 42.8691 95.9721 42.374C96.6059 41.8749 97.1731 41.1369 97.6738 40.1601C98.1744 39.1833 98.4402 38.296 98.4712 37.4984C98.5042 36.6965 98.3098 35.9854 97.8877 35.365C97.472 34.7425 96.8318 34.2097 95.9673 33.7665L93.997 32.7567L89.5039 41.5229Z" fill="white" fill-opacity="0.9"/>
<path d="M101.613 51.9486L111.379 41.4359L118.216 47.7873L116.733 49.3837L111.8 44.8014L109.149 47.6554L113.728 51.9087L112.245 53.5051L107.666 49.2518L105.001 52.1213L109.975 56.7417L108.492 58.3382L101.613 51.9486Z" fill="white" fill-opacity="0.9"/>
<path d="M123.402 56.7495L125.248 55.5912L131.333 65.2878L129.488 66.4461L127.13 62.6897L116.822 69.1589L115.452 66.975L125.759 60.5059L123.402 56.7495Z" fill="white" fill-opacity="0.9"/>
<path d="M124.673 82.3667L123.91 79.6992L139.095 80.6107L139.977 83.6958L127.572 92.5045L126.809 89.837L136.722 83.0162L136.691 82.9085L124.673 82.3667ZM130.107 80.9074L132.188 88.1824L130.18 88.7564L128.1 81.4815L130.107 80.9074Z" fill="white" fill-opacity="0.9"/>
<path d="M141.956 105.117L127.64 106.079L127.465 103.485L141.782 102.523L141.956 105.117Z" fill="white" fill-opacity="0.9"/>
<path d="M127.491 116.653L141.738 118.355L141.429 120.936L129.346 119.492L128.596 125.767L126.432 125.509L127.491 116.653Z" fill="white" fill-opacity="0.9"/>
<path d="M127.48 144.774C128.073 144.939 128.618 144.859 129.114 144.533C129.608 144.212 129.997 143.693 130.282 142.976C130.481 142.473 130.577 142.011 130.568 141.59C130.559 141.169 130.462 140.812 130.277 140.518C130.093 140.223 129.834 140.008 129.501 139.871C129.224 139.76 128.958 139.728 128.704 139.773C128.448 139.822 128.205 139.929 127.973 140.093C127.747 140.26 127.532 140.458 127.33 140.69C127.127 140.921 126.939 141.16 126.766 141.408L125.957 142.534C125.64 142.992 125.29 143.413 124.906 143.798C124.52 144.188 124.102 144.507 123.651 144.755C123.199 145.008 122.715 145.158 122.199 145.204C121.684 145.251 121.137 145.159 120.559 144.93C119.778 144.62 119.169 144.148 118.733 143.512C118.301 142.878 118.068 142.118 118.033 141.23C118.001 140.348 118.197 139.373 118.621 138.305C119.032 137.267 119.55 136.43 120.175 135.793C120.798 135.161 121.502 134.752 122.289 134.567C123.075 134.386 123.917 134.454 124.817 134.771L123.874 137.148C123.395 136.998 122.952 136.988 122.544 137.117C122.136 137.247 121.775 137.483 121.463 137.827C121.149 138.175 120.893 138.6 120.693 139.104C120.484 139.629 120.38 140.121 120.379 140.578C120.382 141.041 120.479 141.441 120.672 141.779C120.869 142.118 121.157 142.366 121.538 142.522C121.887 142.656 122.214 142.667 122.519 142.557C122.828 142.449 123.13 142.244 123.425 141.944C123.723 141.65 124.027 141.289 124.338 140.859L125.331 139.497C126.049 138.511 126.821 137.812 127.647 137.401C128.476 136.996 129.368 136.984 130.323 137.362C131.109 137.674 131.713 138.16 132.134 138.82C132.554 139.484 132.781 140.25 132.813 141.117C132.851 141.986 132.684 142.887 132.314 143.82C131.938 144.767 131.444 145.531 130.832 146.112C130.222 146.699 129.545 147.081 128.801 147.258C128.062 147.437 127.314 147.384 126.558 147.099L127.48 144.774Z" fill="white" fill-opacity="0.9"/>
<circle cx="77.5" cy="30.5" r="1.5" fill="white" fill-opacity="0.9"/>
</svg>
