<svg width="78" height="78" viewBox="0 0 78 78" fill="none" xmlns="http://www.w3.org/2000/svg">
<path d="M9.75497 15.4032C9.58445 15.1588 9.35634 15.0209 9.07065 14.9896C8.78694 14.9572 8.48157 15.0309 8.15453 15.2107C7.92462 15.3371 7.74648 15.4803 7.62012 15.6401C7.49376 15.7999 7.41967 15.9633 7.39785 16.1302C7.37604 16.297 7.4061 16.4573 7.48804 16.611C7.55779 16.7379 7.64702 16.8321 7.75573 16.8936C7.86641 16.9541 7.99028 16.9892 8.12733 16.9991C8.26329 17.0069 8.4047 16.9988 8.55156 16.9749C8.69843 16.9509 8.84247 16.9194 8.98368 16.8805L9.63298 16.7093C9.89232 16.6364 10.1531 16.5872 10.4153 16.5618C10.6795 16.5353 10.934 16.545 11.1787 16.5911C11.4255 16.6361 11.6524 16.7295 11.8594 16.8712C12.0664 17.013 12.2423 17.2156 12.3873 17.4792C12.5835 17.836 12.6651 18.2003 12.632 18.5721C12.5979 18.9419 12.4504 19.298 12.1894 19.6402C11.9294 19.9794 11.5555 20.2831 11.068 20.5512C10.5943 20.8117 10.1427 20.9645 9.71318 21.0096C9.28568 21.0537 8.89643 20.9889 8.54545 20.8154C8.19644 20.6408 7.90284 20.3556 7.66465 19.96L8.74981 19.3633C8.88228 19.5667 9.04469 19.7071 9.23703 19.7846C9.42937 19.8621 9.63677 19.8849 9.85925 19.8529C10.0837 19.8198 10.3109 19.74 10.5408 19.6136C10.7806 19.4817 10.9711 19.3305 11.1122 19.16C11.2543 18.9864 11.3414 18.8068 11.3736 18.6213C11.4047 18.4338 11.3733 18.2524 11.2794 18.0768C11.1902 17.9194 11.0717 17.8142 10.9239 17.7612C10.7749 17.7063 10.5991 17.6894 10.3965 17.7105C10.1947 17.7285 9.96957 17.7697 9.72103 17.8341L8.93022 18.0367C8.35793 18.1836 7.85417 18.2063 7.41895 18.1049C6.98461 18.0004 6.64756 17.7302 6.40778 17.2941C6.21051 16.9354 6.13488 16.5678 6.1809 16.1915C6.22889 15.814 6.38049 15.4583 6.63569 15.1244C6.8898 14.7885 7.22992 14.5033 7.65606 14.269C8.08814 14.0314 8.50812 13.8986 8.916 13.8704C9.32478 13.8393 9.69534 13.9052 10.0277 14.0684C10.359 14.2295 10.6218 14.4799 10.8163 14.8196L9.75497 15.4032Z" fill="white" fill-opacity="0.9"/>
<path d="M17.1874 16.8923L15.5284 10.1447L19.917 9.06564L20.1689 10.0903L17.0027 10.8688L17.4531 12.7007L20.392 11.9781L20.6439 13.0028L17.705 13.7253L18.1578 15.5671L21.3505 14.7821L21.6024 15.8068L17.1874 16.8923Z" fill="white" fill-opacity="0.9"/>
<path d="M26.712 16.5844L26.7543 9.63592L31.2736 9.66343L31.2671 10.7186L28.0066 10.6987L27.9952 12.5852L31.0216 12.6036L31.0151 13.6587L27.9887 13.6403L27.9772 15.5369L31.2648 15.5569L31.2584 16.6121L26.712 16.5844Z" fill="white" fill-opacity="0.9"/>
<path d="M43.8149 21.5952L41.7195 20.5212L44.8889 14.3375L47.0267 15.4332C47.6406 15.7479 48.1045 16.142 48.4185 16.6155C48.7354 17.0881 48.8945 17.6157 48.8958 18.1984C48.8971 18.7811 48.7331 19.3935 48.404 20.0356C48.0739 20.6798 47.6704 21.1719 47.1935 21.5121C46.7187 21.8534 46.1934 22.0327 45.6176 22.0503C45.0439 22.0688 44.443 21.9171 43.8149 21.5952ZM43.3365 20.1261L44.2574 20.5982C44.6881 20.8189 45.0877 20.9246 45.456 20.9151C45.8254 20.9036 46.163 20.778 46.4688 20.5383C46.7758 20.2966 47.0504 19.9392 47.2929 19.4661C47.5353 18.9931 47.6641 18.5634 47.6791 18.1772C47.6951 17.7889 47.6009 17.4445 47.3965 17.144C47.1952 16.8426 46.8852 16.5845 46.4665 16.3699L45.5124 15.8809L43.3365 20.1261Z" fill="white" fill-opacity="0.9"/>
<path d="M48.2247 24.8876L52.9538 19.7966L56.265 22.8723L55.5468 23.6454L53.1579 21.4263L51.874 22.8085L54.0914 24.8682L53.3733 25.6413L51.1559 23.5816L49.8651 24.9712L52.2739 27.2087L51.5557 27.9818L48.2247 24.8876Z" fill="white" fill-opacity="0.9"/>
<path d="M59.7434 27.4935L60.6372 26.9326L63.5842 31.6284L62.6905 32.1893L61.5488 30.3702L56.557 33.503L55.8933 32.4455L60.8851 29.3127L59.7434 27.4935Z" fill="white" fill-opacity="0.9"/>
<path d="M60.3575 39.8936L59.9881 38.6018L67.3415 39.0432L67.7688 40.5373L61.7615 44.8031L61.3921 43.5113L66.1925 40.2082L66.1776 40.156L60.3575 39.8936ZM62.9891 39.1869L63.9967 42.71L63.0246 42.988L62.017 39.4649L62.9891 39.1869Z" fill="white" fill-opacity="0.9"/>
<path d="M68.727 50.9078L61.794 51.3737L61.7096 50.1178L68.6426 49.6519L68.727 50.9078Z" fill="white" fill-opacity="0.9"/>
<path d="M61.7209 56.4903L68.6204 57.3148L68.471 58.5647L62.6192 57.8654L62.2561 60.9041L61.2084 60.7789L61.7209 56.4903Z" fill="white" fill-opacity="0.9"/>
<path d="M61.7175 70.1038C62.0046 70.1836 62.2683 70.1446 62.5085 69.9869C62.7479 69.8312 62.9364 69.5799 63.0741 69.233C63.1708 68.9892 63.2171 68.7654 63.2127 68.5617C63.2084 68.358 63.1615 68.1848 63.072 68.0423C62.9826 67.8997 62.8573 67.7953 62.6963 67.7289C62.5617 67.6755 62.4329 67.6597 62.3099 67.6815C62.1861 67.7053 62.0682 67.7571 61.9563 67.8368C61.8464 67.9174 61.7425 68.0136 61.6446 68.1256C61.5466 68.2376 61.4556 68.3536 61.3715 68.4735L60.9798 69.019C60.8263 69.2404 60.6566 69.4443 60.4706 69.6309C60.2838 69.8196 60.0813 69.9741 59.8633 70.0944C59.6443 70.2169 59.41 70.2893 59.1601 70.3119C58.9102 70.3344 58.6455 70.2902 58.3659 70.1793C57.9874 70.0291 57.6926 69.8002 57.4813 69.4925C57.2721 69.1856 57.1591 68.8171 57.1424 68.387C57.1269 67.9599 57.2218 67.4878 57.427 66.9705C57.6264 66.4681 57.8772 66.0627 58.1796 65.7544C58.4812 65.4481 58.8226 65.2502 59.2037 65.1605C59.584 65.0729 59.9919 65.1058 60.4275 65.2592L59.9708 66.4103C59.7392 66.3378 59.5245 66.333 59.3269 66.3957C59.1292 66.4584 58.9548 66.5729 58.8036 66.7393C58.6516 66.9077 58.5272 67.1139 58.4305 67.3577C58.3295 67.6121 58.2789 67.85 58.2787 68.0714C58.2798 68.2957 58.3269 68.4896 58.4202 68.6531C58.5156 68.8175 58.6554 68.9375 58.8396 69.013C59.0086 69.0776 59.167 69.0833 59.3147 69.0299C59.4645 68.9774 59.6108 68.8785 59.7536 68.7332C59.8977 68.5908 60.0451 68.4157 60.1957 68.2078L60.6765 67.5481C61.0242 67.0704 61.3981 66.732 61.7983 66.5331C62.1997 66.3371 62.6317 66.3308 63.0942 66.5143C63.4748 66.6653 63.7671 66.9006 63.9713 67.2201C64.1747 67.5417 64.2843 67.9125 64.3002 68.3324C64.3181 68.7533 64.2374 69.1897 64.0581 69.6417C63.8762 70.1001 63.637 70.4699 63.3404 70.7513C63.0451 71.0357 62.7173 71.2208 62.3572 71.3066C61.9992 71.3933 61.637 71.3676 61.2708 71.2296L61.7175 70.1038Z" fill="white" fill-opacity="0.9"/>
<circle cx="37.5" cy="14.501" r="0.5" fill="white"/>
</svg>
