<svg width="230" height="230" viewBox="0 0 230 230" fill="none" xmlns="http://www.w3.org/2000/svg">
<path d="M226.383 115.854C226.337 116.022 226.29 116.197 226.242 116.379C226.209 116.562 226.183 116.739 226.165 116.91C226.146 117.095 226.134 117.274 226.131 117.446C226.14 117.634 226.15 117.815 226.16 117.989C225.109 118.138 224.1 118.291 223.134 118.449C222.168 118.608 221.172 118.777 220.146 118.957C219.133 119.154 218.053 119.365 216.907 119.59C215.776 119.817 214.519 120.074 213.136 120.362L213.132 120.404L221.52 124.194C222.303 124.549 223.005 124.853 223.626 125.105C224.247 125.357 224.82 125.589 225.344 125.802C225.243 126.079 225.182 126.318 225.161 126.517C225.139 126.73 225.151 126.962 225.197 127.211C224.493 127.339 223.634 127.501 222.621 127.697C221.621 127.909 220.54 128.135 219.378 128.373C218.215 128.625 217.008 128.888 215.757 129.16C214.519 129.434 213.311 129.703 212.133 129.968L212.128 130.011C212.25 130.081 212.601 130.24 213.179 130.488C213.756 130.749 214.451 131.052 215.264 131.396C216.077 131.74 216.952 132.112 217.888 132.512C218.839 132.913 219.742 133.288 220.598 133.637C221.466 134.001 222.239 134.319 222.915 134.591C223.606 134.865 224.09 135.052 224.367 135.153C224.31 135.291 224.268 135.416 224.242 135.528C224.214 135.655 224.194 135.782 224.18 135.91C224.162 136.081 224.173 136.327 224.211 136.647C223.816 136.433 223.036 136.05 221.871 135.496C220.72 134.944 219.129 134.195 217.099 133.25C215.054 132.302 213.448 131.559 212.282 131.02C211.114 130.495 210.358 130.157 210.014 130.006C210.056 129.881 210.097 129.763 210.137 129.652C210.163 129.54 210.183 129.419 210.196 129.291C210.217 129.092 210.207 128.846 210.166 128.554C210.915 128.402 211.782 128.227 212.767 128.028C213.752 127.828 214.847 127.605 216.053 127.357L222.808 125.904L222.813 125.861C222.264 125.603 221.558 125.27 220.694 124.863C219.83 124.456 218.78 123.973 217.544 123.412L211.015 120.421C211.116 120.143 211.177 119.905 211.198 119.706C211.222 119.478 211.213 119.218 211.171 118.926C213.166 118.559 215.142 118.176 217.097 117.776C219.052 117.376 221.029 116.978 223.027 116.582C223.835 116.422 224.526 116.279 225.101 116.152C225.675 116.024 226.103 115.925 226.383 115.854Z" fill="#333333" fill-opacity="0.7"/>
<path d="M223.02 140.06C222.811 140.73 222.616 141.351 222.433 141.925C222.26 142.516 222.091 143.122 221.925 143.744C221.759 144.366 221.605 144.97 221.464 145.554C221.337 146.142 221.197 146.778 221.043 147.463C220.926 147.402 220.821 147.352 220.728 147.312C220.631 147.287 220.535 147.261 220.438 147.235C220.203 147.172 219.99 147.138 219.799 147.131C219.973 146.644 220.122 146.225 220.246 145.873C220.383 145.525 220.511 145.159 220.628 144.775C220.755 144.409 220.888 143.993 221.028 143.527C221.167 143.06 221.333 142.468 221.525 141.749C220.975 141.587 220.504 141.439 220.11 141.305C219.713 141.184 219.3 141.066 218.871 140.952L216.17 140.253C216.041 140.737 215.924 141.172 215.821 141.559C215.728 141.964 215.637 142.362 215.547 142.753C215.458 143.143 215.373 143.543 215.294 143.951C215.211 144.373 215.124 144.839 215.032 145.348C214.85 145.255 214.641 145.177 214.406 145.114C214.171 145.051 213.958 145.017 213.767 145.01C213.822 144.862 213.9 144.623 214.002 144.295C214.119 143.971 214.244 143.582 214.38 143.13C214.526 142.695 214.678 142.209 214.835 141.674C214.993 141.138 215.148 140.587 215.299 140.02L212.546 139.263C212.394 139.223 212.145 139.156 211.8 139.064C211.45 138.986 211.089 138.897 210.716 138.797C210.342 138.697 210.004 138.607 209.7 138.526C209.392 138.458 209.217 138.419 209.176 138.408L209.043 138.906C208.685 140.247 208.423 141.34 208.257 142.184C208.087 143.042 207.985 143.674 207.951 144.08C207.685 143.964 207.476 143.886 207.324 143.846C207.227 143.82 207.117 143.79 206.992 143.757C206.878 143.741 206.783 143.738 206.706 143.747C206.915 143.077 207.112 142.449 207.298 141.862C207.471 141.271 207.64 140.664 207.806 140.042C207.972 139.42 208.13 138.803 208.278 138.191C208.413 137.575 208.557 136.925 208.71 136.24C209.612 136.525 210.501 136.8 211.378 137.063C212.266 137.345 213.069 137.581 213.788 137.773L217.894 138.869C218.143 138.936 218.413 139.008 218.703 139.085C219.007 139.166 219.355 139.252 219.746 139.341C220.15 139.434 220.619 139.537 221.152 139.65C221.681 139.776 222.303 139.913 223.02 140.06Z" fill="#333333" fill-opacity="0.7"/>
<path d="M219.742 151.309C219.643 151.485 219.552 151.642 219.469 151.779C219.394 151.934 219.326 152.092 219.264 152.252C219.203 152.412 219.148 152.575 219.1 152.741C219.06 152.925 219.023 153.102 218.988 153.273C218.464 153.041 217.973 152.822 217.516 152.616C217.067 152.428 216.624 152.243 216.188 152.06C215.766 151.883 215.344 151.705 214.921 151.528C214.494 151.364 214.053 151.195 213.599 151.02C213.278 150.897 212.897 150.751 212.456 150.582C212.016 150.413 211.541 150.231 211.034 150.036C210.534 149.859 210.031 149.674 209.523 149.479C209.01 149.297 208.527 149.12 208.073 148.945C207.627 148.789 207.23 148.645 206.883 148.512C206.549 148.383 206.301 148.288 206.141 148.227L205.949 148.728C205.703 149.369 205.494 149.933 205.323 150.419C205.152 150.905 204.998 151.344 204.863 151.737C204.741 152.135 204.632 152.499 204.535 152.83C204.453 153.166 204.367 153.508 204.279 153.858C204.169 153.785 204.072 153.717 203.989 153.655C203.901 153.605 203.81 153.563 203.716 153.527C203.542 153.46 203.329 153.417 203.077 153.396C203.239 153.014 203.388 152.665 203.524 152.35C203.661 152.034 203.792 151.732 203.918 151.443C204.026 151.163 204.14 150.885 204.261 150.609C204.369 150.329 204.479 150.041 204.592 149.748C204.828 149.133 205.057 148.516 205.279 147.896C205.483 147.285 205.695 146.653 205.915 146.002C206.781 146.38 207.636 146.747 208.481 147.102C209.321 147.47 210.088 147.788 210.783 148.054L214.75 149.577C215.445 149.844 216.228 150.121 217.098 150.409C217.963 150.71 218.844 151.01 219.742 151.309Z" fill="#333333" fill-opacity="0.7"/>
<path d="M212.076 168.904C211.285 170.363 210.255 171.571 208.988 172.528C208.921 172.411 208.751 172.229 208.478 171.983C208.204 171.737 207.955 171.521 207.731 171.334L207.755 171.2C208.542 171.009 209.248 170.683 209.871 170.223C210.507 169.771 211.009 169.204 211.377 168.525C211.821 167.707 212.078 166.903 212.149 166.111C212.232 165.326 212.139 164.568 211.869 163.835C211.598 163.103 211.151 162.412 210.525 161.764C209.9 161.116 209.109 160.533 208.153 160.015C207.185 159.49 206.258 159.142 205.374 158.972C204.502 158.809 203.685 158.814 202.924 158.987C202.163 159.16 201.47 159.493 200.845 159.984C200.233 160.483 199.706 161.141 199.263 161.958C198.928 162.575 198.717 163.25 198.629 163.983C198.534 164.729 198.575 165.614 198.752 166.638L198.636 166.673L197.615 165.899C197.574 165.584 197.566 165.238 197.591 164.861C197.629 164.491 197.7 164.106 197.803 163.706C197.886 163.312 198.005 162.912 198.159 162.508C198.307 162.116 198.476 161.743 198.667 161.391C199.199 160.41 199.844 159.58 200.603 158.9C201.361 158.221 202.191 157.727 203.091 157.417C203.997 157.127 204.955 157.027 205.963 157.118C206.985 157.216 208.017 157.548 209.061 158.114C210.131 158.694 210.998 159.376 211.664 160.16C212.335 160.963 212.799 161.833 213.056 162.77C213.314 163.707 213.358 164.691 213.189 165.723C213.033 166.761 212.662 167.822 212.076 168.904Z" fill="#333333" fill-opacity="0.7"/>
<path d="M200.468 173.335C199.597 172.661 198.738 172.169 197.892 171.859C197.058 171.558 196.252 171.432 195.472 171.48C194.693 171.529 193.956 171.746 193.26 172.131C192.576 172.524 191.954 173.083 191.394 173.808C190.834 174.533 190.45 175.275 190.241 176.037C190.035 176.818 190.006 177.592 190.156 178.358C190.305 179.124 190.63 179.873 191.132 180.605C191.645 181.345 192.337 182.052 193.209 182.726C194.952 184.074 196.618 184.692 198.205 184.581C199.804 184.478 201.172 183.691 202.309 182.219C202.861 181.506 203.241 180.769 203.449 180.007C203.658 179.246 203.688 178.482 203.539 177.716C203.39 176.95 203.059 176.196 202.546 175.456C202.033 174.716 201.34 174.009 200.468 173.335ZM202.925 182.722C202.19 183.673 201.379 184.429 200.492 184.992C199.616 185.563 198.703 185.924 197.754 186.077C196.795 186.24 195.819 186.181 194.824 185.901C193.841 185.629 192.873 185.125 191.922 184.39C190.971 183.655 190.235 182.841 189.712 181.949C189.202 181.066 188.905 180.14 188.821 179.171C188.729 178.214 188.844 177.235 189.165 176.236C189.497 175.244 190.031 174.273 190.766 173.322C191.492 172.383 192.293 171.627 193.169 171.056C194.035 170.496 194.948 170.135 195.906 169.971C196.856 169.819 197.827 169.873 198.819 170.134C199.814 170.415 200.793 170.927 201.755 171.671C202.683 172.388 203.407 173.183 203.927 174.055C204.447 174.927 204.757 175.836 204.857 176.782C204.961 177.748 204.852 178.731 204.531 179.731C204.213 180.751 203.677 181.748 202.925 182.722Z" fill="#333333" fill-opacity="0.7"/>
<path d="M193.639 193.519C192.628 193.099 191.661 192.707 190.739 192.342C189.826 191.988 188.888 191.628 187.925 191.262C186.951 190.904 185.918 190.524 184.826 190.12C183.732 189.736 182.509 189.304 181.157 188.825C181.215 189.061 181.29 189.359 181.382 189.719C181.474 190.079 181.569 190.474 181.667 190.905C181.774 191.346 181.89 191.819 182.015 192.322C182.129 192.835 182.247 193.353 182.371 193.877L184.305 201.887L184.097 202.073C183.063 201.155 182.025 200.222 180.982 199.273C179.938 198.345 178.924 197.438 177.938 196.554C176.952 195.689 176.014 194.868 175.124 194.09C174.234 193.311 173.431 192.619 172.714 192.012C172.881 191.92 173.028 191.827 173.155 191.732C173.282 191.638 173.409 191.534 173.537 191.419C173.686 191.285 173.83 191.146 173.97 191.002C174.1 190.847 174.182 190.735 174.216 190.666C174.852 191.268 175.537 191.913 176.269 192.602C177.002 193.29 177.735 193.969 178.469 194.637C179.192 195.315 179.891 195.956 180.568 196.56C181.243 197.185 181.851 197.735 182.393 198.21L182.425 198.182C182.144 197.011 181.897 195.974 181.683 195.071C181.458 194.177 181.253 193.37 181.07 192.651C180.886 191.931 180.719 191.284 180.568 190.708C180.416 190.153 180.272 189.628 180.137 189.134C180.002 188.64 179.866 188.157 179.73 187.683C179.592 187.23 179.446 186.756 179.29 186.261L179.434 186.132C181.287 186.912 183.151 187.652 185.028 188.352C186.915 189.063 188.86 189.818 190.863 190.616L190.895 190.588C189.128 188.059 187.706 186.076 186.629 184.64C185.562 183.213 184.775 182.218 184.269 181.653C184.415 181.58 184.535 181.511 184.63 181.445C184.714 181.389 184.804 181.318 184.9 181.232C184.996 181.146 185.082 181.059 185.157 180.972C185.223 180.895 185.299 180.787 185.388 180.65C186.939 183.045 188.437 185.316 189.88 187.462C191.323 189.628 192.666 191.566 193.91 193.275L193.639 193.519Z" fill="#333333" fill-opacity="0.7"/>
<path d="M178.725 205.549C178.125 205.912 177.566 206.248 177.049 206.556C176.528 206.883 176 207.225 175.463 207.581C174.926 207.936 174.411 208.286 173.918 208.63C173.432 208.985 172.905 209.369 172.337 209.78C172.289 209.657 172.244 209.549 172.201 209.458C172.145 209.375 172.09 209.291 172.035 209.207C171.9 209.005 171.764 208.838 171.625 208.706C172.079 208.458 172.468 208.242 172.794 208.061C173.128 207.891 173.466 207.702 173.808 207.492C174.146 207.303 174.522 207.08 174.935 206.823C175.349 206.566 175.866 206.232 176.486 205.822C176.182 205.336 175.927 204.913 175.722 204.551C175.505 204.197 175.273 203.836 175.029 203.466L173.47 201.151C173.052 201.428 172.676 201.677 172.342 201.898C172.004 202.139 171.672 202.376 171.346 202.609C171.02 202.842 170.692 203.086 170.362 203.339C170.02 203.599 169.646 203.89 169.24 204.21C169.165 204.02 169.06 203.823 168.926 203.62C168.792 203.417 168.655 203.25 168.517 203.119C168.656 203.044 168.873 202.917 169.167 202.74C169.469 202.574 169.821 202.367 170.222 202.118C170.62 201.889 171.055 201.626 171.529 201.33C172.002 201.034 172.483 200.724 172.972 200.4L171.414 198.008C171.327 197.876 171.184 197.662 170.987 197.363C170.777 197.073 170.566 196.767 170.353 196.445C170.139 196.123 169.946 195.83 169.772 195.568C169.586 195.313 169.481 195.168 169.458 195.132L169.028 195.417C167.871 196.183 166.95 196.827 166.266 197.349C165.57 197.879 165.075 198.284 164.78 198.565C164.658 198.303 164.553 198.106 164.466 197.975C164.411 197.891 164.348 197.796 164.277 197.689C164.201 197.601 164.132 197.535 164.069 197.491C164.669 197.128 165.234 196.789 165.763 196.473C166.284 196.145 166.812 195.803 167.349 195.448C167.886 195.092 168.413 194.734 168.93 194.375C169.439 194.003 169.978 193.612 170.547 193.201C171.033 194.012 171.516 194.807 171.998 195.586C172.476 196.386 172.92 197.095 173.331 197.716L175.678 201.259C175.82 201.474 175.974 201.706 176.14 201.957C176.314 202.219 176.518 202.514 176.751 202.84C176.992 203.178 177.275 203.566 177.599 204.003C177.911 204.449 178.286 204.964 178.725 205.549Z" fill="#333333" fill-opacity="0.7"/>
<path d="M164.516 214.153C163.588 214.53 162.712 214.885 161.889 215.217C161.071 215.561 160.243 215.918 159.405 216.288C158.567 216.657 157.745 217.027 156.939 217.398C156.125 217.788 155.273 218.195 154.381 218.619C154.362 218.471 154.34 218.348 154.312 218.251C154.285 218.153 154.248 218.052 154.202 217.947C154.121 217.764 153.999 217.575 153.835 217.382C154.128 217.3 154.45 217.197 154.802 217.073C155.154 216.949 155.523 216.81 155.908 216.656C156.286 216.52 156.665 216.369 157.045 216.202C157.418 216.053 157.78 215.901 158.134 215.745L157.377 213.921C157.229 213.549 157.085 213.205 156.947 212.891C156.808 212.577 156.678 212.282 156.557 212.007L154.809 208.039C154.532 207.411 154.201 206.696 153.817 205.896C153.42 205.102 152.986 204.222 152.514 203.257C152.708 203.203 152.89 203.154 153.059 203.111C153.209 203.06 153.362 203.001 153.519 202.931C153.676 202.862 153.837 202.783 154.002 202.695C154.147 202.6 154.293 202.504 154.438 202.409C154.786 203.304 155.131 204.176 155.474 205.025C155.804 205.881 156.116 206.642 156.411 207.31L158.168 211.297C158.295 211.585 158.427 211.887 158.566 212.201C158.704 212.515 158.861 212.853 159.036 213.214L159.863 214.984C160.648 214.637 161.416 214.268 162.165 213.875C162.907 213.501 163.509 213.181 163.971 212.915C164.003 213.167 164.063 213.391 164.149 213.587C164.196 213.692 164.252 213.784 164.319 213.864C164.372 213.95 164.438 214.046 164.516 214.153Z" fill="#333333" fill-opacity="0.7"/>
<path d="M147.609 213.204C147.321 212.14 146.933 211.23 146.446 210.472C145.963 209.728 145.396 209.141 144.745 208.709C144.095 208.277 143.376 208.005 142.589 207.892C141.806 207.793 140.973 207.863 140.089 208.103C139.205 208.342 138.45 208.703 137.824 209.184C137.188 209.682 136.699 210.282 136.355 210.983C136.011 211.684 135.818 212.477 135.777 213.363C135.739 214.263 135.864 215.245 136.152 216.308C136.729 218.435 137.683 219.933 139.016 220.803C140.352 221.686 141.918 221.884 143.714 221.398C144.584 221.162 145.332 220.803 145.958 220.323C146.584 219.842 147.068 219.251 147.412 218.55C147.756 217.849 147.947 217.048 147.984 216.148C148.022 215.249 147.897 214.267 147.609 213.204ZM143.901 222.17C142.741 222.484 141.637 222.598 140.591 222.511C139.548 222.438 138.602 222.175 137.753 221.723C136.89 221.275 136.147 220.639 135.524 219.814C134.904 219.004 134.436 218.019 134.122 216.858C133.808 215.698 133.712 214.605 133.834 213.579C133.96 212.566 134.282 211.648 134.8 210.826C135.305 210.007 135.987 209.296 136.846 208.692C137.709 208.103 138.721 207.651 139.881 207.336C141.027 207.026 142.122 206.907 143.165 206.98C144.194 207.057 145.14 207.32 146.002 207.768C146.851 208.22 147.593 208.849 148.227 209.656C148.85 210.48 149.321 211.479 149.639 212.653C149.946 213.786 150.044 214.857 149.931 215.865C149.819 216.874 149.518 217.786 149.027 218.601C148.526 219.434 147.846 220.152 146.987 220.755C146.117 221.376 145.089 221.848 143.901 222.17Z" fill="#333333" fill-opacity="0.7"/>
<path d="M123.065 215.642C123.037 215.127 122.991 214.528 122.925 213.844C122.86 213.174 122.79 212.411 122.715 211.555C122.428 211.542 122.098 211.531 121.725 211.522C121.338 211.529 120.981 211.541 120.652 211.559C120.138 211.587 119.671 211.698 119.251 211.893C118.832 212.087 118.481 212.35 118.198 212.68C117.901 213.026 117.679 213.418 117.53 213.856C117.383 214.308 117.324 214.806 117.353 215.349C117.391 216.049 117.586 216.619 117.94 217.058C118.109 217.278 118.32 217.46 118.571 217.604C118.808 217.749 119.108 217.862 119.471 217.943C119.834 218.038 120.274 218.093 120.791 218.108C121.294 218.138 121.896 218.134 122.596 218.096L123.196 218.064L123.065 215.642ZM123.418 224.543C123.397 223.9 123.389 223.226 123.394 222.524C123.385 221.822 123.366 221.207 123.338 220.678L123.239 218.857L121.996 218.924C121.51 218.95 121.034 219.026 120.568 219.151C120.088 219.278 119.668 219.465 119.309 219.714C118.936 219.978 118.646 220.316 118.439 220.728C118.218 221.142 118.123 221.641 118.155 222.227C118.202 223.099 118.509 223.748 119.077 224.176C119.646 224.618 120.573 224.805 121.859 224.735C122.116 224.721 122.38 224.7 122.651 224.671C122.907 224.643 123.163 224.6 123.418 224.543ZM125.524 225.332C125.265 225.318 124.914 225.308 124.469 225.303C124.011 225.314 123.611 225.328 123.268 225.347C122.882 225.368 122.504 225.402 122.134 225.451C121.75 225.515 121.366 225.557 120.98 225.578C119.423 225.662 118.266 225.467 117.509 224.992C116.752 224.517 116.346 223.765 116.291 222.736C116.24 221.793 116.497 220.984 117.062 220.308C117.614 219.648 118.49 219.142 119.689 218.791L119.686 218.748C118.195 218.728 117.119 218.435 116.458 217.869C115.797 217.317 115.434 216.441 115.37 215.241C115.335 214.598 115.446 214.012 115.704 213.482C115.948 212.953 116.303 212.489 116.768 212.091C117.235 211.708 117.791 211.398 118.438 211.163C119.085 210.941 119.795 210.81 120.566 210.768C120.909 210.75 121.26 210.752 121.62 210.776C121.964 210.786 122.315 210.781 122.672 210.762C122.987 210.745 123.315 210.72 123.657 210.687C123.999 210.654 124.355 210.606 124.724 210.543C124.732 211.489 124.747 212.419 124.768 213.336C124.775 214.267 124.799 215.104 124.839 215.847L125.068 220.09C125.075 220.219 125.097 220.483 125.133 220.882C125.169 221.282 125.208 221.738 125.25 222.252C125.292 222.765 125.342 223.3 125.401 223.856C125.445 224.412 125.486 224.904 125.524 225.332Z" fill="#333333" fill-opacity="0.7"/>
<path d="M110.392 225.709C109.694 225.635 109.046 225.563 108.449 225.495C107.835 225.441 107.208 225.392 106.565 225.35C105.923 225.308 105.301 225.274 104.7 225.249C104.099 225.238 103.447 225.224 102.746 225.207C102.783 225.08 102.812 224.967 102.832 224.868C102.839 224.768 102.846 224.668 102.852 224.569C102.868 224.326 102.861 224.11 102.83 223.922C103.341 223.998 103.782 224.063 104.151 224.116C104.519 224.183 104.903 224.237 105.302 224.278C105.686 224.332 106.12 224.382 106.604 224.428C107.089 224.474 107.702 224.521 108.445 224.57C108.497 224 108.55 223.509 108.606 223.097C108.648 222.683 108.683 222.256 108.712 221.813L108.873 219.027C108.374 218.994 107.924 218.965 107.524 218.938C107.109 218.926 106.701 218.913 106.3 218.901C105.9 218.889 105.491 218.884 105.075 218.885C104.645 218.886 104.172 218.89 103.655 218.899C103.711 218.702 103.747 218.482 103.763 218.24C103.778 217.997 103.771 217.781 103.74 217.593C103.897 217.618 104.146 217.648 104.487 217.685C104.828 217.736 105.234 217.784 105.704 217.829C106.159 217.888 106.664 217.943 107.22 217.994C107.776 218.044 108.347 218.089 108.932 218.128L109.141 215.28C109.151 215.123 109.168 214.866 109.192 214.509C109.201 214.151 109.218 213.78 109.243 213.394C109.269 213.009 109.292 212.659 109.312 212.345C109.319 212.03 109.323 211.851 109.326 211.808L108.812 211.774C107.427 211.683 106.304 211.638 105.444 211.639C104.569 211.639 103.929 211.661 103.525 211.706C103.586 211.424 103.622 211.204 103.633 211.047C103.639 210.947 103.647 210.832 103.655 210.704C103.648 210.589 103.633 210.495 103.609 210.421C104.307 210.496 104.962 210.567 105.574 210.636C106.187 210.691 106.815 210.739 107.457 210.782C108.1 210.824 108.736 210.858 109.365 210.885C109.995 210.898 110.661 210.913 111.363 210.93C111.258 211.87 111.161 212.796 111.073 213.708C110.969 214.633 110.893 215.467 110.844 216.21L110.565 220.45C110.548 220.707 110.53 220.986 110.51 221.286C110.49 221.6 110.473 221.957 110.461 222.358C110.449 222.773 110.439 223.253 110.431 223.797C110.41 224.341 110.397 224.978 110.392 225.709Z" fill="#333333" fill-opacity="0.7"/>
<path d="M99.071 224.788C98.905 224.742 98.6055 224.67 98.1725 224.573C97.7253 224.473 97.2431 224.367 96.7257 224.254C96.2056 224.154 95.6939 224.049 95.1906 223.939C94.6705 223.84 94.2488 223.759 93.9255 223.698L90.1514 222.978C89.9827 222.946 89.7846 222.915 89.557 222.886C89.3154 222.855 89.0892 222.819 88.8783 222.779C88.6648 222.752 88.4794 222.732 88.3221 222.716C88.1507 222.698 88.051 222.686 88.0229 222.681L88.0953 222.301C88.5719 221.941 89.278 221.333 90.2133 220.477C91.1346 219.618 92.2935 218.506 93.6902 217.141C95.0868 215.776 96.2984 214.579 97.3248 213.551C98.3345 212.535 99.163 211.666 99.8105 210.944C99.7824 210.939 99.6023 210.89 99.2704 210.798C98.9216 210.717 98.5153 210.632 98.0515 210.543C97.5455 210.447 96.9256 210.336 96.192 210.211C95.4558 210.099 94.7181 209.995 93.9792 209.898C93.2402 209.801 92.5575 209.714 91.931 209.638C91.3044 209.562 90.8396 209.517 90.5363 209.503C90.5859 209.396 90.6355 209.289 90.685 209.182C90.7205 209.072 90.7503 208.954 90.7745 208.828C90.7959 208.715 90.8103 208.601 90.8177 208.486C90.8084 208.383 90.8017 208.265 90.7977 208.133C91.6358 208.322 92.3275 208.476 92.873 208.594C93.4045 208.71 93.8446 208.809 94.1933 208.89C94.5447 208.957 94.8328 209.012 95.0577 209.055C95.2826 209.098 95.5005 209.139 95.7114 209.179C96.2596 209.284 96.8569 209.398 97.5035 209.521C98.1528 209.63 98.7937 209.745 99.4262 209.866C100.061 209.973 100.669 210.074 101.248 210.17C101.826 210.266 102.314 210.344 102.71 210.405L102.642 210.763C102.06 211.293 101.413 211.898 100.701 212.578C99.9883 213.258 99.2552 213.971 98.5013 214.715C97.7333 215.458 96.9724 216.201 96.2185 216.946C95.4505 217.688 94.7328 218.396 94.0652 219.07C93.3977 219.744 92.8011 220.351 92.2755 220.892C91.7359 221.43 91.3117 221.859 91.0031 222.179C91.0733 222.192 91.2407 222.231 91.5051 222.296C91.7554 222.359 92.0844 222.429 92.492 222.506C93.9398 222.783 95.2607 222.998 96.4549 223.153C97.6349 223.305 98.5901 223.415 99.3204 223.481C99.2045 223.707 99.1278 223.918 99.0903 224.115C99.0688 224.227 99.0628 224.335 99.0721 224.439C99.0647 224.554 99.0644 224.67 99.071 224.788Z" fill="#333333" fill-opacity="0.7"/>
<path d="M84.1444 213.112C83.9006 213.029 83.5915 212.916 83.2169 212.773C82.8423 212.63 82.4113 212.475 81.9237 212.309C81.8019 212.267 81.6529 212.217 81.4768 212.157C81.2962 212.11 81.1042 212.052 80.9011 211.983C80.6844 211.909 80.4745 211.837 80.2714 211.768C80.0501 211.707 79.8514 211.647 79.6753 211.587L80.1692 217.516L84.1444 213.112ZM78.5629 220.03L78.1016 213.341C77.9308 210.652 77.7744 208.474 77.6324 206.807C77.4858 205.155 77.3825 204.106 77.3223 203.662C77.498 203.768 77.6716 203.857 77.843 203.931C78.0009 204 78.1746 204.067 78.3642 204.132C78.5538 204.196 78.7457 204.254 78.94 204.305C79.1253 204.338 79.3038 204.369 79.4755 204.397C79.4423 205.248 79.4558 206.205 79.5161 207.269C79.5718 208.346 79.6364 209.442 79.7099 210.556C80.134 210.731 80.5695 210.894 81.0164 211.047C81.4633 211.199 81.9034 211.35 82.3368 211.498C82.7566 211.641 83.1855 211.78 83.6235 211.914C84.048 212.044 84.4565 212.176 84.8493 212.31C85.3694 211.716 85.8302 211.185 86.2318 210.718C86.6198 210.245 86.969 209.82 87.2794 209.442C87.5763 209.06 87.839 208.711 88.0675 208.396C88.2914 208.094 88.4948 207.808 88.6777 207.538C88.8129 207.629 88.939 207.703 89.0563 207.758C89.16 207.808 89.2728 207.854 89.3947 207.896C89.5166 207.938 89.6408 207.973 89.7673 208.001C89.8938 208.029 90.0317 208.045 90.181 208.051C89.4469 208.829 88.601 209.734 87.6433 210.768C86.6721 211.798 85.6802 212.865 84.6677 213.971C83.6417 215.073 82.6361 216.158 81.651 217.228C80.6478 218.307 79.7471 219.285 78.9489 220.162L78.5629 220.03Z" fill="#333333" fill-opacity="0.7"/>
<path d="M68.7232 215.867C68.5559 215.753 68.4079 215.648 68.2792 215.553C68.1314 215.465 67.9803 215.383 67.8262 215.307C67.672 215.231 67.5147 215.162 67.3542 215.099C67.1746 215.043 67.0014 214.99 66.8346 214.94C67.1124 214.439 67.3743 213.97 67.6206 213.533C67.8477 213.102 68.0716 212.678 68.2924 212.26C68.5069 211.856 68.7214 211.451 68.9358 211.046C69.1375 210.635 69.3454 210.211 69.5597 209.774C69.7109 209.466 69.8905 209.1 70.0984 208.676C70.3063 208.252 70.53 207.796 70.7695 207.307C70.9898 206.826 71.2196 206.341 71.4591 205.853C71.6857 205.358 71.9061 204.892 72.1203 204.456C72.3154 204.025 72.4949 203.643 72.6587 203.309C72.8162 202.988 72.9328 202.75 73.0084 202.596L72.5266 202.36C71.91 202.057 71.3672 201.799 70.8984 201.585C70.4296 201.371 70.0057 201.179 69.6269 201.009C69.2417 200.852 68.8886 200.711 68.5677 200.585C68.2404 200.473 67.9068 200.357 67.5667 200.238C67.6491 200.135 67.7252 200.045 67.795 199.967C67.8519 199.884 67.9025 199.797 67.9466 199.707C68.0285 199.54 68.0909 199.332 68.1338 199.082C68.5 199.277 68.8342 199.457 69.1362 199.621C69.4383 199.785 69.7275 199.943 70.0038 200.094C70.2736 200.227 70.5403 200.366 70.8038 200.511C71.0736 200.643 71.3498 200.778 71.6324 200.917C72.2234 201.207 72.8176 201.49 73.4149 201.767C74.0056 202.025 74.6156 202.293 75.2449 202.569C74.7905 203.398 74.3488 204.218 73.9198 205.027C73.478 205.831 73.0933 206.566 72.7656 207.234L70.8942 211.05C70.5665 211.718 70.2203 212.473 69.8556 213.314C69.478 214.149 69.1005 215 68.7232 215.867Z" fill="#333333" fill-opacity="0.7"/>
<path d="M52.6518 207.054C52.5097 206.91 52.3848 206.779 52.2769 206.661C52.1489 206.546 52.0166 206.436 51.88 206.332C51.7434 206.228 51.6024 206.129 51.4572 206.037C51.2918 205.947 51.1322 205.861 50.9782 205.78C51.6539 204.964 52.2558 204.244 52.7841 203.621C53.301 202.989 53.8065 202.349 54.3007 201.7L54.9379 200.863C53.1878 199.477 52.0111 198.554 51.4077 198.094C50.8043 197.635 49.6016 196.746 47.7996 195.428L47.3965 195.957C47.0757 196.378 46.804 196.747 46.5813 197.063C46.3473 197.371 46.1189 197.682 45.8962 197.998C45.6649 198.326 45.4176 198.686 45.1542 199.079C44.8709 199.475 44.5239 199.966 44.1132 200.553C43.9711 200.408 43.8462 200.277 43.7383 200.159C43.6103 200.044 43.478 199.934 43.3414 199.83C43.2048 199.726 43.0639 199.628 42.9186 199.535C42.7532 199.445 42.5936 199.359 42.4396 199.278C43.0546 198.541 43.6566 197.822 44.2455 197.119C44.8231 196.408 45.333 195.762 45.7751 195.181L48.3498 191.8C48.7919 191.219 49.2833 190.55 49.824 189.793C50.3447 189.038 50.874 188.272 51.412 187.495C51.534 187.642 51.659 187.773 51.7869 187.888C51.9149 188.004 52.0472 188.114 52.1838 188.218C52.3204 188.322 52.4614 188.42 52.6067 188.513C52.7406 188.597 52.9002 188.682 53.0856 188.769C52.4793 189.495 51.8873 190.213 51.3098 190.924C50.7208 191.627 50.2009 192.274 49.7501 192.866L48.4108 194.625C48.3766 194.599 48.4961 194.69 48.7694 194.898C49.0339 195.118 49.3598 195.375 49.7469 195.67C50.1339 195.964 50.5381 196.272 50.9593 196.593C51.3719 196.925 51.7034 197.186 51.9539 197.377C52.1702 197.542 52.5787 197.844 53.1794 198.283C53.76 198.725 54.5499 199.318 55.549 200.061L56.8884 198.302C57.3305 197.721 57.8219 197.052 58.3626 196.295C58.8833 195.54 59.4126 194.774 59.9506 193.997C60.0726 194.144 60.1976 194.275 60.3255 194.39C60.4535 194.506 60.5858 194.615 60.7224 194.719C60.859 194.823 60.9999 194.922 61.1452 195.014C61.2791 195.098 61.4388 195.184 61.6242 195.271C61.0179 195.996 60.4259 196.715 59.8483 197.426C59.2594 198.129 58.7395 198.776 58.2887 199.368L55.714 202.749C55.2632 203.341 54.7775 204.015 54.2568 204.769C53.7248 205.515 53.1898 206.277 52.6518 207.054Z" fill="#333333" fill-opacity="0.7"/>
<path d="M42.6759 189.482C43.4828 188.732 44.1081 187.965 44.5517 187.181C44.9849 186.407 45.2409 185.632 45.3197 184.855C45.3986 184.078 45.3048 183.316 45.0384 182.567C44.7615 181.828 44.3113 181.123 43.6876 180.452C43.064 179.781 42.3937 179.281 41.6767 178.951C40.9394 178.621 40.1806 178.467 39.4002 178.489C38.6197 178.511 37.8278 178.71 37.0244 179.086C36.2105 179.472 35.4001 180.04 34.5932 180.79C32.9793 182.29 32.0981 183.833 31.9494 185.417C31.7902 187.011 32.3439 188.489 33.6107 189.852C34.2246 190.512 34.89 191.007 35.607 191.337C36.3241 191.666 37.0728 191.82 37.8532 191.798C38.6337 191.776 39.4308 191.572 40.2447 191.186C41.0586 190.801 41.869 190.233 42.6759 189.482ZM33.0145 190.377C32.196 189.496 31.5815 188.573 31.1712 187.606C30.7503 186.649 30.5422 185.69 30.5468 184.728C30.5416 183.756 30.7585 182.802 31.1976 181.866C31.6261 180.94 32.2805 180.068 33.1608 179.249C34.041 178.431 34.9638 177.837 35.929 177.467C36.8837 177.107 37.8457 176.964 38.8149 177.04C39.7745 177.105 40.7214 177.378 41.6557 177.857C42.5796 178.346 43.4507 179.031 44.2693 179.911C45.078 180.781 45.6928 181.695 46.1137 182.651C46.5248 183.598 46.7329 184.557 46.7381 185.529C46.7335 186.491 46.5218 187.44 46.103 188.377C45.664 189.313 44.9991 190.195 44.1083 191.023C43.249 191.822 42.3469 192.407 41.4019 192.777C40.4569 193.148 39.5095 193.306 38.5598 193.251C37.5898 193.196 36.6376 192.928 35.7033 192.449C34.7487 191.969 33.8525 191.278 33.0145 190.377Z" fill="#333333" fill-opacity="0.7"/>
<path d="M23.8924 179.469C24.4719 178.54 25.0169 177.651 25.5273 176.8C26.0256 175.957 26.5344 175.091 27.0536 174.201C27.565 173.299 28.1095 172.342 28.6868 171.33C29.2444 170.314 29.8701 169.178 30.5638 167.922C30.3212 167.941 30.015 167.966 29.6452 167.998C29.2753 168.03 28.8698 168.059 28.4286 168.085C27.9753 168.119 27.4902 168.156 26.9733 168.197C26.4487 168.226 25.9181 168.258 25.3814 168.294L17.1633 168.893L17.0135 168.657C18.088 167.787 19.1784 166.915 20.2848 166.042C21.3713 165.164 22.4316 164.311 23.4655 163.484C24.4796 162.652 25.4433 161.861 26.3564 161.11C27.2696 160.359 28.084 159.68 28.7996 159.072C28.8632 159.252 28.9313 159.412 29.0037 159.553C29.0761 159.693 29.1584 159.836 29.2506 159.981C29.3582 160.15 29.4717 160.315 29.5914 160.476C29.723 160.63 29.8202 160.729 29.8827 160.774C29.1847 161.303 28.4361 161.873 27.6371 162.483C26.8381 163.093 26.049 163.706 25.2697 164.32C24.4828 164.923 23.7359 165.508 23.029 166.076C22.3025 166.64 21.6604 167.151 21.1028 167.607L21.1259 167.644C22.3265 167.558 23.39 167.483 24.3163 167.42C25.2349 167.344 26.0641 167.275 26.8038 167.211C27.5435 167.147 28.2097 167.088 28.8024 167.033C29.3753 166.974 29.9163 166.918 30.4256 166.865C30.9348 166.813 31.4342 166.758 31.9237 166.701C32.3934 166.64 32.8851 166.573 33.3987 166.5L33.5024 166.663C32.43 168.363 31.395 170.082 30.3972 171.819C29.3874 173.564 28.3249 175.359 27.2097 177.205L27.2328 177.242C30.0161 175.912 32.2046 174.833 33.7982 174.005C35.3798 173.186 36.4905 172.572 37.1304 172.165C37.1786 172.321 37.2275 172.451 37.2768 172.555C37.3185 172.648 37.374 172.748 37.4431 172.857C37.5122 172.965 37.5836 173.064 37.6571 173.153C37.7229 173.23 37.8162 173.323 37.9369 173.433C35.3204 174.572 32.8356 175.678 30.4825 176.751C28.1096 177.82 25.9782 178.828 24.0883 179.777L23.8924 179.469Z" fill="#333333" fill-opacity="0.7"/>
<path d="M14.4686 162.802C14.2096 162.15 13.9709 161.543 13.7527 160.983C13.5155 160.415 13.266 159.837 13.0042 159.248C12.7423 158.66 12.4826 158.094 12.2252 157.551C11.9546 157.014 11.6637 156.431 11.3524 155.802C11.4817 155.775 11.595 155.748 11.6923 155.721C11.7838 155.68 11.8754 155.639 11.9669 155.599C12.1891 155.5 12.3765 155.393 12.529 155.278C12.6992 155.766 12.8469 156.186 12.9721 156.537C13.0842 156.895 13.2152 157.259 13.365 157.631C13.496 157.996 13.6539 158.403 13.8386 158.853C14.0234 159.304 14.2671 159.869 14.5697 160.549C15.0984 160.329 15.5582 160.148 15.9489 160.005C16.3339 159.849 16.729 159.681 17.1342 159.501L19.6747 158.347C19.4711 157.889 19.2878 157.477 19.1248 157.111C18.943 156.738 18.7641 156.371 18.5881 156.011C18.4121 155.651 18.2266 155.287 18.0317 154.919C17.831 154.539 17.6063 154.122 17.3575 153.669C17.558 153.627 17.7694 153.556 17.9916 153.457C18.2139 153.358 18.4012 153.251 18.5537 153.136C18.6047 153.286 18.6934 153.521 18.82 153.84C18.9335 154.166 19.0798 154.547 19.2587 154.984C19.4188 155.414 19.6058 155.887 19.8196 156.403C20.0335 156.918 20.2597 157.444 20.4983 157.98L23.1151 156.839C23.2589 156.775 23.4942 156.67 23.821 156.525C24.1421 156.366 24.479 156.208 24.832 156.051C25.185 155.894 25.5053 155.751 25.7929 155.623C26.0747 155.482 26.2352 155.403 26.2744 155.385L26.0649 154.915C25.5004 153.647 25.0175 152.632 24.616 151.871C24.2088 151.097 23.891 150.541 23.6627 150.204C23.9416 150.127 24.153 150.057 24.2968 149.993C24.3883 149.952 24.4929 149.905 24.6105 149.853C24.7093 149.793 24.7855 149.736 24.8393 149.681C25.0982 150.333 25.3398 150.946 25.5639 151.52C25.801 152.088 26.0505 152.666 26.3124 153.254C26.5742 153.842 26.8397 154.421 27.1089 154.991C27.391 155.554 27.6878 156.15 27.9991 156.779C27.1188 157.124 26.2545 157.47 25.4062 157.816C24.539 158.155 23.7655 158.476 23.0857 158.778L19.203 160.507C18.9677 160.611 18.7128 160.725 18.4383 160.847C18.1507 160.975 17.8268 161.127 17.4665 161.303C17.0932 161.485 16.664 161.7 16.1789 161.947C15.6879 162.181 15.1178 162.466 14.4686 162.802Z" fill="#333333" fill-opacity="0.7"/>
<path d="M8.46326 148.311C8.25123 147.657 8.14958 147.066 8.15831 146.537C8.15342 146.012 8.24805 145.492 8.44219 144.978C8.73136 145.034 9.01849 145.062 9.3036 145.059C9.58429 145.043 9.92844 145.014 10.336 144.972L10.4156 145.217C9.29516 146.123 8.91828 147.14 9.28491 148.27C9.5367 149.046 9.98029 149.601 10.6157 149.937C11.2511 150.272 11.9363 150.32 12.6713 150.082C13.0115 149.971 13.3091 149.822 13.564 149.634C13.8053 149.451 14.0109 149.203 14.1808 148.892C14.3463 148.568 14.4739 148.173 14.5635 147.708C14.6488 147.229 14.7055 146.638 14.7337 145.937C14.7663 145.25 14.8389 144.662 14.9513 144.174C15.0594 143.673 15.2144 143.246 15.4163 142.895C15.6182 142.544 15.8784 142.256 16.1969 142.032C16.511 141.795 16.8859 141.606 17.3214 141.464C17.9747 141.252 18.627 141.176 19.2781 141.235C19.9113 141.286 20.5049 141.469 21.059 141.786C21.6087 142.089 22.0986 142.509 22.5287 143.046C22.9589 143.584 23.2954 144.227 23.5384 144.975C23.7504 145.629 23.8563 146.256 23.8561 146.858C23.8514 147.446 23.722 148.068 23.4679 148.722C23.2056 148.702 22.9363 148.706 22.6601 148.736C22.3794 148.752 22.001 148.814 21.525 148.924L21.4455 148.679C22.0108 148.149 22.3957 147.55 22.6001 146.882C22.7865 146.205 22.7604 145.499 22.5219 144.764C22.385 144.342 22.191 143.976 21.9401 143.666C21.6711 143.347 21.3653 143.101 21.0228 142.926C20.6666 142.756 20.2895 142.66 19.8915 142.639C19.4754 142.608 19.0496 142.664 18.6141 142.805C17.9199 143.03 17.4303 143.422 17.1453 143.981C16.8559 144.526 16.687 145.281 16.6387 146.244C16.6016 146.918 16.5469 147.538 16.4746 148.103C16.3842 148.659 16.2377 149.158 16.0351 149.599C15.8324 150.041 15.5557 150.417 15.2048 150.726C14.8403 151.04 14.3586 151.294 13.7597 151.489C13.1745 151.679 12.6083 151.742 12.0612 151.679C11.5142 151.616 11.0155 151.447 10.5652 151.172C10.0968 150.887 9.68579 150.502 9.33216 150.015C8.96492 149.532 8.67529 148.964 8.46326 148.311Z" fill="#333333" fill-opacity="0.7"/>
<path d="M3.30322 121.966C3.33647 121.795 3.36991 121.617 3.40355 121.432C3.42288 121.246 3.43486 121.068 3.4395 120.896C3.44452 120.71 3.4422 120.531 3.43254 120.359C3.40896 120.172 3.38518 119.993 3.36121 119.82C4.39808 119.591 5.39204 119.36 6.34309 119.128C7.29414 118.896 8.27418 118.65 9.28322 118.391C10.2783 118.118 11.3384 117.824 12.4634 117.511C13.5741 117.197 14.8076 116.844 16.1638 116.452L16.165 116.409L7.51043 113.276C6.70242 112.982 5.97909 112.734 5.34041 112.53C4.70174 112.327 4.11275 112.139 3.57344 111.967C3.65269 111.683 3.69502 111.441 3.70043 111.241C3.70623 111.026 3.67666 110.796 3.61171 110.551C4.30373 110.369 5.1473 110.142 6.14242 109.868C7.12362 109.579 8.18408 109.272 9.32379 108.945C10.4639 108.603 11.6473 108.249 12.874 107.881C14.0864 107.513 15.27 107.151 16.4247 106.796L16.4259 106.753C16.2987 106.692 15.9372 106.561 15.3415 106.359C14.7461 106.142 14.0299 105.894 13.1929 105.614C12.3559 105.333 11.4551 105.03 10.4906 104.703C9.51167 104.376 8.58227 104.072 7.70236 103.79C6.80852 103.494 6.01386 103.237 5.31836 103.017C4.60855 102.798 4.11157 102.648 3.82741 102.569C3.87419 102.427 3.90628 102.299 3.92368 102.185C3.94146 102.057 3.95209 101.928 3.95557 101.8C3.96021 101.628 3.93102 101.384 3.868 101.067C4.27819 101.25 5.08542 101.572 6.2897 102.034C7.47967 102.496 9.12332 103.12 11.2207 103.907C13.3323 104.694 14.9904 105.312 16.1951 105.759C17.4001 106.193 18.1799 106.471 18.5344 106.595C18.5024 106.723 18.4705 106.844 18.4388 106.958C18.4214 107.072 18.4109 107.193 18.4074 107.322C18.402 107.522 18.4312 107.766 18.495 108.054C17.7593 108.264 16.9082 108.505 15.9417 108.78C14.9752 109.054 13.9004 109.362 12.7174 109.702L6.09371 111.67L6.09255 111.713C6.65932 111.929 7.38903 112.206 8.2817 112.545C9.17437 112.884 10.2586 113.286 11.5344 113.75L18.2741 116.229C18.1948 116.514 18.1525 116.756 18.1471 116.956C18.1409 117.185 18.1697 117.443 18.2335 117.731C16.2726 118.251 14.3329 118.785 12.4141 119.335C10.4954 119.884 8.55524 120.433 6.59361 120.981C5.8003 121.203 5.1222 121.4 4.5593 121.57C3.99641 121.741 3.57771 121.873 3.30322 121.966Z" fill="#333333" fill-opacity="0.7"/>
<path d="M4.80451 97.4271C4.96138 96.7431 5.10905 96.1083 5.24753 95.5228C5.37457 94.9205 5.4972 94.3029 5.61543 93.67C5.73366 93.037 5.84091 92.4238 5.93719 91.8304C6.0194 91.2343 6.11081 90.589 6.21142 89.8945C6.33276 89.9463 6.44135 89.9884 6.53719 90.0209C6.63565 90.0393 6.73412 90.0577 6.83258 90.0761C7.07171 90.1207 7.28664 90.139 7.47739 90.131C7.34061 90.6295 7.224 91.059 7.12755 91.4195C7.01705 91.7773 6.91798 92.1518 6.83035 92.5431C6.73128 92.9176 6.63005 93.3427 6.52665 93.8183C6.42326 94.2939 6.30325 94.8975 6.16663 95.6289C6.72666 95.7481 7.20801 95.8598 7.61068 95.9642C8.01597 96.0544 8.43665 96.1403 8.87271 96.2217L11.6196 96.7129C11.7115 96.2206 11.7943 95.7775 11.8679 95.3837C11.93 94.9731 11.9908 94.5696 12.0503 94.1731C12.1098 93.7766 12.1636 93.3718 12.2116 92.9586C12.2623 92.5314 12.3138 92.0606 12.3662 91.5463C12.5553 91.6253 12.7694 91.6871 13.0085 91.7318C13.2476 91.7765 13.4626 91.7948 13.6533 91.7867C13.6103 91.9388 13.5503 92.1824 13.4732 92.5173C13.382 92.8497 13.286 93.2466 13.1852 93.7082C13.073 94.1531 12.9587 94.6485 12.8421 95.1944C12.7256 95.7404 12.6135 96.3017 12.5058 96.8784L15.3081 97.4237C15.4628 97.4526 15.716 97.4999 16.0676 97.5656C16.4219 97.6172 16.789 97.6785 17.1688 97.7494C17.5485 97.8203 17.8932 97.8847 18.2026 97.9425C18.5147 97.9862 18.6919 98.012 18.7341 98.0199L18.8286 97.5135C19.0835 96.1491 19.2616 95.0396 19.363 94.1851C19.467 93.3166 19.5206 92.6788 19.5238 92.2718C19.7973 92.3666 20.0113 92.4284 20.1661 92.4573C20.2645 92.4757 20.3771 92.4967 20.5037 92.5203C20.6188 92.5273 20.7142 92.5233 20.7898 92.5083C20.6329 93.1923 20.4839 93.8341 20.3428 94.4337C20.2158 95.0359 20.0932 95.6535 19.9749 96.2865C19.8567 96.9195 19.7468 97.5467 19.6453 98.1683C19.5578 98.7925 19.4638 99.4518 19.3632 100.146C18.4427 99.9307 17.5349 99.7248 16.6399 99.5285C15.7335 99.3155 14.9146 99.1407 14.1831 99.0041L10.0054 98.2238C9.75222 98.1765 9.47793 98.1253 9.18254 98.0701C8.87308 98.0123 8.52011 97.9536 8.12362 97.8942C7.71307 97.832 7.23791 97.7651 6.69813 97.6934C6.16098 97.6076 5.52978 97.5189 4.80451 97.4271Z" fill="#333333" fill-opacity="0.7"/>
<path d="M7.22048 85.9094C7.3054 85.7257 7.38416 85.5626 7.45676 85.42C7.51976 85.2596 7.57591 85.0972 7.6252 84.9327C7.67449 84.7682 7.71693 84.6017 7.75251 84.4331C7.7785 84.2467 7.80243 84.0671 7.82431 83.8944C8.36439 84.0861 8.8702 84.2676 9.34174 84.4387C9.80368 84.5921 10.2588 84.7434 10.707 84.8927C11.1415 85.0378 11.5761 85.183 12.0106 85.3281C12.4492 85.4596 12.9016 85.5951 13.3676 85.7348C13.6966 85.8334 14.0873 85.9505 14.5396 86.086C14.9919 86.2216 15.4786 86.3674 15.9994 86.5235C16.5107 86.6618 17.0268 86.8089 17.5477 86.965C18.0727 87.1074 18.5682 87.2484 19.0342 87.3881C19.4907 87.5099 19.8971 87.6243 20.2535 87.7311C20.5962 87.8338 20.8498 87.9097 21.0142 87.959L21.1683 87.445C21.3655 86.7871 21.5311 86.2093 21.6653 85.7117C21.7995 85.2141 21.9192 84.7646 22.0247 84.3629C22.1164 83.9572 22.1978 83.5857 22.269 83.2485C22.3264 82.9072 22.386 82.5591 22.4475 82.2041C22.5627 82.2685 22.6641 82.3287 22.7519 82.3849C22.8437 82.4274 22.9376 82.463 23.0335 82.4917C23.2117 82.5451 23.4276 82.5725 23.6812 82.5738C23.5484 82.9672 23.4258 83.3263 23.3135 83.6512C23.2012 83.9761 23.093 84.2872 22.989 84.5847C22.9027 84.8725 22.8096 85.1583 22.7096 85.4421C22.6234 85.7299 22.535 86.0246 22.4447 86.3262C22.2557 86.9567 22.0736 87.5893 21.8984 88.224C21.7409 88.849 21.5774 89.4946 21.4076 90.1608C20.5152 89.8486 19.6345 89.5473 18.7655 89.257C17.9005 88.953 17.1117 88.6942 16.3989 88.4806L12.3278 87.2606C11.615 87.047 10.8138 86.8293 9.92422 86.6076C9.03874 86.3721 8.13749 86.1394 7.22048 85.9094Z" fill="#333333" fill-opacity="0.7"/>
<path d="M13.4301 67.9862C14.1052 66.4697 15.0372 65.1851 16.2263 64.1324C16.3018 64.2444 16.4855 64.4123 16.7774 64.6362C17.0693 64.8601 17.3344 65.0564 17.5725 65.2251L17.5594 65.3602C16.7892 65.6126 16.1112 65.9921 15.5254 66.4988C14.9265 66.9998 14.4699 67.6032 14.1557 68.3091C13.7774 69.1589 13.5837 69.9811 13.5746 70.7758C13.5523 71.5648 13.7044 72.3138 14.0309 73.023C14.3574 73.7323 14.8576 74.3856 15.5314 74.9832C16.2052 75.5807 17.0389 76.1006 18.0324 76.5429C19.0391 76.9909 19.9898 77.2654 20.8848 77.3661C21.7666 77.4611 22.5803 77.3925 23.3258 77.1605C24.0713 76.9284 24.7362 76.5431 25.3206 76.0044C25.8919 75.4598 26.3667 74.7627 26.7449 73.913C27.0301 73.2724 27.1881 72.5831 27.219 71.845C27.2558 71.0939 27.1459 70.2148 26.8893 69.2078L27.0026 69.1643L28.081 69.8557C28.1462 70.1667 28.1809 70.5111 28.1851 70.8888C28.1761 71.2608 28.1359 71.6501 28.0645 72.0569C28.012 72.4564 27.9246 72.8639 27.8023 73.2794C27.6858 73.6818 27.5461 74.066 27.3832 74.432C26.9293 75.4517 26.3505 76.3297 25.6469 77.0659C24.9433 77.8021 24.1547 78.3596 23.2813 78.7383C22.4006 79.0981 21.454 79.2719 20.4413 79.2597C19.4155 79.2417 18.3601 78.9912 17.2751 78.5082C16.1639 78.0136 15.246 77.4014 14.5214 76.6716C13.7895 75.9229 13.259 75.0916 12.9297 74.1775C12.6004 73.2634 12.4796 72.2855 12.5674 71.2438C12.6421 70.1963 12.9297 69.1104 13.4301 67.9862Z" fill="#333333" fill-opacity="0.7"/>
<path d="M24.6685 62.6268C25.5893 63.2318 26.4832 63.6565 27.35 63.9007C28.2049 64.1371 29.0189 64.2012 29.7921 64.0928C30.5653 63.9845 31.2839 63.7118 31.9477 63.2747C32.5996 62.8298 33.177 62.2247 33.6799 61.4593C34.1828 60.694 34.5091 59.9238 34.6587 59.1489C34.8042 58.3541 34.7733 57.5804 34.5658 56.8277C34.3584 56.075 33.9765 55.3532 33.4203 54.6624C32.852 53.9637 32.1075 53.3118 31.1866 52.7068C29.3449 51.4967 27.6371 51.008 26.063 51.2407C24.4769 51.4656 23.1731 52.3554 22.1516 53.9101C21.6566 54.6635 21.3342 55.4277 21.1846 56.2026C21.035 56.9775 21.0639 57.7413 21.2713 58.494C21.4788 59.2467 21.8666 59.9724 22.4349 60.6711C23.0031 61.3698 23.7476 62.0217 24.6685 62.6268ZM21.4997 53.456C22.1597 52.4515 22.9104 51.6348 23.7515 51.0061C24.5807 50.3695 25.4629 49.939 26.3981 49.7145C27.3411 49.478 28.3193 49.4615 29.3327 49.6651C30.3342 49.8608 31.3372 50.2887 32.3417 50.9488C33.3463 51.6089 34.1431 52.3636 34.7322 53.213C35.3093 54.0545 35.6765 54.9549 35.8337 55.9144C35.9988 56.8618 35.9597 57.8463 35.7165 58.868C35.4613 59.8817 35.0037 60.8909 34.3436 61.8954C33.6914 62.888 32.9507 63.7026 32.1215 64.3392C31.3002 64.9638 30.418 65.3944 29.475 65.6309C28.5398 65.8554 27.5676 65.8758 26.5583 65.692C25.5448 65.4884 24.5299 65.0527 23.5134 64.3847C22.5327 63.7404 21.7499 63.0034 21.1649 62.1739C20.5799 61.3443 20.201 60.4618 20.028 59.5263C19.851 58.571 19.8841 57.5825 20.1273 56.5609C20.3664 55.5195 20.8239 54.4845 21.4997 53.456Z" fill="#333333" fill-opacity="0.7"/>
<path d="M29.9185 41.9785C30.9583 42.3201 31.952 42.6375 32.8996 42.9306C33.8369 43.2138 34.7996 43.5015 35.7877 43.7937C36.7857 44.0755 37.8448 44.3763 38.9651 44.696C40.0849 44.9955 41.3371 45.3325 42.7217 45.7071C42.6458 45.476 42.5484 45.1846 42.4294 44.833C42.3104 44.4814 42.1856 44.0944 42.0549 43.6722C41.9139 43.2401 41.7621 42.7778 41.5996 42.2855C41.4469 41.7828 41.2891 41.2751 41.1261 40.7625L38.5869 32.9236L38.7799 32.7221C39.8811 33.5583 40.9876 34.4096 42.0996 35.276C43.211 36.1222 44.2918 36.9488 45.3417 37.7558C46.3912 38.5426 47.3892 39.29 48.3357 39.998C49.2823 40.7061 50.136 41.3352 50.897 41.8854C50.7373 41.9901 50.5979 42.0943 50.4787 42.1981C50.3595 42.3019 50.2406 42.4159 50.1218 42.5399C49.9833 42.6846 49.8499 42.8343 49.7217 42.9889C49.6038 43.1534 49.5305 43.2714 49.5017 43.3429C48.8217 42.7909 48.0902 42.1996 47.3073 41.569C46.5244 40.9383 45.7416 40.3177 44.9592 39.7073C44.1866 39.0866 43.44 38.5006 42.7195 37.9496C41.9986 37.3783 41.3501 36.8763 40.7739 36.4435L40.7442 36.4745C41.1133 37.6203 41.439 38.6354 41.7215 39.5198C42.0138 40.394 42.2789 41.1827 42.5169 41.8859C42.7549 42.5892 42.9711 43.2221 43.1656 43.7846C43.3596 44.3269 43.5428 44.8391 43.7152 45.3211C43.8877 45.8032 44.0599 46.2751 44.2319 46.7369C44.4035 47.1785 44.5856 47.6401 44.7783 48.1217L44.6447 48.2612C42.7382 47.6247 40.8225 47.0288 38.8976 46.4737C36.9623 45.9086 34.9654 45.3044 32.907 44.6611L32.8773 44.6921C34.8321 47.0785 36.401 48.947 37.5843 50.2976C38.7571 51.6384 39.6175 52.571 40.1653 53.0954C40.0255 53.1794 39.9108 53.2578 39.8213 53.3306C39.7417 53.3931 39.6574 53.4708 39.5683 53.5639C39.4793 53.6569 39.4003 53.7497 39.3315 53.8423C39.2726 53.9245 39.2042 54.0374 39.1263 54.1808C37.3968 51.9109 35.7306 49.7611 34.1277 47.7315C32.5244 45.6815 31.0372 43.8517 29.6662 42.242L29.9185 41.9785Z" fill="#333333" fill-opacity="0.7"/>
<path d="M43.6378 29.0072C44.2086 28.5989 44.7398 28.2214 45.2316 27.8747C45.7258 27.5079 46.2269 27.1267 46.7349 26.731C47.243 26.3353 47.7296 25.9471 48.195 25.5665C48.6516 25.1747 49.1476 24.752 49.6832 24.2986C49.7398 24.4178 49.7932 24.5213 49.8435 24.6091C49.905 24.6881 49.9666 24.7671 50.0281 24.8461C50.1776 25.0381 50.3264 25.1942 50.4746 25.3146C50.0418 25.5973 49.6699 25.8416 49.3587 26.0477C49.0388 26.2424 48.7165 26.4573 48.3916 26.6922C48.0692 26.907 47.7117 27.1583 47.319 27.4459C46.9264 27.7336 46.4366 28.1061 45.8495 28.5633C46.19 29.0237 46.4764 29.4263 46.7088 29.7713C46.9525 30.1075 47.2106 30.4506 47.4832 30.8005L49.2148 32.9887C49.6099 32.681 49.9655 32.404 50.2816 32.1578C50.6002 31.8915 50.9132 31.6296 51.2205 31.3721C51.5278 31.1146 51.8364 30.8471 52.1462 30.5695C52.4672 30.2832 52.8178 29.9648 53.1978 29.6144C53.2871 29.7988 53.4064 29.987 53.5559 30.1789C53.7054 30.3708 53.8542 30.5269 54.0024 30.6473C53.8694 30.7328 53.6631 30.8753 53.3833 31.0751C53.0948 31.2635 52.7599 31.4972 52.3785 31.7761C51.9997 32.0349 51.5857 32.3301 51.1367 32.6617C50.6876 32.9934 50.2316 33.3395 49.7688 33.7L51.506 35.9654C51.6028 36.0896 51.761 36.2928 51.9809 36.575C52.212 36.8484 52.4462 37.1376 52.6836 37.4424C52.9211 37.7472 53.1365 38.0238 53.3299 38.2721C53.5347 38.5117 53.6502 38.6484 53.6766 38.6823L54.083 38.3657C55.1781 37.5128 56.0467 36.8 56.6889 36.2272C57.3424 35.6457 57.8052 35.2036 58.0773 34.901C58.2193 35.1531 58.3386 35.3413 58.4354 35.4655C58.4969 35.5445 58.5673 35.6348 58.6464 35.7364C58.728 35.818 58.8021 35.8781 58.8687 35.917C58.2979 36.3253 57.761 36.7072 57.258 37.0627C56.7638 37.4295 56.2626 37.8108 55.7546 38.2064C55.2466 38.6021 54.7486 38.9991 54.2607 39.3972C53.7815 39.8067 53.2742 40.2382 52.7386 40.6916C52.1921 39.9201 51.6488 39.1644 51.1086 38.4243C50.5709 37.6641 50.0735 36.9905 49.6163 36.4034L47.0047 33.0505C46.8465 32.8473 46.675 32.6272 46.4903 32.3901C46.2969 32.1417 46.0714 31.8639 45.8139 31.5566C45.5476 31.238 45.2361 30.873 44.8794 30.4616C44.534 30.0414 44.1201 29.5566 43.6378 29.0072Z" fill="#333333" fill-opacity="0.7"/>
<path d="M57.0479 19.3256C57.9438 18.8767 58.7893 18.455 59.5844 18.0603C60.3727 17.653 61.1703 17.2326 61.977 16.7992C62.7838 16.3657 63.5745 15.9328 64.3493 15.5003C65.1299 15.0484 65.9483 14.5762 66.8045 14.0837C66.8344 14.2301 66.8668 14.3508 66.9016 14.4458C66.9364 14.5408 66.9809 14.6387 67.0351 14.7395C67.1299 14.916 67.2664 15.0945 67.4445 15.2749C67.1595 15.3793 66.8463 15.507 66.5051 15.6578C66.1638 15.8087 65.807 15.976 65.4346 16.1598C65.0681 16.3243 64.7021 16.5047 64.3365 16.7011C63.9768 16.8781 63.6268 17.058 63.2864 17.2409L64.1832 19.0008C64.3602 19.3605 64.53 19.6916 64.6926 19.9941C64.8551 20.2967 65.0075 20.5803 65.1497 20.845L67.2018 24.6645C67.5269 25.2695 67.9119 25.9561 68.3571 26.7241C68.8148 27.4853 69.3165 28.3284 69.8622 29.2535C69.6722 29.3231 69.4948 29.386 69.33 29.442C69.1846 29.5039 69.0362 29.5755 68.885 29.6568C68.7337 29.738 68.5795 29.829 68.4224 29.9296C68.2847 30.0361 68.147 30.1426 68.0092 30.2491C67.5933 29.3842 67.1812 28.5416 66.773 27.7213C66.3774 26.8943 66.0069 26.1593 65.6615 25.5164L63.5992 21.678C63.4502 21.4007 63.2945 21.1108 63.1319 20.8083C62.9694 20.5057 62.787 20.1814 62.5848 19.8352L61.6225 18.1349C60.8662 18.5412 60.1297 18.9694 59.4131 19.4194C58.7023 19.85 58.1272 20.2158 57.6879 20.5168C57.6358 20.2687 57.5589 20.05 57.4574 19.861C57.4032 19.7601 57.3398 19.6723 57.2672 19.5977C57.2072 19.5162 57.1341 19.4255 57.0479 19.3256Z" fill="#333333" fill-opacity="0.7"/>
<path d="M74.0003 18.897C74.3718 19.9343 74.8303 20.8112 75.3758 21.5279C75.9165 22.231 76.5282 22.7719 77.211 23.1505C77.8938 23.5291 78.6318 23.7436 79.425 23.7939C80.2134 23.8307 81.0387 23.6947 81.9008 23.3859C82.763 23.0771 83.487 22.6582 84.0727 22.1292C84.667 21.5819 85.1078 20.9452 85.3949 20.2192C85.6821 19.4931 85.8113 18.6869 85.7826 17.8004C85.749 16.9004 85.5465 15.9318 85.1749 14.8945C84.4318 12.8198 83.3616 11.402 81.9642 10.6409C80.562 9.86639 78.9852 9.79276 77.2339 10.42C76.3852 10.724 75.668 11.1405 75.0823 11.6695C74.4966 12.1985 74.0602 12.826 73.773 13.552C73.4859 14.2781 73.3591 15.0911 73.3926 15.9911C73.4262 16.891 73.6287 17.8597 74.0003 18.897ZM76.9864 9.66513C78.118 9.25981 79.2088 9.05907 80.259 9.06292C81.3044 9.0533 82.2681 9.24011 83.1501 9.62337C84.0457 10.0018 84.8369 10.5772 85.524 11.3495C86.2062 12.1083 86.7499 13.0535 87.1552 14.1851C87.5605 15.3168 87.743 16.399 87.7025 17.4319C87.6573 18.4513 87.4088 19.3914 86.9572 20.2524C86.5191 21.1085 85.8955 21.8714 85.0866 22.5412C84.2729 23.1974 83.3002 23.7282 82.1686 24.1335C81.0505 24.534 79.9688 24.7391 78.9234 24.7487C77.8916 24.7535 76.9279 24.5667 76.0323 24.1883C75.1503 23.805 74.3614 23.2364 73.6657 22.4824C72.9787 21.7101 72.4301 20.7514 72.02 19.6063C71.6243 18.5016 71.4424 17.442 71.4742 16.4274C71.506 15.4128 71.7342 14.4799 72.1589 13.6286C72.5922 12.759 73.2133 11.9893 74.0222 11.3196C74.8398 10.6316 75.8278 10.0801 76.9864 9.66513Z" fill="#333333" fill-opacity="0.7"/>
<path d="M98.3413 14.4711C98.4086 14.9818 98.5013 15.5758 98.6194 16.253C98.7356 16.9161 98.864 17.6713 99.0045 18.5188C99.292 18.5098 99.622 18.4952 99.9946 18.475C100.38 18.4387 100.735 18.3991 101.061 18.3561C101.572 18.2888 102.029 18.142 102.432 17.9157C102.835 17.6893 103.165 17.4005 103.422 17.0491C103.691 16.6817 103.883 16.274 103.997 15.8259C104.11 15.3637 104.13 14.863 104.059 14.3239C103.968 13.6288 103.729 13.0757 103.343 12.6647C103.157 12.4583 102.933 12.2929 102.671 12.1686C102.423 12.0425 102.116 11.9531 101.748 11.9005C101.378 11.8338 100.935 11.8128 100.419 11.8375C99.9151 11.8462 99.3155 11.8963 98.6203 11.9879L98.0245 12.0664L98.3413 14.4711ZM97.3054 5.62285C97.3753 6.26314 97.4348 6.93366 97.4838 7.63443C97.5471 8.33333 97.6132 8.94524 97.6824 9.47016L97.9207 11.279L99.155 11.1164C99.6374 11.0528 100.106 10.9406 100.561 10.7796C101.03 10.6167 101.435 10.3975 101.774 10.1219C102.125 9.83024 102.388 9.47085 102.562 9.04371C102.751 8.61469 102.807 8.10935 102.731 7.52769C102.617 6.66228 102.26 6.0381 101.661 5.65515C101.061 5.25801 100.122 5.14355 98.8449 5.31177C98.5895 5.34542 98.328 5.38709 98.0603 5.43679C97.8068 5.48463 97.5552 5.54665 97.3054 5.62285ZM95.1447 4.99823C95.4038 4.99296 95.7552 4.97554 96.1987 4.94597C96.6545 4.90034 97.0527 4.8551 97.3932 4.81024C97.7762 4.75977 98.1503 4.69605 98.5155 4.61908C98.8929 4.52605 99.2731 4.4543 99.6562 4.40383C101.203 4.20009 102.371 4.30592 103.162 4.72133C103.953 5.13673 104.416 5.85516 104.55 6.87663C104.673 7.81297 104.479 8.6396 103.968 9.35652C103.468 10.0574 102.634 10.6291 101.466 11.0717L101.471 11.1143C102.96 11.0192 104.055 11.2285 104.758 11.7421C105.459 12.2415 105.888 13.0871 106.045 14.2788C106.129 14.9172 106.063 15.5105 105.846 16.0586C105.644 16.6048 105.326 17.0942 104.892 17.5266C104.457 17.9448 103.926 18.2962 103.299 18.5808C102.671 18.8512 101.974 19.0369 101.208 19.1378C100.867 19.1827 100.517 19.2072 100.157 19.2114C99.8124 19.2279 99.4629 19.2595 99.1082 19.3062C98.7961 19.3473 98.4708 19.3974 98.1321 19.4565C97.7935 19.5155 97.4426 19.5906 97.0793 19.6818C96.9985 18.7398 96.9125 17.813 96.8212 16.9013C96.7423 15.9735 96.6542 15.1408 96.557 14.4031L96.0019 10.1895C95.9851 10.0618 95.9434 9.80032 95.8769 9.40495C95.8104 9.00958 95.7364 8.55747 95.6549 8.04861C95.5734 7.53974 95.482 7.01053 95.3807 6.46098C95.2937 5.90956 95.215 5.42197 95.1447 4.99823Z" fill="#333333" fill-opacity="0.7"/>
<path d="M109.946 3.43885C110.648 3.45935 111.299 3.48042 111.901 3.50208C112.516 3.50926 113.146 3.50913 113.79 3.50167C114.433 3.49421 115.056 3.47985 115.657 3.45858C116.257 3.42301 116.908 3.38685 117.609 3.35011C117.582 3.47922 117.561 3.59394 117.548 3.69427C117.549 3.79443 117.551 3.89459 117.552 3.99475C117.555 4.23799 117.579 4.45237 117.624 4.63789C117.108 4.60093 116.664 4.57029 116.292 4.54598C115.919 4.50737 115.532 4.48323 115.132 4.47356C114.745 4.44941 114.308 4.433 113.822 4.42433C113.335 4.41565 112.72 4.41563 111.976 4.42424C111.968 4.99675 111.952 5.49065 111.928 5.90593C111.919 6.32105 111.917 6.75039 111.922 7.19396L111.976 9.98389C112.476 9.97809 112.927 9.97287 113.328 9.96823C113.743 9.94912 114.15 9.93009 114.551 9.91114C114.951 9.89219 115.359 9.86601 115.773 9.83258C116.202 9.799 116.674 9.75776 117.189 9.70886C117.148 9.90968 117.129 10.1317 117.132 10.375C117.135 10.6182 117.159 10.8326 117.204 11.0181C117.046 11.0056 116.796 10.9942 116.452 10.9839C116.108 10.9592 115.7 10.9425 115.228 10.9337C114.77 10.9103 114.262 10.8948 113.703 10.8869C113.145 10.8791 112.573 10.8785 111.986 10.8853L111.998 13.7402C111.999 13.8976 112.002 14.1551 112.007 14.5128C112.025 14.8704 112.036 15.2423 112.041 15.6287C112.045 16.015 112.05 16.3655 112.053 16.6803C112.071 16.995 112.08 17.1737 112.081 17.2167L112.596 17.2107C113.984 17.1946 115.107 17.153 115.965 17.0858C116.837 17.0185 117.473 16.9467 117.873 16.8705C117.833 17.1572 117.814 17.3792 117.816 17.5366C117.817 17.6368 117.818 17.7513 117.82 17.88C117.836 17.9943 117.858 18.0871 117.888 18.1583C117.186 18.1378 116.528 18.1168 115.912 18.0953C115.296 18.0881 114.667 18.0883 114.023 18.0957C113.379 18.1032 112.742 18.1177 112.113 18.1393C111.484 18.1752 110.819 18.2116 110.118 18.2483C110.15 17.3034 110.175 16.3729 110.193 15.4569C110.225 14.5263 110.237 13.689 110.228 12.9449L110.179 8.69528C110.176 8.43773 110.173 8.15871 110.169 7.85823C110.166 7.54344 110.154 7.1858 110.135 6.78533C110.116 6.37054 110.089 5.89145 110.054 5.34806C110.034 4.80449 109.998 4.16809 109.946 3.43885Z" fill="#333333" fill-opacity="0.7"/>
<path d="M121.136 3.42569C121.305 3.45842 121.609 3.50579 122.049 3.5678C122.502 3.63136 122.991 3.69877 123.516 3.77004C124.043 3.82708 124.561 3.89046 125.072 3.96018C125.598 4.01722 126.025 4.06347 126.352 4.09892L130.172 4.51284C130.343 4.53134 130.543 4.54581 130.772 4.55624C131.015 4.56823 131.244 4.58578 131.457 4.6089C131.672 4.6178 131.858 4.62361 132.016 4.62634C132.189 4.63062 132.289 4.63429 132.317 4.63738L132.276 5.02149C131.83 5.41934 131.175 6.08245 130.311 7.01081C129.462 7.94072 128.396 9.14222 127.114 10.6153C125.832 12.0884 124.72 13.3786 123.78 14.4857C122.855 15.5802 122.099 16.513 121.512 17.2841C121.541 17.2872 121.724 17.3215 122.062 17.3869C122.416 17.4397 122.828 17.4915 123.298 17.5424C123.81 17.5979 124.437 17.6586 125.178 17.7245C125.921 17.7763 126.664 17.8208 127.409 17.8583C128.153 17.8958 128.841 17.9271 129.471 17.9523C130.102 17.9774 130.569 17.9849 130.872 17.9746C130.831 18.0853 130.791 18.196 130.75 18.3067C130.723 18.419 130.703 18.5392 130.689 18.6672C130.677 18.781 130.672 18.8956 130.674 19.0109C130.691 19.1136 130.707 19.2305 130.722 19.3616C129.871 19.2407 129.17 19.143 128.616 19.0687C128.077 18.9959 127.631 18.9331 127.276 18.8803C126.921 18.8418 126.629 18.8102 126.402 18.7855C126.174 18.7608 125.953 18.7369 125.74 18.7138C125.185 18.6537 124.581 18.5882 123.926 18.5173C123.27 18.4606 122.622 18.3976 121.982 18.3282C121.34 18.273 120.727 18.221 120.142 18.172C119.557 18.123 119.065 18.0841 118.665 18.0551L118.704 17.6924C119.242 17.1173 119.838 16.4622 120.493 15.7272C121.149 14.9922 121.822 14.2232 122.514 13.4201C123.22 12.6186 123.918 11.8163 124.61 11.0132C125.316 10.2117 125.974 9.44826 126.585 8.72285C127.196 7.99744 127.742 7.34411 128.222 6.76286C128.717 6.18315 129.105 5.72146 129.387 5.37778C129.316 5.37007 129.146 5.34446 128.877 5.30094C128.623 5.25897 128.289 5.21563 127.877 5.17092C126.412 5.01214 125.078 4.90357 123.875 4.8452C122.686 4.78838 121.725 4.75623 120.992 4.74874C121.09 4.5146 121.149 4.29795 121.171 4.09878C121.183 3.98497 121.18 3.87673 121.163 3.77406C121.161 3.65871 121.152 3.54259 121.136 3.42569Z" fill="#333333" fill-opacity="0.7"/>
<path d="M137.013 13.8215C137.263 13.8851 137.58 13.9733 137.964 14.0861C138.349 14.1989 138.791 14.3188 139.29 14.446C139.415 14.4778 139.568 14.5167 139.748 14.5626C139.932 14.5947 140.128 14.6372 140.336 14.6902C140.558 14.7467 140.772 14.8014 140.98 14.8544C141.206 14.8971 141.409 14.9414 141.589 14.9873L140.626 9.11591L137.013 13.8215ZM142.028 6.48277L143.019 13.1144C143.402 15.7815 143.731 17.94 144.005 19.5897C144.282 21.2256 144.468 22.2625 144.563 22.7002C144.38 22.6091 144.2 22.5337 144.023 22.4739C143.86 22.4177 143.682 22.3648 143.488 22.3153C143.293 22.2659 143.098 22.2234 142.9 22.1878C142.713 22.1696 142.532 22.1532 142.359 22.1385C142.324 21.288 142.235 20.335 142.09 19.2792C141.949 18.2097 141.798 17.1227 141.636 16.0183C141.2 15.8775 140.753 15.7488 140.295 15.6323C139.837 15.5157 139.387 15.4009 138.943 15.2878C138.513 15.1783 138.075 15.074 137.627 14.9748C137.194 14.8791 136.776 14.7801 136.374 14.6776C135.903 15.3107 135.485 15.8762 135.122 16.3744C134.773 16.8761 134.459 17.3276 134.179 17.7289C133.913 18.1338 133.679 18.5024 133.477 18.8346C133.277 19.153 133.097 19.4542 132.936 19.7381C132.794 19.6576 132.663 19.5945 132.541 19.5489C132.434 19.5067 132.318 19.4698 132.193 19.438C132.068 19.4062 131.942 19.3813 131.813 19.3634C131.685 19.3455 131.546 19.3397 131.397 19.3459C132.067 18.5125 132.838 17.5424 133.711 16.4358C134.598 15.3326 135.502 14.1896 136.423 13.0068C137.359 11.8275 138.275 10.6654 139.172 9.52067C140.086 8.36558 140.907 7.31938 141.633 6.38209L142.028 6.48277Z" fill="#333333" fill-opacity="0.7"/>
<path d="M152.316 9.84529C152.492 9.94577 152.647 10.0383 152.783 10.123C152.938 10.1996 153.095 10.2696 153.254 10.3329C153.414 10.3963 153.576 10.4529 153.741 10.503C153.924 10.545 154.101 10.5843 154.271 10.621C154.034 11.1425 153.809 11.6308 153.598 12.0857C153.405 12.5327 153.215 12.973 153.028 13.4067C152.845 13.827 152.663 14.2474 152.481 14.6677C152.312 15.0933 152.138 15.5323 151.959 15.9845C151.832 16.3037 151.682 16.6828 151.507 17.1217C151.333 17.5607 151.146 18.0328 150.945 18.5383C150.763 19.0357 150.572 19.5371 150.372 20.0426C150.184 20.5533 150.001 21.0347 149.822 21.487C149.661 21.9312 149.512 22.3262 149.375 22.672C149.243 23.0045 149.145 23.2506 149.082 23.4102L149.58 23.6081C150.219 23.8614 150.78 24.0764 151.264 24.2531C151.748 24.4298 152.186 24.588 152.577 24.7277C152.973 24.8542 153.336 24.9674 153.666 25.0675C154.001 25.1542 154.343 25.2436 154.691 25.3356C154.617 25.4448 154.548 25.5407 154.485 25.6232C154.434 25.711 154.391 25.8015 154.354 25.8946C154.285 26.0675 154.239 26.2802 154.216 26.5327C153.836 26.3664 153.489 26.2132 153.175 26.0733C152.861 25.9333 152.56 25.7987 152.273 25.6692C151.993 25.5584 151.717 25.441 151.443 25.3168C151.163 25.206 150.877 25.0925 150.585 24.9764C149.973 24.7337 149.358 24.4976 148.741 24.2681C148.132 24.0573 147.503 23.8385 146.854 23.6118C147.242 22.7497 147.619 21.8984 147.983 21.0577C148.361 20.2222 148.687 19.4587 148.961 18.767L150.528 14.8167C150.803 14.125 151.089 13.3456 151.387 12.4786C151.698 11.6167 152.008 10.739 152.316 9.84529Z" fill="#333333" fill-opacity="0.7"/>
<path d="M169.414 17.5221C169.567 17.6549 169.701 17.776 169.818 17.8855C169.954 17.9908 170.095 18.09 170.239 18.1833C170.383 18.2765 170.531 18.3638 170.683 18.445C170.855 18.522 171.021 18.595 171.18 18.6643C170.569 19.5302 170.024 20.2939 169.545 20.9555C169.079 21.6249 168.624 22.3021 168.181 22.987L167.61 23.8702C169.461 25.1184 170.705 25.9484 171.342 26.3602C171.979 26.772 173.246 27.5659 175.144 28.742L175.505 28.1832C175.793 27.7386 176.035 27.3502 176.233 27.018C176.443 26.6936 176.647 26.3653 176.844 26.0331C177.05 25.6888 177.269 25.3107 177.501 24.8986C177.753 24.4823 178.062 23.9659 178.426 23.3496C178.579 23.4824 178.714 23.6035 178.83 23.7131C178.967 23.8183 179.107 23.9176 179.251 24.0108C179.395 24.104 179.543 24.1913 179.695 24.2725C179.867 24.3495 180.033 24.4226 180.193 24.4918C179.636 25.2736 179.091 26.0373 178.558 26.783C178.036 27.5365 177.578 28.2197 177.181 28.8325L174.874 32.4014C174.477 33.0142 174.039 33.7189 173.558 34.5155C173.096 35.3079 172.627 36.1123 172.151 36.9286C172.018 36.7916 171.883 36.6704 171.747 36.5652C171.61 36.4599 171.47 36.3607 171.326 36.2674C171.182 36.1742 171.033 36.0869 170.882 36.0057C170.742 35.9323 170.576 35.8592 170.384 35.7864C170.933 35.0167 171.468 34.255 171.99 33.5015C172.523 32.7558 172.992 32.0705 173.396 31.4457L174.596 29.5892C174.632 29.6125 174.506 29.5309 174.218 29.3444C173.937 29.1459 173.592 28.9146 173.184 28.6504C172.775 28.3862 172.349 28.1104 171.904 27.8229C171.467 27.5234 171.117 27.2881 170.852 27.1172C170.624 26.9696 170.194 26.6997 169.561 26.3077C168.948 25.9114 168.115 25.3813 167.062 24.7173L165.861 26.5739C165.465 27.1867 165.026 27.8914 164.545 28.688C164.084 29.4804 163.615 30.2847 163.138 31.1011C163.006 30.9641 162.871 30.8429 162.734 30.7376C162.598 30.6324 162.458 30.5331 162.314 30.4399C162.169 30.3467 162.021 30.2594 161.869 30.1782C161.729 30.1047 161.564 30.0317 161.372 29.9589C161.921 29.1892 162.456 28.4275 162.977 27.674C163.511 26.9283 163.979 26.243 164.383 25.6182L166.691 22.0493C167.095 21.4245 167.528 20.7159 167.989 19.9235C168.462 19.1389 168.937 18.3384 169.414 17.5221Z" fill="#333333" fill-opacity="0.7"/>
<path d="M180.695 34.2381C179.948 35.0477 179.383 35.8602 179 36.6755C178.627 37.4802 178.431 38.2729 178.412 39.0534C178.392 39.8339 178.544 40.5873 178.867 41.3137C179.199 42.0295 179.702 42.698 180.375 43.3192C181.048 43.9404 181.754 44.3881 182.494 44.6622C183.255 44.9356 184.023 45.0315 184.799 44.9498C185.576 44.8681 186.35 44.6093 187.123 44.1734C187.905 43.7269 188.67 43.0988 189.417 42.2892C190.912 40.67 191.673 39.0648 191.7 37.4739C191.738 35.8724 191.073 34.4408 189.706 33.179C189.043 32.5675 188.342 32.1247 187.602 31.8505C186.862 31.5763 186.104 31.48 185.327 31.5617C184.551 31.6434 183.771 31.9075 182.989 32.3539C182.207 32.8004 181.442 33.4285 180.695 34.2381ZM190.26 32.61C191.144 33.4253 191.827 34.2992 192.309 35.2318C192.802 36.1539 193.083 37.0946 193.151 38.0538C193.231 39.0228 193.087 39.9906 192.721 40.9571C192.364 41.9131 191.778 42.8328 190.963 43.716C190.147 44.5992 189.273 45.2621 188.338 45.7045C187.414 46.1364 186.466 46.3515 185.493 46.3499C184.532 46.358 183.567 46.1586 182.599 45.7517C181.64 45.3344 180.719 44.718 179.836 43.9027C178.963 43.0971 178.281 42.2333 177.788 41.3112C177.306 40.3989 177.025 39.4582 176.946 38.4892C176.877 37.53 177.016 36.5675 177.362 35.6017C177.729 34.6352 178.324 33.705 179.149 32.8113C179.945 31.9491 180.8 31.2972 181.714 30.8556C182.628 30.414 183.561 30.1843 184.512 30.1665C185.483 30.1479 186.453 30.342 187.421 30.7489C188.41 31.1549 189.356 31.7753 190.26 32.61Z" fill="#333333" fill-opacity="0.7"/>
<path d="M200.201 42.7668C199.695 43.737 199.22 44.6657 198.776 45.5529C198.344 46.4315 197.903 47.3344 197.454 48.2617C197.013 49.2004 196.544 50.1963 196.046 51.2495C195.568 52.3056 195.031 53.4861 194.436 54.7911C194.676 54.7539 194.98 54.7053 195.346 54.6452C195.712 54.5851 196.114 54.525 196.552 54.4649C197.002 54.3962 197.482 54.3218 197.995 54.2417C198.516 54.173 199.042 54.1 199.575 54.0227L207.722 52.795L207.89 53.0183C206.885 53.9684 205.865 54.9214 204.829 55.8773C203.813 56.836 202.821 57.7676 201.854 58.6719C200.907 59.5792 200.007 60.442 199.154 61.2605C198.301 62.079 197.541 62.8188 196.874 63.4799C196.797 63.3054 196.717 63.1508 196.634 63.0163C196.551 62.8818 196.458 62.7458 196.355 62.6085C196.235 62.4482 196.109 62.2922 195.977 62.1406C195.834 61.9975 195.729 61.9059 195.664 61.8658C196.319 61.2848 197.022 60.6595 197.771 59.9898C198.521 59.3201 199.261 58.649 199.991 57.9765C200.729 57.3154 201.429 56.6743 202.09 56.0533C202.771 55.4351 203.372 54.877 203.893 54.3791L203.867 54.3447C202.677 54.5222 201.622 54.6781 200.704 54.8126C199.793 54.9586 198.972 55.0917 198.239 55.2119C197.507 55.3321 196.847 55.4422 196.26 55.5424C195.694 55.6454 195.159 55.7427 194.655 55.8343C194.151 55.9259 193.657 56.0189 193.174 56.1133C192.71 56.2106 192.225 56.3151 191.719 56.4267L191.603 56.2722C192.541 54.4949 193.441 52.7019 194.303 50.8932C195.176 49.0759 196.097 47.2042 197.068 45.2781L197.042 45.2438C194.369 46.7835 192.269 48.027 190.744 48.9743C189.23 49.913 188.17 50.6098 187.563 51.0649C187.503 50.9132 187.444 50.7873 187.387 50.6871C187.338 50.5984 187.275 50.5025 187.198 50.3995C187.121 50.2964 187.042 50.2034 186.962 50.1204C186.89 50.0489 186.79 49.963 186.662 49.8629C189.183 48.5264 191.575 47.2328 193.839 45.9821C196.123 44.7344 198.171 43.5653 199.982 42.4749L200.201 42.7668Z" fill="#333333" fill-opacity="0.7"/>
<path d="M210.85 58.5614C211.159 59.1915 211.444 59.7775 211.706 60.3196C211.986 60.8673 212.28 61.4243 212.587 61.9904C212.894 62.5565 213.197 63.1003 213.496 63.6219C213.807 64.1366 214.143 64.6954 214.502 65.2982C214.375 65.3344 214.264 65.3701 214.169 65.4053C214.081 65.453 213.993 65.5007 213.905 65.5485C213.691 65.6644 213.513 65.7855 213.37 65.9119C213.162 65.4386 212.982 65.0315 212.83 64.6908C212.69 64.3433 212.531 63.9899 212.353 63.6309C212.194 63.2776 212.005 62.8836 211.786 62.4491C211.566 62.0145 211.279 61.4702 210.925 60.816C210.415 61.0762 209.97 61.2926 209.592 61.4652C209.22 61.6503 208.84 61.8486 208.45 62.06L206.007 63.4086C206.245 63.8489 206.46 64.2452 206.651 64.5974C206.861 64.9554 207.068 65.3072 207.272 65.6526C207.475 65.998 207.689 66.3463 207.911 66.6975C208.141 67.0613 208.398 67.4594 208.681 67.8918C208.484 67.9496 208.279 68.0364 208.065 68.1523C207.851 68.2682 207.673 68.3894 207.53 68.5158C207.467 68.3706 207.361 68.1436 207.21 67.8348C207.071 67.5193 206.896 67.1505 206.683 66.7285C206.49 66.3123 206.267 65.8555 206.013 65.358C205.76 64.8606 205.494 64.354 205.214 63.8382L202.694 65.1797C202.556 65.2547 202.329 65.3774 202.015 65.5479C201.707 65.731 201.383 65.9146 201.044 66.0987C200.704 66.2828 200.396 66.4499 200.119 66.5999C199.849 66.7625 199.695 66.854 199.657 66.8745L199.903 67.3274C200.564 68.5477 201.125 69.5216 201.584 70.2491C202.051 70.9892 202.411 71.5184 202.665 71.8365C202.392 71.9352 202.187 72.022 202.049 72.097C201.961 72.1447 201.86 72.1993 201.747 72.2607C201.653 72.3278 201.582 72.391 201.532 72.4503C201.223 71.8202 200.935 71.2278 200.667 70.6732C200.386 70.1255 200.092 69.5685 199.785 69.0024C199.479 68.4363 199.169 67.8799 198.856 67.3332C198.531 66.7933 198.189 66.2219 197.83 65.6191C198.68 65.2068 199.515 64.795 200.334 64.3838C201.172 63.9783 201.918 63.5982 202.572 63.2436L206.309 61.2184C206.535 61.0956 206.781 60.9627 207.045 60.8195C207.321 60.6694 207.633 60.4927 207.978 60.2892C208.336 60.0788 208.747 59.8315 209.212 59.5472C209.683 59.2755 210.229 58.9469 210.85 58.5614Z" fill="#333333" fill-opacity="0.7"/>
<path d="M218.131 72.8991C218.391 73.5346 218.537 74.1167 218.568 74.6452C218.612 75.1683 218.557 75.6936 218.402 76.2211C218.109 76.1863 217.821 76.1808 217.537 76.2045C217.258 76.2414 216.917 76.296 216.514 76.3685L216.416 76.1302C217.465 75.1435 217.765 74.1006 217.315 73.0016C217.005 72.2469 216.521 71.7261 215.862 71.4394C215.204 71.1526 214.517 71.1558 213.802 71.4488C213.471 71.5844 213.185 71.7556 212.945 71.9622C212.718 72.1634 212.532 72.4254 212.386 72.7482C212.245 73.0842 212.147 73.4876 212.093 73.9584C212.044 74.4424 212.032 75.0351 212.056 75.7365C212.075 76.4245 212.047 77.016 211.971 77.5109C211.901 78.0191 211.779 78.4559 211.604 78.8214C211.429 79.187 211.191 79.4932 210.89 79.7402C210.595 80.0005 210.235 80.2174 209.811 80.3911C209.176 80.6515 208.531 80.7765 207.877 80.7661C207.242 80.7635 206.637 80.6251 206.06 80.3509C205.489 80.09 204.969 79.7078 204.5 79.2042C204.031 78.7006 203.647 78.0847 203.348 77.3564C203.088 76.7208 202.935 76.103 202.89 75.5028C202.851 74.9159 202.933 74.2867 203.138 73.6153C203.401 73.6158 203.669 73.5909 203.942 73.5408C204.221 73.5039 204.593 73.4131 205.06 73.2683L205.158 73.5066C204.634 74.0771 204.295 74.7031 204.141 75.3846C204.006 76.074 204.085 76.7762 204.378 77.4912C204.546 77.9017 204.767 78.2519 205.041 78.5419C205.333 78.8397 205.656 79.0629 206.011 79.2114C206.379 79.3544 206.762 79.4216 207.16 79.4129C207.578 79.4121 207.998 79.3248 208.422 79.1512C209.097 78.8744 209.556 78.4467 209.798 77.8681C210.046 77.3026 210.158 76.5377 210.134 75.5733C210.12 74.8984 210.128 74.2766 210.158 73.7077C210.206 73.1465 210.315 72.6381 210.484 72.1823C210.652 71.7264 210.9 71.3311 211.227 70.9961C211.567 70.6558 212.028 70.3662 212.611 70.1275C213.18 69.8942 213.74 69.7885 214.29 69.8104C214.84 69.8323 215.35 69.9636 215.82 70.2041C216.308 70.4524 216.747 70.8061 217.136 71.2652C217.539 71.7189 217.87 72.2635 218.131 72.8991Z" fill="#333333" fill-opacity="0.7"/>
<circle cx="217.865" cy="97.6627" r="1.7887" fill="#333333" fill-opacity="0.7"/>
<circle cx="11.2993" cy="132.213" r="1.27978" fill="#333333" fill-opacity="0.7"/>
</svg>
