<svg width="110" height="111" viewBox="0 0 110 111" fill="none" xmlns="http://www.w3.org/2000/svg">
<mask id="path-1-outside-1_833_23840" maskUnits="userSpaceOnUse" x="0" y="0" width="110" height="111" fill="black">
<rect fill="white" width="110" height="111"/>
<path d="M80.5085 13.3937C81.1738 12.4971 81.9624 11.701 82.8506 11.0292L79.2397 7.38593C79.0874 7.2242 78.9045 7.09488 78.7019 7.00559C78.4993 6.9163 78.281 6.86885 78.06 6.86603C77.8389 6.86321 77.6195 6.90509 77.4147 6.98919C77.2099 7.07329 77.0239 7.19791 76.8676 7.35571C76.7113 7.51351 76.5879 7.70129 76.5046 7.90798C76.4214 8.11468 76.38 8.3361 76.3828 8.5592C76.3857 8.7823 76.4328 9.00257 76.5213 9.20701C76.6099 9.41146 76.7381 9.59594 76.8984 9.74959L80.5085 13.3937ZM96.711 29.7463L100.321 33.3895C100.474 33.5492 100.657 33.6765 100.859 33.7641C101.061 33.8517 101.278 33.8979 101.498 33.8998C101.718 33.9017 101.936 33.8594 102.14 33.7754C102.343 33.6913 102.528 33.5672 102.684 33.4102C102.839 33.2533 102.962 33.0667 103.046 32.8612C103.129 32.6558 103.171 32.4357 103.169 32.2137C103.167 31.9918 103.121 31.7724 103.034 31.5685C102.948 31.3645 102.821 31.1801 102.663 31.0259L99.0523 27.3818C98.3872 28.2783 97.5989 29.0744 96.711 29.7463ZM101.374 20.3877C101.37 20.9474 101.326 21.506 101.242 22.0593H106.344C106.783 22.0593 107.204 21.8832 107.515 21.5697C107.825 21.2563 108 20.8311 108 20.3877C108 19.9444 107.825 19.5192 107.515 19.2057C107.204 18.8922 106.783 18.7161 106.344 18.7161H101.242C101.326 19.2694 101.369 19.828 101.374 20.3877ZM73.2188 22.0593H78.3196C78.2358 21.5061 78.1915 20.9474 78.187 20.3877C78.1915 19.828 78.2358 19.2694 78.3196 18.7161H73.2179C72.7787 18.7161 72.3574 18.8922 72.0467 19.2057C71.7361 19.5192 71.5616 19.9444 71.5616 20.3877C71.5616 20.8311 71.7361 21.2563 72.0467 21.5697C72.3574 21.8832 72.7795 22.0593 73.2188 22.0593ZM76.8984 31.0259C76.7402 31.1801 76.614 31.3645 76.5272 31.5685C76.4404 31.7724 76.3947 31.9918 76.3928 32.2137C76.3909 32.4357 76.4328 32.6558 76.5161 32.8612C76.5994 33.0667 76.7224 33.2533 76.8779 33.4102C77.0334 33.5672 77.2183 33.6913 77.4219 33.7754C77.6255 33.8594 77.8436 33.9017 78.0635 33.8998C78.2834 33.8979 78.5008 33.8517 78.7029 33.7641C78.9049 33.6765 79.0877 33.5492 79.2405 33.3895L82.8506 29.7454C81.9625 29.0742 81.1739 28.2786 80.5085 27.3826L76.8984 31.0259ZM99.0523 13.3937L102.663 9.74959C102.821 9.59539 102.948 9.41094 103.034 9.207C103.121 9.00305 103.167 8.7837 103.169 8.56175C103.171 8.33979 103.129 8.11968 103.046 7.91424C102.962 7.70881 102.839 7.52217 102.684 7.36521C102.528 7.20826 102.343 7.08414 102.14 7.00009C101.936 6.91604 101.718 6.87374 101.498 6.87567C101.278 6.8776 101.061 6.92372 100.859 7.01132C100.657 7.09893 100.474 7.22628 100.321 7.38593L96.7102 11.03C97.5986 11.7015 98.3867 12.4974 99.0523 13.3937ZM91.4372 8.82018V3.67161C91.4372 3.22827 91.2626 2.80309 90.952 2.4896C90.6414 2.17612 90.2201 2 89.7808 2C89.3415 2 88.9202 2.17612 88.6096 2.4896C88.2989 2.80309 88.1244 3.22827 88.1244 3.67161V8.82018C89.2216 8.64214 90.34 8.64214 91.4372 8.82018ZM88.1244 31.9553V37.1039C88.1244 37.5472 88.2989 37.9724 88.6096 38.2859C88.9202 38.5993 89.3415 38.7755 89.7808 38.7755C90.2201 38.7755 90.6414 38.5993 90.952 38.2859C91.2626 37.9724 91.4372 37.5472 91.4372 37.1039V31.9553C90.34 32.1333 89.2216 32.1333 88.1244 31.9553ZM89.7808 28.7458C91.4188 28.7458 93.02 28.2556 94.3819 27.3372C95.7439 26.4188 96.8054 25.1135 97.4322 23.5862C98.059 22.059 98.223 20.3785 97.9035 18.7572C97.5839 17.1358 96.7952 15.6466 95.6369 14.4777C94.4787 13.3088 93.003 12.5128 91.3965 12.1903C89.79 11.8678 88.1248 12.0333 86.6115 12.6659C85.0982 13.2985 83.8047 14.3698 82.8947 15.7442C81.9847 17.1187 81.499 18.7347 81.499 20.3877C81.5012 22.6037 82.3744 24.7284 83.9271 26.2953C85.4797 27.8623 87.585 28.7436 89.7808 28.7458ZM106.343 85.5789H99.1492C99.6327 84.6336 99.806 83.5577 99.6441 82.5065C99.4821 81.4553 98.9933 80.4833 98.2481 79.7308L83.7922 64.6654C83.2059 64.0504 82.408 63.686 81.5633 63.6473C80.7185 63.6086 79.8913 63.8985 79.2521 64.4573L70.8841 71.5683C68.0344 68.4207 60.9898 60.59 60.9211 60.5148C59.3697 58.7129 57.2152 57.5507 54.8687 57.2501C54.7014 58.3801 54.3699 59.4791 53.8848 60.5114L53.966 60.5139C54.8238 60.56 55.6635 60.781 56.4343 61.1637C57.205 61.5464 57.891 62.0828 58.4506 62.7405C58.8539 63.1894 68.3482 73.7431 69.5259 75.0185C69.8156 75.3319 70.2135 75.521 70.6374 75.5466C71.0613 75.5723 71.4787 75.4326 71.8034 75.1564L81.4128 66.9906L95.8845 82.0727C96.156 82.3356 96.3317 82.6833 96.3831 83.0594C96.4345 83.4356 96.3586 83.8183 96.1677 84.1455C96.0396 84.3499 95.8672 84.5223 95.6635 84.6497C95.4598 84.7772 95.2301 84.8562 94.9917 84.881C94.7593 84.9047 94.5245 84.8755 94.3047 84.7957C94.0848 84.7159 93.8855 84.5874 93.7213 84.4197L83.3723 73.9219C82.774 73.3151 81.9677 72.9631 81.1198 72.9383C80.2719 72.9136 79.4469 73.2181 78.8148 73.789L65.8703 85.482C64.5055 85.6341 60.2627 85.8857 58.1964 83.5153L48.4006 72.247C47.7491 71.4918 47.2679 70.6027 46.9905 69.6412C46.7131 68.6798 46.646 67.669 46.7939 66.6788C45.703 67.0167 44.5685 67.1896 43.4274 67.192C43.2885 69.8457 44.1791 72.4496 45.9103 74.4518L55.5843 85.5789H49.1882L21.5286 49.4554C21.398 49.2752 21.2329 49.1233 21.0432 49.0085C20.8535 48.8938 20.6429 48.8185 20.4239 48.7873C20.2049 48.756 19.9819 48.7693 19.7681 48.8263C19.5543 48.8834 19.3539 48.9832 19.1789 49.1197C19.0039 49.2561 18.8577 49.4266 18.7491 49.6211C18.6404 49.8155 18.5714 50.0299 18.5462 50.2517C18.5209 50.4734 18.54 50.698 18.6021 50.9123C18.6643 51.1265 18.7684 51.326 18.9082 51.4989L30.8092 67.0433L20.0958 85.5789H3.65637C3.21707 85.5789 2.79577 85.755 2.48514 86.0685C2.17451 86.382 2 86.8072 2 87.2505C2 87.6939 2.17451 88.1191 2.48514 88.4325C2.79577 88.746 3.21707 88.9221 3.65637 88.9221H23.9601L13.8198 106.467C13.7069 106.657 13.6323 106.868 13.6006 107.087C13.5689 107.306 13.5806 107.529 13.6351 107.743C13.6895 107.958 13.7856 108.159 13.9178 108.336C14.05 108.512 14.2156 108.661 14.4051 108.772C14.5946 108.884 14.8041 108.956 15.0216 108.985C15.239 109.015 15.46 109 15.6717 108.942C15.8835 108.884 16.0818 108.785 16.2551 108.649C16.4283 108.513 16.5732 108.344 16.6812 108.152L27.7954 88.9221H82.2046L93.3188 108.152C93.4268 108.344 93.5716 108.513 93.7449 108.649C93.9182 108.785 94.1165 108.884 94.3282 108.942C94.54 109 94.761 109.015 94.9784 108.985C95.1959 108.956 95.4054 108.884 95.5949 108.772C95.7844 108.661 95.95 108.512 96.0822 108.336C96.2144 108.159 96.3105 107.958 96.3649 107.743C96.4194 107.529 96.4311 107.306 96.3994 107.087C96.3677 106.868 96.2931 106.657 96.1802 106.467L86.0391 88.9221H106.343C106.782 88.9221 107.203 88.746 107.514 88.4325C107.825 88.1191 107.999 87.6939 107.999 87.2505C107.999 86.8072 107.825 86.382 107.514 86.0685C107.203 85.755 106.782 85.5789 106.343 85.5789ZM23.9303 85.5789L32.9948 69.8967L45.0026 85.5789H23.9303ZM70.7309 85.5789L81.0244 76.2797L90.1907 85.5789H70.7309Z"/>
</mask>
<path d="M80.5085 13.3937C81.1738 12.4971 81.9624 11.701 82.8506 11.0292L79.2397 7.38593C79.0874 7.2242 78.9045 7.09488 78.7019 7.00559C78.4993 6.9163 78.281 6.86885 78.06 6.86603C77.8389 6.86321 77.6195 6.90509 77.4147 6.98919C77.2099 7.07329 77.0239 7.19791 76.8676 7.35571C76.7113 7.51351 76.5879 7.70129 76.5046 7.90798C76.4214 8.11468 76.38 8.3361 76.3828 8.5592C76.3857 8.7823 76.4328 9.00257 76.5213 9.20701C76.6099 9.41146 76.7381 9.59594 76.8984 9.74959L80.5085 13.3937ZM96.711 29.7463L100.321 33.3895C100.474 33.5492 100.657 33.6765 100.859 33.7641C101.061 33.8517 101.278 33.8979 101.498 33.8998C101.718 33.9017 101.936 33.8594 102.14 33.7754C102.343 33.6913 102.528 33.5672 102.684 33.4102C102.839 33.2533 102.962 33.0667 103.046 32.8612C103.129 32.6558 103.171 32.4357 103.169 32.2137C103.167 31.9918 103.121 31.7724 103.034 31.5685C102.948 31.3645 102.821 31.1801 102.663 31.0259L99.0523 27.3818C98.3872 28.2783 97.5989 29.0744 96.711 29.7463ZM101.374 20.3877C101.37 20.9474 101.326 21.506 101.242 22.0593H106.344C106.783 22.0593 107.204 21.8832 107.515 21.5697C107.825 21.2563 108 20.8311 108 20.3877C108 19.9444 107.825 19.5192 107.515 19.2057C107.204 18.8922 106.783 18.7161 106.344 18.7161H101.242C101.326 19.2694 101.369 19.828 101.374 20.3877ZM73.2188 22.0593H78.3196C78.2358 21.5061 78.1915 20.9474 78.187 20.3877C78.1915 19.828 78.2358 19.2694 78.3196 18.7161H73.2179C72.7787 18.7161 72.3574 18.8922 72.0467 19.2057C71.7361 19.5192 71.5616 19.9444 71.5616 20.3877C71.5616 20.8311 71.7361 21.2563 72.0467 21.5697C72.3574 21.8832 72.7795 22.0593 73.2188 22.0593ZM76.8984 31.0259C76.7402 31.1801 76.614 31.3645 76.5272 31.5685C76.4404 31.7724 76.3947 31.9918 76.3928 32.2137C76.3909 32.4357 76.4328 32.6558 76.5161 32.8612C76.5994 33.0667 76.7224 33.2533 76.8779 33.4102C77.0334 33.5672 77.2183 33.6913 77.4219 33.7754C77.6255 33.8594 77.8436 33.9017 78.0635 33.8998C78.2834 33.8979 78.5008 33.8517 78.7029 33.7641C78.9049 33.6765 79.0877 33.5492 79.2405 33.3895L82.8506 29.7454C81.9625 29.0742 81.1739 28.2786 80.5085 27.3826L76.8984 31.0259ZM99.0523 13.3937L102.663 9.74959C102.821 9.59539 102.948 9.41094 103.034 9.207C103.121 9.00305 103.167 8.7837 103.169 8.56175C103.171 8.33979 103.129 8.11968 103.046 7.91424C102.962 7.70881 102.839 7.52217 102.684 7.36521C102.528 7.20826 102.343 7.08414 102.14 7.00009C101.936 6.91604 101.718 6.87374 101.498 6.87567C101.278 6.8776 101.061 6.92372 100.859 7.01132C100.657 7.09893 100.474 7.22628 100.321 7.38593L96.7102 11.03C97.5986 11.7015 98.3867 12.4974 99.0523 13.3937ZM91.4372 8.82018V3.67161C91.4372 3.22827 91.2626 2.80309 90.952 2.4896C90.6414 2.17612 90.2201 2 89.7808 2C89.3415 2 88.9202 2.17612 88.6096 2.4896C88.2989 2.80309 88.1244 3.22827 88.1244 3.67161V8.82018C89.2216 8.64214 90.34 8.64214 91.4372 8.82018ZM88.1244 31.9553V37.1039C88.1244 37.5472 88.2989 37.9724 88.6096 38.2859C88.9202 38.5993 89.3415 38.7755 89.7808 38.7755C90.2201 38.7755 90.6414 38.5993 90.952 38.2859C91.2626 37.9724 91.4372 37.5472 91.4372 37.1039V31.9553C90.34 32.1333 89.2216 32.1333 88.1244 31.9553ZM89.7808 28.7458C91.4188 28.7458 93.02 28.2556 94.3819 27.3372C95.7439 26.4188 96.8054 25.1135 97.4322 23.5862C98.059 22.059 98.223 20.3785 97.9035 18.7572C97.5839 17.1358 96.7952 15.6466 95.6369 14.4777C94.4787 13.3088 93.003 12.5128 91.3965 12.1903C89.79 11.8678 88.1248 12.0333 86.6115 12.6659C85.0982 13.2985 83.8047 14.3698 82.8947 15.7442C81.9847 17.1187 81.499 18.7347 81.499 20.3877C81.5012 22.6037 82.3744 24.7284 83.9271 26.2953C85.4797 27.8623 87.585 28.7436 89.7808 28.7458ZM106.343 85.5789H99.1492C99.6327 84.6336 99.806 83.5577 99.6441 82.5065C99.4821 81.4553 98.9933 80.4833 98.2481 79.7308L83.7922 64.6654C83.2059 64.0504 82.408 63.686 81.5633 63.6473C80.7185 63.6086 79.8913 63.8985 79.2521 64.4573L70.8841 71.5683C68.0344 68.4207 60.9898 60.59 60.9211 60.5148C59.3697 58.7129 57.2152 57.5507 54.8687 57.2501C54.7014 58.3801 54.3699 59.4791 53.8848 60.5114L53.966 60.5139C54.8238 60.56 55.6635 60.781 56.4343 61.1637C57.205 61.5464 57.891 62.0828 58.4506 62.7405C58.8539 63.1894 68.3482 73.7431 69.5259 75.0185C69.8156 75.3319 70.2135 75.521 70.6374 75.5466C71.0613 75.5723 71.4787 75.4326 71.8034 75.1564L81.4128 66.9906L95.8845 82.0727C96.156 82.3356 96.3317 82.6833 96.3831 83.0594C96.4345 83.4356 96.3586 83.8183 96.1677 84.1455C96.0396 84.3499 95.8672 84.5223 95.6635 84.6497C95.4598 84.7772 95.2301 84.8562 94.9917 84.881C94.7593 84.9047 94.5245 84.8755 94.3047 84.7957C94.0848 84.7159 93.8855 84.5874 93.7213 84.4197L83.3723 73.9219C82.774 73.3151 81.9677 72.9631 81.1198 72.9383C80.2719 72.9136 79.4469 73.2181 78.8148 73.789L65.8703 85.482C64.5055 85.6341 60.2627 85.8857 58.1964 83.5153L48.4006 72.247C47.7491 71.4918 47.2679 70.6027 46.9905 69.6412C46.7131 68.6798 46.646 67.669 46.7939 66.6788C45.703 67.0167 44.5685 67.1896 43.4274 67.192C43.2885 69.8457 44.1791 72.4496 45.9103 74.4518L55.5843 85.5789H49.1882L21.5286 49.4554C21.398 49.2752 21.2329 49.1233 21.0432 49.0085C20.8535 48.8938 20.6429 48.8185 20.4239 48.7873C20.2049 48.756 19.9819 48.7693 19.7681 48.8263C19.5543 48.8834 19.3539 48.9832 19.1789 49.1197C19.0039 49.2561 18.8577 49.4266 18.7491 49.6211C18.6404 49.8155 18.5714 50.0299 18.5462 50.2517C18.5209 50.4734 18.54 50.698 18.6021 50.9123C18.6643 51.1265 18.7684 51.326 18.9082 51.4989L30.8092 67.0433L20.0958 85.5789H3.65637C3.21707 85.5789 2.79577 85.755 2.48514 86.0685C2.17451 86.382 2 86.8072 2 87.2505C2 87.6939 2.17451 88.1191 2.48514 88.4325C2.79577 88.746 3.21707 88.9221 3.65637 88.9221H23.9601L13.8198 106.467C13.7069 106.657 13.6323 106.868 13.6006 107.087C13.5689 107.306 13.5806 107.529 13.6351 107.743C13.6895 107.958 13.7856 108.159 13.9178 108.336C14.05 108.512 14.2156 108.661 14.4051 108.772C14.5946 108.884 14.8041 108.956 15.0216 108.985C15.239 109.015 15.46 109 15.6717 108.942C15.8835 108.884 16.0818 108.785 16.2551 108.649C16.4283 108.513 16.5732 108.344 16.6812 108.152L27.7954 88.9221H82.2046L93.3188 108.152C93.4268 108.344 93.5716 108.513 93.7449 108.649C93.9182 108.785 94.1165 108.884 94.3282 108.942C94.54 109 94.761 109.015 94.9784 108.985C95.1959 108.956 95.4054 108.884 95.5949 108.772C95.7844 108.661 95.95 108.512 96.0822 108.336C96.2144 108.159 96.3105 107.958 96.3649 107.743C96.4194 107.529 96.4311 107.306 96.3994 107.087C96.3677 106.868 96.2931 106.657 96.1802 106.467L86.0391 88.9221H106.343C106.782 88.9221 107.203 88.746 107.514 88.4325C107.825 88.1191 107.999 87.6939 107.999 87.2505C107.999 86.8072 107.825 86.382 107.514 86.0685C107.203 85.755 106.782 85.5789 106.343 85.5789ZM23.9303 85.5789L32.9948 69.8967L45.0026 85.5789H23.9303ZM70.7309 85.5789L81.0244 76.2797L90.1907 85.5789H70.7309Z" stroke="url(#paint0_linear_833_23840)" stroke-width="3.4" mask="url(#path-1-outside-1_833_23840)"/>
<path d="M4.51662 50.1416C4.75385 50.5752 5.11312 50.9301 5.55128 51.1595C5.99001 51.3891 6.48697 51.482 6.97904 51.425C7.47106 51.368 7.93365 51.1641 8.30895 50.8414C8.67879 50.5233 8.94736 50.1041 9.08425 49.6365C9.09796 49.5939 9.10682 49.5583 9.11173 49.5381L9.11868 49.5087C9.11966 49.5045 9.12007 49.5028 9.12015 49.5025L9.12294 49.4917L9.12557 49.4802C9.14057 49.4148 9.15495 49.343 9.16631 49.265C9.18458 49.1485 9.19382 49.0307 9.19396 48.9127C9.19707 48.7673 9.1873 48.6219 9.16475 48.4782L9.16309 48.4676L9.16118 48.4572C8.62304 45.5117 10.1306 42.1358 13.0387 40.1244L13.0468 40.1188L13.0548 40.113C14.7156 38.9062 16.7666 38.3994 18.7818 38.6945C19.8156 38.8701 20.7785 39.3501 21.551 40.0777C21.9636 40.47 22.4972 40.7102 23.0653 40.7555C23.6343 40.8008 24.2001 40.6475 24.6695 40.3233L24.6695 40.3233L24.6761 40.3187L24.685 40.3124C24.976 40.1444 25.2386 39.9313 25.4636 39.6811C25.7514 39.3787 25.9584 39.0085 26.0668 38.6054C26.1214 38.4163 26.1532 38.2213 26.1614 38.0246L26.1625 38L26.1621 37.9755L26.1615 37.9385C26.1656 37.6786 26.1278 37.4196 26.0493 37.1718L26.0478 37.1671C25.8893 36.6763 25.7924 36.1667 25.7597 35.6507L25.7589 35.6387L25.7578 35.6267L25.7566 35.6134C25.7466 35.4444 25.7429 35.275 25.7455 35.1057C25.7973 33.9482 26.0744 32.8131 26.5604 31.7666C26.8955 31.0448 27.3253 30.3752 27.8363 29.7756L37.0361 45.7015L37.451 46.4197L38.1791 46.0225C39.0947 45.5232 40.0774 45.1648 41.0952 44.9588L42.254 44.7243L41.6626 43.7005L31.9815 26.9419C32.706 26.7032 33.4614 26.5706 34.2252 26.5493C34.5502 26.5426 34.8752 26.5599 35.1978 26.6012C35.5032 26.6409 35.8053 26.7041 36.1015 26.7905L36.1096 26.7928L36.1177 26.795L36.1444 26.8022C36.4038 26.882 36.6572 26.981 36.9026 27.0987L36.9079 27.1012C36.9649 27.1281 37.0083 27.1486 37.049 27.1693L37.0492 27.1694C37.2785 27.2861 37.4991 27.4202 37.7089 27.5705C37.7338 27.5884 37.7523 27.6029 37.7817 27.6261C37.7991 27.6398 37.8203 27.6565 37.8489 27.6787L37.8527 27.6816C38.0496 27.8324 38.2354 27.9981 38.4083 28.1772L38.4133 28.1823C38.4216 28.1907 38.4293 28.1983 38.4361 28.2049C38.4428 28.2113 38.4486 28.2168 38.4534 28.2212L38.4655 28.2323C38.87 28.6581 39.4111 28.9288 39.9959 28.9929C40.5882 29.0579 41.1826 28.9062 41.6725 28.5675L41.6725 28.5676L41.6784 28.5634L41.7122 28.5396C41.7988 28.486 41.8828 28.4281 41.9637 28.3661L41.9773 28.3564L42.0021 28.3383L42.0193 28.3255L42.034 28.3142C42.0364 28.3123 42.0422 28.3077 42.0499 28.3013C42.1734 28.1999 42.2886 28.0886 42.3945 27.9687C42.5553 27.7935 42.69 27.596 42.7948 27.3825L42.7983 27.3761L42.805 27.3637C42.8148 27.3458 42.8348 27.3087 42.8551 27.2635L42.8566 27.2602C42.9001 27.1622 42.9372 27.0615 42.9678 26.9589C43.0308 26.7511 43.066 26.5359 43.0724 26.3189L43.0728 26.3063V26.2937V26.2581C43.0763 25.994 43.0372 25.7309 42.9568 25.4793L42.9553 25.4749C41.9718 22.4543 43.4395 18.5896 46.64 16.3769L46.6535 16.3677L46.6665 16.3579C47.6476 15.6225 48.7883 15.1419 49.9902 14.9563C51.1854 14.7718 52.4068 14.8842 53.5506 15.2844C54.0021 15.4698 54.4268 15.7183 54.8125 16.0228C54.9339 16.1188 55.0641 16.2034 55.2013 16.2753C55.4616 16.4137 55.745 16.5032 56.0377 16.539L56.0461 16.5401L56.0546 16.541C56.1338 16.549 56.2133 16.5531 56.2928 16.553C56.8779 16.5703 57.4485 16.377 57.9044 16.0098C58.3601 15.6426 58.671 15.1262 58.7866 14.5533C58.8619 14.229 58.8703 13.8924 58.8109 13.5647C58.7509 13.2334 58.6231 12.9179 58.4349 12.6387C55.654 8.38205 51.6674 5.08329 47.0009 3.18175C45.4116 2.52682 43.7643 2.02783 42.0816 1.69165L42.0816 1.69162L42.0748 1.69033C37.6358 0.840586 33.0675 0.994653 28.6936 2.14152C24.6047 3.19053 20.73 4.96452 17.2468 7.38168C3.24506 17.0632 -2.57064 34.6109 3.59909 48.2857L3.59964 48.2869C3.87978 48.9053 4.17926 49.5271 4.51662 50.1416ZM4.51662 50.1416C4.51667 50.1417 4.51673 50.1418 4.51679 50.1419L5.26188 49.7329L4.516 50.1405C4.5162 50.1409 4.51641 50.1412 4.51662 50.1416ZM42.7225 64.838L42.7273 64.8382C42.8808 64.8453 43.0377 64.85 43.1972 64.85L43.1981 64.85C45.5703 64.8477 47.8447 63.9019 49.5375 62.2192C51.2298 60.5369 52.2073 58.2513 52.2663 55.8503C52.3253 53.4494 51.4613 51.1174 49.8542 49.3515C48.2466 47.5852 46.022 46.525 43.653 46.4018C41.243 46.2761 38.8854 47.1308 37.0985 48.773C35.3121 50.4148 34.2424 52.7086 34.1197 55.1486C33.997 57.5884 34.8309 59.9806 36.4422 61.7985C38.0541 63.617 40.3126 64.7123 42.7225 64.838ZM36.1823 21.6481C30.0188 13.6019 24.6349 11.2626 21.446 10.6515C22.1213 10.2355 22.8117 9.84511 23.5156 9.48115C27.1023 10.6289 32.226 13.63 37.8846 21.2242C37.8344 21.4891 37.7927 21.7556 37.7595 22.0231C37.2441 21.8585 36.7169 21.7331 36.1823 21.6481ZM16.5406 14.3721C17.1675 13.795 17.8162 13.2432 18.485 12.7179C17.6432 16.0807 17.2922 22.3019 21.2767 31.6709C21.052 32.4353 20.8989 33.2189 20.819 34.0113C20.7224 33.9835 20.6253 33.9571 20.5279 33.932C16.3885 24.9343 15.9836 18.4802 16.5406 14.3721Z" stroke="url(#paint1_linear_833_23840)" stroke-width="1.7"/>
<defs>
<linearGradient id="paint0_linear_833_23840" x1="55" y1="2" x2="55" y2="109" gradientUnits="userSpaceOnUse">
<stop stop-color="#E9682B"/>
<stop offset="1" stop-color="#2D6462"/>
</linearGradient>
<linearGradient id="paint1_linear_833_23840" x1="30" y1="2" x2="30" y2="64" gradientUnits="userSpaceOnUse">
<stop stop-color="#E9682B"/>
<stop offset="1" stop-color="#2D6462"/>
</linearGradient>
</defs>
</svg>
