<svg width="118" height="107" viewBox="0 0 118 107" fill="none" xmlns="http://www.w3.org/2000/svg">
<g clip-path="url(#clip0_729_18876)">
<mask id="path-1-inside-1_729_18876" fill="white">
<path fill-rule="evenodd" clip-rule="evenodd" d="M86.194 33.1396H74.019V31.454C74.019 30.3331 73.4259 29.4945 72.2352 29.4945H2.08787C1.81274 29.4869 1.53886 29.5323 1.28288 29.6279C1.02689 29.7235 0.794188 29.8674 0.598918 30.0507C0.403649 30.234 0.249944 30.4529 0.147091 30.6942C0.0442384 30.9354 -0.00563441 31.1939 0.000627687 31.454V38.1966C-0.00623112 38.4571 0.0431848 38.7163 0.14571 38.9583C0.248235 39.2003 0.401718 39.42 0.596984 39.6041C0.79225 39.7882 1.02518 39.9329 1.28149 40.0292C1.5378 40.1256 1.81213 40.1716 2.08787 40.1646H7.73391L14.8695 98.0156C14.9695 98.4809 15.2554 98.8919 15.6676 99.1635C16.0797 99.4351 16.5866 99.5464 17.0833 99.4743C17.5799 99.4023 18.0282 99.1523 18.3351 98.7764C18.642 98.4005 18.784 97.9274 18.7317 97.4551L17.8261 92.1244H18.1204L26.148 85.3775L35.656 95.4871C36.5615 96.0519 37.7344 96.3428 38.323 95.4871H38.6217L48.1297 85.3775L56.1529 92.1244H56.4425L55.5372 97.4551C55.4614 97.9384 55.5911 98.4304 55.8981 98.8235C56.2051 99.2167 56.6643 99.4789 57.1754 99.553C57.6864 99.6271 58.2078 99.5069 58.6254 99.2188C59.043 98.9307 59.3226 98.4981 59.4036 98.0156L66.5303 40.1646H71.8911C72.5214 40.1068 73.1294 39.9152 73.6702 39.6041C73.8626 39.3629 73.9904 39.0812 74.0425 38.7832C74.0945 38.4852 74.0695 38.1796 73.9693 37.8928V36.4895H86.1487V37.6104H101.303V107H117.955V0H101.303V31.7363H86.1487L86.194 33.1396ZM3.87639 33.1396H70.4331V36.5109H3.87639V33.1396ZM15.4628 40.1646H31.2098L32.6949 40.725L23.4948 44.9391L15.4628 40.1646ZM43.0814 40.1646H58.5389L50.8103 44.9391L41.5963 40.725L43.0814 40.1646ZM11.5688 41.8502L19.5964 46.6248L12.7687 49.718L11.5688 41.8502ZM62.6954 41.8502L61.5046 49.718L54.6678 46.6248L62.6954 41.8502ZM37.1367 42.7059L47.2468 47.2024L37.1367 53.3802L27.0354 47.2024L37.1367 42.7059ZM23.1599 48.8837L33.863 55.3482L24.6673 61.2266L14.5663 52.8026L23.1599 48.8837ZM51.1046 48.8837L59.7297 52.8197L49.6195 61.2437L40.4056 55.3482L51.1046 48.8837ZM13.362 56.7515L21.3805 63.2074L14.8471 67.1435L13.362 56.7515ZM60.617 56.7515L59.4262 67.1435L52.8837 63.2074L60.617 56.7515ZM37.1367 57.6072L46.9436 63.5026L37.1367 71.6314L27.3297 63.5026L37.1367 57.6072ZM24.0652 65.4664L34.1574 73.8946L26.4785 80.3206L16.6671 70.2196L24.0652 65.4664ZM49.9182 65.4664L57.6515 70.2495L47.8401 80.3505L39.8078 73.8946L49.9182 65.4664ZM15.7388 74.4508L23.7664 82.879L17.5227 87.9317L15.7388 74.4508ZM58.5389 74.4508L56.728 87.9317L50.4886 82.879L58.5389 74.4508ZM37.1367 76.1321L45.463 83.1571L37.1367 91.5853L28.8103 83.1571L37.1367 76.1321Z"/>
</mask>
<path fill-rule="evenodd" clip-rule="evenodd" d="M86.194 33.1396H74.019V31.454C74.019 30.3331 73.4259 29.4945 72.2352 29.4945H2.08787C1.81274 29.4869 1.53886 29.5323 1.28288 29.6279C1.02689 29.7235 0.794188 29.8674 0.598918 30.0507C0.403649 30.234 0.249944 30.4529 0.147091 30.6942C0.0442384 30.9354 -0.00563441 31.1939 0.000627687 31.454V38.1966C-0.00623112 38.4571 0.0431848 38.7163 0.14571 38.9583C0.248235 39.2003 0.401718 39.42 0.596984 39.6041C0.79225 39.7882 1.02518 39.9329 1.28149 40.0292C1.5378 40.1256 1.81213 40.1716 2.08787 40.1646H7.73391L14.8695 98.0156C14.9695 98.4809 15.2554 98.8919 15.6676 99.1635C16.0797 99.4351 16.5866 99.5464 17.0833 99.4743C17.5799 99.4023 18.0282 99.1523 18.3351 98.7764C18.642 98.4005 18.784 97.9274 18.7317 97.4551L17.8261 92.1244H18.1204L26.148 85.3775L35.656 95.4871C36.5615 96.0519 37.7344 96.3428 38.323 95.4871H38.6217L48.1297 85.3775L56.1529 92.1244H56.4425L55.5372 97.4551C55.4614 97.9384 55.5911 98.4304 55.8981 98.8235C56.2051 99.2167 56.6643 99.4789 57.1754 99.553C57.6864 99.6271 58.2078 99.5069 58.6254 99.2188C59.043 98.9307 59.3226 98.4981 59.4036 98.0156L66.5303 40.1646H71.8911C72.5214 40.1068 73.1294 39.9152 73.6702 39.6041C73.8626 39.3629 73.9904 39.0812 74.0425 38.7832C74.0945 38.4852 74.0695 38.1796 73.9693 37.8928V36.4895H86.1487V37.6104H101.303V107H117.955V0H101.303V31.7363H86.1487L86.194 33.1396ZM3.87639 33.1396H70.4331V36.5109H3.87639V33.1396ZM15.4628 40.1646H31.2098L32.6949 40.725L23.4948 44.9391L15.4628 40.1646ZM43.0814 40.1646H58.5389L50.8103 44.9391L41.5963 40.725L43.0814 40.1646ZM11.5688 41.8502L19.5964 46.6248L12.7687 49.718L11.5688 41.8502ZM62.6954 41.8502L61.5046 49.718L54.6678 46.6248L62.6954 41.8502ZM37.1367 42.7059L47.2468 47.2024L37.1367 53.3802L27.0354 47.2024L37.1367 42.7059ZM23.1599 48.8837L33.863 55.3482L24.6673 61.2266L14.5663 52.8026L23.1599 48.8837ZM51.1046 48.8837L59.7297 52.8197L49.6195 61.2437L40.4056 55.3482L51.1046 48.8837ZM13.362 56.7515L21.3805 63.2074L14.8471 67.1435L13.362 56.7515ZM60.617 56.7515L59.4262 67.1435L52.8837 63.2074L60.617 56.7515ZM37.1367 57.6072L46.9436 63.5026L37.1367 71.6314L27.3297 63.5026L37.1367 57.6072ZM24.0652 65.4664L34.1574 73.8946L26.4785 80.3206L16.6671 70.2196L24.0652 65.4664ZM49.9182 65.4664L57.6515 70.2495L47.8401 80.3505L39.8078 73.8946L49.9182 65.4664ZM15.7388 74.4508L23.7664 82.879L17.5227 87.9317L15.7388 74.4508ZM58.5389 74.4508L56.728 87.9317L50.4886 82.879L58.5389 74.4508ZM37.1367 76.1321L45.463 83.1571L37.1367 91.5853L28.8103 83.1571L37.1367 76.1321Z" stroke="url(#paint0_linear_729_18876)" stroke-width="4" mask="url(#path-1-inside-1_729_18876)"/>
</g>
<defs>
<linearGradient id="paint0_linear_729_18876" x1="58.9777" y1="0" x2="58.9777" y2="107" gradientUnits="userSpaceOnUse">
<stop stop-color="#E9682B"/>
<stop offset="1" stop-color="#2D6462"/>
</linearGradient>
<clipPath id="clip0_729_18876">
<rect width="118" height="107" fill="white"/>
</clipPath>
</defs>
</svg>
