<svg width="147" height="139" viewBox="0 0 147 139" fill="none" xmlns="http://www.w3.org/2000/svg">
<path fill-rule="evenodd" clip-rule="evenodd" d="M43.0003 44C41.8957 44 41 43.2857 41 42.4018L41.0006 23.601C41.0006 22.7171 41.8956 22 42.9997 22C44.104 22 44.9994 22.7171 44.9994 23.601L45 42.4017C45 43.2856 44.1037 44.0001 43.0003 44Z" fill="url(#paint0_linear_833_23989)"/>
<path fill-rule="evenodd" clip-rule="evenodd" d="M47.9769 34.0093H42.8575C41.8993 34.0093 41.1222 33.284 41.1222 32.39C41.1227 31.496 41.8992 30.7708 42.8569 30.7708H47.9769C49.8444 30.7708 51.3619 29.5311 51.3619 28.0047C51.3623 26.481 49.844 25.2384 47.9768 25.2384H42.8574C41.8992 25.2384 41.1222 24.516 41.1222 23.6192C41.1227 22.7253 41.8992 22 42.8569 22H47.9769C51.7567 22 54.8313 24.6959 54.8313 28.0047C54.8318 31.3162 51.7564 34.0093 47.9769 34.0093ZM28.5004 112.994C21.9443 112.992 15.3813 112.989 8.82183 112.989C7.86457 112.989 7.0871 112.266 7.0871 111.37C7.08735 110.276 7.06601 109.157 7.04185 108.075C6.86437 99.3631 6.66238 89.4875 19.8295 87.6996C38.1227 84.6691 49.9553 80.4581 59.4633 77.0763C81.0032 69.4103 91.8147 65.5618 138.83 86.8113C139.43 87.0811 139.809 87.6462 139.809 88.2674C139.809 89.1586 139.845 90.4743 139.884 91.9979C140.036 97.7495 140.119 102.686 139.607 104.803C139.027 107.231 136.37 112.879 124.344 112.879L118.508 112.904C118.504 112.904 118.511 112.904 118.508 112.904C117.554 112.904 116.767 112.185 116.764 111.291C116.761 110.397 117.535 109.669 118.492 109.666L124.336 109.641C133.521 109.641 135.725 106.166 136.222 104.094C136.681 102.191 136.52 96.105 136.415 92.0766C136.388 91.0309 136.364 90.0806 136.352 89.288C91.5173 69.1376 81.8011 72.5924 60.6981 80.101C51.0491 83.5363 39.041 87.8093 20.4077 90.8931C20.3898 90.8959 20.3715 90.8988 20.3534 90.9015C10.68 92.2059 10.3125 98.2527 10.5112 108.013C10.5235 108.584 10.5354 109.166 10.5444 109.75C16.5287 109.753 22.5129 109.753 28.5001 109.756C29.4578 109.756 30.2348 110.481 30.2348 111.375C30.2351 112.269 29.4579 112.994 28.5004 112.994ZM56.5842 113C53.7869 113 51.0547 113 48.4105 113C47.4531 113 46.6757 112.275 46.6757 111.381C46.6758 110.487 47.4528 109.762 48.4105 109.762C63.3577 109.764 81.0059 109.762 98.5852 109.725C99.5437 109.725 100.323 110.448 100.323 111.339C100.326 112.235 99.5519 112.961 98.5942 112.964C84.1236 112.994 69.6038 113 56.5842 113Z" fill="url(#paint1_linear_833_23989)"/>
<path fill-rule="evenodd" clip-rule="evenodd" d="M60.9052 88.6523L114.604 88.7122C109.268 86.4234 103.038 84.0521 97.002 82.6031C93.7351 81.8203 90.817 81.3933 88.0905 81.2994C85.1195 81.1969 82.2582 81.4787 79.3346 82.162C74.0972 83.3803 68.5995 85.5809 63.2843 87.7045C62.4952 88.0204 61.7029 88.3364 60.9052 88.6523ZM122.278 92L51.7211 91.9232C50.8783 91.9232 50.1606 91.3425 50.0231 90.5512C49.8862 89.7625 50.3699 88.9911 51.165 88.7321C54.7135 87.5735 58.3935 86.1046 61.9509 84.6812C67.3917 82.5064 73.0148 80.2575 78.5154 78.9765C81.7529 78.2193 84.9246 77.909 88.213 78.0229C91.1877 78.1225 94.3384 78.5837 97.845 79.4234C107.082 81.641 116.648 85.8882 123.04 88.8886C123.757 89.2274 124.137 89.9903 123.955 90.7333C123.773 91.4763 123.079 92 122.278 92Z" fill="url(#paint2_linear_833_23989)"/>
<path fill-rule="evenodd" clip-rule="evenodd" d="M88.3125 91.8483C87.3583 91.8483 86.5833 91.1188 86.5833 90.2197L86.5836 79.6285C86.5836 78.7294 87.3578 78 88.3122 78C89.2668 77.9999 90.0411 78.7294 90.0411 79.6286L90.0415 90.2197C90.0415 91.1188 89.2667 91.8483 88.3125 91.8483ZM14.6986 101.362C12.9784 101.362 11.1654 101.111 9.26227 100.61C8.34412 100.37 7.80656 99.4708 8.06471 98.6057C8.31979 97.7377 9.27435 97.2316 10.1928 97.4747C14.14 98.5124 17.5527 98.255 20.3412 96.7057C25.2733 93.966 26.8156 88.0286 26.8306 87.9692C27.0529 87.0956 27.9833 86.5527 28.9108 86.7563C29.8388 86.9627 30.4145 87.8335 30.1983 88.7099C30.1264 89.0069 28.3314 96.03 22.1242 99.4963C19.9002 100.74 17.4146 101.362 14.6986 101.362ZM38.8493 104.306C34.3318 104.306 30.6576 107.769 30.6576 112.024C30.6579 116.279 34.3316 119.743 38.849 119.743C43.3694 119.743 47.0433 116.279 47.0433 112.024C47.0434 107.769 43.3693 104.306 38.8493 104.306ZM38.8493 123C32.4259 123 27.1997 118.075 27.1997 112.024C27.2 105.974 32.4255 101.049 38.8489 101.049C45.276 101.049 50.5011 105.974 50.5011 112.024C50.5012 118.075 45.2754 123 38.8493 123ZM108.705 110.294C107.691 110.294 106.868 111.071 106.868 112.024C106.869 112.977 107.691 113.755 108.705 113.755C109.717 113.755 110.542 112.977 110.542 112.024C110.543 111.071 109.717 110.294 108.705 110.294ZM108.705 117.012C105.785 117.012 103.41 114.775 103.41 112.024C103.411 109.273 105.785 107.037 108.705 107.037C111.623 107.037 114 109.273 114 112.024C114.001 114.775 111.623 117.012 108.705 117.012Z" fill="url(#paint3_linear_833_23989)"/>
<path fill-rule="evenodd" clip-rule="evenodd" d="M38.2706 110.3C37.263 110.3 36.4437 111.077 36.4437 112.03C36.4437 112.982 37.2628 113.759 38.2703 113.759C39.2809 113.759 40.0998 112.982 40.0998 112.03C40.1001 111.077 39.2807 110.3 38.2706 110.3ZM38.2706 117.015C35.3649 117.015 33 114.779 33 112.03C33 109.28 35.3646 107.045 38.2703 107.045C41.1789 107.045 43.5435 109.28 43.5435 112.03C43.5438 114.779 41.1788 117.015 38.2706 117.015ZM107.842 104.315C103.343 104.315 99.6808 107.777 99.6808 112.03C99.681 116.283 103.343 119.745 107.842 119.745C112.341 119.745 116 116.283 116 112.03C116 107.777 112.341 104.315 107.842 104.315ZM107.842 123C101.442 123 96.2371 118.077 96.2371 112.03C96.2373 105.982 101.442 101.06 107.842 101.06C114.24 101.06 119.444 105.982 119.444 112.03C119.444 118.077 114.239 123 107.842 123ZM137.275 104.179H128.845C127.895 104.179 127.123 103.45 127.123 102.552L127.123 94.6419C127.123 93.7432 127.895 93.0142 128.845 93.0142H137.278C138.229 93.0142 139 93.7433 139 94.642C139 95.5406 138.229 96.2697 137.278 96.2697L130.567 96.2696V100.924H137.275C138.226 100.924 138.997 101.653 138.997 102.552C138.997 103.45 138.226 104.179 137.275 104.179ZM51.6091 83.5588C50.6588 83.5588 49.887 82.8298 49.887 81.9311L49.8872 48.6278C49.8872 47.7291 50.6583 47.0001 51.6088 47.0001C52.5595 47.0001 53.3307 47.7292 53.3307 48.6278L53.331 81.9311C53.331 82.8298 52.5595 83.5588 51.6091 83.5588ZM43.8371 86.0258C42.8861 86.0258 42.1147 85.2968 42.1147 84.3982L42.1152 48.6277C42.1152 47.729 42.8859 47 43.8365 47C44.7875 47 45.5584 47.7291 45.5584 48.6277L45.559 84.3982C45.559 85.2968 44.7871 86.0259 43.8371 86.0258Z" fill="url(#paint4_linear_833_23989)"/>
<path fill-rule="evenodd" clip-rule="evenodd" d="M30.4281 46.7229H66.5725V19.2771H30.4281V46.7229ZM68.2863 50H28.7143C27.765 50 27 49.266 27 48.3614L27.0005 17.6386C27.0005 16.7339 27.7646 16 28.7138 16H68.2862C69.2322 16 69.9996 16.734 69.9996 17.6386L70 48.3614C70 49.266 69.2321 50 68.2863 50Z" fill="url(#paint5_linear_833_23989)"/>
<defs>
<linearGradient id="paint0_linear_833_23989" x1="43" y1="22" x2="43" y2="44" gradientUnits="userSpaceOnUse">
<stop stop-color="#E9682B"/>
<stop offset="1" stop-color="#2D6462"/>
</linearGradient>
<linearGradient id="paint1_linear_833_23989" x1="73.5" y1="22" x2="73.5" y2="113" gradientUnits="userSpaceOnUse">
<stop stop-color="#E9682B"/>
<stop offset="1" stop-color="#2D6462"/>
</linearGradient>
<linearGradient id="paint2_linear_833_23989" x1="87" y1="78" x2="87" y2="92" gradientUnits="userSpaceOnUse">
<stop stop-color="#E9682B"/>
<stop offset="1" stop-color="#2D6462"/>
</linearGradient>
<linearGradient id="paint3_linear_833_23989" x1="61" y1="78" x2="61" y2="123" gradientUnits="userSpaceOnUse">
<stop stop-color="#E9682B"/>
<stop offset="1" stop-color="#2D6462"/>
</linearGradient>
<linearGradient id="paint4_linear_833_23989" x1="86" y1="47" x2="86" y2="123" gradientUnits="userSpaceOnUse">
<stop stop-color="#E9682B"/>
<stop offset="1" stop-color="#2D6462"/>
</linearGradient>
<linearGradient id="paint5_linear_833_23989" x1="48.5" y1="16" x2="48.5" y2="50" gradientUnits="userSpaceOnUse">
<stop stop-color="#E9682B"/>
<stop offset="1" stop-color="#2D6462"/>
</linearGradient>
</defs>
</svg>
