<svg width="41" height="47" viewBox="0 0 41 47" fill="none" xmlns="http://www.w3.org/2000/svg">
<path d="M24.0265 4.96392C24.0265 7.15313 22.2518 8.92784 20.0626 8.92784C17.8733 8.92784 16.0986 7.15313 16.0986 4.96392C16.0986 2.77471 17.8733 1 20.0626 1C22.2518 1 24.0265 2.77471 24.0265 4.96392Z" stroke="white" stroke-width="2"/>
<path d="M16.6159 38.7109H16.6194C16.7243 38.7113 16.8254 38.6723 16.903 38.6018C16.9805 38.5312 17.0288 38.4341 17.0383 38.3297L17.0385 38.3275L18.2015 25.8465L18.2861 24.9393H19.1972H20.9279H21.839L21.9236 25.8465L23.0866 38.3275L23.0868 38.3298C23.0963 38.4342 23.1445 38.5312 23.222 38.6017C23.2995 38.6723 23.4007 38.7112 23.5055 38.7109L23.5088 38.7109L24.0032 38.7109C24.1145 38.7103 24.2211 38.6658 24.2998 38.5871C24.3785 38.5085 24.4229 38.402 24.4235 38.2907L16.6159 38.7109ZM16.6159 38.7109H16.1216C16.0104 38.7103 15.9038 38.6659 15.8252 38.5872C15.7465 38.5085 15.702 38.402 15.7015 38.2908V25.9394V24.9394H14.7015H12.1504C12.0391 24.9388 11.9326 24.8944 11.8539 24.8157C11.7752 24.7371 11.7308 24.6306 11.7301 24.5194L11.7301 17.1037L11.7301 17.1012C11.7291 16.7111 11.8052 16.3246 11.9541 15.964C12.1029 15.6034 12.3216 15.2758 12.5975 14.9999C12.8733 14.7241 13.201 14.5055 13.5616 14.3567C13.9222 14.2079 14.3087 14.1318 14.6988 14.1328V14.1328H14.7015L25.4235 14.1328L25.4262 14.1328C25.8163 14.1318 26.2028 14.2079 26.5634 14.3567C26.9241 14.5055 27.2517 14.7241 27.5276 14.9999C27.8035 15.2758 28.0221 15.6034 28.171 15.964C28.3198 16.3246 28.396 16.7111 28.395 17.1012V17.1037V24.5195L16.6159 38.7109Z" stroke="white" stroke-width="2"/>
<path d="M30.1504 30.7043L30.1475 30.7035C30.064 30.6822 29.9771 30.6775 29.8919 30.6898C29.8066 30.7021 29.7246 30.7312 29.6505 30.7752C29.5765 30.8193 29.5119 30.8775 29.4604 30.9466C29.4089 31.0157 29.3715 31.0942 29.3504 31.1778C29.3294 31.2613 29.325 31.3482 29.3375 31.4335L28.3482 31.5793L29.3375 31.4335C29.3501 31.5187 29.3794 31.6006 29.4237 31.6745L28.5659 32.1885L29.4237 31.6745C29.468 31.7484 29.5264 31.8129 29.5956 31.8642C29.6649 31.9155 29.7436 31.9526 29.8272 31.9734L29.8303 31.9742C32.3889 32.6201 34.314 33.4608 35.6251 34.351C36.2801 34.7957 36.8086 35.2709 37.1823 35.7654C37.5507 36.2528 37.8157 36.8235 37.8157 37.4358C37.8157 38.4691 37.1061 39.3595 36.2688 40.0434C35.3877 40.763 34.1477 41.4367 32.631 42.016C29.5884 43.1782 25.2761 44.0202 20.0625 44.0202C14.8489 44.0202 10.5366 43.1782 7.49403 42.016C5.9773 41.4367 4.73727 40.763 3.85625 40.0434C3.01894 39.3595 2.30928 38.4691 2.30928 37.4358C2.30928 36.8168 2.57871 36.2402 2.9539 35.7478C3.33442 35.2484 3.87263 34.7691 4.54015 34.321C5.8762 33.424 7.83867 32.5796 10.4483 31.9358L30.1504 30.7043ZM30.1504 30.7043C33.1629 31.4647 35.4483 32.5094 36.9584 33.7046C38.4593 34.8926 39.125 36.165 39.125 37.4358C39.125 39.6456 37.125 41.6367 33.3735 43.1189C29.7211 44.562 24.8372 45.3295 20.0625 45.3295C15.2878 45.3295 10.4039 44.562 6.75151 43.1189C2.99996 41.6367 1 39.6456 1 37.4358C1 36.1505 1.67739 34.8665 3.20551 33.671C4.74292 32.4682 7.06919 31.4213 10.1343 30.6652L10.1345 30.6651M30.1504 30.7043L10.1345 30.6651M10.1345 30.6651C10.303 30.6235 10.4811 30.6505 10.6297 30.7402C10.7783 30.8299 10.8851 30.975 10.9268 31.1435C10.9684 31.312 10.9413 31.4902 10.8516 31.6387C10.7619 31.7872 10.617 31.894 10.4486 31.9357L10.1345 30.6651Z" stroke="white" stroke-width="2"/>
</svg>
