<svg width="108" height="107" viewBox="0 0 108 107" fill="none" xmlns="http://www.w3.org/2000/svg">
<path d="M48.9375 16.9528V36.5472L63.7875 26.75L48.9375 16.9528ZM52.3125 23.1722L57.7125 26.75L52.3125 30.3278V23.1722ZM0 0V66.875H108V0H0ZM104.625 63.5312H3.375V3.34375H104.625V63.5312ZM62.4375 60.1875C63.4808 60.1798 64.4966 59.855 65.3476 59.257C66.1986 58.659 66.8439 57.8167 67.1963 56.8438H101.25V53.5H67.1963C66.8571 52.5164 66.216 51.6626 65.3627 51.058C64.5094 50.4534 63.4866 50.1284 62.4375 50.1284C61.3884 50.1284 60.3656 50.4534 59.5123 51.058C58.659 51.6626 58.0179 52.5164 57.6787 53.5H6.75V56.8438H57.6787C58.0311 57.8167 58.6764 58.659 59.5274 59.257C60.3784 59.855 61.3942 60.1798 62.4375 60.1875ZM62.4375 53.5C62.7713 53.5 63.0975 53.5981 63.375 53.7818C63.6525 53.9655 63.8688 54.2266 63.9965 54.5321C64.1243 54.8376 64.1577 55.1737 64.0926 55.498C64.0275 55.8224 63.8667 56.1203 63.6307 56.3541C63.3947 56.5879 63.0941 56.7471 62.7667 56.8116C62.4394 56.8761 62.1001 56.843 61.7917 56.7165C61.4834 56.5899 61.2198 56.3757 61.0344 56.1007C60.849 55.8258 60.75 55.5025 60.75 55.1719C60.75 54.7285 60.9278 54.3032 61.2443 53.9897C61.5607 53.6761 61.9899 53.5 62.4375 53.5ZM54 46.8125C58.0051 46.8125 61.9202 45.6359 65.2503 43.4314C68.5804 41.2269 71.1759 38.0935 72.7086 34.4276C74.2412 30.7616 74.6423 26.7277 73.8609 22.836C73.0796 18.9443 71.1509 15.3695 68.3189 12.5637C65.4869 9.75788 61.8787 7.84711 57.9506 7.073C54.0225 6.29888 49.9509 6.69618 46.2507 8.21467C42.5505 9.73315 39.3878 12.3046 37.1627 15.6039C34.9376 18.9031 33.75 22.782 33.75 26.75C33.75 32.0709 35.8835 37.1739 39.6811 40.9363C43.4787 44.6988 48.6294 46.8125 54 46.8125ZM54 10.0312C57.3376 10.0312 60.6002 11.0118 63.3752 12.8489C66.1503 14.6859 68.3132 17.2971 69.5905 20.352C70.8677 23.407 71.2019 26.7685 70.5508 30.0117C69.8996 33.2548 68.2924 36.2338 65.9324 38.5719C63.5724 40.9101 60.5656 42.5024 57.2922 43.1475C54.0187 43.7926 50.6257 43.4615 47.5422 42.1961C44.4587 40.9307 41.8232 38.7878 39.969 36.0384C38.1147 33.2891 37.125 30.0567 37.125 26.75C37.125 22.3159 38.9029 18.0634 42.0676 14.9281C45.2323 11.7927 49.5245 10.0312 54 10.0312ZM102.938 90.2812H100.305C100.861 89.5245 101.25 88.6606 101.447 87.7456C101.644 86.8305 101.646 85.8846 101.451 84.9689C101.256 84.0533 100.87 83.1884 100.316 82.43C99.763 81.6717 99.0552 81.0368 98.2387 80.5665C97.4222 80.0962 96.5151 79.8009 95.5762 79.6997C94.6372 79.5984 93.6873 79.6936 92.7878 79.9789C91.8883 80.2642 91.0592 80.7334 90.3542 81.356C89.6492 81.9787 89.084 82.7411 88.695 83.5938H86.805C87.4131 82.5784 87.7391 81.4216 87.7497 80.241C87.7604 79.0604 87.4554 77.898 86.8657 76.872C86.276 75.846 85.4227 74.993 84.3924 74.3996C83.3622 73.8062 82.1917 73.4937 81 73.4937C79.8083 73.4937 78.6378 73.8062 77.6076 74.3996C76.5773 74.993 75.724 75.846 75.1343 76.872C74.5446 77.898 74.2396 79.0604 74.2503 80.241C74.2609 81.4216 74.5869 82.5784 75.195 83.5938H73.305C72.7073 82.5958 71.8579 81.7691 70.8401 81.195C69.8223 80.6208 68.6712 80.3188 67.5 80.3188C66.3288 80.3188 65.1777 80.6208 64.1599 81.195C63.1421 81.7691 62.2927 82.5958 61.695 83.5938H59.805C60.4131 82.5784 60.7391 81.4216 60.7497 80.241C60.7604 79.0604 60.4554 77.898 59.8657 76.872C59.276 75.846 58.4227 74.993 57.3924 74.3996C56.3622 73.8062 55.1917 73.4937 54 73.4937C52.8083 73.4937 51.6378 73.8062 50.6076 74.3996C49.5773 74.993 48.724 75.846 48.1343 76.872C47.5446 77.898 47.2396 79.0604 47.2503 80.241C47.2609 81.4216 47.5869 82.5784 48.195 83.5938H46.305C45.7073 82.5958 44.8579 81.7691 43.8401 81.195C42.8223 80.6208 41.6712 80.3188 40.5 80.3188C39.3288 80.3188 38.1777 80.6208 37.1599 81.195C36.1421 81.7691 35.2927 82.5958 34.695 83.5938H32.805C33.4131 82.5784 33.7391 81.4216 33.7497 80.241C33.7604 79.0604 33.4554 77.898 32.8657 76.872C32.276 75.846 31.4227 74.993 30.3924 74.3996C29.3622 73.8062 28.1917 73.4937 27 73.4937C25.8083 73.4937 24.6378 73.8062 23.6076 74.3996C22.5773 74.993 21.724 75.846 21.1343 76.872C20.5446 77.898 20.2396 79.0604 20.2503 80.241C20.2609 81.4216 20.5869 82.5784 21.195 83.5938H19.305C18.916 82.7411 18.3508 81.9787 17.6458 81.356C16.9408 80.7334 16.1117 80.2642 15.2122 79.9789C14.3127 79.6936 13.3628 79.5984 12.4238 79.6997C11.4849 79.8009 10.5778 80.0962 9.76132 80.5665C8.94481 81.0368 8.23701 81.6717 7.68369 82.43C7.13036 83.1884 6.74383 84.0533 6.54907 84.9689C6.35432 85.8846 6.35568 86.8305 6.55307 87.7456C6.75047 88.6606 7.13949 89.5245 7.695 90.2812H5.0625C4.61495 90.2812 4.18572 90.4574 3.86926 90.7709C3.55279 91.0845 3.375 91.5097 3.375 91.9531V105.328C3.375 105.772 3.55279 106.197 3.86926 106.51C4.18572 106.824 4.61495 107 5.0625 107H102.938C103.385 107 103.814 106.824 104.131 106.51C104.447 106.197 104.625 105.772 104.625 105.328V91.9531C104.625 91.5097 104.447 91.0845 104.131 90.7709C103.814 90.4574 103.385 90.2812 102.938 90.2812ZM94.5 83.5938C95.1675 83.5938 95.82 83.7899 96.3751 84.1573C96.9301 84.5247 97.3626 85.0469 97.6181 85.6579C97.8735 86.2689 97.9404 86.9412 97.8102 87.5898C97.6799 88.2385 97.3585 88.8343 96.8865 89.3019C96.4145 89.7695 95.8131 90.088 95.1584 90.217C94.5037 90.346 93.8251 90.2798 93.2084 90.0267C92.5917 89.7736 92.0646 89.3451 91.6938 88.7952C91.3229 88.2453 91.125 87.5988 91.125 86.9375C91.125 86.0507 91.4806 85.2002 92.1135 84.5731C92.7464 83.946 93.6049 83.5938 94.5 83.5938ZM81 76.9062C81.6675 76.9062 82.32 77.1024 82.8751 77.4698C83.4301 77.8372 83.8626 78.3594 84.1181 78.9704C84.3735 79.5814 84.4404 80.2537 84.3102 80.9023C84.1799 81.551 83.8585 82.1468 83.3865 82.6144C82.9145 83.082 82.3131 83.4005 81.6584 83.5295C81.0037 83.6585 80.3251 83.5923 79.7084 83.3392C79.0917 83.0861 78.5646 82.6576 78.1938 82.1077C77.8229 81.5578 77.625 80.9113 77.625 80.25C77.625 79.3632 77.9806 78.5127 78.6135 77.8856C79.2464 77.2585 80.1049 76.9062 81 76.9062ZM67.5 83.5938C68.1675 83.5938 68.82 83.7899 69.3751 84.1573C69.9301 84.5247 70.3626 85.0469 70.6181 85.6579C70.8735 86.2689 70.9404 86.9412 70.8102 87.5898C70.6799 88.2385 70.3585 88.8343 69.8865 89.3019C69.4145 89.7695 68.8131 90.088 68.1584 90.217C67.5037 90.346 66.8251 90.2798 66.2084 90.0267C65.5917 89.7736 65.0646 89.3451 64.6938 88.7952C64.3229 88.2453 64.125 87.5988 64.125 86.9375C64.125 86.0507 64.4806 85.2002 65.1135 84.5731C65.7464 83.946 66.6049 83.5938 67.5 83.5938ZM54 76.9062C54.6675 76.9062 55.32 77.1024 55.875 77.4698C56.4301 77.8372 56.8626 78.3594 57.1181 78.9704C57.3735 79.5814 57.4404 80.2537 57.3102 80.9023C57.1799 81.551 56.8585 82.1468 56.3865 82.6144C55.9145 83.082 55.3131 83.4005 54.6584 83.5295C54.0037 83.6585 53.3251 83.5923 52.7084 83.3392C52.0917 83.0861 51.5646 82.6576 51.1938 82.1077C50.8229 81.5578 50.625 80.9113 50.625 80.25C50.625 79.3632 50.9806 78.5127 51.6135 77.8856C52.2465 77.2585 53.1049 76.9062 54 76.9062ZM40.5 83.5938C41.1675 83.5938 41.82 83.7899 42.375 84.1573C42.9301 84.5247 43.3626 85.0469 43.6181 85.6579C43.8735 86.2689 43.9404 86.9412 43.8102 87.5898C43.6799 88.2385 43.3585 88.8343 42.8865 89.3019C42.4145 89.7695 41.8131 90.088 41.1584 90.217C40.5037 90.346 39.8251 90.2798 39.2084 90.0267C38.5917 89.7736 38.0646 89.3451 37.6938 88.7952C37.3229 88.2453 37.125 87.5988 37.125 86.9375C37.125 86.0507 37.4806 85.2002 38.1135 84.5731C38.7465 83.946 39.6049 83.5938 40.5 83.5938ZM27 76.9062C27.6675 76.9062 28.32 77.1024 28.8751 77.4698C29.4301 77.8372 29.8626 78.3594 30.1181 78.9704C30.3735 79.5814 30.4404 80.2537 30.3102 80.9023C30.1799 81.551 29.8585 82.1468 29.3865 82.6144C28.9145 83.082 28.3131 83.4005 27.6584 83.5295C27.0037 83.6585 26.3251 83.5923 25.7084 83.3392C25.0917 83.0861 24.5646 82.6576 24.1938 82.1077C23.8229 81.5578 23.625 80.9113 23.625 80.25C23.625 79.3632 23.9806 78.5127 24.6135 77.8856C25.2465 77.2585 26.1049 76.9062 27 76.9062ZM13.5 83.5938C14.1675 83.5938 14.82 83.7899 15.375 84.1573C15.9301 84.5247 16.3626 85.0469 16.6181 85.6579C16.8735 86.2689 16.9404 86.9412 16.8102 87.5898C16.6799 88.2385 16.3585 88.8343 15.8865 89.3019C15.4145 89.7695 14.8131 90.088 14.1584 90.217C13.5037 90.346 12.8251 90.2798 12.2084 90.0267C11.5917 89.7736 11.0646 89.3451 10.6938 88.7952C10.3229 88.2453 10.125 87.5988 10.125 86.9375C10.125 86.0507 10.4806 85.2002 11.1135 84.5731C11.7464 83.946 12.6049 83.5938 13.5 83.5938ZM20.25 103.656H6.75V93.625H20.25V103.656ZM30.375 91.9531V103.656H23.625V91.9531C23.625 91.5097 23.4472 91.0845 23.1307 90.7709C22.8143 90.4574 22.3851 90.2812 21.9375 90.2812H20.25V86.9375H33.75V90.2812H32.0625C31.6149 90.2812 31.1857 90.4574 30.8693 90.7709C30.5528 91.0845 30.375 91.5097 30.375 91.9531ZM47.25 103.656H33.75V93.625H47.25V103.656ZM57.375 91.9531V103.656H50.625V91.9531C50.625 91.5097 50.4472 91.0845 50.1307 90.7709C49.8143 90.4574 49.3851 90.2812 48.9375 90.2812H47.25V86.9375H60.75V90.2812H59.0625C58.6149 90.2812 58.1857 90.4574 57.8693 90.7709C57.5528 91.0845 57.375 91.5097 57.375 91.9531ZM74.25 103.656H60.75V93.625H74.25V103.656ZM84.375 91.9531V103.656H77.625V91.9531C77.625 91.5097 77.4472 91.0845 77.1307 90.7709C76.8143 90.4574 76.3851 90.2812 75.9375 90.2812H74.25V86.9375H87.75V90.2812H86.0625C85.6149 90.2812 85.1857 90.4574 84.8693 90.7709C84.5528 91.0845 84.375 91.5097 84.375 91.9531ZM101.25 103.656H87.75V93.625H101.25V103.656Z" fill="url(#paint0_linear_729_18921)"/>
<defs>
<linearGradient id="paint0_linear_729_18921" x1="54" y1="0" x2="54" y2="107" gradientUnits="userSpaceOnUse">
<stop stop-color="#E9682B"/>
<stop offset="1" stop-color="#2D6462"/>
</linearGradient>
</defs>
</svg>
