<svg width="104" height="109" viewBox="0 0 104 109" fill="none" xmlns="http://www.w3.org/2000/svg">
<path d="M77.9711 24.1269L85.5186 17.1041L77.9711 24.1269ZM77.9711 24.1269C77.7807 24.3173 77.5056 24.4019 77.2517 24.4019C77.167 24.4019 77.0824 24.4019 77.0189 24.3808M77.9711 24.1269L77.0189 24.3808M77.0189 24.3808C76.6804 24.2961 76.4053 24.0846 76.2784 23.746M77.0189 24.3808L76.2784 23.746M76.2784 23.746L74.374 18.8582L76.2784 23.746ZM80.5102 30.0091C79.2618 26.2005 80.7006 21.9898 84.0226 19.7469C86.0539 18.3716 88.4872 17.9061 90.8782 18.4139C93.2692 18.9217 95.3005 20.3394 96.6124 22.413M80.5102 30.0091C81.145 31.9135 81.5258 33.8813 81.6951 35.8914M80.5102 30.0091L80.9845 29.851C80.9847 29.8514 80.9848 29.8518 80.9849 29.8522M80.5102 30.0091L80.9853 29.8534C80.9852 29.853 80.9851 29.8526 80.9849 29.8522M81.6951 35.8914L83.811 35.7221L83.3125 35.7608C83.2997 35.5949 83.2851 35.4293 83.269 35.2639M81.6951 35.8914L81.6552 35.393L82.1473 35.3536M81.6951 35.8914L82.1934 35.8494C82.1794 35.6839 82.1641 35.5186 82.1473 35.3536M83.269 35.2639L83.7675 35.224C83.5726 33.217 83.1458 31.2474 82.5203 29.332M83.269 35.2639L82.1473 35.3536M83.269 35.2639C83.0775 33.2984 82.659 31.3675 82.045 29.4872M82.5203 29.332C81.5682 26.4332 82.6684 23.217 85.2076 21.5031C86.7733 20.4663 88.6353 20.1066 90.455 20.4875C92.2747 20.8684 93.8405 21.9475 94.835 23.5344M82.5203 29.332L82.0453 29.4881C82.0452 29.4878 82.0451 29.4875 82.045 29.4872M82.5203 29.332L82.045 29.4872M94.835 23.5344C99.4265 30.8132 101.86 39.2345 101.86 47.8463V55.4864L101.938 55.4988L101.86 55.9926H101.36V55.9135L80.4512 52.6036L80.3942 52.7292L79.9389 52.5225L80.0171 52.0287L80.1533 52.0502L81.5047 49.0736M94.835 23.5344L95.2579 23.2677C95.258 23.2679 95.2581 23.2681 95.2583 23.2683C94.1908 21.5653 92.5085 20.4065 90.5575 19.9981C88.6057 19.5896 86.6076 19.9764 84.9315 21.0862L84.9278 21.0887C82.204 22.9273 81.0234 26.3758 82.045 29.4872M94.835 23.5344L95.2587 23.2689C99.9001 30.6273 102.36 39.1407 102.36 47.8463V55.9926V56.578L101.782 56.4865L79.8607 53.0164L79.2122 52.9137L79.4836 52.3158L81.0451 48.8766L81.5047 49.0736M81.5047 49.0736C81.7562 48.4867 82.0077 47.8998 82.2276 47.3024L81.7558 47.1368M81.5047 49.0736L81.0494 48.8669L81.0472 48.8718C81.2982 48.2861 81.543 47.7142 81.7558 47.1368M81.7558 47.1368C81.8127 46.9826 81.8672 46.828 81.919 46.6726L82.3934 46.8307M81.7558 47.1368L80.6988 46.7657M82.3934 46.8307L82.2303 47.2951C82.287 47.1411 82.3415 46.9863 82.3934 46.8307ZM82.3934 46.8307L80.4044 46.1324M80.4044 46.1324C80.1505 46.8095 79.8754 47.5078 79.5792 48.1849L77.4421 52.9034M80.4044 46.1324L80.8726 46.308C80.8158 46.4595 80.7578 46.6122 80.6988 46.7657M80.4044 46.1324L80.2388 46.6042L80.6988 46.7657M77.4421 52.9034C77.3152 53.1996 77.3363 53.5382 77.4844 53.8344C77.6326 54.1306 77.9288 54.3422 78.2462 54.3845L102.77 58.2567C102.833 58.2778 102.875 58.2778 102.939 58.2778C103.193 58.2778 103.426 58.1932 103.574 58.0451C103.828 57.8546 103.955 57.5584 103.955 57.241V47.8675C103.955 38.8325 101.415 30.0515 96.6124 22.413M77.4421 52.9034L77.9017 53.1003L80.0347 48.3912L80.0373 48.3853C80.2714 47.85 80.492 47.3032 80.6988 46.7657M77.4421 52.9034L77.8976 53.1097L77.9 53.1042C77.8386 53.251 77.8432 53.4339 77.9317 53.6108C78.0071 53.7616 78.1622 53.8689 78.3122 53.8889L78.3242 53.8905L78.3241 53.8907L102.848 57.7628L102.889 57.7692L102.914 57.7777M96.6124 22.413L96.1891 22.6791C96.1893 22.6795 96.1895 22.6798 96.1897 22.6801M96.6124 22.413L96.1898 22.6803C96.1898 22.6802 96.1897 22.6802 96.1897 22.6801M96.1897 22.6801C100.942 30.2388 103.455 38.9273 103.455 47.8675V57.241C103.455 57.425 103.384 57.5626 103.274 57.6451L103.245 57.6664L103.22 57.6915C103.186 57.7255 103.092 57.7778 102.939 57.7778L102.919 57.7778L102.914 57.7777M96.1897 22.6801C94.9494 20.7198 93.0327 19.3826 90.7743 18.903C88.5151 18.4231 86.2207 18.8625 84.303 20.1609L84.3024 20.1613C81.1663 22.2787 79.8067 26.2558 80.9849 29.8522M102.914 57.7777L102.907 57.7776C102.903 57.7776 102.902 57.7775 102.902 57.7775C102.902 57.7775 102.903 57.7775 102.904 57.7777C102.908 57.778 102.913 57.7788 102.919 57.78L102.925 57.7816L102.914 57.7777ZM80.9849 29.8522C81.5808 31.6401 81.9566 33.4799 82.1473 35.3536M50.9781 24.5985L50.5776 24.999L51.0247 25.3468C51.1824 25.4694 51.3222 25.6092 51.4448 25.7669L51.8395 26.2743L52.2342 25.7669C52.3568 25.6092 52.4966 25.4694 52.6543 25.3468L53.1617 24.9521L52.6543 24.5574C52.4966 24.4348 52.3568 24.295 52.2342 24.1373L51.8864 23.6902L51.4859 24.0907L51.232 24.3446L50.9781 24.5985ZM68.1848 54.54L67.6774 54.9347L68.1848 55.3294C68.3425 55.452 68.4823 55.5918 68.6049 55.7495L68.9996 56.2569L69.3943 55.7495C69.5169 55.5918 69.6567 55.452 69.8144 55.3294L70.3218 54.9347L69.8144 54.54C69.6567 54.4174 69.5169 54.2775 69.3943 54.1199L69.0223 53.6416L68.6233 54.0976C68.4721 54.2704 68.3321 54.4254 68.1848 54.54ZM18.0332 75.3806L17.6327 75.7811L18.0798 76.1288C18.2375 76.2515 18.3773 76.3913 18.4999 76.549L18.8946 77.0564L19.2893 76.549C19.4119 76.3913 19.5517 76.2515 19.7094 76.1288L20.2168 75.7342L19.7094 75.3395C19.5517 75.2169 19.4119 75.077 19.2893 74.9194L18.9416 74.4723L18.5411 74.8728L18.2871 75.1267L18.0332 75.3806ZM77.1606 23.9004C77.1598 23.9004 77.159 23.9003 77.1583 23.9002L77.1402 23.8957C76.9357 23.8446 76.8071 23.732 76.7465 23.5704L76.7466 23.5704L76.7443 23.5645L74.8399 18.6767L74.7158 18.3582H74.374H72.7659C72.6167 18.3582 72.4434 18.272 72.3407 18.1351L71.9407 18.435L72.3407 18.135C72.2307 17.9883 72.193 17.8056 72.2334 17.654L72.2335 17.6541L72.2359 17.6444L73.0822 14.1954L73.107 14.0946L73.0895 13.9922L72.3906 9.89297L73.5004 9.7024L74.2396 14.005C74.2534 14.1065 74.2485 14.1979 74.2318 14.2563L74.2317 14.2563L74.2288 14.2673L73.6152 16.6159L73.4516 17.2423H74.099H75.0934C75.3357 17.2423 75.5327 17.3744 75.6245 17.5862L77.2082 21.7038L77.4739 22.3947L78.0156 21.8902L84.4207 15.9255L85.1778 16.7382L77.6305 23.7608L77.6239 23.767L77.6175 23.7733C77.5429 23.848 77.4077 23.9019 77.2517 23.9019C77.2298 23.9019 77.2127 23.9019 77.1965 23.9017C77.1806 23.9014 77.1691 23.901 77.1606 23.9004ZM51.8395 28.8955C51.5232 28.8955 51.2815 28.6539 51.2815 28.3376C51.2815 26.7707 50.0209 25.51 48.454 25.51C48.1377 25.51 47.896 25.2684 47.896 24.9521C47.896 24.6358 48.1377 24.3941 48.454 24.3941C50.0209 24.3941 51.2815 23.1335 51.2815 21.5666C51.2815 21.2503 51.5232 21.0087 51.8395 21.0087C52.1558 21.0087 52.3974 21.2503 52.3974 21.5666C52.3974 23.1335 53.6581 24.3941 55.225 24.3941C55.5413 24.3941 55.7829 24.6358 55.7829 24.9521C55.7829 25.2684 55.5413 25.51 55.225 25.51C53.6581 25.51 52.3974 26.7707 52.3974 28.3376C52.3974 28.6327 52.1346 28.8955 51.8395 28.8955ZM68.9996 58.8781C68.6833 58.8781 68.4416 58.6365 68.4416 58.3201C68.4416 56.7533 67.181 55.4926 65.6141 55.4926C65.2978 55.4926 65.0562 55.251 65.0562 54.9347C65.0562 54.6184 65.2978 54.3767 65.6141 54.3767C67.181 54.3767 68.4416 53.1161 68.4416 51.5492C68.4416 51.2329 68.6833 50.9912 68.9996 50.9912C69.3159 50.9912 69.5576 51.2329 69.5576 51.5492C69.5576 53.1161 70.8182 54.3767 72.3851 54.3767C72.7014 54.3767 72.943 54.6184 72.943 54.9347C72.943 55.251 72.7014 55.4926 72.3851 55.4926C70.8182 55.4926 69.5576 56.7533 69.5576 58.3201C69.5576 58.6365 69.3159 58.8781 68.9996 58.8781ZM18.8946 79.6776C18.5783 79.6776 18.3366 79.436 18.3366 79.1196C18.3366 77.5528 17.076 76.2921 15.5091 76.2921C15.1928 76.2921 14.9512 76.0505 14.9512 75.7342C14.9512 75.4179 15.1928 75.1762 15.5091 75.1762C17.076 75.1762 18.3366 73.9156 18.3366 72.3487C18.3366 72.0324 18.5783 71.7907 18.8946 71.7907C19.2109 71.7907 19.4526 72.0324 19.4526 72.3487C19.4526 73.9156 20.7132 75.1762 22.2801 75.1762C22.5964 75.1762 22.838 75.4179 22.838 75.7342C22.838 76.0505 22.5964 76.2921 22.2801 76.2921C20.7132 76.2921 19.4526 77.5528 19.4526 79.1196C19.4526 79.4148 19.1898 79.6776 18.8946 79.6776Z" stroke="url(#paint0_linear_729_18906)"/>
<path d="M66.8202 6.12008L72.1946 10.1403C72.3639 10.2673 72.5755 10.3308 72.7871 10.3519M66.8202 6.12008L72.7871 10.3519M66.8202 6.12008C66.5028 5.88733 66.3335 5.48531 66.4182 5.08328C66.5028 4.68126 66.7779 4.36387 67.1587 4.25807L66.8202 6.12008ZM72.7871 10.3519L72.8368 9.85441C72.8333 9.85405 72.8298 9.85369 72.8263 9.8533L72.8136 9.85263L72.7871 10.3519ZM79.3826 1.11928C79.3828 1.11921 79.3831 1.11914 79.3833 1.11907C82.9509 0.063072 86.7295 1.5576 88.5596 4.80007L88.5609 4.80237C90.2329 7.72835 89.8744 11.4109 87.6454 13.9583L85.5718 16.3281L85.5664 16.3343L85.5611 16.3407C85.4594 16.4651 85.3018 16.5382 85.1652 16.5382C84.9954 16.5382 84.8541 16.4758 84.7344 16.3458L79.3826 1.11928ZM72.9091 8.65628L73.0321 8.74908L73.1859 8.75657L79.6966 9.07365C79.8597 9.08642 79.9909 9.15304 80.0936 9.2658L84.7875 14.6786L85.1647 15.1136L85.5425 14.6791L86.8111 13.2203C86.8112 13.2201 86.8114 13.2199 86.8115 13.2197C88.73 11.0267 89.0259 7.85423 87.5887 5.34378C86.0129 2.55886 82.7471 1.25837 79.6902 2.17084C79.6901 2.17085 79.6901 2.17086 79.6901 2.17087L69.6184 5.17545L68.6709 5.45811L69.4601 6.0537L72.9091 8.65628Z" stroke="url(#paint1_linear_729_18906)"/>
<path d="M73.9132 42.116L76.303 37.3319L77.3013 37.8305L74.9115 42.6146L73.9132 42.116Z" stroke="url(#paint2_linear_729_18906)"/>
<path d="M34.5044 25.1919L34.5016 25.1895L31.472 22.5362L32.2084 21.6994L34.1608 23.4032L34.6663 23.8444L34.9445 23.2338L36.5738 19.6579L36.5738 19.6579L36.5757 19.6537C36.6521 19.4819 36.8334 19.3581 37.0921 19.3581H37.2191H37.786L37.7152 18.7957L37.3799 16.1345C37.379 16.1086 37.3774 16.0859 37.376 16.0685L37.3733 16.0348L37.3717 16.0139L37.3735 16.0067L37.3772 15.9743L37.5106 14.8185L38.6136 14.9411L38.4995 15.9676L38.493 16.0263L38.5003 16.0848L38.9658 19.8089L38.9657 19.8089L38.967 19.8175C38.9884 19.9676 38.9274 20.1576 38.8364 20.2587L38.8285 20.2675L38.8211 20.2766C38.7193 20.4009 38.5618 20.4741 38.4252 20.4741H37.7904H37.4679L37.3349 20.7678L35.4139 25.011C35.3373 25.1599 35.219 25.2655 35.0548 25.3195H35.0545H35.054H35.0535H35.053H35.0524H35.0519H35.0514H35.0509H35.0504H35.0498H35.0493H35.0488H35.0483H35.0478H35.0473H35.0468H35.0462H35.0457H35.0452H35.0447H35.0442H35.0437H35.0432H35.0427H35.0422H35.0417H35.0411H35.0406H35.0401H35.0396H35.0391H35.0386H35.0381H35.0376H35.0371H35.0366H35.0361H35.0356H35.0351H35.0346H35.0341H35.0336H35.0331H35.0326H35.0321H35.0316H35.0311H35.0306H35.0301H35.0296H35.0291H35.0286H35.0281H35.0276H35.0271H35.0267H35.0262H35.0257H35.0252H35.0247H35.0242H35.0237H35.0232H35.0227H35.0222H35.0218H35.0213H35.0208H35.0203H35.0198H35.0193H35.0188H35.0183H35.0179H35.0174H35.0169H35.0164H35.0159H35.0154H35.015H35.0145H35.014H35.0135H35.013H35.0126H35.0121H35.0116H35.0111H35.0106H35.0102H35.0097H35.0092H35.0087H35.0083H35.0078H35.0073H35.0068H35.0063H35.0059H35.0054H35.0049H35.0044H35.004H35.0035H35.003H35.0026H35.0021H35.0016H35.0011H35.0007H35.0002H34.9997H34.9993H34.9988H34.9983H34.9978H34.9974H34.9969H34.9964H34.996H34.9955H34.995H34.9946H34.9941H34.9936H34.9932H34.9927H34.9922H34.9918H34.9913H34.9908H34.9904H34.9899H34.9894H34.989H34.9885H34.988H34.9876H34.9871H34.9866H34.9862H34.9857H34.9853H34.9848H34.9843H34.9839H34.9834H34.9829H34.9825H34.982H34.9816H34.9811H34.9806H34.9802H34.9797H34.9793H34.9788H34.9783H34.9779H34.9774H34.977H34.9765H34.976H34.9756H34.9751H34.9747H34.9742H34.9737H34.9733H34.9728H34.9724H34.9719H34.9715H34.971H34.9705H34.9701H34.9696H34.9692H34.9687H34.9683H34.9678H34.9673H34.9669H34.9664H34.966H34.9655H34.9651H34.9646H34.9641H34.9637H34.9632H34.9628H34.9623H34.9619H34.9614H34.961H34.9605H34.96H34.9596H34.9591H34.9587H34.9582H34.9578H34.9573H34.9569H34.9564H34.956H34.9555H34.955H34.9546H34.9541H34.9537H34.9532H34.9528H34.9523H34.9519H34.9514H34.951H34.9505H34.95H34.9496H34.9491H34.9487H34.9482H34.9478H34.9473H34.9469H34.9464H34.946H34.9455H34.945H34.9446H34.9441H34.9437H34.9432H34.9428H34.9423H34.9419H34.9414H34.9409H34.9405H34.94H34.9396H34.9391H34.9387H34.9382H34.9378H34.9373H34.9368H34.9364H34.9359H34.9355H34.935H34.9346H34.9341H34.9337H34.9332H34.9327H34.9323H34.9318H34.9314H34.9309H34.9305H34.93H34.9295H34.9291H34.9286H34.9282H34.9277H34.9273H34.9268H34.9263H34.9259H34.9254H34.925H34.9245H34.924H34.9236H34.9231H34.9227H34.9222H34.9217H34.9213H34.9208H34.9204H34.9199H34.9194H34.919H34.9185H34.9181H34.9176H34.9171H34.9167H34.9162H34.9157H34.9153H34.9148H34.9144H34.9139H34.9134H34.913H34.9125H34.912H34.9116H34.9111H34.9106H34.9102H34.9097H34.9092H34.9088H34.9083H34.9078H34.9074H34.9069H34.9064H34.906H34.9055H34.905H34.9046H34.9041H34.9036H34.9032H34.9027H34.9022H34.9018H34.9013H34.9008H34.9003H34.8999H34.8994H34.8989H34.8985H34.898H34.8975H34.897H34.8966H34.8961H34.8956H34.8951H34.8947H34.8942H34.8937H34.8932H34.8928H34.8923H34.8918H34.8913H34.8908H34.8904H34.8899H34.8894H34.8889H34.8885H34.888H34.8875H34.887H34.8865H34.886H34.8856H34.8851H34.8846H34.8841H34.8836H34.8832H34.8827H34.8822H34.8817H34.8812H34.8807H34.8802H34.8797H34.8793H34.8788H34.8783H34.8778H34.8773H34.8768H34.8763H34.8758H34.8753H34.8749H34.8744H34.8739H34.8734H34.8729H34.8724H34.8719H34.8714H34.8709H34.8704C34.723 25.3195 34.592 25.2698 34.5044 25.1919ZM19.2798 62.8713L19.2723 62.8656L19.2645 62.8602C19.1077 62.7517 19.0355 62.6014 19.0355 62.4673V62.4527L19.0347 62.4382L18.4924 53.1186L19.6097 53.0516L20.0676 61.0148L20.1043 61.6535L20.7152 61.4636L37.9388 56.1103L38.2904 56.001V55.6328V46.1535C38.2904 39.0126 34.8722 32.2197 29.1168 27.9571C27.3322 26.6303 25.0207 26.2873 22.9176 27.041C20.8539 27.7651 19.2885 29.493 18.7272 31.5844L17.6338 31.3724C18.2777 28.8877 20.1273 26.8531 22.5533 25.9947L22.5549 25.9941C24.9979 25.1202 27.7017 25.536 29.7921 27.0686C35.8209 31.5233 39.4063 38.6523 39.4063 46.1535V56.4157C39.4063 56.659 39.2549 56.8728 39.0117 56.9557L19.7948 62.9319C19.7856 62.9334 19.7767 62.9349 19.7683 62.9364C19.661 62.9544 19.6175 62.9617 19.5723 62.9617C19.4575 62.9617 19.3539 62.9268 19.2798 62.8713Z" stroke="url(#paint3_linear_729_18906)"/>
<path d="M48.4401 41.4546L49.4075 40.8985L52.0727 45.5348L51.1053 46.0909L48.4401 41.4546Z" stroke="url(#paint4_linear_729_18906)"/>
<path d="M16.6827 50.599L20.2531 46.4488L21.0991 47.1766L17.5286 51.3267L16.6827 50.599Z" stroke="url(#paint5_linear_729_18906)"/>
<mask id="path-7-inside-1_729_18906" fill="white">
<path d="M30.8498 25.7771C30.6805 25.7771 30.5112 25.7348 30.3631 25.6501L20.5241 20.445C20.0797 20.2122 19.8682 19.6832 20.0163 19.1966L22.8939 9.67494C24.2693 5.14687 28.5223 2.18458 33.2408 2.48081C37.8746 2.77704 41.7045 6.16251 42.5508 10.7329L43.3337 14.8589C43.3972 15.1975 43.2914 15.5572 43.0586 15.7899C42.8259 16.0439 42.4662 16.1497 42.1276 16.0862L34.066 14.7531L31.9077 24.9307C31.8443 25.2481 31.6115 25.5232 31.3153 25.6713C31.146 25.7559 30.9979 25.7771 30.8498 25.7771ZM22.2803 18.9638L30.088 23.111L32.1617 13.3355C32.2886 12.7853 32.8176 12.4256 33.3677 12.5103L40.9427 13.7587L40.4561 11.1138C39.779 7.49554 36.7532 4.80832 33.0715 4.57557C29.3263 4.34282 25.962 6.67033 24.8829 10.2674L22.2803 18.9638ZM42.17 52.8609C41.4294 52.8609 40.71 52.5646 40.1598 51.9933L38.0439 49.7716L39.5674 48.3116L41.6833 50.5334C41.8949 50.7449 42.2334 50.8084 42.4873 50.6391L53.0458 44.2702C53.5324 43.974 53.871 43.5085 53.9979 42.9584C54.1249 42.4082 54.0403 41.8369 53.7652 41.3503C53.469 40.8636 53.0035 40.5251 52.4533 40.3981C51.9032 40.2711 51.3319 40.3558 50.8452 40.6308L43.4818 45.0743C43.0586 45.3282 42.5085 45.2647 42.17 44.905L36.7109 39.1709L38.2343 37.7109L43.101 42.8314L49.745 38.8112C50.7183 38.2187 51.8397 38.0494 52.94 38.3245C54.0403 38.5996 54.9713 39.2767 55.5426 40.25C56.135 41.2233 56.3043 42.3447 56.0292 43.445C55.7542 44.5453 55.0771 45.4763 54.1037 46.0476L43.5453 52.4165C43.1644 52.7128 42.6566 52.8609 42.17 52.8609ZM92.148 108.531C91.8094 108.531 91.4921 108.361 91.2805 108.086C90.2437 106.626 90.3918 104.659 91.619 103.368L93.1636 101.76L84.3614 85.975C83.4939 84.4304 83.0919 82.6953 83.1765 80.918L83.9594 63.0596L75.2841 73.0679C74.5647 73.8931 74.3319 75.078 74.6705 76.1148L79.7699 91.8996C79.8545 92.1958 79.8333 92.4921 79.6852 92.7671L73.5914 103.22C73.3586 103.622 72.9143 103.812 72.4699 103.728C70.5444 103.326 69.2961 101.442 69.6981 99.5169L71.0099 93.1692L64.8315 75.1203C63.7523 71.9888 64.4083 68.4764 66.5242 65.9373L77.6116 52.6704L79.2409 54.0246L68.1535 67.2914C66.503 69.2592 65.9952 72.0099 66.8204 74.4433L73.0835 92.7671C73.147 92.9364 73.147 93.148 73.1259 93.3173L71.7505 99.9401C71.6447 100.469 71.8352 100.998 72.216 101.337L77.5905 92.1112L72.6392 76.7708C72.0679 75.0146 72.4699 73.0679 73.676 71.6714L84.3402 59.3779C84.6365 59.0394 85.1231 58.9124 85.5252 59.0817C85.9483 59.2509 86.2023 59.653 86.1811 60.1185L85.2501 81.0026C85.1866 82.378 85.504 83.7321 86.1811 84.9382L95.3642 101.421C95.5969 101.823 95.5335 102.331 95.1949 102.67L93.1213 104.849C92.7828 105.209 92.6347 105.695 92.6981 106.161L101.373 103.135L91.4074 85.2979C90.5822 83.8379 90.5187 82.0394 91.1958 80.5159L101.966 56.7542L103.891 57.6217L93.1213 81.3835C92.6981 82.2933 92.7405 83.3724 93.2483 84.24L103.87 103.156C104.018 103.431 104.039 103.749 103.934 104.045C103.828 104.341 103.595 104.574 103.299 104.68L92.5077 108.446C92.3807 108.51 92.2538 108.531 92.148 108.531ZM33.9602 108.531H19.5508C19.2122 108.531 18.8948 108.361 18.6832 108.086C18.4928 107.811 18.4293 107.452 18.5563 107.134L26.7661 83.6052C27.0411 82.8435 26.9988 82.0182 26.6814 81.2777L18.5986 62.8268L20.5452 61.9805L28.6281 80.4313C29.157 81.6585 29.2205 83.0339 28.7762 84.3034L21.0531 106.415H32.8811C32.7753 105.611 32.3098 104.913 31.6327 104.447L30.4478 103.664C28.5434 102.416 27.7394 100.046 28.48 97.8876L33.537 83.4359C33.8967 82.3991 34.0237 81.2777 33.9179 80.1986L32.479 66.699C32.4367 66.2335 32.6906 65.8103 33.1138 65.6199C33.537 65.4294 34.0237 65.5352 34.3411 65.8949L43.7569 76.538C44.7091 77.6171 45.1957 79.0771 45.0688 80.5159L43.5665 97.4221L50.7606 104.024C50.7606 103.833 50.6971 103.622 50.5702 103.453L48.3061 100.109C47.9041 99.5169 47.7137 98.7763 47.7771 98.0569L49.3852 77.871C49.5122 76.2629 49.1102 74.6548 48.2426 73.3007L40.5195 61.2188L42.2969 60.0762L50.02 72.1581C51.1415 73.8931 51.6493 75.9879 51.48 78.0403L49.8719 98.2262C49.8507 98.4801 49.9142 98.734 50.0623 98.9456L52.2841 102.289C53.1939 103.643 52.94 105.484 51.6916 106.542C51.2896 106.88 50.676 106.88 50.2951 106.521L41.7045 98.6282C41.4717 98.3955 41.3447 98.0781 41.3659 97.7607L42.9105 80.3255C42.9952 79.458 42.6989 78.5905 42.1276 77.9345L34.9123 69.7882L36.0126 79.987C36.1607 81.3835 35.9915 82.8223 35.526 84.1342L30.4689 98.6071C30.0457 99.8343 30.4901 101.188 31.5904 101.908L32.7753 102.691C34.1718 103.601 35.0181 105.145 35.0181 106.838V107.494C35.0181 108.044 34.5526 108.531 33.9602 108.531Z"/>
</mask>
<path d="M30.8498 25.7771C30.6805 25.7771 30.5112 25.7348 30.3631 25.6501L20.5241 20.445C20.0797 20.2122 19.8682 19.6832 20.0163 19.1966L22.8939 9.67494C24.2693 5.14687 28.5223 2.18458 33.2408 2.48081C37.8746 2.77704 41.7045 6.16251 42.5508 10.7329L43.3337 14.8589C43.3972 15.1975 43.2914 15.5572 43.0586 15.7899C42.8259 16.0439 42.4662 16.1497 42.1276 16.0862L34.066 14.7531L31.9077 24.9307C31.8443 25.2481 31.6115 25.5232 31.3153 25.6713C31.146 25.7559 30.9979 25.7771 30.8498 25.7771ZM22.2803 18.9638L30.088 23.111L32.1617 13.3355C32.2886 12.7853 32.8176 12.4256 33.3677 12.5103L40.9427 13.7587L40.4561 11.1138C39.779 7.49554 36.7532 4.80832 33.0715 4.57557C29.3263 4.34282 25.962 6.67033 24.8829 10.2674L22.2803 18.9638ZM42.17 52.8609C41.4294 52.8609 40.71 52.5646 40.1598 51.9933L38.0439 49.7716L39.5674 48.3116L41.6833 50.5334C41.8949 50.7449 42.2334 50.8084 42.4873 50.6391L53.0458 44.2702C53.5324 43.974 53.871 43.5085 53.9979 42.9584C54.1249 42.4082 54.0403 41.8369 53.7652 41.3503C53.469 40.8636 53.0035 40.5251 52.4533 40.3981C51.9032 40.2711 51.3319 40.3558 50.8452 40.6308L43.4818 45.0743C43.0586 45.3282 42.5085 45.2647 42.17 44.905L36.7109 39.1709L38.2343 37.7109L43.101 42.8314L49.745 38.8112C50.7183 38.2187 51.8397 38.0494 52.94 38.3245C54.0403 38.5996 54.9713 39.2767 55.5426 40.25C56.135 41.2233 56.3043 42.3447 56.0292 43.445C55.7542 44.5453 55.0771 45.4763 54.1037 46.0476L43.5453 52.4165C43.1644 52.7128 42.6566 52.8609 42.17 52.8609ZM92.148 108.531C91.8094 108.531 91.4921 108.361 91.2805 108.086C90.2437 106.626 90.3918 104.659 91.619 103.368L93.1636 101.76L84.3614 85.975C83.4939 84.4304 83.0919 82.6953 83.1765 80.918L83.9594 63.0596L75.2841 73.0679C74.5647 73.8931 74.3319 75.078 74.6705 76.1148L79.7699 91.8996C79.8545 92.1958 79.8333 92.4921 79.6852 92.7671L73.5914 103.22C73.3586 103.622 72.9143 103.812 72.4699 103.728C70.5444 103.326 69.2961 101.442 69.6981 99.5169L71.0099 93.1692L64.8315 75.1203C63.7523 71.9888 64.4083 68.4764 66.5242 65.9373L77.6116 52.6704L79.2409 54.0246L68.1535 67.2914C66.503 69.2592 65.9952 72.0099 66.8204 74.4433L73.0835 92.7671C73.147 92.9364 73.147 93.148 73.1259 93.3173L71.7505 99.9401C71.6447 100.469 71.8352 100.998 72.216 101.337L77.5905 92.1112L72.6392 76.7708C72.0679 75.0146 72.4699 73.0679 73.676 71.6714L84.3402 59.3779C84.6365 59.0394 85.1231 58.9124 85.5252 59.0817C85.9483 59.2509 86.2023 59.653 86.1811 60.1185L85.2501 81.0026C85.1866 82.378 85.504 83.7321 86.1811 84.9382L95.3642 101.421C95.5969 101.823 95.5335 102.331 95.1949 102.67L93.1213 104.849C92.7828 105.209 92.6347 105.695 92.6981 106.161L101.373 103.135L91.4074 85.2979C90.5822 83.8379 90.5187 82.0394 91.1958 80.5159L101.966 56.7542L103.891 57.6217L93.1213 81.3835C92.6981 82.2933 92.7405 83.3724 93.2483 84.24L103.87 103.156C104.018 103.431 104.039 103.749 103.934 104.045C103.828 104.341 103.595 104.574 103.299 104.68L92.5077 108.446C92.3807 108.51 92.2538 108.531 92.148 108.531ZM33.9602 108.531H19.5508C19.2122 108.531 18.8948 108.361 18.6832 108.086C18.4928 107.811 18.4293 107.452 18.5563 107.134L26.7661 83.6052C27.0411 82.8435 26.9988 82.0182 26.6814 81.2777L18.5986 62.8268L20.5452 61.9805L28.6281 80.4313C29.157 81.6585 29.2205 83.0339 28.7762 84.3034L21.0531 106.415H32.8811C32.7753 105.611 32.3098 104.913 31.6327 104.447L30.4478 103.664C28.5434 102.416 27.7394 100.046 28.48 97.8876L33.537 83.4359C33.8967 82.3991 34.0237 81.2777 33.9179 80.1986L32.479 66.699C32.4367 66.2335 32.6906 65.8103 33.1138 65.6199C33.537 65.4294 34.0237 65.5352 34.3411 65.8949L43.7569 76.538C44.7091 77.6171 45.1957 79.0771 45.0688 80.5159L43.5665 97.4221L50.7606 104.024C50.7606 103.833 50.6971 103.622 50.5702 103.453L48.3061 100.109C47.9041 99.5169 47.7137 98.7763 47.7771 98.0569L49.3852 77.871C49.5122 76.2629 49.1102 74.6548 48.2426 73.3007L40.5195 61.2188L42.2969 60.0762L50.02 72.1581C51.1415 73.8931 51.6493 75.9879 51.48 78.0403L49.8719 98.2262C49.8507 98.4801 49.9142 98.734 50.0623 98.9456L52.2841 102.289C53.1939 103.643 52.94 105.484 51.6916 106.542C51.2896 106.88 50.676 106.88 50.2951 106.521L41.7045 98.6282C41.4717 98.3955 41.3447 98.0781 41.3659 97.7607L42.9105 80.3255C42.9952 79.458 42.6989 78.5905 42.1276 77.9345L34.9123 69.7882L36.0126 79.987C36.1607 81.3835 35.9915 82.8223 35.526 84.1342L30.4689 98.6071C30.0457 99.8343 30.4901 101.188 31.5904 101.908L32.7753 102.691C34.1718 103.601 35.0181 105.145 35.0181 106.838V107.494C35.0181 108.044 34.5526 108.531 33.9602 108.531Z" stroke="url(#paint6_linear_729_18906)" stroke-width="2" mask="url(#path-7-inside-1_729_18906)"/>
<mask id="path-8-inside-2_729_18906" fill="white">
<path d="M92.1486 108.531C91.81 108.531 91.4926 108.361 91.2811 108.086C90.2442 106.626 90.3924 104.659 91.6196 103.368L93.6932 101.189C93.9471 100.935 94.328 100.808 94.6665 100.892L103.13 102.67C103.596 102.775 103.934 103.156 103.977 103.643C103.998 104.108 103.723 104.553 103.278 104.701L92.4871 108.467C92.3813 108.51 92.2544 108.531 92.1486 108.531ZM94.8358 103.072L93.1642 104.828C92.8257 105.188 92.6776 105.674 92.741 106.14L99.0253 103.96L94.8358 103.072ZM72.6609 103.728C72.5975 103.728 72.5128 103.728 72.4494 103.706C70.5239 103.304 69.2755 101.421 69.6775 99.4958L71.0528 92.8729C71.1375 92.4286 71.4972 92.0901 71.9627 92.0477L78.6279 91.1802C79.0299 91.1379 79.4319 91.3072 79.6435 91.6457C79.8762 91.9843 79.8762 92.4074 79.6858 92.7672L73.592 103.22C73.3804 103.537 73.0418 103.728 72.6609 103.728ZM72.9783 94.0367L71.7511 99.919C71.6453 100.448 71.8357 100.977 72.2166 101.315L76.7447 93.55L72.9783 94.0367ZM22.5136 55.1461C21.8154 55.1461 21.1171 54.9768 20.4612 54.6171L5.75556 46.4073C4.88803 45.9207 4.33789 45.0108 4.33789 43.9952C4.33789 43.2123 4.67644 42.4717 5.2689 41.9428L18.6204 30.0301C19.4667 29.2684 20.5458 28.9087 21.6884 28.9722C22.8099 29.0356 23.8467 29.5435 24.6084 30.3898C26.153 32.1249 26.0049 34.8121 24.2699 36.3567L16.9065 42.9161L24.6084 47.2114C26.6397 48.354 27.3803 50.9354 26.2377 52.9667C25.4336 54.3632 23.9948 55.1461 22.5136 55.1461ZM21.4768 52.7551C22.4925 53.3264 23.7832 52.9667 24.3545 51.9299C24.6296 51.4432 24.693 50.8719 24.5449 50.3218C24.3968 49.7717 24.0371 49.3273 23.5504 49.0522L14.5578 44.0375C14.2616 43.8682 14.05 43.572 14.0288 43.2335C13.9865 42.8949 14.1134 42.5564 14.3674 42.3236L22.8522 34.7698C23.7197 33.9869 23.8044 32.6539 23.0215 31.7863C22.6406 31.3632 22.1328 31.1092 21.5615 31.0881C20.9902 31.0458 20.4612 31.2362 20.038 31.6171L6.68656 43.5085C6.55961 43.6355 6.47497 43.8048 6.47497 43.974C6.47497 44.2068 6.60192 44.4184 6.79236 44.5242L21.4768 52.7551ZM33.9608 108.531H19.5514C19.2128 108.531 18.8954 108.361 18.6838 108.086C18.4934 107.811 18.4299 107.452 18.5569 107.134L21.9847 97.2952C22.1539 96.8297 22.5983 96.5546 23.0849 96.597L29.5808 97.2106C29.8982 97.2317 30.1944 97.4222 30.3637 97.6973C30.533 97.9723 30.5753 98.3109 30.4695 98.6071C30.0463 99.8343 30.4907 101.189 31.5909 101.908L32.7759 102.691C34.1724 103.601 35.0187 105.145 35.0187 106.838V107.494C35.0187 108.044 34.5532 108.531 33.9608 108.531ZM21.0537 106.415H32.8817C32.7759 105.611 32.3104 104.913 31.6333 104.447L30.4483 103.664C28.9249 102.67 28.0997 100.935 28.2266 99.1784L23.7197 98.7552L21.0537 106.415ZM51.0151 106.775C50.7612 106.775 50.5073 106.69 50.2957 106.499L41.705 98.6283C41.4723 98.3955 41.3453 98.0781 41.3665 97.7607L41.7685 93.3173C41.7897 92.9999 41.9801 92.7037 42.2552 92.5132C42.5303 92.344 42.8688 92.3017 43.1862 92.4074L49.407 94.5657C49.8725 94.7138 50.1476 95.1793 50.1052 95.6448L49.8937 98.2051C49.8725 98.459 49.936 98.7129 50.0841 98.9245L52.3058 102.268C53.2156 103.622 52.9617 105.463 51.7133 106.521C51.5018 106.69 51.269 106.775 51.0151 106.775ZM43.5247 97.4222L50.7189 104.024C50.7189 103.833 50.6554 103.622 50.5284 103.453L48.3067 100.109C47.9047 99.5169 47.7143 98.7764 47.7777 98.057L47.9258 96.3007L43.7575 94.8619L43.5247 97.4222ZM88.1072 50.5969C87.5359 50.5969 86.9646 50.4699 86.4568 50.1948L71.7088 42.7256C69.6352 41.6677 68.7888 39.1286 69.8468 37.0338C70.3546 36.0182 71.2221 35.2776 72.3012 34.9179C73.3804 34.5582 74.523 34.6428 75.5386 35.1718L84.4255 39.6787L86.097 27.0255C86.2452 25.8829 86.8376 24.8884 87.7686 24.1902C88.6996 23.5131 89.8211 23.2169 90.9637 23.4073C93.2065 23.767 94.7935 25.9041 94.4761 28.147L91.7889 47.423C91.6196 48.6502 90.8579 49.687 89.7364 50.216C89.2075 50.4911 88.6573 50.5969 88.1072 50.5969ZM87.4089 48.3328C87.8321 48.5444 88.3611 48.5656 88.7843 48.354C89.2498 48.1212 89.5883 47.6769 89.6518 47.1691L92.339 27.893C92.4871 26.7716 91.7042 25.7136 90.5828 25.5232C90.0115 25.4386 89.4614 25.5655 88.9959 25.9041C88.5304 26.2426 88.2341 26.7504 88.1707 27.3217L86.3086 41.4561C86.2663 41.7946 86.0547 42.0909 85.7585 42.2601C85.4623 42.4294 85.1026 42.4294 84.7852 42.2601L74.5653 37.0973C73.5285 36.5683 72.2589 36.9915 71.7299 38.0283C71.476 38.5361 71.4337 39.1074 71.603 39.6364C71.7723 40.1654 72.1531 40.6097 72.6609 40.8636L87.4089 48.3328Z"/>
</mask>
<path d="M92.1486 108.531C91.81 108.531 91.4926 108.361 91.2811 108.086C90.2442 106.626 90.3924 104.659 91.6196 103.368L93.6932 101.189C93.9471 100.935 94.328 100.808 94.6665 100.892L103.13 102.67C103.596 102.775 103.934 103.156 103.977 103.643C103.998 104.108 103.723 104.553 103.278 104.701L92.4871 108.467C92.3813 108.51 92.2544 108.531 92.1486 108.531ZM94.8358 103.072L93.1642 104.828C92.8257 105.188 92.6776 105.674 92.741 106.14L99.0253 103.96L94.8358 103.072ZM72.6609 103.728C72.5975 103.728 72.5128 103.728 72.4494 103.706C70.5239 103.304 69.2755 101.421 69.6775 99.4958L71.0528 92.8729C71.1375 92.4286 71.4972 92.0901 71.9627 92.0477L78.6279 91.1802C79.0299 91.1379 79.4319 91.3072 79.6435 91.6457C79.8762 91.9843 79.8762 92.4074 79.6858 92.7672L73.592 103.22C73.3804 103.537 73.0418 103.728 72.6609 103.728ZM72.9783 94.0367L71.7511 99.919C71.6453 100.448 71.8357 100.977 72.2166 101.315L76.7447 93.55L72.9783 94.0367ZM22.5136 55.1461C21.8154 55.1461 21.1171 54.9768 20.4612 54.6171L5.75556 46.4073C4.88803 45.9207 4.33789 45.0108 4.33789 43.9952C4.33789 43.2123 4.67644 42.4717 5.2689 41.9428L18.6204 30.0301C19.4667 29.2684 20.5458 28.9087 21.6884 28.9722C22.8099 29.0356 23.8467 29.5435 24.6084 30.3898C26.153 32.1249 26.0049 34.8121 24.2699 36.3567L16.9065 42.9161L24.6084 47.2114C26.6397 48.354 27.3803 50.9354 26.2377 52.9667C25.4336 54.3632 23.9948 55.1461 22.5136 55.1461ZM21.4768 52.7551C22.4925 53.3264 23.7832 52.9667 24.3545 51.9299C24.6296 51.4432 24.693 50.8719 24.5449 50.3218C24.3968 49.7717 24.0371 49.3273 23.5504 49.0522L14.5578 44.0375C14.2616 43.8682 14.05 43.572 14.0288 43.2335C13.9865 42.8949 14.1134 42.5564 14.3674 42.3236L22.8522 34.7698C23.7197 33.9869 23.8044 32.6539 23.0215 31.7863C22.6406 31.3632 22.1328 31.1092 21.5615 31.0881C20.9902 31.0458 20.4612 31.2362 20.038 31.6171L6.68656 43.5085C6.55961 43.6355 6.47497 43.8048 6.47497 43.974C6.47497 44.2068 6.60192 44.4184 6.79236 44.5242L21.4768 52.7551ZM33.9608 108.531H19.5514C19.2128 108.531 18.8954 108.361 18.6838 108.086C18.4934 107.811 18.4299 107.452 18.5569 107.134L21.9847 97.2952C22.1539 96.8297 22.5983 96.5546 23.0849 96.597L29.5808 97.2106C29.8982 97.2317 30.1944 97.4222 30.3637 97.6973C30.533 97.9723 30.5753 98.3109 30.4695 98.6071C30.0463 99.8343 30.4907 101.189 31.5909 101.908L32.7759 102.691C34.1724 103.601 35.0187 105.145 35.0187 106.838V107.494C35.0187 108.044 34.5532 108.531 33.9608 108.531ZM21.0537 106.415H32.8817C32.7759 105.611 32.3104 104.913 31.6333 104.447L30.4483 103.664C28.9249 102.67 28.0997 100.935 28.2266 99.1784L23.7197 98.7552L21.0537 106.415ZM51.0151 106.775C50.7612 106.775 50.5073 106.69 50.2957 106.499L41.705 98.6283C41.4723 98.3955 41.3453 98.0781 41.3665 97.7607L41.7685 93.3173C41.7897 92.9999 41.9801 92.7037 42.2552 92.5132C42.5303 92.344 42.8688 92.3017 43.1862 92.4074L49.407 94.5657C49.8725 94.7138 50.1476 95.1793 50.1052 95.6448L49.8937 98.2051C49.8725 98.459 49.936 98.7129 50.0841 98.9245L52.3058 102.268C53.2156 103.622 52.9617 105.463 51.7133 106.521C51.5018 106.69 51.269 106.775 51.0151 106.775ZM43.5247 97.4222L50.7189 104.024C50.7189 103.833 50.6554 103.622 50.5284 103.453L48.3067 100.109C47.9047 99.5169 47.7143 98.7764 47.7777 98.057L47.9258 96.3007L43.7575 94.8619L43.5247 97.4222ZM88.1072 50.5969C87.5359 50.5969 86.9646 50.4699 86.4568 50.1948L71.7088 42.7256C69.6352 41.6677 68.7888 39.1286 69.8468 37.0338C70.3546 36.0182 71.2221 35.2776 72.3012 34.9179C73.3804 34.5582 74.523 34.6428 75.5386 35.1718L84.4255 39.6787L86.097 27.0255C86.2452 25.8829 86.8376 24.8884 87.7686 24.1902C88.6996 23.5131 89.8211 23.2169 90.9637 23.4073C93.2065 23.767 94.7935 25.9041 94.4761 28.147L91.7889 47.423C91.6196 48.6502 90.8579 49.687 89.7364 50.216C89.2075 50.4911 88.6573 50.5969 88.1072 50.5969ZM87.4089 48.3328C87.8321 48.5444 88.3611 48.5656 88.7843 48.354C89.2498 48.1212 89.5883 47.6769 89.6518 47.1691L92.339 27.893C92.4871 26.7716 91.7042 25.7136 90.5828 25.5232C90.0115 25.4386 89.4614 25.5655 88.9959 25.9041C88.5304 26.2426 88.2341 26.7504 88.1707 27.3217L86.3086 41.4561C86.2663 41.7946 86.0547 42.0909 85.7585 42.2601C85.4623 42.4294 85.1026 42.4294 84.7852 42.2601L74.5653 37.0973C73.5285 36.5683 72.2589 36.9915 71.7299 38.0283C71.476 38.5361 71.4337 39.1074 71.603 39.6364C71.7723 40.1654 72.1531 40.6097 72.6609 40.8636L87.4089 48.3328Z" stroke="url(#paint7_linear_729_18906)" stroke-width="2" mask="url(#path-8-inside-2_729_18906)"/>
<defs>
<linearGradient id="paint0_linear_729_18906" x1="59.2029" y1="9.125" x2="59.2029" y2="80.1776" gradientUnits="userSpaceOnUse">
<stop stop-color="#E9682B"/>
<stop offset="1" stop-color="#2D6462"/>
</linearGradient>
<linearGradient id="paint1_linear_729_18906" x1="78.2507" y1="0.283691" x2="78.2507" y2="17.0382" gradientUnits="userSpaceOnUse">
<stop stop-color="#E9682B"/>
<stop offset="1" stop-color="#2D6462"/>
</linearGradient>
<linearGradient id="paint2_linear_729_18906" x1="77.0256" y1="37.1339" x2="74.1889" y2="42.8126" gradientUnits="userSpaceOnUse">
<stop stop-color="#E9682B"/>
<stop offset="1" stop-color="#2D6462"/>
</linearGradient>
<linearGradient id="paint3_linear_729_18906" x1="28.4698" y1="14.2666" x2="28.4698" y2="63.4617" gradientUnits="userSpaceOnUse">
<stop stop-color="#E9682B"/>
<stop offset="1" stop-color="#2D6462"/>
</linearGradient>
<linearGradient id="paint4_linear_729_18906" x1="51.1736" y1="42.9674" x2="49.3392" y2="44.022" gradientUnits="userSpaceOnUse">
<stop stop-color="#E9682B"/>
<stop offset="1" stop-color="#2D6462"/>
</linearGradient>
<linearGradient id="paint5_linear_729_18906" x1="21.0022" y1="46.4336" x2="16.7795" y2="51.3419" gradientUnits="userSpaceOnUse">
<stop stop-color="#E9682B"/>
<stop offset="1" stop-color="#2D6462"/>
</linearGradient>
<linearGradient id="paint6_linear_729_18906" x1="61.245" y1="2.46045" x2="61.245" y2="108.531" gradientUnits="userSpaceOnUse">
<stop stop-color="#E9682B"/>
<stop offset="1" stop-color="#2D6462"/>
</linearGradient>
<linearGradient id="paint7_linear_729_18906" x1="54.1578" y1="23.3506" x2="54.1578" y2="108.531" gradientUnits="userSpaceOnUse">
<stop stop-color="#E9682B"/>
<stop offset="1" stop-color="#2D6462"/>
</linearGradient>
</defs>
</svg>
