<svg width="42" height="48" viewBox="0 0 42 48" fill="none" xmlns="http://www.w3.org/2000/svg">
<path d="M34.4694 47.71C34.3219 47.6739 34.1804 47.6167 34.0494 47.54C34.0494 47.33 33.9694 47.08 33.6694 47.05C33.4552 46.9142 33.2017 46.8543 32.9494 46.88C32.826 46.9008 32.6993 46.8796 32.5894 46.82C32.6482 46.8026 32.7023 46.7719 32.7474 46.7303C32.7924 46.6887 32.8273 46.6373 32.8494 46.58C32.8494 46.58 32.9294 46.06 32.3094 46.24C32.3033 46.1868 32.3033 46.1332 32.3094 46.08C32.0194 45.64 31.9294 45.9 31.9294 45.9C31.9408 45.854 31.9408 45.806 31.9294 45.76C31.8594 45.48 31.6594 45.22 31.0894 45.34L30.8394 45.41C30.7477 45.3018 30.6672 45.1845 30.5994 45.06C30.5194 44.9422 30.429 44.8317 30.3294 44.73C30.3294 44.73 30.4594 43.91 29.3894 44.36C29.0094 44.26 28.9094 43.77 28.9094 43.77C28.5594 43.01 28.2694 43.04 28.2694 43.04C28.2694 43.44 27.6994 43.3 27.6994 43.3C27.5957 43.2444 27.4845 43.204 27.3694 43.18C27.3694 43.07 27.3694 42.95 27.1594 42.92C27.1594 42.92 26.6294 42.82 26.5394 43.27C26.4732 43.2279 26.4127 43.1775 26.3594 43.12C26.3446 43.0442 26.3211 42.9704 26.2894 42.9C26.3594 42.79 26.3794 42.62 25.9594 42.46C25.8914 42.4364 25.8174 42.4364 25.7494 42.46C25.6756 42.47 25.6007 42.4521 25.5394 42.41C25.5394 42.41 25.5994 42 25.2994 42C25.4194 41.88 25.5394 41.68 25.2394 41.49C25.2394 41.49 24.6194 41.08 24.2394 41.63C24.236 41.6833 24.236 41.7367 24.2394 41.79C24.1858 41.7664 24.1354 41.7362 24.0894 41.7C23.9867 41.6475 23.8796 41.604 23.7694 41.57C23.7694 41.45 23.5894 41.33 23.1794 41.35C23.1794 41.35 22.9894 41.4 22.9394 41.53C22.8438 41.484 22.7599 41.4169 22.6941 41.3337C22.6283 41.2506 22.5822 41.1536 22.5594 41.05C22.5166 40.9418 22.4437 40.8481 22.3494 40.78C22.3627 40.5945 22.3424 40.4082 22.2894 40.23C22.3513 39.621 22.503 39.0246 22.7394 38.46L22.3994 38.77C22.0466 39.1148 21.7285 39.4933 21.4494 39.9C21.5294 37.59 21.4494 35.47 21.4494 34.76C21.4494 34.23 21.4494 33.69 21.4494 33.14C22.1479 32.4262 22.7528 31.6265 23.2494 30.76L23.5394 30.35C28.7794 29.35 31.6894 22.83 31.6894 22.83C34.9694 17.83 41.3394 17.72 41.3394 17.72C38.2194 16.65 33.1194 17.11 33.1194 17.11C22.7594 17.52 23.1194 28.24 23.2194 30.11C22.6892 30.778 22.1146 31.4094 21.4994 32C21.5252 28.7264 21.1899 25.46 20.4994 22.26C20.3694 21.55 20.2294 20.84 20.0694 20.14C20.0694 20.14 19.9394 19.75 19.7594 19.14L19.6694 19L19.2494 17.59C25.6994 15.86 21.1394 9 21.1394 9C19.9294 5.63 20.7994 0 20.7994 0L19.2494 1.15C9.40937 9.82 16.6894 16.58 18.5194 17.53C18.6694 18.41 18.8494 19.41 19.0494 20.53C19.6168 24.7684 19.9507 29.0349 20.0494 33.31V32.7C20.0494 32.7 16.9394 29.27 16.7594 27.7C20.3894 21.57 13.9994 18 13.9994 18C6.99937 14.18 0.609375 20.32 0.609375 20.32C9.96937 21.4 10.1794 24.32 10.1794 24.32C12.3894 29.21 15.8694 28.42 16.3194 28.32C16.3194 28.32 18.2094 32.7 20.0494 33.37C20.0494 35.54 20.0494 37.77 19.8794 39.89C19.4515 38.9963 18.8576 38.192 18.1294 37.52L17.6694 37.11C17.9922 37.8817 18.1978 38.6974 18.2794 39.53C18.1472 39.9882 18.1718 40.4774 18.3494 40.92C18.2404 40.925 18.1335 40.8894 18.0494 40.82C17.7094 40.21 17.1394 41.13 17.0494 41.33C16.895 41.3416 16.7513 41.4134 16.6494 41.53C16.3694 41.59 16.2694 41.48 16.2694 41.48C16.0946 41.4484 15.9143 41.473 15.7544 41.5502C15.5945 41.6275 15.4632 41.7534 15.3794 41.91C14.8594 41.59 14.4494 42.17 14.3194 42.1C13.4094 41.57 13.6894 42.57 13.6894 42.57C13.5699 42.5439 13.4454 42.5538 13.3316 42.5982C13.2177 42.6427 13.1195 42.7199 13.0494 42.82C13.2394 43.58 13.0494 43.44 13.0494 43.44L12.4394 43.37C11.8394 43.29 11.8394 44.09 11.8394 44.09C11.2594 44.09 11.0394 44.82 11.0394 44.82C10.7761 44.9264 10.4868 44.9508 10.2094 44.89C9.66937 44.78 9.40937 45.47 9.40937 45.47C8.86937 45.33 8.77938 46.16 8.77938 46.16C8.52121 46.2761 8.28454 46.435 8.07937 46.63C7.72937 46.56 7.33938 47 7.33938 47C7.05937 47 6.95937 47.61 6.95937 47.61C6.95937 47.61 6.81938 47.82 6.83938 48.01H35.0694C35.0225 47.8959 34.936 47.8026 34.8256 47.7475C34.7153 47.6923 34.5888 47.679 34.4694 47.71Z" fill="white" fill-opacity="0.9"/>
</svg>
