<svg width="55" height="55" viewBox="0 0 55 55" fill="none" xmlns="http://www.w3.org/2000/svg">
<path d="M9.50376 22.1419C9.45131 22.2133 9.40763 22.2908 9.37366 22.3726C9.37366 22.3726 9.37366 22.4021 9.37366 22.4199C9.34795 22.5023 9.33402 22.5879 9.33226 22.6742C9.33401 22.7624 9.34794 22.85 9.37366 22.9344C9.37366 22.9344 9.37366 22.964 9.37366 22.9758C9.40628 23.0583 9.45005 23.1359 9.50376 23.2065L26.8021 44.9108C26.844 44.9689 26.8961 45.019 26.9559 45.0586H26.9914C27.0478 45.1001 27.1094 45.1339 27.1747 45.1591H27.2398C27.4049 45.2142 27.5833 45.2142 27.7484 45.1591H27.8134C27.8787 45.1339 27.9404 45.1001 27.9968 45.0586H28.0323C28.0921 45.019 28.1442 44.9689 28.186 44.9108L45.4844 23.2065C45.6077 23.0485 45.6746 22.8539 45.6746 22.6535C45.6746 22.4531 45.6077 22.2585 45.4844 22.1005L38.8785 13.821C38.7938 13.7177 38.6873 13.6344 38.5667 13.5772C38.446 13.5199 38.3142 13.4901 38.1806 13.4898H16.8134C16.6799 13.4901 16.5481 13.5199 16.4274 13.5772C16.3067 13.6344 16.2003 13.7177 16.1156 13.821L9.50968 22.1005C9.50968 22.1005 9.50376 22.136 9.50376 22.1419ZM20.5452 23.5672L25.4005 40.3215L12.0468 23.5672H20.5452ZM42.9532 23.5672L29.5995 40.3215L34.4548 23.5672H42.9532ZM27.5 41.1968L22.3903 23.5672H32.6097L27.5 41.1968ZM42.9532 21.793H34.4548L32.5683 15.2876H37.7607L42.9532 21.793ZM30.7231 15.2876L32.6097 21.793H22.3903L24.2769 15.2876H30.7231ZM17.2392 15.2876H22.4317L20.5452 21.793H12.0468L17.2392 15.2876ZM11.2425 12.4962C11.3246 12.5789 11.4223 12.6445 11.5299 12.6891C11.6375 12.7338 11.7528 12.7567 11.8694 12.7565C12.1042 12.7543 12.329 12.661 12.4962 12.4962C12.6609 12.3291 12.7533 12.104 12.7533 11.8694C12.7533 11.6347 12.6609 11.4096 12.4962 11.2425L9.3086 8.05484C9.14044 7.89814 8.91802 7.81283 8.6882 7.81689C8.45838 7.82094 8.23911 7.91404 8.07658 8.07658C7.91404 8.23911 7.82094 8.45838 7.81689 8.6882C7.81283 8.91802 7.89814 9.14044 8.05484 9.3086L11.2425 12.4962ZM5.39355 26.6129H0.887097C0.651824 26.6129 0.426188 26.7064 0.259825 26.8727C0.0934617 27.0391 0 27.2647 0 27.5C0 27.7353 0.0934617 27.9609 0.259825 28.1273C0.426188 28.2936 0.651824 28.3871 0.887097 28.3871H5.39355C5.62882 28.3871 5.85446 28.2936 6.02082 28.1273C6.18718 27.9609 6.28064 27.7353 6.28064 27.5C6.28064 27.2647 6.18718 27.0391 6.02082 26.8727C5.85446 26.7064 5.62882 26.6129 5.39355 26.6129ZM11.2425 42.5038L8.05484 45.6914C7.97187 45.7734 7.906 45.871 7.86104 45.9786C7.81608 46.0862 7.79293 46.2017 7.79293 46.3183C7.79293 46.4349 7.81608 46.5504 7.86104 46.658C7.906 46.7656 7.97187 46.8632 8.05484 46.9452C8.22117 47.1113 8.44664 47.2046 8.68172 47.2046C8.9168 47.2046 9.14227 47.1113 9.3086 46.9452L12.4962 43.7575C12.6529 43.5894 12.7382 43.3669 12.7342 43.1371C12.7301 42.9073 12.637 42.688 12.4745 42.5255C12.312 42.363 12.0927 42.2699 11.8629 42.2658C11.6331 42.2618 11.4106 42.3471 11.2425 42.5038ZM27.5 48.7194C27.2647 48.7194 27.0391 48.8128 26.8727 48.9792C26.7064 49.1455 26.6129 49.3712 26.6129 49.6064V54.1129C26.6129 54.3482 26.7064 54.5738 26.8727 54.7402C27.0391 54.9065 27.2647 55 27.5 55C27.7353 55 27.9609 54.9065 28.1273 54.7402C28.2936 54.5738 28.3871 54.3482 28.3871 54.1129V49.6064C28.3871 49.3712 28.2936 49.1455 28.1273 48.9792C27.9609 48.8128 27.7353 48.7194 27.5 48.7194ZM43.7575 42.5038C43.5894 42.3471 43.3669 42.2618 43.1371 42.2658C42.9073 42.2699 42.688 42.363 42.5255 42.5255C42.363 42.688 42.2699 42.9073 42.2658 43.1371C42.2618 43.3669 42.3471 43.5894 42.5038 43.7575L45.6914 46.9452C45.8577 47.1113 46.0832 47.2046 46.3183 47.2046C46.5534 47.2046 46.7788 47.1113 46.9452 46.9452C47.0281 46.8632 47.094 46.7656 47.139 46.658C47.1839 46.5504 47.2071 46.4349 47.2071 46.3183C47.2071 46.2017 47.1839 46.0862 47.139 45.9786C47.094 45.871 47.0281 45.7734 46.9452 45.6914L43.7575 42.5038ZM54.1129 26.6129H49.6064C49.3712 26.6129 49.1455 26.7064 48.9792 26.8727C48.8128 27.0391 48.7194 27.2647 48.7194 27.5C48.7194 27.7353 48.8128 27.9609 48.9792 28.1273C49.1455 28.2936 49.3712 28.3871 49.6064 28.3871H54.1129C54.3482 28.3871 54.5738 28.2936 54.7402 28.1273C54.9065 27.9609 55 27.7353 55 27.5C55 27.2647 54.9065 27.0391 54.7402 26.8727C54.5738 26.7064 54.3482 26.6129 54.1129 26.6129ZM45.6914 8.05484L42.5038 11.2425C42.3391 11.4096 42.2467 11.6347 42.2467 11.8694C42.2467 12.104 42.3391 12.3291 42.5038 12.4962C42.671 12.661 42.8958 12.7543 43.1306 12.7565C43.2471 12.7567 43.3625 12.7338 43.4701 12.6891C43.5777 12.6445 43.6754 12.5789 43.7575 12.4962L46.9452 9.3086C47.1019 9.14044 47.1872 8.91802 47.1831 8.6882C47.1791 8.45838 47.086 8.23911 46.9234 8.07658C46.7609 7.91404 46.5416 7.82094 46.3118 7.81689C46.082 7.81283 45.8596 7.89814 45.6914 8.05484ZM27.5 6.28064C27.7353 6.28064 27.9609 6.18718 28.1273 6.02082C28.2936 5.85446 28.3871 5.62882 28.3871 5.39355V0.887097C28.3871 0.651824 28.2936 0.426188 28.1273 0.259825C27.9609 0.0934617 27.7353 0 27.5 0C27.2647 0 27.0391 0.0934617 26.8727 0.259825C26.7064 0.426188 26.6129 0.651824 26.6129 0.887097V5.39355C26.6129 5.62882 26.7064 5.85446 26.8727 6.02082C27.0391 6.18718 27.2647 6.28064 27.5 6.28064Z" fill="white"/>
</svg>
