<svg width="107" height="107" viewBox="0 0 107 107" fill="none" xmlns="http://www.w3.org/2000/svg">
<path d="M84.8624 18.4482C85.0342 18.6773 85.257 18.8633 85.5132 18.9914C85.7694 19.1195 86.0518 19.1861 86.3382 19.1861C86.7374 19.1861 87.1258 19.0567 87.4451 18.8172C87.8366 18.5236 88.0953 18.0866 88.1645 17.6022C88.2337 17.1178 88.1077 16.6258 87.8141 16.2344C87.4267 15.7179 87.0393 15.2198 86.6334 14.7217C86.3252 14.34 85.8779 14.0965 85.3901 14.0446C84.9023 13.9927 84.4138 14.1367 84.0322 14.4449C83.6506 14.7532 83.407 15.2004 83.3551 15.6882C83.3032 16.176 83.4472 16.6645 83.7555 17.0461L84.8624 18.4482Z" fill="url(#paint0_linear_729_18873)"/>
<path d="M83.2202 64.569H55.3449V44.2759H94.0863C94.5756 44.2759 95.0448 44.0815 95.3908 43.7356C95.7367 43.3896 95.9311 42.9203 95.9311 42.4311V40.5862C95.9461 34.4227 94.5449 28.3382 91.8356 22.8021C91.729 22.584 91.5805 22.3891 91.3986 22.2285C91.2166 22.0678 91.0049 21.9446 90.7753 21.8658C90.3117 21.7066 89.8039 21.7382 89.3635 21.9535C88.9232 22.1687 88.5864 22.5501 88.4272 23.0137C88.2681 23.4773 88.2996 23.9852 88.5149 24.4255C90.9829 29.4543 92.2581 34.9845 92.2415 40.5862H68.2587C68.0373 25.9383 65.2332 11.069 60.0861 4.04018C66.9817 4.93016 73.4855 7.75039 78.848 12.1759C79.2291 12.4281 79.6903 12.5298 80.1422 12.4614C80.5941 12.393 81.0044 12.1593 81.2939 11.8056C81.5833 11.4519 81.7311 11.0033 81.7086 10.5469C81.6862 10.0904 81.4952 9.65848 81.1725 9.33484C73.9096 3.31655 64.7772 0.0158648 55.3449 0H51.6552C40.8911 0 30.5678 4.27604 22.9564 11.8874C15.345 19.4988 11.069 29.8221 11.069 40.5862V42.4311C11.069 42.9203 11.2633 43.3896 11.6093 43.7356C11.9553 44.0815 12.4245 44.2759 12.9138 44.2759H51.6552V64.569H23.7798C23.2906 64.569 22.8213 64.7634 22.4754 65.1094C22.1294 65.4553 21.935 65.9246 21.935 66.4138C21.935 66.9031 22.1294 67.3724 22.4754 67.7183C22.8213 68.0643 23.2906 68.2587 23.7798 68.2587H40.7338V73.7932C40.7338 75.0045 40.9724 76.204 41.436 77.3231C41.8995 78.4422 42.579 79.4591 43.4355 80.3156C44.2921 81.1722 45.3089 81.8516 46.428 82.3152C47.5472 82.7787 48.7466 83.0173 49.958 83.0173H51.6552V95.9311H46.3421C43.7489 95.9201 41.227 96.7794 39.18 98.3715C37.133 99.9636 35.6794 102.196 35.0518 104.712C34.9827 104.985 34.9767 105.269 35.0342 105.544C35.0918 105.819 35.2113 106.077 35.3838 106.299C35.5632 106.526 35.7937 106.708 36.0565 106.83C36.3193 106.952 36.6071 107.01 36.8966 107H70.1035C70.3837 107.002 70.6606 106.939 70.9131 106.818C71.1656 106.696 71.3872 106.519 71.5609 106.299C71.7334 106.077 71.853 105.819 71.9105 105.544C71.9681 105.269 71.9621 104.985 71.893 104.712C71.2676 102.206 69.8222 99.9797 67.7865 98.3885C65.7508 96.7974 63.2417 95.9325 60.658 95.9311H55.3449V83.0173H57.0421C58.2534 83.0173 59.4529 82.7787 60.572 82.3152C61.6912 81.8516 62.708 81.1722 63.5646 80.3156C64.4211 79.4591 65.1006 78.4422 65.5641 77.3231C66.0277 76.204 66.2663 75.0045 66.2663 73.7932V68.2587H83.2202C83.7095 68.2587 84.1788 68.0643 84.5247 67.7183C84.8707 67.3724 85.0651 66.9031 85.0651 66.4138C85.0651 65.9246 84.8707 65.4553 84.5247 65.1094C84.1788 64.7634 83.7095 64.569 83.2202 64.569ZM38.7414 40.5862H14.7586C14.77 31.6267 18.0411 22.9775 23.9614 16.2527C29.8817 9.52786 38.0466 5.18699 46.9325 4.04018C41.7854 11.069 38.9812 25.9383 38.7414 40.5862ZM42.4311 40.5862C42.7447 17.6735 48.9802 3.68966 53.5 3.68966C58.0199 3.68966 64.2369 17.6735 64.569 40.5862H42.4311ZM60.6395 99.6208C61.9738 99.6214 63.2861 99.9602 64.4539 100.605C65.6217 101.251 66.6071 102.181 67.3178 103.31H39.6454C40.3561 102.181 41.3414 101.251 42.5093 100.605C43.6771 99.9602 44.9894 99.6214 46.3237 99.6208H60.6395ZM62.4844 73.7932C62.4844 75.261 61.9013 76.6687 60.8633 77.7066C59.8254 78.7445 58.4177 79.3276 56.9499 79.3276H49.958C48.4901 79.3276 47.0824 78.7445 46.0445 77.7066C45.0066 76.6687 44.4235 75.261 44.4235 73.7932V68.2587H62.5766L62.4844 73.7932ZM105.155 64.569C104.666 64.569 104.197 64.7634 103.851 65.1094C103.505 65.4553 103.31 65.9246 103.31 66.4138V79.3276H92.2415C90.7736 79.3276 89.3659 79.9107 88.328 80.9487C87.2901 81.9866 86.707 83.3943 86.707 84.8621V105.155C86.707 105.645 86.9013 106.114 87.2473 106.46C87.5933 106.806 88.0625 107 88.5518 107C89.0411 107 89.5103 106.806 89.8563 106.46C90.2023 106.114 90.3966 105.645 90.3966 105.155V99.6208H103.31V105.155C103.31 105.645 103.505 106.114 103.851 106.46C104.197 106.806 104.666 107 105.155 107C105.645 107 106.114 106.806 106.46 106.46C106.806 106.114 107 105.645 107 105.155V66.4138C107 65.9246 106.806 65.4553 106.46 65.1094C106.114 64.7634 105.645 64.569 105.155 64.569ZM103.31 95.9311H90.3966V90.3966H103.31V95.9311ZM103.31 86.707H90.3966V84.8621C90.3966 84.3729 90.591 83.9036 90.937 83.5576C91.2829 83.2117 91.7522 83.0173 92.2415 83.0173H103.31V86.707ZM14.7586 79.3276H3.68966V66.4138C3.68966 65.9246 3.49529 65.4553 3.14932 65.1094C2.80335 64.7634 2.33411 64.569 1.84483 64.569C1.35555 64.569 0.88631 64.7634 0.540338 65.1094C0.194365 65.4553 0 65.9246 0 66.4138V105.155C0 105.645 0.194365 106.114 0.540338 106.46C0.88631 106.806 1.35555 107 1.84483 107C2.33411 107 2.80335 106.806 3.14932 106.46C3.49529 106.114 3.68966 105.645 3.68966 105.155V99.6208H16.6035V105.155C16.6035 105.645 16.7978 106.114 17.1438 106.46C17.4898 106.806 17.959 107 18.4483 107C18.9376 107 19.4068 106.806 19.7528 106.46C20.0988 106.114 20.2931 105.645 20.2931 105.155V84.8621C20.2931 83.3943 19.71 81.9866 18.6721 80.9487C17.6342 79.9107 16.2265 79.3276 14.7586 79.3276ZM16.6035 95.9311H3.68966V90.3966H16.6035V95.9311ZM16.6035 86.707H3.68966V83.0173H14.7586C15.2479 83.0173 15.7172 83.2117 16.0631 83.5576C16.4091 83.9036 16.6035 84.3729 16.6035 84.8621V86.707Z" fill="url(#paint1_linear_729_18873)"/>
<defs>
<linearGradient id="paint0_linear_729_18873" x1="85.7639" y1="14.0342" x2="85.7639" y2="19.1861" gradientUnits="userSpaceOnUse">
<stop stop-color="#E9682B"/>
<stop offset="1" stop-color="#2D6462"/>
</linearGradient>
<linearGradient id="paint1_linear_729_18873" x1="53.5" y1="0" x2="53.5" y2="107.001" gradientUnits="userSpaceOnUse">
<stop stop-color="#E9682B"/>
<stop offset="1" stop-color="#2D6462"/>
</linearGradient>
</defs>
</svg>
