<svg width="171" height="157" viewBox="0 0 171 157" fill="none" xmlns="http://www.w3.org/2000/svg">
<path d="M11.2404 50.5253C11.6026 50.0615 11.9402 49.6318 12.2535 49.2362C12.5639 48.8238 12.8765 48.3982 13.1911 47.9594C13.5058 47.5206 13.8051 47.0929 14.0891 46.6763C14.3633 46.2527 14.662 45.795 14.9851 45.3032C15.0589 45.3856 15.1264 45.4562 15.1877 45.5149C15.2559 45.5639 15.3242 45.6128 15.3925 45.6618C15.5583 45.7806 15.715 45.8709 15.8628 45.9326C15.5818 46.2626 15.3406 46.5475 15.1393 46.787C14.9282 47.0196 14.7199 47.2689 14.5144 47.535C14.3061 47.7843 14.0781 48.0712 13.8306 48.3958C13.5831 48.7204 13.2775 49.1362 12.9139 49.6433C13.297 49.9328 13.6229 50.1887 13.8918 50.411C14.1676 50.6235 14.4566 50.8382 14.7589 51.055L16.6711 52.4039C16.9158 52.0626 17.1361 51.7554 17.3319 51.4824C17.5249 51.1926 17.7145 50.9077 17.9005 50.6276C18.0866 50.3476 18.2712 50.0592 18.4545 49.7624C18.6448 49.4558 18.8512 49.1165 19.0737 48.7445C19.1892 48.8716 19.3299 48.9947 19.4957 49.1135C19.6615 49.2324 19.8182 49.3227 19.966 49.3843C19.8793 49.4846 19.7472 49.6483 19.5696 49.8753C19.3823 50.0954 19.1683 50.3628 18.9278 50.6777C18.6846 50.9757 18.4217 51.3114 18.1392 51.6848C17.8567 52.0581 17.5721 52.4447 17.2854 52.8445L19.2204 54.2542C19.3277 54.3311 19.5032 54.457 19.747 54.6318C19.9978 54.7969 20.2549 54.9738 20.5182 55.1626C20.7815 55.3515 21.0204 55.5228 21.2349 55.6766C21.4565 55.8207 21.5819 55.9032 21.6111 55.9242L21.8629 55.5732C22.5412 54.6272 23.0706 53.8477 23.4512 53.2346C23.8387 52.6118 24.106 52.1464 24.2531 51.8384C24.4271 52.0075 24.5678 52.1305 24.6751 52.2074C24.7433 52.2564 24.8214 52.3123 24.9091 52.3752C24.9941 52.4214 25.068 52.4523 25.1308 52.4677C24.7686 52.9316 24.4274 53.3662 24.1072 53.7715C23.7968 54.1839 23.4842 54.6094 23.1695 55.0483C22.8549 55.4871 22.5485 55.9246 22.2506 56.3606C21.9624 56.8037 21.6568 57.2712 21.3336 57.763C20.711 57.2722 20.0946 56.7933 19.4844 56.3262C18.8715 55.8424 18.3116 55.4187 17.8045 55.0551L14.9081 52.9782C14.7326 52.8523 14.5424 52.716 14.3377 52.5691C14.1231 52.4153 13.8758 52.2453 13.5958 52.0593C13.306 51.8662 12.9688 51.6466 12.5842 51.4004C12.2067 51.1444 11.7587 50.8527 11.2404 50.5253Z" fill="white" fill-opacity="0.9"/>
<path d="M21.6914 37.7425C21.8342 37.6508 21.9725 37.5631 22.1063 37.4793C22.2322 37.3864 22.3587 37.285 22.4858 37.1752C22.6129 37.0654 22.7362 36.951 22.8555 36.8321C22.9669 36.7041 23.0693 36.584 23.1626 36.4717C23.5667 36.6459 23.9506 36.8058 24.3143 36.9515C24.6702 37.0881 25.0469 37.2305 25.4445 37.3787C25.8432 37.5099 26.2876 37.6573 26.7777 37.8207C27.2677 37.9841 27.8411 38.1707 28.4979 38.3803C28.4008 37.4969 28.279 36.6032 28.1323 35.6992C27.9857 34.7951 27.7912 33.7897 27.5488 32.683C27.7878 32.5558 27.9754 32.4334 28.1116 32.3157C28.1934 32.2451 28.2712 32.17 28.3451 32.0903C28.4111 32.0016 28.4817 31.9089 28.5568 31.8123C28.6589 32.9768 28.7583 34.1199 28.8549 35.2415C28.9607 36.3553 29.0952 37.4839 29.2583 38.6273C30.4208 39.0186 31.6172 39.4123 32.8474 39.8085C34.0867 40.1969 35.4263 40.6096 36.8662 41.0466C36.7234 41.1383 36.5806 41.23 36.4378 41.3216C36.3028 41.4223 36.1717 41.5276 36.0446 41.6374C35.9175 41.7473 35.7988 41.8577 35.6886 41.9688C35.5874 42.072 35.4714 42.2039 35.3406 42.3645C34.3981 41.9893 33.4511 41.618 32.4995 41.2507C31.548 40.8834 30.5347 40.5456 29.4597 40.2373C29.5849 41.3184 29.7379 42.3676 29.9188 43.3848C30.1009 44.385 30.3144 45.4215 30.5593 46.4944C30.445 46.5456 30.343 46.602 30.2534 46.6635C30.1639 46.725 30.0782 46.7911 29.9965 46.8617C29.8421 46.995 29.6937 47.1628 29.5513 47.3651C29.4497 46.3112 29.323 45.1917 29.1715 44.0065C29.0289 42.8135 28.8552 41.4651 28.6504 39.9612C27.5205 39.5893 26.386 39.2214 25.247 38.8574C24.1081 38.4934 22.9229 38.1218 21.6914 37.7425Z" fill="white" fill-opacity="0.9"/>
<path d="M43.0832 29.6532C43.2873 29.6056 43.4861 29.5473 43.6795 29.4782C43.8837 29.4038 44.088 29.316 44.2923 29.2147C45.2384 28.7458 45.8657 28.1604 46.1741 27.4585C46.4879 26.7405 46.421 25.9299 45.9734 25.0267C45.5845 24.2418 45.1004 23.7785 44.5213 23.6369C43.9477 23.4793 43.1877 23.6349 42.2416 24.1038L40.7094 24.8631L43.0832 29.6532ZM38.9621 24.9857C39.2631 24.8633 39.5425 24.7516 39.8005 24.6506C40.0639 24.5335 40.3138 24.4163 40.5504 24.2991C40.6472 24.2511 40.7896 24.1738 40.9779 24.0671C41.1661 23.9605 41.3677 23.8538 41.5827 23.7473C41.7924 23.63 41.986 23.5206 42.1635 23.4193C42.3409 23.318 42.4673 23.2486 42.5426 23.2113C43.1877 22.8916 43.7627 22.6871 44.2674 22.5976C44.7776 22.4921 45.2338 22.4937 45.6359 22.6025C46.0327 22.7005 46.3755 22.8922 46.6642 23.1777C46.9638 23.4578 47.2254 23.8236 47.4492 24.2752C47.7157 24.8128 47.8399 25.3472 47.8219 25.8785C47.8093 26.3936 47.6788 26.8869 47.4302 27.3583C47.1817 27.8296 46.8287 28.2658 46.3711 28.6666C45.9135 29.0675 45.3783 29.4198 44.7654 29.7235C44.3461 29.9313 43.8972 30.1337 43.4189 30.3306L43.9624 31.4273C44.2342 31.9756 44.554 32.5939 44.9218 33.2821C45.2951 33.9543 45.6737 34.6372 46.0576 35.3308C45.9072 35.3786 45.7621 35.4237 45.6225 35.4662C45.4881 35.5193 45.3564 35.5779 45.2274 35.6418C45.1521 35.6791 45.0204 35.7511 44.8322 35.8578C44.6601 35.9699 44.5417 36.0553 44.4771 36.1141C44.1577 35.3885 43.8382 34.6763 43.5187 33.9775C43.2099 33.2734 42.917 32.6418 42.6399 32.0827L41.0574 28.8893C40.7803 28.3302 40.4551 27.7146 40.0818 27.0424C39.7193 26.3649 39.3461 25.6794 38.9621 24.9857Z" fill="white" fill-opacity="0.9"/>
<path d="M56.2129 17.9606C56.3818 17.9438 56.5331 17.9312 56.667 17.9229C56.8097 17.9001 56.951 17.8715 57.0908 17.8371C57.2306 17.8026 57.369 17.7623 57.506 17.7162C57.6517 17.6556 57.7916 17.5965 57.9257 17.5387C58.0172 18.0105 58.1015 18.4532 58.1787 18.8667C58.2646 19.2658 58.3491 19.659 58.4322 20.0463C58.5124 20.4221 58.5926 20.7978 58.6728 21.1735C58.7646 21.5464 58.8593 21.9309 58.9569 22.327C59.0258 22.6067 59.1076 22.9387 59.2023 23.3232C59.2971 23.7078 59.399 24.1214 59.508 24.5642C59.6259 24.9924 59.7393 25.4279 59.8484 25.8707C59.9691 26.3106 60.0783 26.7286 60.1759 27.1247C60.2823 27.5064 60.3728 27.8487 60.4474 28.1516C60.5191 28.4429 60.5722 28.6585 60.6067 28.7983L61.0436 28.6906C61.6029 28.5529 62.0908 28.4265 62.5074 28.3115C62.924 28.1965 63.2998 28.0916 63.6348 27.9967C63.967 27.8902 64.27 27.7908 64.5439 27.6986C64.815 27.5948 65.0918 27.4895 65.3745 27.3828C65.377 27.4934 65.3767 27.5923 65.3735 27.6796C65.3819 27.7641 65.3962 27.8471 65.4163 27.9286C65.4536 28.0801 65.5258 28.2477 65.6328 28.4314C65.2921 28.503 64.9804 28.5674 64.6979 28.6247C64.4154 28.6819 64.1445 28.7363 63.8853 28.7877C63.6406 28.848 63.3945 28.9025 63.147 28.9511C62.9023 29.0114 62.6518 29.0731 62.3954 29.1362C61.8595 29.2683 61.3249 29.4061 60.7918 29.5498C60.2732 29.7023 59.7372 29.859 59.1836 30.0201C59.0291 29.2425 58.8717 28.478 58.7113 27.7265C58.5626 26.9722 58.4136 26.2921 58.2643 25.6862L57.4118 22.2257C57.2626 21.6198 57.0786 20.9483 56.86 20.2112C56.653 19.4712 56.4373 18.721 56.2129 17.9606Z" fill="white" fill-opacity="0.9"/>
<path d="M75.4202 21.1159C75.39 22.0394 75.4771 22.8647 75.6814 23.5918C75.8862 24.3069 76.1964 24.9173 76.6121 25.4232C77.0278 25.929 77.5371 26.3239 78.1402 26.6078C78.7436 26.8796 79.4291 27.0281 80.1967 27.0532C80.9643 27.0783 81.6581 26.9749 82.278 26.7431C82.9103 26.4996 83.4503 26.1391 83.8982 25.6614C84.346 25.1838 84.6955 24.5949 84.9465 23.8947C85.1979 23.1826 85.3387 22.3647 85.3689 21.4412C85.4293 19.5942 85.032 18.1585 84.177 17.134C83.3224 16.0975 82.1156 15.5538 80.5564 15.5028C79.8008 15.4781 79.113 15.5817 78.4931 15.8135C77.8732 16.0454 77.3393 16.4001 76.8915 16.8778C76.4436 17.3554 76.094 17.9503 75.8426 18.6624C75.5912 19.3746 75.4504 20.1924 75.4202 21.1159ZM80.5961 14.8377C81.6036 14.8707 82.5162 15.0506 83.334 15.3775C84.1521 15.6924 84.846 16.1353 85.4157 16.7062C85.9973 17.2776 86.4369 17.9703 86.7344 18.7844C87.0324 19.5866 87.1649 20.4914 87.1319 21.4989C87.099 22.5064 86.9075 23.4066 86.5574 24.1996C86.2077 24.9805 85.724 25.6371 85.1062 26.1692C84.5005 26.7017 83.779 27.1043 82.9416 27.3771C82.1046 27.6379 81.1824 27.7518 80.175 27.7189C79.1795 27.6863 78.2727 27.5126 77.4545 27.1977C76.6484 26.8832 75.9545 26.4402 75.3728 25.8689C74.8032 25.298 74.3634 24.6113 74.0535 23.8087C73.7559 22.9946 73.6238 22.0777 73.6571 21.0583C73.6893 20.0748 73.8742 19.1924 74.212 18.411C74.5497 17.6296 75.0154 16.9725 75.6091 16.4396C76.2152 15.8951 76.937 15.4865 77.7743 15.2137C78.6241 14.9293 79.5647 14.804 80.5961 14.8377Z" fill="white" fill-opacity="0.9"/>
<path d="M101.496 19.3549C101.476 19.4116 101.409 19.5851 101.294 19.8756C101.184 20.1547 101.059 20.4735 100.921 20.8319C100.782 21.1903 100.642 21.5543 100.5 21.924C100.361 22.2824 100.254 22.5692 100.179 22.7844L99.762 23.9734C99.9199 24.0669 100.093 24.1531 100.282 24.2319C100.47 24.3108 100.661 24.3839 100.853 24.4514C101.85 24.8008 102.722 24.8523 103.47 24.6058C104.217 24.3593 104.736 23.8227 105.026 22.996C105.276 22.2826 105.236 21.652 104.907 21.1042C104.578 20.5564 103.972 20.1276 103.088 19.8179C102.828 19.7266 102.582 19.6469 102.352 19.5788C102.121 19.5107 101.836 19.4361 101.496 19.3549ZM100.115 18.0698C100.458 18.2155 100.784 18.3553 101.094 18.4891C101.407 18.6116 101.71 18.7245 102.005 18.8277C102.345 18.9468 102.677 19.0506 103.002 19.1392C103.331 19.2164 103.654 19.3105 103.971 19.4217C105.137 19.8307 105.941 20.3668 106.383 21.0302C106.824 21.6936 106.89 22.467 106.58 23.3503C106.29 24.1769 105.736 24.7775 104.918 25.1519C104.104 25.5151 103.118 25.589 101.96 25.3737L103.143 28.802C103.502 29.8436 103.802 30.6927 104.043 31.3492C104.283 32.0057 104.463 32.4886 104.584 32.7978C104.403 32.6964 104.236 32.6122 104.081 32.5453C103.926 32.4784 103.764 32.4151 103.594 32.3556C103.436 32.3 103.264 32.2461 103.079 32.1939C102.905 32.1457 102.739 32.1127 102.579 32.0951C102.418 31.5043 102.232 30.8733 102.022 30.2021C101.817 29.5196 101.605 28.8541 101.387 28.2055C101.17 27.557 100.951 26.9464 100.732 26.3737C100.529 25.7937 100.337 25.3068 100.157 24.9131L99.5118 24.6868L98.9996 26.1476C98.7971 26.7252 98.5782 27.3859 98.3427 28.1299C98.1226 28.8666 97.8985 29.6146 97.6704 30.3739C97.5311 30.2996 97.3975 30.2273 97.2696 30.157C97.1377 30.0981 97.0038 30.0448 96.8679 29.9971C96.732 29.9495 96.5941 29.9075 96.4542 29.8712C96.3217 29.8501 96.1722 29.8232 96.0058 29.7902C96.3018 29.0547 96.5882 28.3286 96.8649 27.6118C97.153 26.899 97.4003 26.2481 97.6068 25.6593L98.786 22.296C98.9925 21.7072 99.2058 21.0444 99.4259 20.3078C99.6573 19.5751 99.8871 18.8291 100.115 18.0698Z" fill="white" fill-opacity="0.9"/>
<path d="M118.872 26.3324C119.355 26.6691 119.802 26.9831 120.214 27.2745C120.643 27.5623 121.085 27.8514 121.54 28.142C121.995 28.4325 122.438 28.7084 122.869 28.9694C123.307 29.2204 123.78 29.4939 124.289 29.7901C124.21 29.8682 124.144 29.9395 124.088 30.0038C124.043 30.0746 123.998 30.1454 123.953 30.2162C123.843 30.3882 123.761 30.5496 123.708 30.7004C123.363 30.4376 123.065 30.2122 122.815 30.0241C122.572 29.8259 122.312 29.6313 122.035 29.4404C121.775 29.2458 121.476 29.0337 121.138 28.8041C120.801 28.5744 120.369 28.2917 119.843 27.956C119.575 28.3541 119.337 28.6934 119.129 28.9738C118.932 29.2606 118.733 29.5609 118.533 29.8744L117.289 31.8565C117.643 32.0825 117.962 32.2859 118.245 32.4667C118.545 32.6438 118.84 32.8177 119.129 32.9884C119.419 33.1591 119.717 33.3279 120.023 33.4949C120.34 33.6684 120.689 33.8562 121.073 34.0583C120.952 34.1805 120.837 34.3276 120.727 34.4996C120.617 34.6715 120.536 34.8329 120.482 34.9838C120.377 34.9027 120.207 34.7796 119.97 34.6145C119.741 34.4393 119.462 34.2401 119.135 34.0169C118.824 33.79 118.475 33.5456 118.087 33.2837C117.699 33.0218 117.297 32.7584 116.882 32.4937L115.579 34.5019C115.508 34.6132 115.392 34.7953 115.23 35.0481C115.079 35.3074 114.916 35.5737 114.742 35.8468C114.568 36.1199 114.409 36.3677 114.267 36.5902C114.135 36.8192 114.06 36.9488 114.04 36.9792L114.405 37.2116C115.386 37.838 116.193 38.3246 116.825 38.6715C117.468 39.025 117.947 39.2668 118.263 39.397C118.103 39.5799 117.988 39.727 117.917 39.8383C117.872 39.9091 117.82 39.99 117.762 40.081C117.721 40.1684 117.694 40.2438 117.682 40.3073C117.199 39.9707 116.747 39.6535 116.325 39.3556C115.896 39.0678 115.454 38.7787 114.999 38.4881C114.544 38.1975 114.091 37.9153 113.639 37.6413C113.181 37.3774 112.698 37.0974 112.189 36.8012C112.646 36.153 113.091 35.5117 113.524 34.8773C113.974 34.2392 114.367 33.6572 114.703 33.1312L116.621 30.1271C116.737 29.945 116.863 29.7478 116.999 29.5354C117.141 29.3129 117.297 29.0568 117.468 28.7671C117.645 28.4673 117.846 28.1188 118.071 27.7215C118.306 27.3307 118.573 26.8677 118.872 26.3324Z" fill="white" fill-opacity="0.9"/>
<path d="M139.193 45.0159C138.938 45.1751 138.677 45.3464 138.409 45.5296C138.151 45.7056 137.893 45.8817 137.636 46.0577C137.387 46.2266 137.152 46.3932 136.931 46.5575C136.709 46.7218 136.511 46.8682 136.337 46.9967L133.445 49.1394C133.126 49.3751 132.71 49.6906 132.197 50.0859C131.683 50.4812 131.166 50.9017 130.645 51.3474C130.69 51.4484 130.756 51.5784 130.844 51.7374C130.942 51.8892 131.045 52.059 131.154 52.2468C131.273 52.4276 131.396 52.6131 131.522 52.8035C131.648 52.9938 131.771 53.171 131.893 53.3349C134.093 56.305 136.745 56.6402 139.85 54.3404C140.593 53.7904 141.172 53.2419 141.588 52.6948C142.004 52.1477 142.256 51.5804 142.344 50.9929C142.431 50.4054 142.356 49.7894 142.117 49.1447C141.886 48.5097 141.495 47.821 140.945 47.0784C140.681 46.7216 140.399 46.3707 140.098 46.0257C139.815 45.6832 139.513 45.3466 139.193 45.0159ZM138.917 43.0702C139.184 43.4702 139.439 43.8557 139.684 44.2268C139.946 44.6004 140.202 44.9559 140.452 45.2934C140.73 45.6695 141.011 46.0288 141.295 46.3713C141.595 46.7164 141.878 47.0673 142.142 47.4241C143.349 49.0537 143.846 50.552 143.634 51.9187C143.422 53.2855 142.51 54.5652 140.9 55.7579C140.042 56.3936 139.183 56.806 138.322 56.9952C137.469 57.1941 136.647 57.2132 135.856 57.0524C135.065 56.8916 134.319 56.5704 133.619 56.0885C132.926 55.6164 132.318 55.0283 131.797 54.3243C131.568 54.0158 131.347 53.6868 131.133 53.3375C130.917 53.005 130.684 52.67 130.434 52.3325C130.212 52.0336 129.979 51.7286 129.734 51.4175C129.488 51.1064 129.223 50.788 128.937 50.4623C129.594 50.0198 130.239 49.5797 130.87 49.1419C131.509 48.7137 132.079 48.3139 132.581 47.9425L135.445 45.8213C135.946 45.4499 136.495 45.0212 137.09 44.5352C137.693 44.0588 138.302 43.5705 138.917 43.0702Z" fill="white" fill-opacity="0.9"/>
<path d="M151.338 63.3354C151.531 63.8912 151.71 64.4078 151.872 64.8854C152.051 65.3697 152.239 65.863 152.437 66.3653C152.636 66.8676 152.833 67.3509 153.029 67.8153C153.237 68.2752 153.46 68.7742 153.698 69.3123C153.589 69.3297 153.493 69.3482 153.41 69.3679C153.332 69.3987 153.254 69.4296 153.176 69.4604C152.986 69.5354 152.825 69.6182 152.693 69.709C152.568 69.294 152.459 68.9369 152.367 68.6379C152.286 68.3345 152.189 68.0243 152.077 67.7074C151.981 67.3972 151.863 67.0502 151.724 66.6663C151.585 66.2824 151.402 65.8003 151.172 65.2199C150.721 65.385 150.33 65.5203 149.997 65.6258C149.669 65.7425 149.332 65.8691 148.986 66.0057L146.816 66.8819C146.971 67.2725 147.109 67.6241 147.233 67.9366C147.372 68.2559 147.509 68.5696 147.643 68.8777C147.778 69.1858 147.92 69.4973 148.07 69.8122C148.225 70.1382 148.398 70.4955 148.59 70.8841C148.421 70.9123 148.241 70.9639 148.051 71.0388C147.862 71.1137 147.701 71.1966 147.569 71.2874C147.532 71.1602 147.466 70.9605 147.371 70.6882C147.288 70.4115 147.179 70.0868 147.044 69.714C146.926 69.3481 146.786 68.9452 146.625 68.5055C146.465 68.0658 146.294 67.6172 146.113 67.1596L143.88 68.0221C143.757 68.0705 143.556 68.1499 143.277 68.2601C143.003 68.3814 142.715 68.5016 142.413 68.6206C142.112 68.7396 141.838 68.8475 141.593 68.9445C141.352 69.0526 141.214 69.1133 141.181 69.1265L141.34 69.5283C141.767 70.611 142.135 71.4783 142.444 72.1304C142.758 72.7936 143.004 73.2704 143.183 73.5609C142.947 73.6156 142.767 73.6672 142.645 73.7156C142.567 73.7465 142.477 73.7817 142.377 73.8214C142.292 73.8678 142.226 73.9132 142.179 73.9576C141.985 73.4019 141.805 72.8796 141.638 72.3909C141.459 71.9065 141.271 71.4132 141.073 70.911C140.874 70.4087 140.673 69.9142 140.468 69.4275C140.251 68.9452 140.024 68.4351 139.786 67.897C140.536 67.6396 141.272 67.381 141.995 67.1213C142.734 66.8683 143.394 66.6272 143.974 66.398L147.289 65.089C147.49 65.0097 147.707 64.9238 147.942 64.8312C148.187 64.7343 148.464 64.6185 148.772 64.4839C149.092 64.345 149.459 64.1806 149.874 63.9908C150.294 63.8121 150.782 63.5937 151.338 63.3354Z" fill="white" fill-opacity="0.9"/>
<path d="M156.183 78.0977C156.288 78.9314 156.386 79.7177 156.477 80.4565C156.579 81.1935 156.689 81.9415 156.807 82.7004C156.925 83.4592 157.047 84.2053 157.174 84.9387C157.313 85.682 157.459 86.4609 157.61 87.2754C157.486 87.2583 157.381 87.2502 157.296 87.2513C157.211 87.2523 157.122 87.2602 157.027 87.275C156.861 87.3008 156.682 87.359 156.489 87.4496C156.486 87.1951 156.472 86.9118 156.448 86.5998C156.424 86.2878 156.391 85.959 156.349 85.6133C156.321 85.2776 156.281 84.9378 156.227 84.5939C156.188 84.2601 156.143 83.9331 156.093 83.6129L154.451 83.8318C154.117 83.8715 153.808 83.9136 153.523 83.9578C153.239 84.002 152.972 84.0435 152.723 84.0822L149.13 84.6409C148.561 84.7294 147.911 84.8426 147.179 84.9807C146.45 85.1305 145.643 85.2924 144.759 85.4662C144.757 85.2965 144.757 85.1387 144.758 84.9927C144.75 84.8605 144.735 84.7232 144.713 84.5809C144.69 84.4386 144.662 84.2913 144.626 84.139C144.58 84.0004 144.534 83.8618 144.488 83.7232C145.288 83.6352 146.069 83.5441 146.832 83.4498C147.596 83.3674 148.281 83.2792 148.886 83.1852L152.496 82.6238C152.757 82.5832 153.03 82.5408 153.315 82.4966C153.599 82.4523 153.906 82.3984 154.237 82.335L155.85 82.0477C155.739 81.3363 155.606 80.6344 155.449 79.9422C155.307 79.26 155.178 78.7032 155.062 78.2719C155.273 78.2998 155.467 78.3 155.645 78.2723C155.74 78.2576 155.827 78.2319 155.906 78.1953C155.988 78.1705 156.08 78.138 156.183 78.0977Z" fill="white" fill-opacity="0.9"/>
<path d="M150.894 101.077C150.871 101.291 150.836 101.565 150.788 101.898C150.74 102.231 150.693 102.612 150.647 103.041C150.636 103.149 150.622 103.28 150.605 103.435C150.6 103.592 150.588 103.759 150.569 103.938C150.549 104.129 150.529 104.314 150.51 104.493C150.501 104.685 150.488 104.859 150.472 105.014L155.231 103.515L150.894 101.077ZM157.584 104.365L152.197 105.978C150.028 106.614 148.276 107.144 146.939 107.568C145.614 107.993 144.776 108.271 144.424 108.402C144.477 108.239 144.519 108.08 144.547 107.926C144.574 107.785 144.597 107.63 144.615 107.463C144.633 107.296 144.645 107.128 144.651 106.96C144.644 106.802 144.636 106.651 144.627 106.505C145.329 106.375 146.11 106.187 146.969 105.942C147.84 105.697 148.724 105.442 149.622 105.176C149.686 104.797 149.74 104.41 149.782 104.017C149.824 103.623 149.866 103.235 149.907 102.853C149.947 102.484 149.981 102.107 150.01 101.724C150.038 101.353 150.07 100.994 150.107 100.648C149.526 100.332 149.007 100.053 148.55 99.8112C148.092 99.581 147.68 99.3739 147.313 99.1897C146.945 99.0175 146.612 98.867 146.312 98.7383C146.024 98.6108 145.752 98.4972 145.497 98.3975C145.547 98.27 145.584 98.1533 145.607 98.0472C145.629 97.953 145.646 97.8522 145.658 97.7449C145.669 97.6375 145.675 97.5295 145.675 97.4208C145.674 97.3121 145.662 97.1962 145.639 97.0731C146.411 97.53 147.308 98.0547 148.331 98.6472C149.352 99.2516 150.409 99.8659 151.5 100.49C152.591 101.126 153.664 101.748 154.722 102.356C155.789 102.978 156.755 103.534 157.62 104.025L157.584 104.365Z" fill="white" fill-opacity="0.9"/>
<path d="M154.442 118.335C154.368 118.488 154.299 118.623 154.236 118.742C154.181 118.875 154.131 119.01 154.087 119.148C154.043 119.285 154.005 119.424 153.972 119.564C153.947 119.72 153.924 119.87 153.903 120.015C153.148 119.735 152.411 119.46 151.691 119.192C150.967 118.934 150.313 118.712 149.731 118.525L146.337 117.436C145.754 117.249 145.088 117.048 144.338 116.832C143.596 116.632 142.842 116.428 142.077 116.22C142.159 116.083 142.228 115.947 142.283 115.814C142.338 115.68 142.388 115.545 142.432 115.408C142.476 115.271 142.514 115.132 142.547 114.991C142.576 114.862 142.599 114.711 142.616 114.54C143.359 114.817 144.093 115.084 144.817 115.341C145.537 115.61 146.194 115.84 146.788 116.03L150.182 117.119C150.776 117.31 151.444 117.506 152.186 117.706C152.925 117.918 153.677 118.127 154.442 118.335Z" fill="white" fill-opacity="0.9"/>
<path d="M150.36 129.049C150.262 129.188 150.173 129.31 150.092 129.417C150.015 129.54 149.945 129.665 149.879 129.794C149.814 129.922 149.754 130.053 149.699 130.187C149.649 130.337 149.603 130.481 149.559 130.62C149.142 130.381 148.752 130.155 148.389 129.943C148.031 129.747 147.678 129.553 147.331 129.363C146.994 129.177 146.658 128.992 146.321 128.807C145.979 128.633 145.626 128.453 145.263 128.267C145.006 128.136 144.701 127.981 144.349 127.801C143.996 127.621 143.616 127.428 143.21 127.22C142.809 127.029 142.406 126.83 142 126.623C141.588 126.427 141.2 126.236 140.837 126.05C140.479 125.881 140.161 125.725 139.883 125.584C139.615 125.447 139.418 125.346 139.289 125.281L139.085 125.682C138.823 126.195 138.6 126.647 138.414 127.037C138.228 127.427 138.062 127.78 137.914 128.096C137.778 128.417 137.654 128.711 137.545 128.978C137.446 129.251 137.345 129.529 137.24 129.813C137.155 129.742 137.081 129.677 137.017 129.618C136.947 129.569 136.875 129.526 136.8 129.487C136.661 129.416 136.487 129.361 136.278 129.322C136.447 129.018 136.602 128.74 136.744 128.489C136.885 128.238 137.022 127.997 137.152 127.767C137.267 127.543 137.387 127.321 137.512 127.102C137.626 126.878 137.743 126.648 137.863 126.413C138.114 125.921 138.36 125.427 138.6 124.929C138.824 124.437 139.056 123.929 139.296 123.405C139.986 123.797 140.667 124.179 141.34 124.549C142.008 124.93 142.62 125.262 143.175 125.546L146.35 127.165C146.906 127.449 147.534 127.749 148.235 128.066C148.93 128.393 149.638 128.721 150.36 129.049Z" fill="white" fill-opacity="0.9"/>
<path d="M139.949 145.957C139.589 146.406 139.221 146.75 138.846 146.987C138.48 147.232 138.073 147.405 137.623 147.506C137.529 147.277 137.416 147.064 137.283 146.865C137.143 146.675 136.964 146.447 136.747 146.181L136.882 146.012C138.033 146.381 138.919 146.177 139.542 145.4C139.97 144.866 140.155 144.3 140.098 143.7C140.041 143.1 139.759 142.597 139.254 142.192C139.02 142.004 138.778 141.864 138.529 141.772C138.289 141.688 138.021 141.657 137.725 141.681C137.421 141.715 137.086 141.807 136.718 141.959C136.343 142.119 135.904 142.351 135.399 142.654C134.902 142.948 134.457 143.168 134.063 143.313C133.662 143.468 133.292 143.556 132.952 143.576C132.613 143.597 132.292 143.547 131.988 143.426C131.677 143.315 131.372 143.14 131.072 142.9C130.623 142.539 130.269 142.117 130.011 141.633C129.755 141.166 129.61 140.666 129.577 140.132C129.537 139.607 129.606 139.07 129.784 138.521C129.963 137.972 130.259 137.44 130.672 136.925C131.032 136.476 131.423 136.113 131.845 135.836C132.26 135.569 132.755 135.373 133.33 135.25C133.437 135.443 133.564 135.63 133.712 135.81C133.852 136 134.07 136.236 134.366 136.519L134.231 136.688C133.599 136.535 133.003 136.541 132.44 136.705C131.88 136.886 131.397 137.23 130.991 137.735C130.758 138.026 130.591 138.33 130.49 138.648C130.39 138.984 130.358 139.312 130.393 139.632C130.438 139.96 130.544 140.269 130.712 140.557C130.883 140.863 131.118 141.136 131.417 141.376C131.895 141.759 132.395 141.922 132.918 141.864C133.433 141.816 134.04 141.587 134.737 141.178C135.227 140.893 135.686 140.647 136.116 140.437C136.547 140.245 136.964 140.118 137.367 140.056C137.77 139.995 138.161 140.016 138.539 140.119C138.927 140.23 139.327 140.451 139.739 140.781C140.141 141.104 140.446 141.472 140.654 141.884C140.861 142.297 140.972 142.724 140.987 143.167C141.003 143.626 140.922 144.091 140.744 144.564C140.574 145.043 140.31 145.508 139.949 145.957Z" fill="white" fill-opacity="0.9"/>
<path d="M126.413 93.5807C126.413 120.963 104.215 143.161 76.8327 143.161C49.45 143.161 27.252 120.963 27.252 93.5807C27.252 66.1981 49.45 44 76.8327 44C104.215 44 126.413 66.1981 126.413 93.5807Z" fill="#E9682B"/>
<path fill-rule="evenodd" clip-rule="evenodd" d="M76.8325 83.7842L75.379 85.0467L83.0844 91.941H66.7031V93.7536H83.0844L75.4002 100.629L76.8325 101.91L86.9619 92.8473L76.8325 83.7842Z" fill="white"/>
</svg>
