<svg width="161" height="188" viewBox="0 0 161 188" fill="none" xmlns="http://www.w3.org/2000/svg">
<path d="M21.1102 31.9559C20.8256 31.6806 20.5213 31.4616 20.1971 31.2987C19.8749 31.1294 19.5371 31.0193 19.1839 30.9683C18.8348 30.9151 18.4748 30.9291 18.1038 31.0106C17.7305 31.0879 17.3557 31.2301 16.9791 31.4371C16.3038 31.8085 15.7956 32.3092 15.4544 32.9392C15.1132 33.5692 14.9724 34.297 15.0319 35.1224C15.0932 35.9416 15.3827 36.8218 15.9003 37.7632C16.4224 38.7127 17.0141 39.4348 17.6752 39.9294C18.3363 40.4241 19.0274 40.697 19.7485 40.7482C20.4674 40.7953 21.1788 40.6254 21.8827 40.2383C22.5212 39.8872 23.0062 39.4605 23.3378 38.9584C23.6734 38.454 23.8443 37.907 23.8505 37.3172C23.8544 36.7234 23.6887 36.1216 23.3534 35.5117L23.913 35.308L20.4996 37.185L19.5206 35.4046L24.6222 32.5992L25.4527 34.1095C26.0446 35.1859 26.3274 36.243 26.3012 37.2809C26.2749 38.3188 25.9777 39.2711 25.4096 40.1379C24.8392 41.0005 24.0342 41.7177 22.9946 42.2893C21.8364 42.9263 20.6764 43.2256 19.5147 43.1875C18.3549 43.143 17.265 42.7749 16.2449 42.0831C15.2268 41.3851 14.3531 40.373 13.6239 39.0469C13.0657 38.0319 12.7105 37.0466 12.5581 36.091C12.4098 35.1331 12.4425 34.2329 12.6562 33.3905C12.8677 32.5439 13.2435 31.7829 13.7835 31.1075C14.3214 30.428 15.0016 29.862 15.8242 29.4097C16.52 29.0271 17.225 28.7727 17.9392 28.6465C18.6511 28.5162 19.3427 28.509 20.0141 28.6248C20.6896 28.7385 21.3194 28.9678 21.9036 29.3129C22.4878 29.6579 22.9969 30.1136 23.4308 30.6798L21.1102 31.9559Z" fill="#E9682B"/>
<path d="M35.4809 34.8429L32.0551 20.9093L41.1174 18.6812L41.6376 20.7971L35.0995 22.4046L36.0295 26.1874L42.0983 24.6952L42.6185 26.8111L36.5497 28.3032L37.4848 32.1064L44.0774 30.4855L44.5977 32.6014L35.4809 34.8429Z" fill="#E9682B"/>
<path d="M54.084 22.029L54.0973 19.8501L65.5451 19.9198L65.5319 22.0986L61.0971 22.0717L61.023 34.2411L58.4448 34.2254L58.5189 22.056L54.084 22.029Z" fill="#E9682B"/>
<path d="M99.9496 33.9929L93.4048 46.7619L91.0917 45.5763L97.6364 32.8073L99.9496 33.9929Z" fill="#E9682B"/>
<path d="M120.392 50.1139L110.627 60.6266L108.933 59.0531L110.631 47.2909L110.544 47.2098L103.892 54.3706L101.988 52.6016L111.753 42.0888L113.457 43.6719L111.749 55.4344L111.842 55.5203L118.498 48.3544L120.392 50.1139Z" fill="#E9682B"/>
<path d="M134.056 77.2715L136.165 76.7255L139.034 87.8082L136.925 88.3543L135.814 84.0609L124.032 87.1107L123.386 84.6147L135.167 81.5649L134.056 77.2715Z" fill="#E9682B"/>
<path d="M134.395 112.751C132.849 112.707 131.534 112.379 130.449 111.769C129.368 111.163 128.55 110.355 127.995 109.344C127.439 108.337 127.18 107.206 127.216 105.95C127.252 104.694 127.576 103.577 128.188 102.599C128.804 101.627 129.67 100.866 130.783 100.319C131.902 99.776 133.231 99.5267 134.772 99.5708C136.317 99.615 137.63 99.94 138.711 100.546C139.796 101.156 140.617 101.965 141.172 102.971C141.727 103.982 141.987 105.116 141.951 106.372C141.915 107.628 141.591 108.742 140.979 109.715C140.367 110.693 139.502 111.453 138.383 111.996C137.269 112.544 135.94 112.795 134.395 112.751ZM134.469 110.139C135.557 110.17 136.479 110.026 137.236 109.706C137.998 109.392 138.578 108.941 138.978 108.354C139.383 107.768 139.596 107.085 139.619 106.305C139.641 105.525 139.467 104.831 139.096 104.222C138.731 103.614 138.177 103.128 137.435 102.766C136.697 102.409 135.785 102.214 134.697 102.183C133.609 102.152 132.685 102.294 131.923 102.608C131.167 102.928 130.586 103.381 130.181 103.967C129.781 104.554 129.57 105.237 129.548 106.017C129.525 106.796 129.697 107.491 130.063 108.099C130.433 108.708 130.987 109.191 131.725 109.549C132.467 109.911 133.381 110.108 134.469 110.139Z" fill="#E9682B"/>
<path d="M104.494 104.693C104.494 132.076 82.2955 154.274 54.9128 154.274C27.5301 154.274 5.33203 132.076 5.33203 104.693C5.33203 77.3104 27.5301 55.1123 54.9128 55.1123C82.2955 55.1123 104.494 77.3104 104.494 104.693Z" fill="#E9682B"/>
<path d="M134.803 133.407L134.185 135.932L125.08 133.703C124.081 133.459 123.261 133.008 122.619 132.35C121.976 131.698 121.545 130.895 121.326 129.942C121.112 128.99 121.144 127.948 121.421 126.813C121.7 125.675 122.154 124.733 122.784 123.988C123.418 123.244 124.171 122.731 125.043 122.449C125.915 122.167 126.85 122.148 127.848 122.393L136.954 124.621L136.335 127.146L127.441 124.969C126.86 124.827 126.312 124.827 125.796 124.97C125.279 125.118 124.834 125.394 124.461 125.798C124.093 126.203 123.83 126.725 123.674 127.365C123.517 128.004 123.509 128.589 123.648 129.118C123.791 129.654 124.059 130.104 124.45 130.469C124.842 130.834 125.328 131.088 125.909 131.23L134.803 133.407Z" fill="#E9682B"/>
<path d="M119.358 157.686L120.441 155.3C120.863 155.409 121.266 155.441 121.651 155.395C122.041 155.352 122.403 155.242 122.74 155.066C123.076 154.89 123.376 154.652 123.641 154.352C123.908 154.057 124.132 153.71 124.313 153.311C124.636 152.6 124.743 151.89 124.635 151.179C124.531 150.47 124.207 149.805 123.663 149.184C123.123 148.564 122.362 148.032 121.38 147.586C120.381 147.132 119.468 146.905 118.642 146.905C117.819 146.911 117.109 147.107 116.513 147.493C115.92 147.885 115.463 148.434 115.142 149.14C114.965 149.531 114.85 149.92 114.797 150.307C114.747 150.7 114.763 151.079 114.843 151.443C114.922 151.812 115.068 152.158 115.28 152.48C115.491 152.807 115.772 153.093 116.122 153.339L115.026 155.72C114.445 155.348 113.951 154.89 113.541 154.346C113.13 153.805 112.824 153.202 112.624 152.536C112.427 151.873 112.357 151.169 112.413 150.425C112.473 149.683 112.679 148.922 113.032 148.144C113.554 146.996 114.285 146.091 115.226 145.431C116.167 144.771 117.257 144.409 118.496 144.345C119.735 144.282 121.057 144.569 122.46 145.206C123.868 145.845 124.953 146.653 125.715 147.63C126.481 148.609 126.925 149.669 127.048 150.812C127.17 151.955 126.973 153.097 126.455 154.237C126.125 154.964 125.716 155.594 125.228 156.126C124.74 156.659 124.188 157.08 123.57 157.39C122.957 157.701 122.294 157.885 121.581 157.941C120.87 158.003 120.129 157.918 119.358 157.686Z" fill="#E9682B"/>
<path d="M99.6332 155.646L110.746 164.723L109.102 166.736L104.397 162.893L100.191 168.043L104.896 171.885L103.247 173.904L92.1344 164.827L93.783 162.809L98.5039 166.665L102.71 161.515L97.9889 157.659L99.6332 155.646Z" fill="#E9682B"/>
<path fill-rule="evenodd" clip-rule="evenodd" d="M54.9126 94.8936L53.459 96.1561L61.1645 103.05H44.7832V104.863H61.1645L53.4803 111.738L54.9126 113.02L65.042 103.957L54.9126 94.8936Z" fill="white"/>
<circle cx="79" cy="31.999" r="1" fill="#E9682B"/>
<circle cx="124" cy="67.999" r="1" fill="#E9682B"/>
</svg>
