<svg width="77" height="107" viewBox="0 0 77 107" fill="none" xmlns="http://www.w3.org/2000/svg">
<path d="M50.71 90.1996C50.7118 90.1425 50.7134 90.0837 50.7149 90.0229C50.7247 89.6141 50.7235 89.1489 50.6554 88.7124C50.5887 88.2849 50.4409 87.7662 50.064 87.3478C49.6518 86.8903 49.0857 86.6825 48.4581 86.6825C47.8305 86.6825 47.2645 86.8903 46.8523 87.3478C46.4753 87.7662 46.3276 88.2849 46.2608 88.7124C46.1927 89.1489 46.1915 89.6141 46.2013 90.0229C46.2026 90.0776 46.2041 90.1306 46.2057 90.1822H45.662V49.0996H68.357C70.3694 49.0996 72.2724 48.3507 73.6337 47.0186C78.0947 43.0022 75.9474 35.2598 69.7393 34.2113C68.939 32.3536 67.4938 30.0426 66.9948 29.2771L66.9617 29.2246C65.8704 27.4919 64.7587 25.727 63.8523 23.2974C62.9371 20.844 62.2188 17.6748 62.0086 13.1765L62.0056 13.113L61.9947 13.0505C61.8735 12.3594 61.78 11.7153 61.685 11.0599C61.6068 10.5215 61.5276 9.97536 61.431 9.38923C61.2298 8.16896 60.974 6.93575 60.5435 5.80705C60.11 4.67076 59.4875 3.60739 58.534 2.75394C57.5749 1.89555 56.3379 1.30042 54.7581 1.01584L54.6702 1H54.5808L54.3972 0.999998L54.3953 1L22.3122 1.06034L22.2182 1.06052L22.1259 1.07821C19.6423 1.55412 18.0915 2.78188 17.1092 4.47816C16.1721 6.09642 15.7839 8.09644 15.4507 10.037L15.4475 10.0556L15.445 10.0743L14.9552 13.755L14.9503 13.792L14.9481 13.8293C14.589 20.0523 13.2505 23.6187 11.7316 26.4038C11.1717 27.4305 10.5931 28.3427 10.004 29.2712C9.77429 29.6334 9.54296 29.9981 9.31052 30.3731C8.58584 31.5421 7.87807 32.7704 7.27703 34.2093C1.38225 35.1926 -1.2108 42.4908 3.24397 46.881C4.64584 48.2625 6.54747 49.0996 8.59917 49.0996H15.8036V65.026C14.8462 65.3641 14.0269 65.9056 13.3494 66.5725C9.06183 70.7312 12.1587 77.8213 18.0282 77.8213C25.6218 77.8213 27.0262 67.3 20.2527 65.0206V49.0996H31.3553V90.1822H30.8117C30.8133 90.1306 30.8147 90.0776 30.816 90.0229C30.8259 89.6141 30.8247 89.1489 30.7565 88.7124C30.6898 88.2849 30.542 87.7662 30.1651 87.3478C29.7529 86.8903 29.1869 86.6825 28.5593 86.6825C27.9316 86.6825 27.3656 86.8903 26.9534 87.3478C26.5765 87.7662 26.4287 88.2849 26.362 88.7124C26.2938 89.1489 26.2927 89.6141 26.3025 90.0229C26.3038 90.0776 26.3052 90.1306 26.3068 90.1822H26.2326C18.653 90.1822 12.4361 96.2881 12.4361 103.793C12.4361 105.023 13.4487 106 14.6607 106H62.2955C63.5074 106 64.52 105.023 64.52 103.793C64.52 100.016 62.9977 96.6249 60.4871 94.1507C57.5622 91.2682 54.4974 90.333 50.71 90.1996ZM63.2281 31.6218L63.231 31.6262C63.7756 32.4696 64.2789 33.2641 64.7215 34.0662H12.2928C12.647 33.4167 13.0358 32.7718 13.4436 32.0952C13.5399 31.9354 13.6373 31.7738 13.7355 31.61C14.9306 29.7377 16.2334 27.6726 17.2891 24.841C18.3425 22.0154 19.1368 18.4651 19.3904 13.5904C19.4513 13.2903 19.5145 12.9762 19.5702 12.6544H57.4419L57.564 13.5573C57.8157 18.449 58.6113 22.0091 59.6671 24.841C60.7249 27.6785 62.0311 29.7463 63.2281 31.6218ZM16.4647 72.73L16.4573 72.7229C15.9086 72.1931 15.7508 71.6495 15.7811 71.1702C15.8133 70.663 16.064 70.1399 16.4824 69.7248C16.9003 69.3101 17.4353 69.0536 17.9651 69.018C18.4697 68.984 19.0382 69.144 19.5917 69.6894C20.1466 70.2363 20.3057 70.7912 20.2752 71.275C20.243 71.7849 19.9924 72.3049 19.5763 72.715C19.1606 73.1247 18.6273 73.3771 18.0971 73.4096C17.5911 73.4406 17.02 73.2773 16.4647 72.73ZM56.6171 8.24077H20.4003C20.5844 7.61101 20.8044 7.07992 21.0852 6.64945C21.4855 6.03583 22.0198 5.60825 22.8513 5.41359H54.1661C54.9976 5.60825 55.5319 6.03583 55.9322 6.64945C56.213 7.07992 56.4329 7.61101 56.6171 8.24077ZM26.2326 94.5958H26.266H26.2994H26.3327H26.3661H26.3995H26.4328H26.4662H26.4996H26.533H26.5663H26.5997H26.6331H26.6665H26.6999H26.7332H26.7666H26.8H26.8334H26.8668H26.9002H26.9336H26.967H27.0004H27.0338H27.0672H27.1006H27.134H27.1674H27.2008H27.2342H27.2676H27.301H27.3344H27.3678H27.4012H27.4346H27.468H27.5014H27.5349H27.5683H27.6017H27.6351H27.6685H27.702H27.7354H27.7688H27.8022H27.8357H27.8691H27.9025H27.936H27.9694H28.0028H28.0363H28.0697H28.1031H28.1366H28.17H28.2034H28.2369H28.2703H28.3038H28.3372H28.3707H28.4041H28.4376H28.471H28.5045H28.5379H28.5714H28.6048H28.6383H28.6718H28.7052H28.7387H28.7721H28.8056H28.8391H28.8725H28.906H28.9395H28.9729H29.0064H29.0399H29.0734H29.1068H29.1403H29.1738H29.2073H29.2407H29.2742H29.3077H29.3412H29.3747H29.4081H29.4416H29.4751H29.5086H29.5421H29.5756H29.6091H29.6426H29.6761H29.7096H29.743H29.7765H29.81H29.8435H29.877H29.9105H29.944H29.9775H30.0111H30.0446H30.0781H30.1116H30.1451H30.1786H30.2121H30.2456H30.2791H30.3126H30.3462H30.3797H30.4132H30.4467H30.4802H30.5137H30.5473H30.5808H30.6143H30.6478H30.6814H30.7149H30.7484H30.7819H30.8155H30.849H30.8825H30.9161H30.9496H30.9831H31.0167H31.0502H31.0838H31.1173H31.1508H31.1844H31.2179H31.2515H31.285H31.3185H31.3521H31.3856H31.4192H31.4527H31.4863H31.5198H31.5534H31.5869H31.6205H31.6541H31.6876H31.7212H31.7547H31.7883H31.8218H31.8554H31.889H31.9225H31.9561H31.9897H32.0232H32.0568H32.0903H32.1239H32.1575H32.1911H32.2246H32.2582H32.2918H32.3253H32.3589H32.3925H32.4261H32.4596H32.4932H32.5268H32.5604H32.594H32.6275H32.6611H32.6947H32.7283H32.7619H32.7955H32.8291H32.8626H32.8962H32.9298H32.9634H32.997H33.0306H33.0642H33.0978H33.1314H33.165H33.1986H33.2322H33.2658H33.2994H33.333H33.3666H33.4002H33.4338H33.4674H33.501H33.5346H33.5682H33.6018H33.6354H33.669H33.7026H33.7362H33.7698H33.8034H33.837H33.8706H33.9043H33.9379H33.9715H34.0051H34.0387H34.0723H34.106H34.1396H34.1732H34.2068H34.2404H34.2741H34.3077H34.3413H34.3749H34.4085H34.4422H34.4758H34.5094H34.543H34.5767H34.6103H34.6439H34.6776H34.7112H34.7448H34.7785H34.8121H34.8457H34.8794H34.913H34.9466H34.9803H35.0139H35.0475H35.0812H35.1148H35.1485H35.1821H35.2157H35.2494H35.283H35.3167H35.3503H35.384H35.4176H35.4512H35.4849H35.5185H35.5522H35.5858H35.6195H35.6531H35.6868H35.7204H35.7541H35.7877H35.8214H35.855H35.8887H35.9224H35.956H35.9897H36.0233H36.057H36.0906H36.1243H36.158H36.1916H36.2253H36.2589H36.2926H36.3263H36.3599H36.3936H36.4272H36.4609H36.4946H36.5282H36.5619H36.5956H36.6292H36.6629H36.6966H36.7302H36.7639H36.7976H36.8312H36.8649H36.8986H36.9323H36.9659H36.9996H37.0333H37.0669H37.1006H37.1343H37.168H37.2016H37.2353H37.269H37.3027H37.3364H37.37H37.4037H37.4374H37.4711H37.5048H37.5384H37.5721H37.6058H37.6395H37.6732H37.7068H37.7405H37.7742H37.8079H37.8416H37.8753H37.909H37.9426H37.9763H38.01H38.0437H38.0774H38.1111H38.1448H38.1785H38.2121H38.2458H38.2795H38.3132H38.3469H38.3806H38.4143H38.448H38.4817H38.5154H38.5491H38.5828H38.6165H38.6501H38.6838H38.7175H38.7512H38.7849H38.8186H38.8523H38.886H38.9197H38.9534H38.9871H39.0208H39.0545H39.0882H39.1219H39.1556H39.1893H39.223H39.2567H39.2904H39.3241H39.3578H39.3915H39.4252H39.4589H39.4926H39.5263H39.5601H39.5938H39.6275H39.6612H39.6949H39.7286H39.7623H39.796H39.8297H39.8634H39.8971H39.9308H39.9645H39.9982H40.0319H40.0657H40.0994H40.1331H40.1668H40.2005H40.2342H40.2679H40.3016H40.3353H40.369H40.4028H40.4365H40.4702H40.5039H40.5376H40.5713H40.605H40.6387H40.6725H40.7062H40.7399H40.7736H40.8073H40.841H40.8747H40.9085H40.9422H40.9759H41.0096H41.0433H41.077H41.1108H41.1445H41.1782H41.2119H41.2456H41.2793H41.3131H41.3468H41.3805H41.4142H41.4479H41.4816H41.5154H41.5491H41.5828H41.6165H41.6502H41.684H41.7177H41.7514H41.7851H41.8188H41.8526H41.8863H41.92H41.9537H41.9874H42.0212H42.0549H42.0886H42.1223H42.156H42.1898H42.2235H42.2572H42.2909H42.3246H42.3584H42.3921H42.4258H42.4595H42.4933H42.527H42.5607H42.5944H42.6281H42.6619H42.6956H42.7293H42.763H42.7967H42.8305H42.8642H42.8979H42.9316H42.9654H42.9991H43.0328H43.0665H43.1003H43.134H43.1677H43.2014H43.2351H43.2689H43.3026H43.3363H43.37H43.4038H43.4375H50.7848C55.0947 94.5958 58.7965 97.5764 59.8088 101.586H17.2086C18.2209 97.5764 21.9227 94.5958 26.2326 94.5958ZM35.8044 90.1822V49.0996H41.2129V90.1822H35.8044ZM8.59917 38.4798H8.71613H8.83308H8.95003H9.06698H9.18392H9.30087H9.41781H9.53476H9.6517H9.76864H9.88558H10.0025H10.1195H10.2364H10.3533H10.4703H10.5872H10.7041H10.821H10.938H11.0549H11.1718H11.2887H11.4057H11.5226H11.6395H11.7564H11.8733H11.9903H12.1072H12.2241H12.341H12.4579H12.5748H12.6917H12.8086H12.9255H13.0424H13.1593H13.2762H13.3931H13.51H13.6269H13.7438H13.8607H13.9776H14.0945H14.2114H14.3283H14.4452H14.562H14.6789H14.7958H14.9127H15.0296H15.1465H15.2633H15.3802H15.4971H15.614H15.7308H15.8477H15.9646H16.0815H16.1983H16.3152H16.4321H16.5489H16.6658H16.7826H16.8995H17.0164H17.1332H17.2501H17.3669H17.4838H17.6007H17.7175H17.8344H17.9512H18.0681H18.1849H18.3018H18.4186H18.5354H18.6523H18.7691H18.886H19.0028H19.1197H19.2365H19.3533H19.4702H19.587H19.7038H19.8207H19.9375H20.0543H20.1712H20.288H20.4048H20.5216H20.6385H20.7553H20.8721H20.9889H21.1057H21.2226H21.3394H21.4562H21.573H21.6898H21.8066H21.9235H22.0403H22.1571H22.2739H22.3907H22.5075H22.6243H22.7411H22.8579H22.9747H23.0915H23.2083H23.3251H23.4419H23.5587H23.6755H23.7923H23.9091H24.0259H24.1427H24.2595H24.3763H24.4931H24.6098H24.7266H24.8434H24.9602H25.077H25.1938H25.3105H25.4273H25.5441H25.6609H25.7777H25.8944H26.0112H26.128H26.2448H26.3615H26.4783H26.5951H26.7119H26.8286H26.9454H27.0622H27.1789H27.2957H27.4124H27.5292H27.646H27.7627H27.8795H27.9963H28.113H28.2298H28.3465H28.4633H28.58H28.6968H28.8135H28.9303H29.047H29.1638H29.2805H29.3973H29.514H29.6308H29.7475H29.8643H29.981H30.0978H30.2145H30.3312H30.448H30.5647H30.6815H30.7982H30.9149H31.0317H31.1484H31.2651H31.3819H31.4986H31.6153H31.7321H31.8488H31.9655H32.0822H32.199H32.3157H32.4324H32.5492H32.6659H32.7826H32.8993H33.016H33.1328H33.2495H33.3662H33.4829H33.5996H33.7163H33.8331H33.9498H34.0665H34.1832H34.2999H34.4166H34.5333H34.65H34.7668H34.8835H35.0002H35.1169H35.2336H35.3503H35.467H35.5837H35.7004H35.8171H35.9338H36.0505H36.1672H36.2839H36.4006H36.5173H36.634H36.7507H36.8674H36.9841H37.1008H37.2175H37.3342H37.4508H37.5675H37.6842H37.8009H37.9176H38.0343H38.151H38.2677H38.3843H38.501H38.6177H38.7344H38.8511H38.9678H39.0844H39.2011H39.3178H39.4345H39.5512H39.6678H39.7845H39.9012H40.0179H40.1346H40.2512H40.3679H40.4846H40.6012H40.7179H40.8346H40.9513H41.0679H41.1846H41.3013H41.4179H41.5346H41.6513H41.7679H41.8846H42.0013H42.1179H42.2346H42.3513H42.4679H42.5846H42.7012H42.8179H42.9346H43.0512H43.1679H43.2845H43.4012H43.5179H43.6345H43.7512H43.8678H43.9845H44.1011H44.2178H44.3344H44.4511H44.5677H44.6844H44.8011H44.9177H45.0344H45.151H45.2677H45.3843H45.5009H45.6176H45.7342H45.8509H45.9675H46.0842H46.2008H46.3175H46.4341H46.5508H46.6674H46.784H46.9007H47.0173H47.134H47.2506H47.3672H47.4839H47.6005H47.7172H47.8338H47.9504H48.0671H48.1837H48.3003H48.417H48.5336H48.6502H48.7669H48.8835H49.0001H49.1168H49.2334H49.35H49.4667H49.5833H49.6999H49.8166H49.9332H50.0498H50.1664H50.2831H50.3997H50.5163H50.633H50.7496H50.8662H50.9828H51.0995H51.2161H51.3327H51.4493H51.566H51.6826H51.7992H51.9158H52.0324H52.1491H52.2657H52.3823H52.4989H52.6155H52.7322H52.8488H52.9654H53.082H53.1986H53.3153H53.4319H53.5485H53.6651H53.7817H53.8983H54.015H54.1316H54.2482H54.3648H54.4814H54.598H54.7146H54.8313H54.9479H55.0645H55.1811H55.2977H55.4143H55.5309H55.6475H55.7642H55.8808H55.9974H56.114H56.2306H56.3472H56.4638H56.5804H56.697H56.8136H56.9303H57.0469H57.1635H57.2801H57.3967H57.5133H57.6299H57.7465H57.8631H57.9797H58.0963H58.2129H58.3295H58.4461H58.5627H58.6793H58.7959H58.9126H59.0292H59.1458H59.2624H59.379H59.4956H59.6122H59.7288H59.8454H59.962H60.0786H60.1952H60.3118H60.4284H60.545H60.6616H60.7782H60.8948H61.0114H61.128H61.2446H61.3612H61.4778H61.5944H61.711H61.8276H61.9442H62.0608H62.1774H62.294H62.4106H62.5272H62.6438H62.7604H62.877H62.9936H63.1102H63.2268H63.3434H63.46H63.5766H63.6932H63.8098H63.9263H64.0429H64.1595H64.2761H64.3927H64.5093H64.6259H64.7425H64.8591H64.9757H65.0923H65.2089H65.3255H65.4421H65.5587H65.6753H65.7919H65.9085H66.0251H66.1417H66.2583H66.3749H66.4915H66.6081H66.7246H66.8412H66.9578H67.0744H67.191H67.3076H67.4242H67.5408H67.6574H67.774H67.8906H68.0072H68.1238H68.2404H68.357C69.24 38.4798 70.0334 38.8464 70.594 39.3988C72.5595 41.3359 71.1788 44.686 68.357 44.686H8.59917C7.75905 44.686 6.97054 44.3665 6.36219 43.767C4.40797 41.8411 5.82253 38.4798 8.59917 38.4798Z" stroke="url(#paint0_linear_729_18903)" stroke-width="2"/>
<defs>
<linearGradient id="paint0_linear_729_18903" x1="38.5" y1="2" x2="38.5" y2="105" gradientUnits="userSpaceOnUse">
<stop stop-color="#E9682B"/>
<stop offset="1" stop-color="#2D6462"/>
</linearGradient>
</defs>
</svg>
