<svg width="107" height="107" viewBox="0 0 107 107" fill="none" xmlns="http://www.w3.org/2000/svg">
<path d="M105.433 97.5962H102.82V93.939C102.812 92.4953 102.347 91.0912 101.492 89.9276C100.638 88.7639 99.437 87.9004 98.0619 87.4605C97.4237 85.6683 96.2824 84.0981 94.7746 82.938V38.7169L100.71 42.5873C100.965 42.7536 101.262 42.8422 101.567 42.8422C101.827 42.8428 102.084 42.7773 102.313 42.6521C102.561 42.5177 102.768 42.3188 102.913 42.0764C103.057 41.834 103.134 41.5571 103.134 41.2749V32.9155C103.134 32.6549 103.069 32.3984 102.945 32.1693C102.821 31.9401 102.642 31.7455 102.423 31.603L54.3569 0.255341C54.1022 0.0887341 53.8044 0 53.5001 0C53.1957 0 52.898 0.0887341 52.6432 0.255341L4.57677 31.603C4.35856 31.7455 4.17932 31.9401 4.05526 32.1693C3.9312 32.3984 3.86622 32.6549 3.86622 32.9155V41.2749C3.86622 41.5573 3.94253 41.8344 4.08708 42.0771C4.23162 42.3197 4.43904 42.5187 4.68739 42.6532C4.93574 42.7876 5.21581 42.8525 5.49799 42.8409C5.78016 42.8293 6.05396 42.7417 6.29044 42.5873L12.2256 38.7169V82.936C10.7178 84.096 9.57645 85.6662 8.93828 87.4584C7.56282 87.8984 6.36181 88.7623 5.50709 89.9263C4.65237 91.0903 4.18774 92.4949 4.17969 93.939V97.5962H1.56739C1.15169 97.5962 0.753018 97.7614 0.459077 98.0553C0.165135 98.3493 0 98.7479 0 99.1636L0 105.433C0 105.849 0.165135 106.248 0.459077 106.541C0.753018 106.835 1.15169 107.001 1.56739 107.001H105.433C105.848 107.001 106.247 106.835 106.541 106.541C106.835 106.248 107 105.849 107 105.433V99.1636C107 98.7479 106.835 98.3493 106.541 98.0553C106.247 97.7614 105.848 97.5962 105.433 97.5962ZM96.5865 90.3236C97.4479 90.4608 98.2324 90.8998 98.8001 91.562C99.3678 92.2243 99.6817 93.0667 99.6857 93.939V97.5962H73.5626V93.939C73.5583 93.0283 73.8958 92.149 74.5083 91.475C75.1208 90.8009 75.9638 90.3811 76.8708 90.2985C77.1212 90.2747 77.3622 90.1911 77.5735 90.0547C77.7848 89.9183 77.9603 89.7332 78.085 89.5148C78.3136 89.1142 78.6438 88.781 79.0423 88.5487C79.4407 88.3165 79.8934 88.1934 80.3546 88.1919C80.5748 88.1934 80.7939 88.2229 81.0067 88.2797C81.3429 88.3658 81.6981 88.3381 82.0169 88.2008C82.3357 88.0636 82.5999 87.8245 82.7684 87.5211C83.4269 86.3255 84.4304 85.3561 85.648 84.7392C86.8656 84.1223 88.2408 83.8866 89.5943 84.0628C90.9478 84.239 92.2169 84.8189 93.236 85.7269C94.2551 86.6349 94.9769 87.8289 95.3075 89.1533C95.3814 89.4528 95.5423 89.7237 95.7699 89.932C95.9975 90.1402 96.2816 90.2765 96.5865 90.3236ZM7.00099 33.7639L53.5001 3.43818L99.9992 33.7639V38.3804L54.3569 8.61473C54.1021 8.44838 53.8044 8.35979 53.5001 8.35979C53.1958 8.35979 52.8981 8.44838 52.6432 8.61473L7.00099 38.3804V33.7639ZM15.3604 36.673L53.5001 11.7976L91.6398 36.6667V81.3163C89.6423 80.7014 87.5018 80.7319 85.5227 81.4035C83.5436 82.0751 81.8265 83.3536 80.6159 85.0572C79.6945 85.0155 78.7766 85.1965 77.94 85.5846C77.1033 85.9727 76.3725 86.5567 75.8092 87.287C74.2823 87.6044 72.9123 88.4402 71.9314 89.6526C70.9506 90.8651 70.4193 92.3795 70.4278 93.939V97.5962H65.5167V74.0855C65.5145 72.5619 64.9083 71.1014 63.831 70.0241C62.7537 68.9468 61.2932 68.3406 59.7696 68.3384H47.2305C45.707 68.3406 44.2465 68.9468 43.1692 70.0241C42.0919 71.1014 41.4857 72.5619 41.4835 74.0855V97.5962H36.5723V93.939C36.5795 92.3809 36.0479 90.8682 35.0676 89.6571C34.0873 88.4459 32.7185 87.6109 31.1931 87.2933C30.6296 86.5632 29.8987 85.9795 29.062 85.5914C28.2254 85.2032 27.3077 85.0222 26.3864 85.0634C25.1764 83.3583 23.4594 82.0783 21.4798 81.4055C19.5002 80.7327 17.3588 80.7015 15.3604 81.3163V36.673ZM62.3819 97.5962H44.6182V74.0855C44.6193 73.393 44.8949 72.7292 45.3846 72.2395C45.8742 71.7498 46.5381 71.4743 47.2305 71.4732H59.7696C60.4621 71.4743 61.1259 71.7498 61.6156 72.2395C62.1053 72.7292 62.3808 73.393 62.3819 74.0855V97.5962ZM7.31446 93.939C7.31846 93.0667 7.63233 92.2243 8.20003 91.562C8.76772 90.8998 9.55231 90.4608 10.4137 90.3236C10.7205 90.2784 11.0069 90.143 11.2365 89.9346C11.4661 89.7262 11.6285 89.4542 11.7031 89.1533C12.0337 87.8289 12.7555 86.6349 13.7746 85.7269C14.7937 84.8189 16.0628 84.239 17.4163 84.0628C18.7698 83.8866 20.145 84.1223 21.3626 84.7392C22.5802 85.3561 23.5837 86.3255 24.2422 87.5211C24.4104 87.8248 24.6747 88.064 24.9935 88.2013C25.3124 88.3386 25.6678 88.3662 26.004 88.2797C26.2167 88.2229 26.4358 88.1934 26.656 88.1919C27.1172 88.1934 27.5699 88.3165 27.9683 88.5487C28.3668 88.781 28.697 89.1142 28.9256 89.5148C29.0504 89.7332 29.2258 89.9183 29.4371 90.0547C29.6484 90.1911 29.8894 90.2747 30.1398 90.2985C31.0449 90.3836 31.8854 90.8045 32.4957 91.4782C33.1061 92.152 33.4421 93.0299 33.4376 93.939V97.5962H7.31446V93.939ZM103.865 103.866H3.13477V100.731H103.865V103.866Z" fill="url(#paint0_linear_729_18849)"/>
<path d="M53.501 61.7105C57.3243 61.7105 61.0618 60.5768 64.2408 58.4526C67.4198 56.3285 69.8975 53.3094 71.3606 49.7771C72.8237 46.2448 73.2065 42.358 72.4606 38.6081C71.7148 34.8583 69.8736 31.4138 67.1701 28.7103C64.4666 26.0068 61.0222 24.1657 57.2723 23.4198C53.5225 22.6739 49.6356 23.0567 46.1033 24.5198C42.571 25.983 39.5519 28.4607 37.4278 31.6397C35.3037 34.8186 34.1699 38.5561 34.1699 42.3794C34.176 47.5045 36.2146 52.4179 39.8386 56.0419C43.4625 59.6658 48.376 61.7044 53.501 61.7105ZM53.501 26.1831C56.7043 26.1831 59.8357 27.133 62.4992 28.9127C65.1627 30.6924 67.2386 33.2219 68.4645 36.1814C69.6903 39.1409 70.0111 42.3974 69.3861 45.5392C68.7612 48.681 67.2186 51.5669 64.9535 53.832C62.6884 56.0971 59.8025 57.6396 56.6608 58.2645C53.519 58.8895 50.2624 58.5687 47.3029 57.3429C44.3435 56.117 41.8139 54.0411 40.0343 51.3776C38.2546 48.7142 37.3047 45.5828 37.3047 42.3794C37.3097 38.0854 39.0177 33.9687 42.054 30.9324C45.0903 27.8961 49.207 26.1881 53.501 26.1831Z" fill="url(#paint1_linear_729_18849)"/>
<path d="M43.1247 40.6981C43.286 40.8258 43.4709 40.9206 43.6689 40.9768C43.8668 41.0331 44.0739 41.0497 44.2783 41.0259C44.4827 41.002 44.6804 40.938 44.8601 40.8377C45.0397 40.7373 45.1978 40.6025 45.3253 40.441C47.5343 37.649 50.4371 36.1108 53.5008 36.1108C56.5645 36.1108 59.4673 37.649 61.6763 40.441C61.9387 40.7526 62.312 40.9498 62.7173 40.9909C63.1226 41.0319 63.528 40.9135 63.8475 40.6609C64.167 40.4082 64.3756 40.041 64.4291 39.6372C64.4825 39.2334 64.3767 38.8246 64.1339 38.4975C61.3189 34.9447 57.5426 32.9761 53.5008 32.9761C49.459 32.9761 45.6827 34.9364 42.8677 38.4975C42.7399 38.6588 42.6451 38.8437 42.5889 39.0416C42.5327 39.2396 42.516 39.4467 42.5399 39.6511C42.5637 39.8555 42.6277 40.0531 42.728 40.2328C42.8284 40.4124 42.9632 40.5706 43.1247 40.6981Z" fill="url(#paint2_linear_729_18849)"/>
<path d="M53.5006 40.8135C51.2352 40.8135 49.1286 41.8981 47.5696 43.8709C47.4344 44.0315 47.3328 44.2175 47.2709 44.4181C47.209 44.6186 47.188 44.8296 47.2091 45.0384C47.2303 45.2472 47.2932 45.4496 47.394 45.6337C47.4949 45.8178 47.6317 45.9797 47.7963 46.1099C47.9609 46.2401 48.15 46.3359 48.3524 46.3916C48.5548 46.4473 48.7662 46.4619 48.9743 46.4343C49.1824 46.4067 49.3828 46.3377 49.5637 46.2312C49.7445 46.1247 49.9022 45.983 50.0273 45.8145C50.9802 44.6107 52.2132 43.9482 53.5006 43.9482C54.7879 43.9482 56.0209 44.6107 56.9739 45.8145C57.099 45.983 57.2566 46.1247 57.4375 46.2312C57.6184 46.3377 57.8188 46.4067 58.0269 46.4343C58.2349 46.4619 58.4464 46.4473 58.6488 46.3916C58.8511 46.3359 59.0402 46.2401 59.2049 46.1099C59.3695 45.9797 59.5063 45.8178 59.6071 45.6337C59.708 45.4496 59.7709 45.2472 59.792 45.0384C59.8132 44.8296 59.7922 44.6186 59.7302 44.4181C59.6683 44.2175 59.5668 44.0315 59.4316 43.8709C57.8725 41.8981 55.766 40.8135 53.5006 40.8135ZM54.0878 48.6504H52.9133C52.4976 48.6504 52.099 48.8155 51.805 49.1095C51.5111 49.4034 51.346 49.8021 51.346 50.2178C51.346 50.6335 51.5111 51.0322 51.805 51.3261C52.099 51.62 52.4976 51.7852 52.9133 51.7852H54.0878C54.5035 51.7852 54.9022 51.62 55.1961 51.3261C55.4901 51.0322 55.6552 50.6335 55.6552 50.2178C55.6552 49.8021 55.4901 49.4034 55.1961 49.1095C54.9022 48.8155 54.5035 48.6504 54.0878 48.6504ZM57.6803 81.9229C57.2646 81.9229 56.8659 82.088 56.572 82.3819C56.278 82.6759 56.1129 83.0745 56.1129 83.4902V85.5801C56.1129 85.9958 56.278 86.3945 56.572 86.6884C56.8659 86.9823 57.2646 87.1475 57.6803 87.1475C58.096 87.1475 58.4946 86.9823 58.7886 86.6884C59.0825 86.3945 59.2477 85.9958 59.2477 85.5801V83.4902C59.2477 83.0745 59.0825 82.6759 58.7886 82.3819C58.4946 82.088 58.096 81.9229 57.6803 81.9229Z" fill="url(#paint3_linear_729_18849)"/>
<defs>
<linearGradient id="paint0_linear_729_18849" x1="53.5001" y1="0" x2="53.5001" y2="107.001" gradientUnits="userSpaceOnUse">
<stop stop-color="#E9682B"/>
<stop offset="1" stop-color="#2D6462"/>
</linearGradient>
<linearGradient id="paint1_linear_729_18849" x1="53.501" y1="23.0483" x2="53.501" y2="61.7105" gradientUnits="userSpaceOnUse">
<stop stop-color="#E9682B"/>
<stop offset="1" stop-color="#2D6462"/>
</linearGradient>
<linearGradient id="paint2_linear_729_18849" x1="53.486" y1="32.9761" x2="53.486" y2="41.0364" gradientUnits="userSpaceOnUse">
<stop stop-color="#E9682B"/>
<stop offset="1" stop-color="#2D6462"/>
</linearGradient>
<linearGradient id="paint3_linear_729_18849" x1="53.5006" y1="40.8135" x2="53.5006" y2="87.1475" gradientUnits="userSpaceOnUse">
<stop stop-color="#E9682B"/>
<stop offset="1" stop-color="#2D6462"/>
</linearGradient>
</defs>
</svg>
