<svg width="38" height="50" viewBox="0 0 38 50" fill="none" xmlns="http://www.w3.org/2000/svg">
<path d="M11.286 43.6387L26.12 43.6447M24.179 43.6447C24.179 39.2837 26.312 35.2777 29.723 32.5597C34.087 29.0827 36.771 23.5877 36.366 17.4937C35.776 8.62672 28.426 1.43272 19.549 1.01972C9.387 0.546716 1 8.64571 1 18.7027C1 24.3837 3.679 29.4457 7.844 32.6867C11.229 35.3207 13.227 39.3507 13.227 43.6387L24.179 43.6447Z" stroke="white" stroke-width="2" stroke-miterlimit="10" stroke-linecap="round" stroke-linejoin="round"/>
<path d="M11.299 20.1067L16.3079 25.1157L27.2859 14.1377M24.0609 43.6417C24.0609 45.0627 23.4964 46.4256 22.4916 47.4304C21.4868 48.4352 20.124 48.9997 18.7029 48.9997C17.2819 48.9997 15.9191 48.4352 14.9143 47.4304C13.9095 46.4256 13.3449 45.0627 13.3449 43.6417" stroke="white" stroke-width="2" stroke-miterlimit="10" stroke-linecap="round" stroke-linejoin="round"/>
<path d="M11.286 43.6387L26.12 43.6447M24.179 43.6447C24.179 39.2837 26.312 35.2777 29.723 32.5597C34.087 29.0827 36.771 23.5877 36.366 17.4937C35.776 8.62672 28.426 1.43272 19.549 1.01972C9.387 0.546716 1 8.64571 1 18.7027C1 24.3837 3.679 29.4457 7.844 32.6867C11.229 35.3207 13.227 39.3507 13.227 43.6387L24.179 43.6447Z" stroke="white" stroke-width="2" stroke-miterlimit="10" stroke-linecap="round" stroke-linejoin="round"/>
<path d="M11.299 20.1067L16.3079 25.1157L27.2859 14.1377M24.0609 43.6417C24.0609 45.0627 23.4964 46.4256 22.4916 47.4304C21.4868 48.4352 20.124 48.9997 18.7029 48.9997C17.2819 48.9997 15.9191 48.4352 14.9143 47.4304C13.9095 46.4256 13.3449 45.0627 13.3449 43.6417" stroke="white" stroke-width="2" stroke-miterlimit="10" stroke-linecap="round" stroke-linejoin="round"/>
</svg>
