<svg width="46" height="43" viewBox="0 0 46 43" fill="none" xmlns="http://www.w3.org/2000/svg">
<path d="M21.9568 25.1834C21.9342 25.2033 21.9118 25.2231 21.8897 25.2426C21.8726 25.2578 21.8556 25.2728 21.8389 25.2876C21.6668 25.4399 21.5151 25.5741 21.3618 25.6957C21.1392 25.8723 20.9277 26.0101 20.6907 26.105C20.2522 25.3243 19.7003 24.7958 18.9777 24.7156C18.1707 24.6259 17.3972 25.1307 16.6814 25.8464C16.5558 25.9721 16.3839 26.0661 16.1391 26.1551C16.017 26.1995 15.8859 26.2396 15.7391 26.2833C15.7207 26.2888 15.702 26.2944 15.683 26.3C15.5608 26.3363 15.4283 26.3756 15.2955 26.4195C14.7063 26.5663 14.1107 26.69 13.5034 26.8162C13.1984 26.8796 12.8903 26.9436 12.5786 27.0114C11.6534 27.2128 10.7175 27.4442 9.83142 27.783C8.04436 28.4663 6.45041 29.5921 5.48291 31.7859C5.3952 31.9553 5.24293 32.0907 5.00146 32.2272C4.87815 32.2969 4.74207 32.3612 4.58903 32.4308C4.5606 32.4437 4.53132 32.4569 4.50142 32.4704C4.3777 32.5262 4.24334 32.5869 4.11451 32.6512C2.65612 33.3555 1.65878 34.0095 1.09037 34.986C0.522371 35.9618 0.43525 37.1694 0.535906 38.8302L0.564376 39.3H1.03499H27.735H28.5324L28.1851 38.5822C27.8785 37.9487 27.6152 37.3035 27.3494 36.6521C27.2974 36.5247 27.2453 36.3971 27.1928 36.2693C26.8752 35.4964 26.5428 34.7198 26.1314 34.0015C25.4108 32.7433 24.4417 31.6549 22.8684 30.9982C23.0425 30.7726 23.1544 30.5368 23.1956 30.2856C23.2762 29.7941 23.062 29.3904 22.8557 29.0988C22.7508 28.9505 22.6317 28.809 22.5269 28.6849L22.515 28.6708C22.4101 28.5468 22.319 28.4389 22.2398 28.3309C22.1465 28.2037 22.0904 28.1029 22.0604 28.0187C23.5371 26.8282 24.9922 25.6593 26.4477 24.4902L26.4481 24.4898L26.4491 24.489C27.8886 23.3327 29.3285 22.176 30.7896 20.9983C30.9228 21.0788 31.0166 21.1525 31.0837 21.2293C31.145 21.2993 31.1944 21.3836 31.2187 21.5102C30.3865 22.3529 29.5885 23.2387 28.8129 24.0996C28.426 24.529 28.0448 24.9523 27.6676 25.3609L27.6675 25.3608L27.6601 25.3692C26.8538 26.2829 26.3993 27.2534 26.2998 28.2766C26.2007 29.2967 26.4592 30.3195 26.9925 31.3329L26.9938 31.3353C27.7953 32.8381 28.6216 34.3404 29.446 35.8394L29.4469 35.841C30.2721 37.3414 31.0956 38.8386 31.8938 40.3353L31.8972 40.3417L31.9009 40.3481C32.3082 41.061 32.8158 41.7682 33.4956 42.1389C33.8477 42.331 34.2432 42.4315 34.6789 42.3986C35.1091 42.3661 35.5483 42.206 35.9985 41.9249C36.7646 41.453 37.208 40.7777 37.3177 39.9943C37.4243 39.2324 37.2082 38.4251 36.7761 37.6643L33.1858 30.4835C32.8952 29.8528 32.7123 29.2906 32.7224 28.785C32.7319 28.3114 32.9114 27.8442 33.458 27.3817L33.4648 27.3759L33.4713 27.37C34.2889 26.6267 35.1572 26.0014 36.1972 25.2523C36.3054 25.1743 36.4155 25.095 36.5276 25.0141C36.5939 25.6019 36.6651 26.152 36.7331 26.6771C36.7478 26.7904 36.7623 26.9026 36.7766 27.0138C36.889 27.8882 36.987 28.6982 37.0359 29.5294L37.0363 29.5367L37.0369 29.5439C37.2711 32.1976 38.1054 34.7479 38.9243 37.2507C39.1749 38.0169 39.4241 38.7786 39.6542 39.5375C39.9032 40.4584 40.6557 41.1966 41.5148 41.5076C42.3985 41.8276 43.4548 41.7109 44.2137 40.8265C45.0097 39.9073 45.0376 38.744 44.8519 37.7231C44.7027 36.9022 44.3966 36.0832 44.1598 35.4493C44.1036 35.2989 44.0513 35.1589 44.0059 35.0318L44 35.0155L43.9931 34.9996C42.6369 31.8997 42.341 28.697 42.8295 25.2738C43.321 22.1252 43.1703 18.9049 40.3541 16.4639C41.7549 13.4911 42.339 11.2297 42.8253 8.79806L42.8272 8.78856L42.8287 8.779C43.0506 7.39213 42.692 6.28765 41.8467 5.51783C41.03 4.77407 39.8269 4.40569 38.474 4.30152C37.1621 4.19668 35.9134 4.35512 34.7195 4.54362C34.4981 4.57857 34.2793 4.61441 34.0624 4.64993C33.0975 4.80796 32.1707 4.95976 31.2244 5C29.5845 5.00089 27.9963 5.2073 26.3997 6.05882L26.1938 6.16864L26.1457 6.397C25.7785 8.14115 24.5826 9.61322 23.0221 10.3476L22.9431 10.3847L22.8814 10.4464C22.7206 10.6073 22.6726 10.8081 22.6543 10.9178C22.6389 11.0099 22.6358 11.0979 22.6351 11.1554C22.4011 12.4854 22.1993 13.7996 21.9994 15.1018C21.684 17.1559 21.3732 19.1799 20.9477 21.1876C20.7449 22.0013 20.6181 22.8533 20.8272 23.63C20.993 24.2459 21.3565 24.7699 21.9568 25.1834ZM25.535 5.3C25.535 2.62386 23.4111 0.5 20.735 0.5C18.0513 0.5 15.935 2.73143 15.935 5.3C15.935 7.97614 18.0588 10.1 20.735 10.1C23.4111 10.1 25.535 7.97614 25.535 5.3Z" stroke="black"/>
</svg>
