<svg width="107" height="107" viewBox="0 0 107 107" fill="none" xmlns="http://www.w3.org/2000/svg">
<path d="M27.8933 15.9424C26.9544 15.9424 26.1934 16.9505 26.1934 18.1941V29.6437C26.1934 30.8873 26.9544 31.8954 27.8933 31.8954C28.8322 31.8954 29.5933 30.8873 29.5933 29.6437V18.1941C29.5933 16.9505 28.8322 15.9424 27.8933 15.9424ZM27.8933 72.9544C26.9544 72.9544 26.1934 73.9625 26.1934 75.2061V86.6557C26.1934 87.8993 26.9544 88.9074 27.8933 88.9074C28.8322 88.9074 29.5933 87.8993 29.5933 86.6557V75.2061C29.5933 73.9625 28.8322 72.9544 27.8933 72.9544Z" fill="url(#paint0_linear_833_23841)"/>
<path d="M105.149 56.0775H65.5337H38.9232V44.6863V20.4462H46.9563V25.1226C43.2496 26.1622 40.4593 30.5296 40.4593 35.7444C40.4593 36.988 41.2204 37.9961 42.1593 37.9961H55.1532C55.1537 37.9961 55.1543 37.9961 55.1545 37.9961C56.0934 37.9961 56.8545 36.988 56.8545 35.7444C56.8545 35.7102 56.854 35.6761 56.8528 35.6423C56.8168 30.4725 54.0388 26.1555 50.3562 25.1227V20.4462H59.1924C59.5074 20.4462 59.8095 20.3714 60.0892 20.2347C60.3687 20.3714 60.6707 20.4462 60.9858 20.4462H82.0584C82.3698 20.4462 82.6686 20.3731 82.9455 20.2393C83.2193 20.3731 83.5147 20.4462 83.8226 20.4462H92.3157V25.1226C88.609 26.1622 85.8187 30.5296 85.8187 35.7444C85.8187 36.988 86.5798 37.9961 87.5187 37.9961H100.513C101.451 37.9961 102.213 36.988 102.213 35.7444C102.213 30.5296 99.4224 26.1622 95.7156 25.1226V20.4462H104.209C105.624 20.4462 106.776 18.9033 106.776 17.0068V3.4394C106.776 1.54291 105.624 0 104.209 0H83.8226C83.5147 0 83.2193 0.0731337 82.9455 0.206893C82.6686 0.0731337 82.3698 0 82.0584 0H60.9858C60.6707 0 60.3687 0.0748282 60.0892 0.211532C59.8095 0.0748282 59.5074 0 59.1924 0H38.12C37.8386 0 37.5678 0.0603821 37.3138 0.170525C37.072 0.0605622 36.8129 0 36.5433 0H2.37996C1.06766 0 0 1.41414 0 3.15236V44.6863V103.848C0 105.586 1.06766 107 2.37996 107H36.5433C36.6689 107 36.7923 106.987 36.9127 106.962C37.0134 106.986 37.1171 107 37.2233 107H65.5337H105.149C106.088 107 106.849 105.992 106.849 104.748V58.3292C106.849 57.0856 106.088 56.0775 105.149 56.0775ZM53.1421 33.4927H44.1703C44.858 31.0973 46.6095 29.3905 48.6563 29.3905C50.703 29.3905 52.4545 31.0973 53.1421 33.4927ZM98.5015 33.4927H89.5297C90.2174 31.0973 91.9689 29.3905 94.0157 29.3905C96.0624 29.3905 97.8139 31.0973 98.5015 33.4927ZM67.2337 60.5811H103.376V70.4878H67.2337V60.5811ZM63.8337 60.5808V72.7395V78.6797H38.9232V60.5808L63.8337 60.5808ZM103.376 15.9428H84.6551V4.50337H103.376V15.9428ZM81.2551 15.9428H61.7892V4.50337H81.2551V15.9428ZM58.3893 15.9428H38.9232V4.50337H58.3893V15.9428ZM3.39994 4.50337H35.5233V17.0068V43.3353H3.39994V4.50337ZM3.39994 47.8387H35.5233V58.3292V80.9314V102.497H3.39994V47.8387ZM38.9232 102.497V83.183H63.8337V102.497H38.9232ZM67.2337 102.497V80.9314V74.9912H103.449V102.497H67.2337Z" fill="url(#paint1_linear_833_23841)"/>
<path d="M95.7793 77.7104H74.8279C73.8891 77.7104 73.1279 78.7186 73.1279 79.9621V97.5882C73.1279 98.8318 73.8891 99.8399 74.8279 99.8399H95.7793C96.7182 99.8399 97.4793 98.8318 97.4793 97.5882V79.9621C97.4793 78.7186 96.7182 77.7104 95.7793 77.7104ZM94.0794 95.3366H76.5279V82.2138H94.0794V95.3366Z" fill="url(#paint2_linear_833_23841)"/>
<path d="M51.3769 69.0194C52.6033 69.0194 53.5975 67.7025 53.5975 66.078C53.5975 64.4536 52.6033 63.1367 51.3769 63.1367C50.1505 63.1367 49.1562 64.4536 49.1562 66.078C49.1562 67.7025 50.1505 69.0194 51.3769 69.0194Z" fill="url(#paint3_linear_833_23841)"/>
<path d="M48.655 12.2466C49.4984 12.2466 50.1822 11.341 50.1822 10.2239C50.1822 9.10678 49.4984 8.20117 48.655 8.20117C47.8116 8.20117 47.1279 9.10678 47.1279 10.2239C47.1279 11.341 47.8116 12.2466 48.655 12.2466Z" fill="url(#paint4_linear_833_23841)"/>
<path d="M71.5222 12.2466C72.3656 12.2466 73.0493 11.341 73.0493 10.2239C73.0493 9.10678 72.3656 8.20117 71.5222 8.20117C70.6788 8.20117 69.9951 9.10678 69.9951 10.2239C69.9951 11.341 70.6788 12.2466 71.5222 12.2466Z" fill="url(#paint5_linear_833_23841)"/>
<path d="M94.0154 12.2466C94.8588 12.2466 95.5425 11.341 95.5425 10.2239C95.5425 9.10678 94.8588 8.20117 94.0154 8.20117C93.172 8.20117 92.4883 9.10678 92.4883 10.2239C92.4883 11.341 93.172 12.2466 94.0154 12.2466Z" fill="url(#paint6_linear_833_23841)"/>
<path d="M51.3769 91.7157C52.6033 91.7157 53.5975 90.3988 53.5975 88.7743C53.5975 87.1499 52.6033 85.833 51.3769 85.833C50.1505 85.833 49.1562 87.1499 49.1562 88.7743C49.1562 90.3988 50.1505 91.7157 51.3769 91.7157Z" fill="url(#paint7_linear_833_23841)"/>
<path d="M73.1591 68.4774C74.3855 68.4774 75.3797 67.1605 75.3797 65.5361C75.3797 63.9116 74.3855 62.5947 73.1591 62.5947C71.9327 62.5947 70.9385 63.9116 70.9385 65.5361C70.9385 67.1605 71.9327 68.4774 73.1591 68.4774Z" fill="url(#paint8_linear_833_23841)"/>
<path d="M79.2343 68.4774C80.4607 68.4774 81.4549 67.1605 81.4549 65.5361C81.4549 63.9116 80.4607 62.5947 79.2343 62.5947C78.0079 62.5947 77.0137 63.9116 77.0137 65.5361C77.0137 67.1605 78.0079 68.4774 79.2343 68.4774Z" fill="url(#paint9_linear_833_23841)"/>
<path d="M85.3036 68.4774C86.5301 68.4774 87.5243 67.1605 87.5243 65.5361C87.5243 63.9116 86.5301 62.5947 85.3036 62.5947C84.0772 62.5947 83.083 63.9116 83.083 65.5361C83.083 67.1605 84.0772 68.4774 85.3036 68.4774Z" fill="url(#paint10_linear_833_23841)"/>
<path d="M91.3788 68.4774C92.6053 68.4774 93.5995 67.1605 93.5995 65.5361C93.5995 63.9116 92.6053 62.5947 91.3788 62.5947C90.1524 62.5947 89.1582 63.9116 89.1582 65.5361C89.1582 67.1605 90.1524 68.4774 91.3788 68.4774Z" fill="url(#paint11_linear_833_23841)"/>
<path d="M97.4511 68.4774C98.6775 68.4774 99.6717 67.1605 99.6717 65.5361C99.6717 63.9116 98.6775 62.5947 97.4511 62.5947C96.2247 62.5947 95.2305 63.9116 95.2305 65.5361C95.2305 67.1605 96.2247 68.4774 97.4511 68.4774Z" fill="url(#paint12_linear_833_23841)"/>
<defs>
<linearGradient id="paint0_linear_833_23841" x1="27.8933" y1="15.9424" x2="27.8933" y2="88.9074" gradientUnits="userSpaceOnUse">
<stop stop-color="#E9682B"/>
<stop offset="1" stop-color="#2D6462"/>
</linearGradient>
<linearGradient id="paint1_linear_833_23841" x1="53.4246" y1="0" x2="53.4246" y2="107" gradientUnits="userSpaceOnUse">
<stop stop-color="#E9682B"/>
<stop offset="1" stop-color="#2D6462"/>
</linearGradient>
<linearGradient id="paint2_linear_833_23841" x1="85.3036" y1="77.7104" x2="85.3036" y2="99.8399" gradientUnits="userSpaceOnUse">
<stop stop-color="#E9682B"/>
<stop offset="1" stop-color="#2D6462"/>
</linearGradient>
<linearGradient id="paint3_linear_833_23841" x1="51.3769" y1="63.1367" x2="51.3769" y2="69.0194" gradientUnits="userSpaceOnUse">
<stop stop-color="#E9682B"/>
<stop offset="1" stop-color="#2D6462"/>
</linearGradient>
<linearGradient id="paint4_linear_833_23841" x1="48.655" y1="8.20117" x2="48.655" y2="12.2466" gradientUnits="userSpaceOnUse">
<stop stop-color="#E9682B"/>
<stop offset="1" stop-color="#2D6462"/>
</linearGradient>
<linearGradient id="paint5_linear_833_23841" x1="71.5222" y1="8.20117" x2="71.5222" y2="12.2466" gradientUnits="userSpaceOnUse">
<stop stop-color="#E9682B"/>
<stop offset="1" stop-color="#2D6462"/>
</linearGradient>
<linearGradient id="paint6_linear_833_23841" x1="94.0154" y1="8.20117" x2="94.0154" y2="12.2466" gradientUnits="userSpaceOnUse">
<stop stop-color="#E9682B"/>
<stop offset="1" stop-color="#2D6462"/>
</linearGradient>
<linearGradient id="paint7_linear_833_23841" x1="51.3769" y1="85.833" x2="51.3769" y2="91.7157" gradientUnits="userSpaceOnUse">
<stop stop-color="#E9682B"/>
<stop offset="1" stop-color="#2D6462"/>
</linearGradient>
<linearGradient id="paint8_linear_833_23841" x1="73.1591" y1="62.5947" x2="73.1591" y2="68.4774" gradientUnits="userSpaceOnUse">
<stop stop-color="#E9682B"/>
<stop offset="1" stop-color="#2D6462"/>
</linearGradient>
<linearGradient id="paint9_linear_833_23841" x1="79.2343" y1="62.5947" x2="79.2343" y2="68.4774" gradientUnits="userSpaceOnUse">
<stop stop-color="#E9682B"/>
<stop offset="1" stop-color="#2D6462"/>
</linearGradient>
<linearGradient id="paint10_linear_833_23841" x1="85.3036" y1="62.5947" x2="85.3036" y2="68.4774" gradientUnits="userSpaceOnUse">
<stop stop-color="#E9682B"/>
<stop offset="1" stop-color="#2D6462"/>
</linearGradient>
<linearGradient id="paint11_linear_833_23841" x1="91.3788" y1="62.5947" x2="91.3788" y2="68.4774" gradientUnits="userSpaceOnUse">
<stop stop-color="#E9682B"/>
<stop offset="1" stop-color="#2D6462"/>
</linearGradient>
<linearGradient id="paint12_linear_833_23841" x1="97.4511" y1="62.5947" x2="97.4511" y2="68.4774" gradientUnits="userSpaceOnUse">
<stop stop-color="#E9682B"/>
<stop offset="1" stop-color="#2D6462"/>
</linearGradient>
</defs>
</svg>
