<svg width="81" height="107" viewBox="0 0 81 107" fill="none" xmlns="http://www.w3.org/2000/svg">
<path d="M81 47.5376C80.9942 45.8444 80.2797 44.2225 79.0131 43.0271C77.7465 41.8318 76.0311 41.1606 74.2427 41.1606H53.6209L56.1358 24.2034C56.1763 23.9111 56.1505 23.6139 56.06 23.3318C55.9695 23.0498 55.8164 22.7892 55.611 22.5677C55.408 22.3431 55.1567 22.1622 54.8738 22.0372C54.5909 21.9122 54.283 21.846 53.9708 21.843H51.784C56.6388 16.584 57.9946 7.16333 57.9946 6.72853C58.0423 6.38706 57.9993 6.03972 57.8695 5.71795C57.7397 5.39618 57.5271 5.11017 57.2511 4.88581C56.9751 4.66232 56.6446 4.50743 56.2895 4.43514C55.9345 4.36284 55.566 4.37541 55.2173 4.47171C52.0748 5.40506 49.0527 6.66905 46.2076 8.23998C45.1843 5.685 43.8873 3.23597 42.3369 0.931197C42.1377 0.645018 41.8666 0.41013 41.5479 0.247604C41.2292 0.0850785 40.8729 0 40.5109 0C40.1489 0 39.7926 0.0850785 39.4739 0.247604C39.1552 0.41013 38.8841 0.645018 38.6849 0.931197C37.1558 3.2441 35.8668 5.69178 34.8361 8.23998C31.9911 6.66905 28.9689 5.40506 25.8264 4.47171C25.4778 4.37541 25.1093 4.36284 24.7542 4.43514C24.3991 4.50743 24.0687 4.66232 23.7927 4.88581C23.5166 5.11017 23.304 5.39618 23.1742 5.71795C23.0444 6.03972 23.0014 6.38706 23.0491 6.72853C23.0491 7.16333 24.3831 16.584 29.2816 21.843H27.379C27.0642 21.8401 26.7524 21.9016 26.4649 22.0232C26.1775 22.1449 25.9212 22.3239 25.7135 22.548C25.5059 22.7722 25.3518 23.0361 25.2618 23.3218C25.1719 23.6075 25.1481 23.9082 25.1922 24.2034L27.7071 41.1606H6.75729C4.96893 41.1606 3.25349 41.8318 1.98688 43.0271C0.720269 44.2225 0.00578758 45.8444 0 47.5376V65.8407C0.00300027 67.4489 0.651882 68.9959 1.81507 70.168C0.651882 71.34 0.00300027 72.887 0 74.4953V92.7569C0.00623619 94.0863 0.449716 95.3808 1.2688 96.4606C2.08789 97.5404 3.2419 98.3517 4.57046 98.782V104.662C4.57046 105.211 4.80086 105.738 5.21097 106.126C5.62108 106.514 6.17731 106.733 6.75729 106.733H14.7611C15.341 106.733 15.8973 106.514 16.3074 106.126C16.7175 105.738 16.9479 105.211 16.9479 104.662V99.1961H64.0521V104.704C64.0521 105.253 64.2825 105.779 64.6926 106.168C65.1027 106.556 65.6589 106.774 66.2389 106.774H74.2427C74.8227 106.774 75.3789 106.556 75.789 106.168C76.1991 105.779 76.4295 105.253 76.4295 104.704V98.8234C77.7651 98.3909 78.9242 97.5732 79.7439 96.4851C80.5636 95.3971 81.0029 94.0933 81 92.7569V74.4953C80.997 72.887 80.3481 71.34 79.1849 70.168C80.3481 68.9959 80.997 67.4489 81 65.8407V47.5376ZM47.5197 12.3395C49.2467 11.3093 51.0606 10.4159 52.943 9.66861C52.0246 13.3127 50.1876 18.2197 47.1698 20.2902C47.1698 20.1245 47.2792 19.9175 47.3448 19.7518C47.3484 19.6829 47.3484 19.6138 47.3448 19.5448C47.3448 19.4206 47.3448 19.2963 47.3448 19.1721C47.433 18.8929 47.5059 18.6095 47.5634 18.3232C47.5634 18.054 47.5634 17.7849 47.5634 17.5157C47.5634 17.2466 47.5634 16.936 47.5634 16.6254C47.5634 16.3148 47.5634 15.5488 47.5634 15.0104C47.5634 14.4721 47.5634 14.4307 47.5634 14.1201L47.3666 12.8986C47.5634 12.6915 47.5634 12.5259 47.5197 12.3188V12.3395ZM40.5 6.25232C41.5081 8.09028 42.3212 10.0184 42.9274 12.0083C42.9274 12.2567 43.0586 12.4845 43.1242 12.7122C43.1898 12.94 43.2554 13.2298 43.2991 13.499C43.3096 13.6921 43.3096 13.8856 43.2991 14.0787C43.2991 14.4928 43.4303 14.9276 43.4522 15.3417V15.5488C43.4852 15.9346 43.4852 16.3224 43.4522 16.7082C43.463 16.7907 43.463 16.8742 43.4522 16.9567C43.4079 17.3559 43.3274 17.7507 43.2117 18.1369V18.3232C43.1178 18.6074 43.0008 18.8843 42.8618 19.1514C42.3105 20.0345 41.507 20.7522 40.5437 21.2219C39.5865 20.7518 38.7901 20.0338 38.2476 19.1514C38.1047 18.8931 37.9876 18.6228 37.8977 18.3439V18.1576C37.784 17.778 37.7035 17.3902 37.6571 16.9981C37.6463 16.9087 37.6463 16.8184 37.6571 16.7289C37.6241 16.3431 37.6241 15.9553 37.6571 15.5695V15.3624C37.6571 14.9483 37.6571 14.5135 37.8102 14.0787C37.9633 13.6439 37.8102 13.7475 37.8102 13.5818C37.8102 13.4162 37.9633 12.9607 38.0289 12.6294C38.0945 12.2981 38.0289 12.2774 38.182 12.0911C38.7424 10.0751 39.5191 8.11868 40.5 6.25232ZM33.4803 12.3188C33.4803 12.5052 33.4803 12.6708 33.4803 12.8571C33.4803 13.0435 33.3272 13.706 33.2835 14.1408C33.2397 14.5756 33.2835 14.6999 33.1741 14.969C33.0648 15.2382 33.1741 16.0871 33.1741 16.6254C33.1741 17.1637 33.1741 17.1844 33.1741 17.4536C33.1741 17.7228 33.1741 18.0333 33.2835 18.3232C33.3408 18.5959 33.4138 18.8655 33.5022 19.1307C33.4919 19.2616 33.4919 19.3931 33.5022 19.5241C33.5295 19.6036 33.5662 19.68 33.6115 19.7518C33.7085 19.9378 33.8181 20.1176 33.9395 20.2902C30.9217 18.2197 29.0848 13.3334 28.1663 9.66861C30.0124 10.4105 31.7899 11.297 33.4803 12.3188ZM29.8064 25.984H51.4341L49.2473 41.1606H32.0588L29.8064 25.984ZM4.37365 47.5376C4.37364 47.2422 4.43544 46.9498 4.5555 46.6771C4.67555 46.4044 4.85148 46.157 5.07311 45.9491C5.29474 45.7412 5.55769 45.5769 5.84676 45.4658C6.13584 45.3546 6.4453 45.2988 6.75729 45.3015H74.2427C74.5547 45.2988 74.8642 45.3546 75.1532 45.4658C75.4423 45.5769 75.7052 45.7412 75.9269 45.9491C76.1485 46.157 76.3244 46.4044 76.4445 46.6771C76.5645 46.9498 76.6264 47.2422 76.6263 47.5376V65.8407C76.6263 66.4392 76.3752 67.0132 75.9282 67.4365C75.4812 67.8597 74.8749 68.0975 74.2427 68.0975H6.75729C6.12511 68.0975 5.51882 67.8597 5.0718 67.4365C4.62478 67.0132 4.37365 66.4392 4.37365 65.8407V47.5376ZM12.5742 102.633H8.94411V99.1961H12.5742V102.633ZM72.0559 102.633H68.4257V99.1961H72.0559V102.633ZM76.6263 92.7569C76.6263 93.0532 76.5647 93.3467 76.4449 93.6205C76.3251 93.8943 76.1495 94.1431 75.9282 94.3527C75.7068 94.5622 75.4441 94.7285 75.1549 94.8419C74.8657 94.9553 74.5557 95.0137 74.2427 95.0137H6.75729C6.44426 95.0137 6.13431 94.9553 5.84511 94.8419C5.55592 94.7285 5.29314 94.5622 5.0718 94.3527C4.85046 94.1431 4.67488 93.8943 4.55509 93.6205C4.4353 93.3467 4.37365 93.0532 4.37365 92.7569V74.4953C4.37365 73.8967 4.62478 73.3227 5.0718 72.8994C5.51882 72.4762 6.12511 72.2384 6.75729 72.2384H74.2427C74.8749 72.2384 75.4812 72.4762 75.9282 72.8994C76.3752 73.3227 76.6263 73.8967 76.6263 74.4953V92.7569Z" fill="url(#paint0_linear_729_18868)"/>
<path d="M33.1087 58.7572H47.8698C48.4497 58.7572 49.006 58.539 49.4161 58.1507C49.8262 57.7624 50.0566 57.2358 50.0566 56.6867C50.0566 56.1376 49.8262 55.6109 49.4161 55.2226C49.006 54.8343 48.4497 54.6162 47.8698 54.6162H33.1087C32.5287 54.6162 31.9725 54.8343 31.5624 55.2226C31.1523 55.6109 30.9219 56.1376 30.9219 56.6867C30.9219 57.2358 31.1523 57.7624 31.5624 58.1507C31.9725 58.539 32.5287 58.7572 33.1087 58.7572ZM47.8698 81.5738H33.1087C32.5287 81.5738 31.9725 81.792 31.5624 82.1803C31.1523 82.5685 30.9219 83.0952 30.9219 83.6443C30.9219 84.1934 31.1523 84.7201 31.5624 85.1083C31.9725 85.4966 32.5287 85.7148 33.1087 85.7148H47.8698C48.4497 85.7148 49.006 85.4966 49.4161 85.1083C49.8262 84.7201 50.0566 84.1934 50.0566 83.6443C50.0566 83.0952 49.8262 82.5685 49.4161 82.1803C49.006 81.792 48.4497 81.5738 47.8698 81.5738Z" fill="url(#paint1_linear_729_18868)"/>
<defs>
<linearGradient id="paint0_linear_729_18868" x1="40.5" y1="0" x2="40.5" y2="106.774" gradientUnits="userSpaceOnUse">
<stop stop-color="#E9682B"/>
<stop offset="1" stop-color="#2D6462"/>
</linearGradient>
<linearGradient id="paint1_linear_729_18868" x1="40.4892" y1="54.6162" x2="40.4892" y2="85.7148" gradientUnits="userSpaceOnUse">
<stop stop-color="#E9682B"/>
<stop offset="1" stop-color="#2D6462"/>
</linearGradient>
</defs>
</svg>
