<svg width="34" height="34" viewBox="0 0 34 34" fill="none" xmlns="http://www.w3.org/2000/svg">
<path d="M9.69531 3.1875C8.52214 3.1875 7.4375 3.38672 6.44141 3.78516C5.44531 4.20573 4.58203 4.77018 3.85156 5.47852C3.12109 6.18685 2.55664 7.02799 2.1582 8.00195C1.73763 8.97591 1.52734 10.0163 1.52734 11.123C1.52734 12.097 1.69889 13.0986 2.04199 14.1279C2.38509 15.1572 2.86654 16.2031 3.48633 17.2656C4.10612 18.3281 4.81999 19.3685 5.62793 20.3867C6.43587 21.4049 7.29362 22.39 8.20117 23.3418C9.02018 24.2272 9.86133 25.0573 10.7246 25.832C11.5879 26.6068 12.4124 27.3096 13.1982 27.9404C13.984 28.5713 14.6979 29.1302 15.3398 29.6172C16.0039 30.082 16.5573 30.4473 17 30.7129C17.4427 30.4473 17.9961 30.082 18.6602 29.6172C19.3021 29.1302 20.016 28.5713 20.8018 27.9404C21.5876 27.3096 22.4121 26.6068 23.2754 25.832C24.1387 25.0573 24.9798 24.2272 25.7988 23.3418C26.7064 22.39 27.5641 21.4049 28.3721 20.3867C29.18 19.3685 29.8939 18.3281 30.5137 17.2656C31.1335 16.2031 31.6149 15.1572 31.958 14.1279C32.3011 13.0986 32.4727 12.097 32.4727 11.123C32.4727 10.0163 32.2624 8.97591 31.8418 8.00195C31.4434 7.02799 30.8789 6.18685 30.1484 5.47852C29.418 4.77018 28.5547 4.20573 27.5586 3.78516C26.5625 3.38672 25.4779 3.1875 24.3047 3.1875C23.043 3.1875 21.8089 3.45866 20.6025 4.00098C19.3962 4.54329 18.3835 5.29037 17.5645 6.24219L17 6.90625L16.4355 6.24219C15.5944 5.29037 14.5762 4.54329 13.3809 4.00098C12.1855 3.45866 10.957 3.1875 9.69531 3.1875ZM0 11.123C0 9.79492 0.254557 8.55534 0.763672 7.4043C1.25065 6.23112 1.93132 5.22396 2.80566 4.38281C3.68001 3.54167 4.70378 2.8776 5.87695 2.39062C7.05013 1.90365 8.32292 1.66016 9.69531 1.66016C11.0234 1.66016 12.3294 1.92578 13.6133 2.45703C14.8971 2.98828 16.026 3.71875 17 4.64844C17.9518 3.69662 19.0752 2.96061 20.3701 2.44043C21.665 1.92025 22.9766 1.66016 24.3047 1.66016C25.6771 1.66016 26.9499 1.90365 28.123 2.39062C29.2962 2.8776 30.32 3.54167 31.1943 4.38281C32.0687 5.22396 32.7493 6.23112 33.2363 7.4043C33.7454 8.55534 34 9.79492 34 11.123C34 12.2741 33.8008 13.4362 33.4023 14.6094C33.0039 15.7826 32.4837 16.9225 31.8418 18.0293C31.1777 19.1582 30.4196 20.2594 29.5674 21.333C28.7152 22.4066 27.8353 23.4193 26.9277 24.3711C25.998 25.3451 25.0573 26.2637 24.1055 27.127C23.1758 27.9681 22.2793 28.7318 21.416 29.418C20.5527 30.1042 19.7669 30.6908 19.0586 31.1777C18.3724 31.6647 17.8079 32.0189 17.3652 32.2402L17 32.4395L16.6348 32.2402C16.1921 32.0189 15.6276 31.6647 14.9414 31.1777C14.2331 30.6908 13.4473 30.1042 12.584 29.418C11.7207 28.7318 10.8242 27.9681 9.89453 27.127C8.94271 26.2637 8.00195 25.3451 7.07227 24.3711C6.16471 23.4193 5.28483 22.4066 4.43262 21.333C3.5804 20.2594 2.82227 19.1582 2.1582 18.0293C1.51628 16.9225 0.996094 15.7826 0.597656 14.6094C0.199219 13.4362 0 12.2741 0 11.123Z" fill="#4C4C4C"/>
</svg>
