<svg width="30" height="33" viewBox="0 0 30 33" fill="none" xmlns="http://www.w3.org/2000/svg">
<path d="M5.82693 9.28277H5.8269C5.82635 9.3374 5.83493 9.39201 5.85256 9.44465L5.87619 9.51521L5.87825 9.5896C5.96445 12.7023 7.36849 15.4527 9.08104 18.0714C9.68437 18.9929 10.3165 19.8896 10.9466 20.7836C11.2444 21.206 11.5418 21.6278 11.8355 22.0514C12.744 23.3616 13.6085 24.6762 14.2878 26.0128L14.288 26.0132C14.3321 26.1003 14.4021 26.1767 14.4926 26.2317C14.5833 26.2868 14.6899 26.3176 14.8003 26.3188C14.9107 26.3199 15.0181 26.2915 15.1102 26.2382L15.3605 26.6711L15.1102 26.2382C15.2021 26.1851 15.274 26.1101 15.3203 26.0239C15.3203 26.0238 15.3203 26.0238 15.3204 26.0237L15.761 26.26C16.6819 24.5386 17.9412 22.8379 19.2305 21.0968C19.8946 20.2 20.5667 19.2924 21.2045 18.3657L5.82693 9.28277ZM5.82693 9.28277V9.27769C5.82693 4.4596 9.9198 0.5 14.9861 0.5C19.9244 0.5 23.9129 4.27531 24.1093 8.93178L24.1129 9.0168L24.1444 9.09585C24.1689 9.15727 24.1807 9.22197 24.1797 9.28667L24.1797 9.28667V9.29419C24.1797 12.5371 22.6542 15.3746 20.7925 18.0824L5.82693 9.28277ZM5.37845 9.60345C5.3432 9.49822 5.32581 9.38823 5.32693 9.27769L5.37845 9.60345ZM5.37845 9.60345C5.4686 12.8589 6.9368 15.7061 8.66257 18.3451L5.37845 9.60345ZM7.00776 9.29344C7.00816 12.2388 8.35073 14.9025 10.0643 17.5239L10.0645 17.5243C10.525 18.2273 11.0001 18.9323 11.4784 19.6421C12.4719 21.1163 13.4793 22.6111 14.3979 24.1513L14.8172 24.8544L15.2512 24.1603C16.2087 22.6293 17.2615 21.1469 18.3005 19.684C18.817 18.9568 19.33 18.2343 19.8262 17.5132C21.584 14.9588 22.9522 12.3586 23.0202 9.51023L23.0216 9.4518L23.0094 9.39462C23.0018 9.35854 22.9982 9.32188 22.9988 9.28523L22.9988 9.28523V9.27769C22.9988 4.98529 19.4075 1.56188 14.9865 1.56171M7.00776 9.29344C7.00776 9.293 7.00776 9.29256 7.00776 9.29213H7.50776M7.00776 9.29344C7.00777 9.29373 7.00777 9.29403 7.00777 9.29432L7.50776 9.29213M7.00776 9.29344C7.00758 9.26397 7.00474 9.23453 6.99925 9.20541L6.98964 9.15445L6.99069 9.10261C7.03174 7.08082 7.89753 5.15965 9.39489 3.75109C10.8915 2.34322 12.8997 1.55911 14.9865 1.56171M7.50776 9.29213C7.50776 12.0857 8.78063 14.6464 10.4828 17.2503L7.49059 9.11276C7.50175 9.17195 7.5075 9.23197 7.50776 9.29213ZM14.9865 1.56171C14.9866 1.56171 14.9867 1.56171 14.9868 1.56171L14.9861 2.06171V1.56171C14.9862 1.56171 14.9863 1.56171 14.9865 1.56171ZM13.8764 10.3757L14.2227 10.0151L13.8764 10.3757C14.0246 10.518 14.1999 10.6294 14.3914 10.704C14.5819 10.7783 14.7852 10.815 14.9896 10.8127C15.8503 10.8109 16.5594 10.157 16.5594 9.28182C16.5594 8.40547 15.8484 7.75096 14.9861 7.75096C14.1251 7.75096 13.4149 8.40364 13.4129 9.27813C13.4104 9.48254 13.4503 9.68491 13.5299 9.87321C13.6099 10.0626 13.7281 10.2333 13.8764 10.3757ZM23.7664 19.5275L23.8123 19.5274C23.8753 19.5324 23.9369 19.5471 23.9945 19.5707L23.9945 19.5708L24.0028 19.574C26.3862 20.4998 28.0619 21.7263 28.9221 23.1826L28.9226 23.1834C29.7623 24.5986 29.699 26.3332 28.6479 27.778C27.5646 29.2658 25.7159 30.4445 23.3448 31.2542C20.9799 32.0618 18.1367 32.4875 15.1236 32.4997C12.1098 32.5119 9.25257 32.108 6.86142 31.3203C4.4642 30.5306 2.57555 29.369 1.44352 27.8957C0.342409 26.4606 0.216884 24.7324 1.00554 23.3087L1.00568 23.3085C1.81847 21.8392 3.45329 20.5953 5.80363 19.648L5.81381 19.6439L5.82379 19.6393C5.89502 19.6069 5.97315 19.5884 6.05333 19.5854C6.13351 19.5824 6.21313 19.5951 6.28717 19.6223C6.36117 19.6495 6.42735 19.6903 6.48219 19.7413C6.53699 19.7923 6.57925 19.8522 6.60755 19.9169C6.63582 19.9815 6.64986 20.0502 6.64943 20.1189C6.64899 20.1877 6.63409 20.2562 6.60497 20.3206C6.57583 20.385 6.53275 20.4445 6.47724 20.4949C6.42169 20.5453 6.35492 20.5854 6.28052 20.6117L6.27035 20.6153L6.26035 20.6194C4.10049 21.4906 2.65793 22.6506 2.02633 23.7887L2.02572 23.7898C1.71716 24.3491 1.55032 24.9176 1.60609 25.5222C1.6615 26.1229 1.93094 26.6967 2.37798 27.2797L2.37812 27.2799C3.29041 28.4684 5.072 29.5049 7.27765 30.242C9.50255 30.9855 12.2303 31.4485 15.1146 31.438H15.1148C17.9984 31.4265 20.709 30.9392 22.906 30.1773C25.0828 29.4224 26.8283 28.3723 27.6961 27.1812L27.6966 27.1804C28.12 26.597 28.3692 26.0221 28.4024 25.4204C28.4358 24.8166 28.2481 24.2505 27.9179 23.6927C27.2454 22.5528 25.7525 21.4064 23.5603 20.5532L23.5603 20.5531L23.5539 20.5507C23.4263 20.5031 23.3247 20.4159 23.2627 20.309C23.2011 20.2026 23.1811 20.0813 23.2037 19.9648C23.2263 19.848 23.2915 19.7382 23.3934 19.6567C23.4956 19.5749 23.6275 19.5278 23.7664 19.5275ZM12.2664 9.28182C12.2664 7.88203 13.4787 6.68925 14.9861 6.68925C16.4955 6.68925 17.7059 7.88182 17.7059 9.28182C17.7059 10.6818 16.4955 11.8744 14.9861 11.8744C13.4787 11.8744 12.2664 10.6816 12.2664 9.28182Z" stroke="#010101"/>
</svg>
