<svg width="89" height="107" viewBox="0 0 89 107" fill="none" xmlns="http://www.w3.org/2000/svg">
<path d="M55.625 107C55.386 106.999 55.1486 106.96 54.9219 106.884L1.5219 89.0507C1.02386 88.8834 0.600987 88.5449 0.328125 88.0952C0.0552632 87.6454 -0.0499847 87.1135 0.0310119 86.5935C0.112009 86.0735 0.374026 85.599 0.770682 85.254C1.16734 84.909 1.67305 84.7157 2.1983 84.7083C1.61283 84.7013 1.05373 84.4633 0.64222 84.046C0.230709 83.6287 -4.21524e-05 83.0657 5.77571e-09 82.4791V24.5208C0.00058542 24.0809 0.131033 23.6511 0.374922 23.2854C0.618811 22.9196 0.96524 22.6344 1.3706 22.4655L54.7706 0.173786C55.2358 -0.0219018 55.7537 -0.0533437 56.2391 0.0846188L87.3891 9.00129C87.8533 9.13559 88.2613 9.41733 88.5519 9.80409C88.8424 10.1908 88.9997 10.6617 89 11.1458V95.8541C88.9994 96.3388 88.8415 96.8101 88.5501 97.1969C88.2587 97.5837 87.8497 97.8651 87.3846 97.9986L56.2346 106.915C56.0364 106.972 55.8312 107.001 55.625 107ZM27.8347 93.139L55.6739 102.435L84.55 94.1733V12.8265L55.7629 4.58754L4.45 26.0098V78.8723L13.35 74.414V26.7499C13.3501 26.2527 13.5162 25.7698 13.8218 25.378C14.1274 24.9862 14.555 24.708 15.0366 24.5876L59.5365 13.4418C59.8645 13.3599 60.2067 13.3538 60.5373 13.4242C60.8679 13.4945 61.1782 13.6394 61.4445 13.8479C61.7109 14.0563 61.9264 14.3227 62.0746 14.627C62.2228 14.9313 62.2999 15.2655 62.3 15.6041V95.8541C62.3011 96.1752 62.2324 96.4927 62.0987 96.7845C61.965 97.0763 61.7695 97.3354 61.5257 97.5438C61.2831 97.7552 60.9971 97.9106 60.6881 97.9992C60.379 98.0878 60.0543 98.1073 59.7368 98.0566L27.8347 93.139ZM2.24725 84.7083C2.3496 84.7083 2.4564 84.7172 2.5632 84.735L57.85 93.2549V18.4619L17.8 28.4931V75.7916C17.8 76.2053 17.6851 76.6107 17.4682 76.9627C17.2513 77.3146 16.9409 77.5992 16.5718 77.7845L3.2218 84.472C2.91923 84.6243 2.58585 84.7052 2.24725 84.7083Z" fill="url(#paint0_linear_729_18905)"/>
<defs>
<linearGradient id="paint0_linear_729_18905" x1="44.5" y1="0" x2="44.5" y2="107" gradientUnits="userSpaceOnUse">
<stop stop-color="#E9682B"/>
<stop offset="1" stop-color="#2D6462"/>
</linearGradient>
</defs>
</svg>
