<svg width="12" height="14" viewBox="0 0 12 14" fill="none" xmlns="http://www.w3.org/2000/svg">
<path d="M1 13.6983L11.015 1.1665" stroke="#E9682B" stroke-width="0.5" stroke-linecap="round" stroke-linejoin="round"/>
<mask id="path-2-outside-1_86_16860" maskUnits="userSpaceOnUse" x="1.07422" y="0.166504" width="11" height="13" fill="black">
<rect fill="white" x="1.07422" y="0.166504" width="11" height="13"/>
<path d="M11.0162 12.3556V1.1665H2.07422"/>
</mask>
<path d="M10.5162 12.3556C10.5162 12.6317 10.74 12.8556 11.0162 12.8556C11.2923 12.8556 11.5162 12.6317 11.5162 12.3556H10.5162ZM11.0162 1.1665H11.5162C11.5162 0.890362 11.2923 0.666504 11.0162 0.666504V1.1665ZM2.07422 0.666504C1.79808 0.666504 1.57422 0.890362 1.57422 1.1665C1.57422 1.44265 1.79808 1.6665 2.07422 1.6665V0.666504ZM11.5162 12.3556V1.1665H10.5162V12.3556H11.5162ZM11.0162 0.666504H2.07422V1.6665H11.0162V0.666504Z" fill="#E9682B" mask="url(#path-2-outside-1_86_16860)"/>
</svg>
