<svg width="111" height="107" viewBox="0 0 111 107" fill="none" xmlns="http://www.w3.org/2000/svg">
<path d="M65.3016 75.7327H10.3089C9.84675 75.7327 9.40355 75.5525 9.07677 75.2317C8.74999 74.9109 8.56641 74.4759 8.56641 74.0222V33.1752C8.5664 31.604 9.20104 30.0969 10.3312 28.9843C11.4614 27.8716 12.9948 27.2443 14.5954 27.2398H61.1371C61.9334 27.2375 62.7224 27.3893 63.459 27.6863C64.1955 27.9834 64.8653 28.42 65.43 28.9711C65.9947 29.5223 66.4433 30.1772 66.7501 30.8986C67.057 31.6199 67.2161 32.3935 67.2184 33.1752V73.8512C67.2231 74.0995 67.1767 74.3463 67.0821 74.5767C66.9874 74.807 66.8464 75.0163 66.6675 75.192C66.4886 75.3676 66.2754 75.506 66.0407 75.599C65.806 75.6919 65.5546 75.7374 65.3016 75.7327ZM12.0514 72.3117H63.7334V33.1752C63.7334 32.5084 63.4635 31.8688 62.9832 31.3973C62.5028 30.9257 61.8513 30.6608 61.1719 30.6608H14.5954C14.2598 30.6608 13.9276 30.7259 13.6178 30.8525C13.308 30.9791 13.0268 31.1646 12.7903 31.3983C12.5538 31.632 12.3668 31.9093 12.24 32.2143C12.1132 32.5193 12.0491 32.8458 12.0514 33.1752V72.3117Z" fill="url(#paint0_linear_729_18916)"/>
<path d="M71.3306 30.6599H4.0185C3.16102 30.6586 2.32639 30.3884 1.63626 29.8888C0.946118 29.3892 0.436534 28.6864 0.181765 27.8826C-0.073004 27.0789 -0.0596435 26.2163 0.2199 25.4205C0.499443 24.6248 1.03056 23.9374 1.73585 23.4587L35.3832 0.691806C36.0591 0.241022 36.8574 0 37.6745 0C38.4917 0 39.29 0.241022 39.9659 0.691806L73.6132 23.4587C74.3185 23.9374 74.8496 24.6248 75.1292 25.4205C75.4087 26.2163 75.4221 27.0789 75.1673 27.8826C74.9126 28.6864 74.403 29.3892 73.7128 29.8888C73.0227 30.3884 72.1881 30.6586 71.3306 30.6599ZM37.5961 3.41152C37.4883 3.4114 37.3838 3.44763 37.2999 3.51415L3.70485 26.281C3.60179 26.3388 3.52371 26.4314 3.48522 26.5416C3.44673 26.6518 3.45048 26.772 3.49576 26.8797C3.53026 26.9878 3.60026 27.0817 3.69482 27.1467C3.78938 27.2117 3.90319 27.2441 4.0185 27.2389H71.3306C71.4465 27.2472 71.5618 27.216 71.657 27.1506C71.7522 27.0851 71.8216 26.9895 71.8533 26.8797C71.8917 26.7713 71.8919 26.6535 71.854 26.545C71.8161 26.4364 71.7422 26.3435 71.6442 26.281L37.9795 3.51415C37.9265 3.4716 37.865 3.44047 37.7989 3.42279C37.7329 3.40511 37.6638 3.40127 37.5961 3.41152ZM18.1326 85.7726H10.3089C9.84673 85.7726 9.40352 85.5924 9.07674 85.2716C8.74996 84.9508 8.56638 84.5157 8.56638 84.0621V74.0214C8.56638 73.5677 8.74996 73.1326 9.07674 72.8119C9.40352 72.4911 9.84673 72.3109 10.3089 72.3109H18.1326C18.5947 72.3109 19.0379 72.4911 19.3647 72.8119C19.6915 73.1326 19.8751 73.5677 19.8751 74.0214V84.0963C19.866 84.544 19.6784 84.9703 19.3526 85.2837C19.0268 85.5972 18.5888 85.7727 18.1326 85.7726ZM12.0513 82.3516H16.3901V75.7319H12.0513V82.3516ZM15.7977 107H12.6264C12.0523 106.963 11.4913 106.815 10.9758 106.564C10.4603 106.313 10.0006 105.965 9.62312 105.539C9.24564 105.112 8.9579 104.617 8.77653 104.081C8.59515 103.545 8.52373 102.979 8.56638 102.416V92.837C8.56638 92.3833 8.74996 91.9482 9.07674 91.6275C9.40352 91.3067 9.84673 91.1265 10.3089 91.1265H18.1326C18.5947 91.1265 19.0379 91.3067 19.3647 91.6275C19.6915 91.9482 19.8751 92.3833 19.8751 92.837V102.416C19.947 103.553 19.5592 104.672 18.7959 105.53C18.0325 106.389 16.9552 106.917 15.7977 107ZM12.0513 94.5475V102.416C12.0513 103.168 12.4521 103.579 12.6264 103.579H15.7977C15.9719 103.579 16.3901 103.168 16.3901 102.416V94.5475H12.0513ZM65.4758 85.7726H57.6173C57.1551 85.7726 56.7119 85.5924 56.3851 85.2716C56.0584 84.9508 55.8748 84.5157 55.8748 84.0621V74.0214C55.8748 73.5677 56.0584 73.1326 56.3851 72.8119C56.7119 72.4911 57.1551 72.3109 57.6173 72.3109H65.4758C65.938 72.3109 66.3812 72.4911 66.708 72.8119C67.0347 73.1326 67.2183 73.5677 67.2183 74.0214V84.0963C67.2092 84.544 67.0216 84.9703 66.6958 85.2837C66.37 85.5972 65.932 85.7727 65.4758 85.7726ZM59.3946 82.3516H63.7334V75.7319H59.3597L59.3946 82.3516ZM63.1061 107H59.9348C58.7804 106.912 57.7074 106.382 56.9478 105.525C56.1881 104.667 55.8027 103.55 55.8748 102.416V92.837C55.8748 92.3833 56.0584 91.9482 56.3851 91.6275C56.7119 91.3067 57.1551 91.1265 57.6173 91.1265H65.4758C65.938 91.1265 66.3812 91.3067 66.708 91.6275C67.0347 91.9482 67.2183 92.3833 67.2183 92.837V102.416C67.29 103.559 66.8974 104.682 66.1267 105.542C65.356 106.401 64.2698 106.925 63.1061 107ZM59.3597 94.5475V102.416C59.3597 103.168 59.7779 103.579 59.9348 103.579H63.1061C63.2803 103.579 63.6985 103.168 63.6985 102.416V94.5475H59.3597Z" fill="url(#paint1_linear_729_18916)"/>
<path d="M65.4759 94.5477H10.3089C9.84675 94.5477 9.40355 94.3675 9.07677 94.0467C8.74999 93.726 8.56641 93.2909 8.56641 92.8372V84.0623C8.56641 83.6086 8.74999 83.1736 9.07677 82.8528C9.40355 82.532 9.84675 82.3518 10.3089 82.3518H65.4759C65.938 82.3518 66.3812 82.532 66.708 82.8528C67.0348 83.1736 67.2183 83.6086 67.2183 84.0623V92.8372C67.2183 93.2909 67.0348 93.726 66.708 94.0467C66.3812 94.3675 65.938 94.5477 65.4759 94.5477ZM12.0514 91.1267H63.7334V85.7728H12.0514V91.1267ZM37.9795 67.6756C34.6317 67.679 31.358 66.7073 28.573 64.8836C25.7879 63.0599 23.6166 60.4661 22.3338 57.4305C21.0511 54.3949 20.7146 51.0539 21.3668 47.8305C22.0191 44.6071 23.6309 41.6461 25.9982 39.3222C28.3655 36.9984 31.3818 35.4162 34.6655 34.7758C37.9492 34.1355 41.3526 34.4659 44.4449 35.7251C47.5373 36.9843 50.1796 39.1158 52.0374 41.8497C53.8952 44.5837 54.885 47.7973 54.8816 51.0837C54.8724 55.4814 53.0887 59.6963 49.9209 62.806C46.7531 65.9156 42.4594 67.6666 37.9795 67.6756ZM37.9795 37.8956C35.3217 37.8923 32.7225 38.6628 30.5109 40.1099C28.2993 41.557 26.5747 43.6155 25.5552 46.025C24.5357 48.4345 24.2672 51.0867 24.7836 53.646C25.3 56.2054 26.5781 58.5569 28.4563 60.403C30.3344 62.249 32.7282 63.5068 35.3347 64.017C37.9412 64.5273 40.6434 64.2671 43.0992 63.2695C45.5551 62.2718 47.6543 60.5815 49.1313 58.4123C50.6082 56.2432 51.3966 53.6927 51.3966 51.0837C51.392 47.5903 49.9775 44.2411 47.4628 41.7694C44.9481 39.2976 41.5381 37.9047 37.9795 37.8956Z" fill="url(#paint2_linear_729_18916)"/>
<path d="M103.114 106.676H65.4769C65.0147 106.676 64.5715 106.496 64.2448 106.175C63.918 105.854 63.7344 105.419 63.7344 104.965V45.6619C63.7329 45.3876 63.7986 45.117 63.926 44.8729C64.0533 44.6288 64.2386 44.4183 64.4662 44.2592C64.6932 44.1004 64.9556 43.9973 65.2315 43.9586C65.5074 43.9199 65.7887 43.9467 66.0519 44.0369C66.9482 44.3459 67.7707 44.8315 68.4689 45.464C69.1671 46.0964 69.7262 46.8622 70.1119 47.7145C72.8302 53.7355 75.7924 59.8933 78.6675 65.5551C85.7594 79.5813 92.0846 90.1522 95.0817 92.9232H103.114C104.963 92.9232 106.736 93.6441 108.043 94.9272C109.35 96.2104 110.084 97.9507 110.084 99.7653C110.084 101.58 109.35 103.32 108.043 104.603C106.736 105.886 104.963 106.607 103.114 106.607V106.676ZM67.2194 103.255H103.114C104.039 103.255 104.925 102.894 105.579 102.253C106.232 101.611 106.599 100.741 106.599 99.8337C106.599 98.9264 106.232 98.0562 105.579 97.4147C104.925 96.7731 104.039 96.4127 103.114 96.4127H94.4021C94.009 96.4104 93.6283 96.2778 93.3217 96.0364C88.5125 92.3075 78.4932 72.9274 75.531 67.0774C72.7082 61.5867 69.8331 55.5999 67.2194 49.7329V103.255Z" fill="url(#paint3_linear_729_18916)"/>
<defs>
<linearGradient id="paint0_linear_729_18916" x1="37.8925" y1="27.2397" x2="37.8925" y2="75.733" gradientUnits="userSpaceOnUse">
<stop stop-color="#E9682B"/>
<stop offset="1" stop-color="#2D6462"/>
</linearGradient>
<linearGradient id="paint1_linear_729_18916" x1="37.6745" y1="0" x2="37.6745" y2="107" gradientUnits="userSpaceOnUse">
<stop stop-color="#E9682B"/>
<stop offset="1" stop-color="#2D6462"/>
</linearGradient>
<linearGradient id="paint2_linear_729_18916" x1="37.8924" y1="34.4575" x2="37.8924" y2="94.5477" gradientUnits="userSpaceOnUse">
<stop stop-color="#E9682B"/>
<stop offset="1" stop-color="#2D6462"/>
</linearGradient>
<linearGradient id="paint3_linear_729_18916" x1="86.9094" y1="43.9414" x2="86.9094" y2="106.676" gradientUnits="userSpaceOnUse">
<stop stop-color="#E9682B"/>
<stop offset="1" stop-color="#2D6462"/>
</linearGradient>
</defs>
</svg>
