<svg width="76" height="107" viewBox="0 0 76 107" fill="none" xmlns="http://www.w3.org/2000/svg">
<path d="M40.8 22L24 46H35.2V62L52 38H40.8V22Z" fill="url(#paint0_linear_729_18922)"/>
<path fill-rule="evenodd" clip-rule="evenodd" d="M75.7541 41.0778C74.9412 47.9824 72.1354 54.5239 67.6598 59.9484C65.0473 63.1068 58.4106 72.1347 57 78H19C17.5893 72.1301 10.945 63.1023 8.33254 59.9392C3.85885 54.5134 1.05526 47.9711 0.244507 41.0659C-0.566332 34.1608 0.648936 27.1739 3.75001 20.9099C6.85081 14.646 11.7118 9.35987 17.7723 5.66046C23.833 1.96105 30.8467 -0.00110229 38.0059 4.64568e-07C45.1651 0.00110322 52.1786 1.96547 58.238 5.66675C64.2973 9.36804 69.1565 14.6557 72.2554 20.9207C75.3543 27.1854 76.5673 34.1729 75.7541 41.0778ZM53.1557 72.6207H22.8445C21.6874 69.9754 20.1416 67.3274 18.703 65.0765C16.4141 61.4949 13.9709 58.273 12.5364 56.5357C8.71335 51.8988 6.32641 46.3202 5.63671 40.4443C4.94674 34.5688 5.97952 28.6198 8.62351 23.2792C11.268 17.9376 15.4214 13.4135 20.6196 10.2405C25.8185 7.06699 31.8456 5.37834 38.0051 5.37931C44.1649 5.38028 50.1912 7.07078 55.3893 10.2459C60.5864 13.4205 64.7381 17.9456 67.3808 23.2881C70.0231 28.6295 71.054 34.579 70.3622 40.4543C69.6703 46.3293 67.2822 51.9068 63.4581 56.5422C62.0209 58.2805 59.5788 61.5025 57.2923 65.0821C55.8554 67.332 54.3118 69.9781 53.1557 72.6207Z" fill="url(#paint1_linear_729_18922)"/>
<path d="M19 85.5C19 84.1193 20.2152 83 21.7143 83H54.2857C55.7848 83 57 84.1193 57 85.5C57 86.8807 55.7848 88 54.2857 88H21.7143C20.2152 88 19 86.8807 19 85.5Z" fill="url(#paint2_linear_729_18922)"/>
<path fill-rule="evenodd" clip-rule="evenodd" d="M19 94H57V101.8C57 104.672 54.5696 107 51.5714 107H24.4286C21.4304 107 19 104.672 19 101.8V94ZM24.4286 99.2H51.5714V101.8H24.4286V99.2Z" fill="url(#paint3_linear_729_18922)"/>
<defs>
<linearGradient id="paint0_linear_729_18922" x1="38" y1="22" x2="38" y2="62" gradientUnits="userSpaceOnUse">
<stop stop-color="#E9682B"/>
<stop offset="1" stop-color="#2D6462"/>
</linearGradient>
<linearGradient id="paint1_linear_729_18922" x1="38" y1="0" x2="38" y2="78" gradientUnits="userSpaceOnUse">
<stop stop-color="#E9682B"/>
<stop offset="1" stop-color="#2D6462"/>
</linearGradient>
<linearGradient id="paint2_linear_729_18922" x1="38" y1="83" x2="38" y2="88" gradientUnits="userSpaceOnUse">
<stop stop-color="#E9682B"/>
<stop offset="1" stop-color="#2D6462"/>
</linearGradient>
<linearGradient id="paint3_linear_729_18922" x1="38" y1="94" x2="38" y2="107" gradientUnits="userSpaceOnUse">
<stop stop-color="#E9682B"/>
<stop offset="1" stop-color="#2D6462"/>
</linearGradient>
</defs>
</svg>
