<svg width="115" height="108" viewBox="0 0 115 108" fill="none" xmlns="http://www.w3.org/2000/svg">
<mask id="path-1-inside-1_729_18927" fill="white">
<path d="M109.586 82.6337C105.609 82.6337 103.636 85.4627 102.195 87.5276C100.835 89.4762 100.159 90.2704 98.9339 90.2704C97.7086 90.2704 97.0326 89.4762 95.6741 87.5276C94.234 85.4627 92.2599 82.6337 88.2813 82.6337C84.3041 82.6337 82.3324 85.4627 80.8923 87.5276C79.5339 89.4762 78.8591 90.2704 77.6351 90.2704C76.4086 90.2704 75.7338 89.4762 74.3754 87.5276C72.9353 85.4627 70.9624 82.6337 66.9851 82.6337C63.0091 82.6337 61.0387 85.4627 59.5986 87.5276C58.2414 89.4762 57.5666 90.2704 56.3414 90.2704C55.1187 90.2704 54.4438 89.4762 53.0867 87.5289C51.6466 85.4627 49.6762 82.6337 45.6989 82.6337C41.7216 82.6337 39.7512 85.4627 38.3124 87.5289C36.954 89.4762 36.2791 90.2704 35.0564 90.2704C33.8325 90.2704 33.1577 89.4762 31.7992 87.5276C30.3591 85.4627 28.3887 82.6337 24.414 82.6337C20.438 82.6337 18.4663 85.4627 17.0274 87.5276C15.669 89.4762 14.9942 90.2704 13.7702 90.2704C12.5463 90.2704 11.8715 89.4762 10.513 87.5276C9.07293 85.4627 7.10126 82.6337 3.12526 82.6337C2.4587 82.6337 1.81944 82.8972 1.3481 83.3663C0.876774 83.8354 0.611983 84.4717 0.611983 85.1351C0.611983 85.7985 0.876774 86.4347 1.3481 86.9038C1.81944 87.3729 2.4587 87.6364 3.12526 87.6364C4.34922 87.6364 5.0253 88.4306 6.38246 90.3792C7.82257 92.444 9.79424 95.2731 13.7702 95.2731C17.7462 95.2731 19.7179 92.444 21.1568 90.3792C22.5152 88.4294 23.19 87.6364 24.4127 87.6364C25.6354 87.6364 26.3102 88.4306 27.6674 90.3779C29.1088 92.444 31.0804 95.2731 35.0564 95.2731C39.0324 95.2731 41.0028 92.444 42.4417 90.3792C43.8001 88.4294 44.4749 87.6364 45.6977 87.6364C46.9216 87.6364 47.5964 88.4306 48.9549 90.3792C50.395 92.444 52.3666 95.2731 56.3414 95.2731C60.3186 95.2731 62.2903 92.444 63.7304 90.3779C65.0888 88.4294 65.7624 87.6364 66.9864 87.6364C68.2128 87.6364 68.8876 88.4306 70.2461 90.3792C71.6862 92.444 73.6579 95.2731 77.6351 95.2731C81.6111 95.2731 83.5828 92.444 85.0229 90.3792C86.3813 88.4294 87.0561 87.6364 88.2813 87.6364C89.5091 87.6364 90.1852 88.4306 91.5448 90.3804C92.9849 92.444 94.9566 95.2731 98.9339 95.2731C102.911 95.2731 104.884 92.444 106.325 90.3792C107.685 88.4294 108.361 87.6364 109.588 87.6364C110.254 87.6363 110.893 87.3726 111.365 86.9034C111.836 86.4341 112.1 85.7978 112.1 85.1344C112.1 84.471 111.835 83.8349 111.364 83.3659C110.892 82.8969 110.253 82.6335 109.586 82.6337ZM109.586 95.3619C105.609 95.3619 103.636 98.1897 102.195 100.255C100.835 102.204 100.159 102.997 98.9326 102.997C97.7061 102.997 97.0313 102.203 95.6729 100.256C94.2328 98.1909 92.2586 95.3619 88.2801 95.3619C84.3028 95.3619 82.3312 98.1909 80.8911 100.256C79.5326 102.204 78.8578 102.997 77.6339 102.997C76.4074 102.997 75.7326 102.203 74.3729 100.255C72.9328 98.1909 70.9611 95.3619 66.9838 95.3619C63.0078 95.3619 61.0374 98.1897 59.5973 100.255C58.2389 102.204 57.5641 102.997 56.3389 102.997C55.1161 102.997 54.4413 102.203 53.0842 100.256C51.6441 98.1909 49.6736 95.3619 45.6964 95.3619C41.7191 95.3619 39.7487 98.1909 38.3099 100.256C36.9514 102.204 36.2779 102.997 35.0552 102.997C33.8312 102.997 33.1564 102.203 31.798 100.255C30.3579 98.1909 28.3875 95.3619 24.4127 95.3619C20.4367 95.3619 18.465 98.1909 17.0262 100.256C15.6678 102.204 14.993 102.997 13.7702 102.997C12.5463 102.997 11.8715 102.203 10.513 100.256C9.07293 98.1909 7.10126 95.3619 3.12526 95.3619C2.4587 95.3619 1.81944 95.6254 1.3481 96.0945C0.876774 96.5636 0.611983 97.1998 0.611983 97.8632C0.611983 98.5266 0.876774 99.1629 1.3481 99.632C1.81944 100.101 2.4587 100.365 3.12526 100.365C4.35048 100.365 5.0253 101.159 6.38372 103.107C7.82383 105.171 9.79424 108 13.7702 108C17.7462 108 19.7179 105.171 21.1568 103.106C22.5152 101.158 23.19 100.365 24.4127 100.365C25.6354 100.365 26.3102 101.159 27.6674 103.106C29.1075 105.171 31.0779 108 35.0552 108C39.0312 108 41.0016 105.171 42.4404 103.106C43.7989 101.158 44.4737 100.365 45.6964 100.365C46.9204 100.365 47.5952 101.159 48.9536 103.107C50.3937 105.171 52.3641 108 56.3389 108C60.3161 108 62.2878 105.171 63.7279 103.106C65.0851 101.158 65.7599 100.365 66.9838 100.365C68.2103 100.365 68.8851 101.159 70.2436 103.107C71.6837 105.171 73.6566 108 77.6339 108C81.6099 108 83.5815 105.171 85.0216 103.107C86.3801 101.158 87.0549 100.365 88.2801 100.365C89.5078 100.365 90.1839 101.159 91.5436 103.107C92.9837 105.172 94.9553 108 98.9326 108C102.91 108 104.883 105.172 106.324 103.107C107.684 101.158 108.36 100.365 109.586 100.365C110.253 100.365 110.892 100.101 111.364 99.632C111.835 99.1629 112.1 98.5266 112.1 97.8632C112.1 97.1998 111.835 96.5636 111.364 96.0945C110.892 95.6254 110.253 95.3619 109.586 95.3619ZM110.198 72.1605H103.563V68.7837H104.352C105.019 68.7837 105.658 68.5201 106.13 68.051C106.601 67.5819 106.866 66.9457 106.866 66.2823C106.866 65.6189 106.601 64.9827 106.13 64.5136C105.658 64.0445 105.019 63.7809 104.352 63.7809H74.9522L50.3258 51.9808C49.7251 51.693 49.0341 51.6546 48.4049 51.8739C47.7757 52.0932 47.2597 52.5523 46.9706 53.1502C46.6815 53.7481 46.6429 54.4358 46.8632 55.062C47.0836 55.6882 47.5448 56.2017 48.1456 56.4895L56.0875 60.294V72.1605H40.9626V43.7688H57.5829C57.6018 43.7688 57.6194 43.7738 57.6382 43.7738C57.6571 43.7738 57.6747 43.7688 57.6935 43.7688H71.9802C72.6468 43.7688 73.2861 43.5053 73.7574 43.0362C74.2287 42.5671 74.4935 41.9309 74.4935 41.2675L74.4923 41.2512C74.4847 24.1394 62.3707 9.79908 46.233 6.24715C46.1789 6.23339 46.1274 6.21963 46.0721 6.20963C43.5733 5.67047 41.0239 5.39754 38.4669 5.39543L38.4506 5.39418L38.4343 5.39543C18.5668 5.40294 2.40646 21.4917 2.40646 41.2662C2.40646 41.9296 2.67125 42.5658 3.14258 43.0349C3.61391 43.504 4.25318 43.7676 4.91974 43.7676H19.2065C19.2253 43.7676 19.2429 43.7726 19.2617 43.7726C19.2806 43.7726 19.2982 43.7676 19.317 43.7676H35.9361V72.1605H2.51328C1.84671 72.1605 1.20745 72.424 0.736121 72.8931C0.264791 73.3622 0 73.9985 0 74.6619C0 75.3253 0.264791 75.9615 0.736121 76.4306C1.20745 76.8997 1.84671 77.1632 2.51328 77.1632H110.197C110.527 77.1633 110.854 77.0987 111.159 76.9731C111.464 76.8474 111.741 76.6633 111.974 76.431C112.208 76.1988 112.393 75.9231 112.519 75.6197C112.646 75.3162 112.711 74.991 112.711 74.6625C112.711 74.334 112.646 74.0087 112.52 73.7052C112.394 73.4017 112.209 73.1259 111.975 72.8936C111.742 72.6612 111.465 72.4769 111.16 72.3512C110.855 72.2254 110.528 72.1606 110.198 72.1605ZM69.3539 38.7661H60.0585C59.2379 27.2586 52.8077 16.7741 42.9846 10.7321C57.1305 12.8045 68.1915 24.4145 69.3539 38.7661ZM40.9626 15.3621C48.9762 20.5524 54.2214 29.2384 55.0118 38.7661H40.9626V15.3621ZM16.839 38.7661H7.5436C8.70599 24.4145 19.7682 12.8032 33.9142 10.7321C24.0898 16.7741 17.6583 27.2586 16.839 38.7661ZM35.9361 38.7661H21.8869C22.6773 29.2384 27.9225 20.5524 35.9361 15.3621V38.7661ZM98.5355 72.1605H61.1128V62.7016L73.2896 68.5348C73.3047 68.5423 73.3211 68.5435 73.3362 68.551C73.4618 68.6086 73.5938 68.6511 73.7295 68.6874C73.7697 68.6974 73.8074 68.7149 73.8476 68.7236C74.0147 68.7599 74.1881 68.7799 74.3666 68.7812L74.3792 68.7824H98.5368L98.5355 72.1605ZM98.6637 32.5177C107.671 32.5177 115 25.2237 115 16.2588C115 7.29397 107.671 0 98.6637 0C89.6561 0 82.3274 7.29397 82.3274 16.2588C82.3274 25.2237 89.6561 32.5177 98.6637 32.5177ZM98.6637 5.00272C104.9 5.00272 109.973 10.053 109.973 16.2588C109.973 22.4647 104.9 27.515 98.6637 27.515C92.427 27.515 87.354 22.4647 87.354 16.2588C87.354 10.053 92.427 5.00272 98.6637 5.00272Z"/>
</mask>
<path d="M109.586 82.6337C105.609 82.6337 103.636 85.4627 102.195 87.5276C100.835 89.4762 100.159 90.2704 98.9339 90.2704C97.7086 90.2704 97.0326 89.4762 95.6741 87.5276C94.234 85.4627 92.2599 82.6337 88.2813 82.6337C84.3041 82.6337 82.3324 85.4627 80.8923 87.5276C79.5339 89.4762 78.8591 90.2704 77.6351 90.2704C76.4086 90.2704 75.7338 89.4762 74.3754 87.5276C72.9353 85.4627 70.9624 82.6337 66.9851 82.6337C63.0091 82.6337 61.0387 85.4627 59.5986 87.5276C58.2414 89.4762 57.5666 90.2704 56.3414 90.2704C55.1187 90.2704 54.4438 89.4762 53.0867 87.5289C51.6466 85.4627 49.6762 82.6337 45.6989 82.6337C41.7216 82.6337 39.7512 85.4627 38.3124 87.5289C36.954 89.4762 36.2791 90.2704 35.0564 90.2704C33.8325 90.2704 33.1577 89.4762 31.7992 87.5276C30.3591 85.4627 28.3887 82.6337 24.414 82.6337C20.438 82.6337 18.4663 85.4627 17.0274 87.5276C15.669 89.4762 14.9942 90.2704 13.7702 90.2704C12.5463 90.2704 11.8715 89.4762 10.513 87.5276C9.07293 85.4627 7.10126 82.6337 3.12526 82.6337C2.4587 82.6337 1.81944 82.8972 1.3481 83.3663C0.876774 83.8354 0.611983 84.4717 0.611983 85.1351C0.611983 85.7985 0.876774 86.4347 1.3481 86.9038C1.81944 87.3729 2.4587 87.6364 3.12526 87.6364C4.34922 87.6364 5.0253 88.4306 6.38246 90.3792C7.82257 92.444 9.79424 95.2731 13.7702 95.2731C17.7462 95.2731 19.7179 92.444 21.1568 90.3792C22.5152 88.4294 23.19 87.6364 24.4127 87.6364C25.6354 87.6364 26.3102 88.4306 27.6674 90.3779C29.1088 92.444 31.0804 95.2731 35.0564 95.2731C39.0324 95.2731 41.0028 92.444 42.4417 90.3792C43.8001 88.4294 44.4749 87.6364 45.6977 87.6364C46.9216 87.6364 47.5964 88.4306 48.9549 90.3792C50.395 92.444 52.3666 95.2731 56.3414 95.2731C60.3186 95.2731 62.2903 92.444 63.7304 90.3779C65.0888 88.4294 65.7624 87.6364 66.9864 87.6364C68.2128 87.6364 68.8876 88.4306 70.2461 90.3792C71.6862 92.444 73.6579 95.2731 77.6351 95.2731C81.6111 95.2731 83.5828 92.444 85.0229 90.3792C86.3813 88.4294 87.0561 87.6364 88.2813 87.6364C89.5091 87.6364 90.1852 88.4306 91.5448 90.3804C92.9849 92.444 94.9566 95.2731 98.9339 95.2731C102.911 95.2731 104.884 92.444 106.325 90.3792C107.685 88.4294 108.361 87.6364 109.588 87.6364C110.254 87.6363 110.893 87.3726 111.365 86.9034C111.836 86.4341 112.1 85.7978 112.1 85.1344C112.1 84.471 111.835 83.8349 111.364 83.3659C110.892 82.8969 110.253 82.6335 109.586 82.6337ZM109.586 95.3619C105.609 95.3619 103.636 98.1897 102.195 100.255C100.835 102.204 100.159 102.997 98.9326 102.997C97.7061 102.997 97.0313 102.203 95.6729 100.256C94.2328 98.1909 92.2586 95.3619 88.2801 95.3619C84.3028 95.3619 82.3312 98.1909 80.8911 100.256C79.5326 102.204 78.8578 102.997 77.6339 102.997C76.4074 102.997 75.7326 102.203 74.3729 100.255C72.9328 98.1909 70.9611 95.3619 66.9838 95.3619C63.0078 95.3619 61.0374 98.1897 59.5973 100.255C58.2389 102.204 57.5641 102.997 56.3389 102.997C55.1161 102.997 54.4413 102.203 53.0842 100.256C51.6441 98.1909 49.6736 95.3619 45.6964 95.3619C41.7191 95.3619 39.7487 98.1909 38.3099 100.256C36.9514 102.204 36.2779 102.997 35.0552 102.997C33.8312 102.997 33.1564 102.203 31.798 100.255C30.3579 98.1909 28.3875 95.3619 24.4127 95.3619C20.4367 95.3619 18.465 98.1909 17.0262 100.256C15.6678 102.204 14.993 102.997 13.7702 102.997C12.5463 102.997 11.8715 102.203 10.513 100.256C9.07293 98.1909 7.10126 95.3619 3.12526 95.3619C2.4587 95.3619 1.81944 95.6254 1.3481 96.0945C0.876774 96.5636 0.611983 97.1998 0.611983 97.8632C0.611983 98.5266 0.876774 99.1629 1.3481 99.632C1.81944 100.101 2.4587 100.365 3.12526 100.365C4.35048 100.365 5.0253 101.159 6.38372 103.107C7.82383 105.171 9.79424 108 13.7702 108C17.7462 108 19.7179 105.171 21.1568 103.106C22.5152 101.158 23.19 100.365 24.4127 100.365C25.6354 100.365 26.3102 101.159 27.6674 103.106C29.1075 105.171 31.0779 108 35.0552 108C39.0312 108 41.0016 105.171 42.4404 103.106C43.7989 101.158 44.4737 100.365 45.6964 100.365C46.9204 100.365 47.5952 101.159 48.9536 103.107C50.3937 105.171 52.3641 108 56.3389 108C60.3161 108 62.2878 105.171 63.7279 103.106C65.0851 101.158 65.7599 100.365 66.9838 100.365C68.2103 100.365 68.8851 101.159 70.2436 103.107C71.6837 105.171 73.6566 108 77.6339 108C81.6099 108 83.5815 105.171 85.0216 103.107C86.3801 101.158 87.0549 100.365 88.2801 100.365C89.5078 100.365 90.1839 101.159 91.5436 103.107C92.9837 105.172 94.9553 108 98.9326 108C102.91 108 104.883 105.172 106.324 103.107C107.684 101.158 108.36 100.365 109.586 100.365C110.253 100.365 110.892 100.101 111.364 99.632C111.835 99.1629 112.1 98.5266 112.1 97.8632C112.1 97.1998 111.835 96.5636 111.364 96.0945C110.892 95.6254 110.253 95.3619 109.586 95.3619ZM110.198 72.1605H103.563V68.7837H104.352C105.019 68.7837 105.658 68.5201 106.13 68.051C106.601 67.5819 106.866 66.9457 106.866 66.2823C106.866 65.6189 106.601 64.9827 106.13 64.5136C105.658 64.0445 105.019 63.7809 104.352 63.7809H74.9522L50.3258 51.9808C49.7251 51.693 49.0341 51.6546 48.4049 51.8739C47.7757 52.0932 47.2597 52.5523 46.9706 53.1502C46.6815 53.7481 46.6429 54.4358 46.8632 55.062C47.0836 55.6882 47.5448 56.2017 48.1456 56.4895L56.0875 60.294V72.1605H40.9626V43.7688H57.5829C57.6018 43.7688 57.6194 43.7738 57.6382 43.7738C57.6571 43.7738 57.6747 43.7688 57.6935 43.7688H71.9802C72.6468 43.7688 73.2861 43.5053 73.7574 43.0362C74.2287 42.5671 74.4935 41.9309 74.4935 41.2675L74.4923 41.2512C74.4847 24.1394 62.3707 9.79908 46.233 6.24715C46.1789 6.23339 46.1274 6.21963 46.0721 6.20963C43.5733 5.67047 41.0239 5.39754 38.4669 5.39543L38.4506 5.39418L38.4343 5.39543C18.5668 5.40294 2.40646 21.4917 2.40646 41.2662C2.40646 41.9296 2.67125 42.5658 3.14258 43.0349C3.61391 43.504 4.25318 43.7676 4.91974 43.7676H19.2065C19.2253 43.7676 19.2429 43.7726 19.2617 43.7726C19.2806 43.7726 19.2982 43.7676 19.317 43.7676H35.9361V72.1605H2.51328C1.84671 72.1605 1.20745 72.424 0.736121 72.8931C0.264791 73.3622 0 73.9985 0 74.6619C0 75.3253 0.264791 75.9615 0.736121 76.4306C1.20745 76.8997 1.84671 77.1632 2.51328 77.1632H110.197C110.527 77.1633 110.854 77.0987 111.159 76.9731C111.464 76.8474 111.741 76.6633 111.974 76.431C112.208 76.1988 112.393 75.9231 112.519 75.6197C112.646 75.3162 112.711 74.991 112.711 74.6625C112.711 74.334 112.646 74.0087 112.52 73.7052C112.394 73.4017 112.209 73.1259 111.975 72.8936C111.742 72.6612 111.465 72.4769 111.16 72.3512C110.855 72.2254 110.528 72.1606 110.198 72.1605ZM69.3539 38.7661H60.0585C59.2379 27.2586 52.8077 16.7741 42.9846 10.7321C57.1305 12.8045 68.1915 24.4145 69.3539 38.7661ZM40.9626 15.3621C48.9762 20.5524 54.2214 29.2384 55.0118 38.7661H40.9626V15.3621ZM16.839 38.7661H7.5436C8.70599 24.4145 19.7682 12.8032 33.9142 10.7321C24.0898 16.7741 17.6583 27.2586 16.839 38.7661ZM35.9361 38.7661H21.8869C22.6773 29.2384 27.9225 20.5524 35.9361 15.3621V38.7661ZM98.5355 72.1605H61.1128V62.7016L73.2896 68.5348C73.3047 68.5423 73.3211 68.5435 73.3362 68.551C73.4618 68.6086 73.5938 68.6511 73.7295 68.6874C73.7697 68.6974 73.8074 68.7149 73.8476 68.7236C74.0147 68.7599 74.1881 68.7799 74.3666 68.7812L74.3792 68.7824H98.5368L98.5355 72.1605ZM98.6637 32.5177C107.671 32.5177 115 25.2237 115 16.2588C115 7.29397 107.671 0 98.6637 0C89.6561 0 82.3274 7.29397 82.3274 16.2588C82.3274 25.2237 89.6561 32.5177 98.6637 32.5177ZM98.6637 5.00272C104.9 5.00272 109.973 10.053 109.973 16.2588C109.973 22.4647 104.9 27.515 98.6637 27.515C92.427 27.515 87.354 22.4647 87.354 16.2588C87.354 10.053 92.427 5.00272 98.6637 5.00272Z" stroke="url(#paint0_linear_729_18927)" stroke-width="4" mask="url(#path-1-inside-1_729_18927)"/>
<defs>
<linearGradient id="paint0_linear_729_18927" x1="57.5" y1="0" x2="57.5" y2="108" gradientUnits="userSpaceOnUse">
<stop stop-color="#E9682B"/>
<stop offset="1" stop-color="#2D6462"/>
</linearGradient>
</defs>
</svg>
