<svg width="32" height="30" viewBox="0 0 32 30" fill="none" xmlns="http://www.w3.org/2000/svg">
<path d="M31.1723 28.6415L31.1705 28.6436C30.8877 28.9721 30.5113 29.0291 30.1355 28.8936C29.7377 28.7502 29.4075 28.4081 29.3073 28.0337L29.3051 28.0255L29.3026 28.0174C29.1198 27.4168 28.927 26.8294 28.7367 26.2497C28.142 24.4377 27.5716 22.7002 27.408 20.8653C27.3699 20.2257 27.2944 19.6078 27.2118 18.968C27.2012 18.8855 27.1904 18.8026 27.1796 18.7192C27.1056 18.1501 27.0285 17.5569 26.9651 16.8942L26.8815 16.0203L26.1725 16.538C25.9217 16.7211 25.6795 16.8948 25.4449 17.063C24.6707 17.618 23.9797 18.1135 23.3393 18.6923C22.762 19.1816 22.5088 19.7523 22.4965 20.3605C22.485 20.9369 22.6917 21.4994 22.9203 21.9926L22.9236 21.9997L22.9271 22.0067L24.2528 24.647L25.5786 27.2873L25.5849 27.2997L25.5918 27.3117C25.8494 27.7607 25.9339 28.1617 25.8894 28.4784C25.8474 28.7772 25.6842 29.0551 25.3223 29.2768L25.3193 29.2787C25.0754 29.4304 24.8854 29.487 24.7405 29.4979C24.6004 29.5085 24.4747 29.4787 24.3491 29.4105C24.0749 29.2616 23.8023 28.9305 23.5165 28.4337C22.9268 27.3329 22.3191 26.2325 21.7131 25.1354L21.7125 25.1343C21.1048 24.0342 20.499 22.9374 19.9118 21.841C19.5775 21.2081 19.4457 20.6282 19.4984 20.0891C19.5506 19.554 19.7892 19.0093 20.2828 18.451C20.5744 18.1363 20.8619 17.8185 21.1494 17.5006C21.7493 16.8375 22.3497 16.1737 22.9902 15.5359L23.1374 15.3893V15.1816C23.1374 14.8152 23.0269 14.5112 22.8104 14.2648C22.613 14.0402 22.3527 13.8946 22.1237 13.7806L21.8373 13.638L21.5878 13.8383C20.4466 14.7547 19.3237 15.6529 18.2005 16.5513C17.7945 16.8761 17.3885 17.2008 16.9816 17.5265L16.2846 17.218C15.7344 16.9745 15.5245 16.6777 15.4417 16.3713C15.3479 16.0245 15.3929 15.5803 15.536 15.01L15.5382 15.0013L15.5401 14.9924C15.8575 13.5025 16.0952 11.9635 16.332 10.4302C16.4804 9.46946 16.6284 8.51091 16.7955 7.56805L16.8015 7.53423C18.0178 6.89051 18.9527 5.7413 19.3137 4.37524C20.2542 3.92369 21.2086 3.80035 22.2691 3.80035H22.2795L22.2898 3.79992C23.0469 3.76851 23.7946 3.64632 24.5102 3.52938C24.6653 3.50404 24.8189 3.47895 24.9707 3.45508C25.8387 3.3186 26.6738 3.21698 27.5325 3.28539L27.534 3.2855C28.4387 3.3548 29.1024 3.59333 29.5011 3.95493C29.8695 4.28901 30.0745 4.78491 29.9525 5.55866C29.5901 7.36099 29.1588 9.00247 28.0799 11.2227L27.9042 11.5844L28.2198 11.8336C30.1408 13.3507 30.3093 15.3856 29.9507 17.671L29.9507 17.671L29.9497 17.6776C29.5714 20.3148 29.7949 22.8265 30.8637 25.2679C30.9029 25.3767 30.9449 25.4887 30.9878 25.6035C31.1606 26.0652 31.3498 26.571 31.4443 27.0885C31.5623 27.7352 31.5035 28.261 31.1723 28.6415ZM18.6009 26.4694C18.7018 26.7156 18.8054 26.9684 18.9148 27.223H0.503745C0.479641 26.3147 0.577113 25.772 0.81649 25.3625C1.09394 24.8879 1.61481 24.5018 2.67296 23.9931L2.67298 23.9932L2.67918 23.9901C2.75793 23.9509 2.83793 23.9149 2.92806 23.8744C2.95194 23.8636 2.97654 23.8526 3.00201 23.841C3.11757 23.7887 3.24738 23.7284 3.37366 23.6574C3.62672 23.5149 3.90774 23.3064 4.08162 22.9601L4.08724 22.9489L4.0923 22.9375C4.68787 21.5866 5.65214 20.8951 6.81408 20.4527C7.40415 20.2281 8.04204 20.0693 8.71232 19.9241C8.92443 19.8781 9.14226 19.833 9.36261 19.7874C9.82466 19.6917 10.2978 19.5938 10.7527 19.4805L10.7712 19.4759L10.7894 19.4699C10.8772 19.4407 10.9649 19.4148 11.0602 19.3866C11.0744 19.3824 11.0887 19.3782 11.1032 19.3739C11.2114 19.3418 11.33 19.306 11.4466 19.2638C11.6792 19.1796 11.9414 19.0571 12.1631 18.8363C12.6625 18.339 12.9748 18.2358 13.1455 18.2547C13.2885 18.2705 13.5495 18.4043 13.863 19.0635L14.0303 19.4151L14.4122 19.339C14.6015 19.3013 14.7707 19.2445 14.9251 19.1745C14.8873 19.2048 14.8495 19.2352 14.8117 19.2656L14.6444 19.3999L14.6265 19.6137C14.5925 20.0194 14.7848 20.3416 14.9442 20.5581C15.021 20.6624 15.1062 20.7627 15.1783 20.8476L15.1927 20.8646C15.2727 20.9589 15.3368 21.0354 15.3892 21.1093C15.4977 21.262 15.4943 21.3183 15.4911 21.3378C15.4864 21.3663 15.4475 21.504 15.1202 21.7484L14.3137 22.3507L15.2809 22.6295C16.5263 22.9884 17.2246 23.7094 17.7571 24.6352C18.0294 25.1086 18.2559 25.632 18.4891 26.1971C18.5261 26.2867 18.5633 26.3776 18.6009 26.4694ZM14.5355 0.5C16.029 0.5 17.2026 1.67162 17.2026 3.15367C17.2026 4.63571 16.029 5.80734 14.5355 5.80734C13.042 5.80734 11.8684 4.63571 11.8684 3.15367C11.8684 1.73741 13.0495 0.5 14.5355 0.5Z" stroke="black"/>
</svg>
