<svg width="105" height="155" viewBox="0 0 105 155" fill="none" xmlns="http://www.w3.org/2000/svg">
<path d="M20.1247 32.1296C19.7725 31.625 19.3015 31.3403 18.7116 31.2756C18.1257 31.2086 17.4951 31.3608 16.8198 31.7322C16.3451 31.9932 15.9772 32.2888 15.7163 32.6188C15.4553 32.9489 15.3024 33.2862 15.2573 33.6308C15.2123 33.9754 15.2743 34.3064 15.4435 34.6238C15.5876 34.8857 15.7718 35.0802 15.9963 35.2073C16.2249 35.3322 16.4806 35.4047 16.7636 35.425C17.0444 35.4412 17.3364 35.4246 17.6397 35.3751C17.9429 35.3256 18.2404 35.2606 18.532 35.1802L19.8727 34.8267C20.4083 34.6762 20.9468 34.5746 21.4882 34.5221C22.0338 34.4673 22.5592 34.4875 23.0647 34.5827C23.5742 34.6756 24.0427 34.8684 24.4701 35.1611C24.8976 35.4537 25.261 35.8722 25.5603 36.4166C25.9654 37.1533 26.1338 37.9055 26.0656 38.6733C25.9952 39.4369 25.6905 40.1722 25.1517 40.8789C24.6147 41.5793 23.8428 42.2063 22.8359 42.76C21.8578 43.2979 20.9252 43.6134 20.0384 43.7067C19.1556 43.7977 18.3518 43.664 17.627 43.3056C16.9064 42.945 16.3001 42.3562 15.8082 41.5393L18.049 40.3071C18.3226 40.727 18.6579 41.017 19.0551 41.1771C19.4523 41.3371 19.8806 41.3841 20.34 41.318C20.8035 41.2497 21.2726 41.0851 21.7474 40.824C22.2426 40.5517 22.6359 40.2394 22.9273 39.8873C23.2206 39.5288 23.4005 39.158 23.467 38.775C23.5313 38.3878 23.4665 38.013 23.2725 37.6506C23.0884 37.3254 22.8437 37.1082 22.5384 36.9989C22.2308 36.8855 21.8678 36.8506 21.4493 36.8941C21.0327 36.9314 20.5678 37.0164 20.0546 37.1494L18.4216 37.5676C17.2398 37.871 16.1996 37.918 15.3009 37.7086C14.404 37.4928 13.708 36.9347 13.2129 36.0343C12.8055 35.2935 12.6493 34.5345 12.7443 33.7574C12.8434 32.9779 13.1565 32.2434 13.6835 31.5539C14.2082 30.8602 14.9105 30.2715 15.7905 29.7876C16.6827 29.297 17.55 29.0226 18.3922 28.9646C19.2363 28.9002 20.0015 29.0364 20.6878 29.3733C21.3719 29.7061 21.9147 30.2231 22.3163 30.9245L20.1247 32.1296Z" fill="#E9682B"/>
<path d="M36.151 36.0484L31.592 22.4434L40.4406 19.4782L41.1329 21.5442L34.7489 23.6835L35.9866 27.3771L41.9122 25.3914L42.6045 27.4574L36.6789 29.4431L37.9233 33.1566L44.3604 30.9995L45.0527 33.0655L36.151 36.0484Z" fill="#E9682B"/>
<path d="M65.0613 18.692L66.1531 32.999L63.8477 33.1749L56.3627 23.9441L56.244 23.9532L56.9876 33.6984L54.3959 33.8962L53.3041 19.5892L55.6234 19.4122L63.102 28.6505L63.2277 28.6409L62.4835 18.8887L65.0613 18.692Z" fill="#E9682B"/>
<path d="M80.467 37.1288L76.14 34.911L82.6848 22.142L87.0991 24.4045C88.3669 25.0543 89.3249 25.8681 89.9731 26.846C90.6276 27.8218 90.9562 28.9113 90.9588 30.1145C90.9614 31.3178 90.6229 32.5824 89.9433 33.9083C89.2615 35.2384 88.4283 36.2547 87.4437 36.9572C86.4632 37.6619 85.3785 38.0322 84.1895 38.0684C83.0047 38.1067 81.7639 37.7935 80.467 37.1288ZM79.479 34.0952L81.3806 35.0699C82.2701 35.5258 83.0952 35.744 83.8557 35.7244C84.6184 35.7007 85.3156 35.4413 85.9472 34.9463C86.581 34.4471 87.1482 33.7091 87.6489 32.7323C88.1495 31.7555 88.4153 30.8683 88.4463 30.0706C88.4793 29.2688 88.2849 28.5577 87.8628 27.9372C87.4471 27.3147 86.8069 26.7819 85.9423 26.3388L83.9721 25.329L79.479 34.0952Z" fill="#E9682B"/>
<path d="M104.494 105.052C104.494 132.435 82.2955 154.633 54.9128 154.633C27.5301 154.633 5.33203 132.435 5.33203 105.052C5.33203 77.6697 27.5301 55.4717 54.9128 55.4717C82.2955 55.4717 104.494 77.6697 104.494 105.052Z" fill="#E9682B"/>
<path fill-rule="evenodd" clip-rule="evenodd" d="M54.9126 95.2559L53.459 96.5184L61.1645 103.413H44.7832V105.225H61.1645L53.4803 112.101L54.9126 113.382L65.042 104.319L54.9126 95.2559Z" fill="white"/>
</svg>
