<svg width="34" height="34" viewBox="0 0 34 34" fill="none" xmlns="http://www.w3.org/2000/svg">
<g clip-path="url(#clip0_1653_2256)">
<path d="M22.5115 3.1543C22.6222 3.08789 22.7495 3.06022 22.8934 3.07129C23.0372 3.08236 23.1645 3.13216 23.2752 3.22071L33.701 11.0898C33.7895 11.1563 33.8615 11.2448 33.9168 11.3555C33.9721 11.4661 33.9998 11.5768 33.9998 11.6875C33.9998 11.7982 33.9721 11.9089 33.9168 12.0195C33.8615 12.1302 33.7895 12.2188 33.701 12.2852L23.2752 20.0215C23.1645 20.0879 23.0372 20.1322 22.8934 20.1543C22.7495 20.1764 22.6222 20.1543 22.5115 20.0879C22.3787 20.0215 22.2736 19.9274 22.1961 19.8057C22.1186 19.6839 22.0799 19.5566 22.0799 19.4238V15.207C20.9952 15.2734 19.9272 15.4727 18.8758 15.8047C17.8243 16.1367 16.8338 16.5905 15.9041 17.166C14.8637 17.8079 13.9285 18.5827 13.0984 19.4902C12.2684 20.3978 11.5766 21.4049 11.0232 22.5117C10.9347 22.6667 10.813 22.7773 10.658 22.8438C10.5031 22.9102 10.3481 22.9323 10.1932 22.9102C10.0161 22.8659 9.8722 22.7773 9.76152 22.6445C9.65085 22.5117 9.59551 22.3568 9.59551 22.1797C9.59551 20.5195 9.79473 19.0365 10.1932 17.7305C10.5695 16.4466 11.0675 15.3122 11.6873 14.3272C12.3071 13.3421 13.0044 12.5065 13.7791 11.8203C14.576 11.1341 15.395 10.5475 16.2361 10.0605C17.0551 9.59571 17.8576 9.23047 18.6434 8.96485C19.4292 8.69922 20.1209 8.5 20.7186 8.36719C21.0063 8.30078 21.2664 8.25098 21.4988 8.21778C21.7312 8.18457 21.9249 8.1569 22.0799 8.13477V3.81836C22.0799 3.66341 22.1186 3.5306 22.1961 3.41992C22.2736 3.30925 22.3787 3.22071 22.5115 3.1543ZM22.8768 9.5293H22.8436C22.8436 9.5293 22.8325 9.5293 22.8104 9.5293C22.7882 9.5293 22.7661 9.5293 22.7439 9.5293C22.7218 9.5293 22.6775 9.53483 22.6111 9.5459C22.5447 9.55697 22.4673 9.5625 22.3787 9.5625C22.2238 9.58464 22.0356 9.61784 21.8143 9.66211C21.5929 9.70638 21.3383 9.75065 21.0506 9.79492C20.4972 9.92774 19.8608 10.1159 19.1414 10.3594C18.422 10.6029 17.6971 10.9349 16.9666 11.3555C15.7492 12.0417 14.6036 13.0101 13.5301 14.2607C12.4565 15.5114 11.7316 17.1771 11.3553 19.2578C11.8644 18.5938 12.4399 17.9795 13.0818 17.415C13.7238 16.8506 14.3989 16.347 15.1072 15.9043C16.2804 15.196 17.52 14.6536 18.826 14.2773C20.132 13.901 21.4712 13.7129 22.8436 13.7129C22.9321 13.7129 23.0206 13.7295 23.1092 13.7627C23.1977 13.7959 23.2752 13.8457 23.3416 13.9121C23.4301 13.9785 23.491 14.0615 23.5242 14.1611C23.5574 14.2607 23.574 14.3548 23.574 14.4434V17.9629L32.0408 11.6875L23.574 5.2793V8.79883C23.574 8.97591 23.5076 9.13639 23.3748 9.28028C23.242 9.42415 23.076 9.50716 22.8768 9.5293ZM2.1248 3.48633H16.9666C17.1658 3.48633 17.3374 3.55827 17.4812 3.70215C17.6251 3.84603 17.6971 4.01758 17.6971 4.2168C17.6971 4.41602 17.6251 4.5931 17.4812 4.74805C17.3374 4.903 17.1658 4.98047 16.9666 4.98047H2.19121C2.08053 5.00261 1.98092 5.04134 1.89238 5.09668C1.80384 5.15202 1.72637 5.22396 1.65996 5.3125C1.59355 5.40104 1.54375 5.50065 1.51055 5.61133C1.47734 5.72201 1.47181 5.83268 1.49395 5.94336C1.49395 5.9655 1.49395 5.9821 1.49395 5.99317C1.49395 6.00423 1.49395 6.00977 1.49395 6.00977V28.3887C1.49395 28.4108 1.49395 28.4274 1.49395 28.4385C1.49395 28.4495 1.49395 28.4551 1.49395 28.4551C1.47181 28.5879 1.47734 28.7096 1.51055 28.8203C1.54375 28.931 1.59355 29.0306 1.65996 29.1191C1.72637 29.2077 1.80384 29.2796 1.89238 29.335C1.98092 29.3903 2.08053 29.429 2.19121 29.4512H25.5662C25.6326 29.4512 25.699 29.4346 25.7654 29.4014C25.8318 29.3682 25.8982 29.3073 25.9646 29.2188C26.0311 29.1302 26.0864 29.014 26.1307 28.8701C26.1749 28.7262 26.1971 28.5658 26.1971 28.3887V22.1465C26.1971 21.9473 26.269 21.7757 26.4129 21.6318C26.5568 21.488 26.7394 21.416 26.9607 21.416C27.16 21.416 27.3315 21.488 27.4754 21.6318C27.6193 21.7757 27.6912 21.9473 27.6912 22.1465V28.3887C27.6912 28.6986 27.6469 29.0029 27.5584 29.3018C27.4699 29.6006 27.337 29.8607 27.16 30.082C26.9829 30.3255 26.7615 30.5247 26.4959 30.6797C26.2303 30.8346 25.9204 30.9121 25.5662 30.9121H2.1248C2.10267 30.9121 2.08053 30.9121 2.0584 30.9121C2.03626 30.9121 2.01413 30.9121 1.99199 30.9121C1.70423 30.8678 1.42754 30.7682 1.16191 30.6133C0.896289 30.4583 0.674935 30.2591 0.497851 30.0156C0.320768 29.7721 0.187956 29.512 0.0994141 29.2354C0.0108724 28.9587 -0.0223307 28.6654 -0.000195313 28.3555V6.04297C-0.0223307 5.75521 0.0108724 5.46745 0.0994141 5.17969C0.187956 4.89193 0.320768 4.63737 0.497851 4.41602C0.674935 4.17253 0.896289 3.97331 1.16191 3.81836C1.42754 3.66341 1.70423 3.55274 1.99199 3.48633C2.01413 3.48633 2.03626 3.48633 2.0584 3.48633C2.08053 3.48633 2.10267 3.48633 2.1248 3.48633Z" fill="#4C4C4C"/>
</g>
<defs>
<clipPath id="clip0_1653_2256">
<rect width="34" height="34" fill="white" transform="matrix(1 0 0 -1 0 34)"/>
</clipPath>
</defs>
</svg>
