<svg width="44" height="44" viewBox="0 0 44 44" fill="none" xmlns="http://www.w3.org/2000/svg">
<path d="M22 29.3335C21.86 29.333 21.7225 29.2966 21.6007 29.2275C21.4133 29.1216 17.0541 26.6364 17.0541 22.0001C17.0541 17.3638 21.4133 14.8705 21.6007 14.7727C21.7246 14.7012 21.8651 14.6636 22.0081 14.6636C22.1512 14.6636 22.2917 14.7012 22.4156 14.7727C22.603 14.8787 26.9622 17.3638 26.9622 22.0001C26.9622 26.6364 22.603 29.1298 22.4156 29.2275C22.289 29.2993 22.1455 29.3359 22 29.3335ZM22 16.4513C21.0467 17.1194 18.6919 19.0587 18.6919 22.0001C18.6919 24.9416 21.0467 26.889 22 27.549C22.9533 26.8809 25.3081 24.9416 25.3081 22.0001C25.3081 19.0587 22.9615 17.1113 22 16.4513Z" fill="white"/>
<path d="M22.8148 20.3706H21.1852V30.9632H22.8148V20.3706Z" fill="white"/>
<path d="M22 20.3704C21.8928 20.371 21.7865 20.3504 21.6872 20.3099C21.5879 20.2693 21.4976 20.2096 21.4215 20.1341L19.7919 18.5044L20.9407 17.3556L22 18.4067L23.0511 17.3556L24.2 18.5044L22.5704 20.1341C22.4186 20.2846 22.2138 20.3695 22 20.3704ZM22 25.2593C21.8928 25.2599 21.7865 25.2393 21.6872 25.1988C21.5879 25.1582 21.4976 25.0985 21.4215 25.023L18.977 22.5785L20.1259 21.4296L22 23.2956L23.8659 21.4296L25.0148 22.5785L22.5704 25.023C22.4186 25.1735 22.2138 25.2584 22 25.2593ZM32.5926 12.2222H23.6296C23.4678 12.2232 23.3093 12.1759 23.1745 12.0864C23.0396 11.997 22.9344 11.8694 22.8724 11.7199C22.8103 11.5704 22.7942 11.4058 22.826 11.2472C22.8578 11.0885 22.9362 10.9429 23.0511 10.8289L24.1104 9.77779L22 7.66742L17.6896 11.9778C17.537 12.1295 17.3305 12.2147 17.1152 12.2147C16.8999 12.2147 16.6934 12.1295 16.5407 11.9778L10.837 6.27408C10.6853 6.12142 10.6001 5.9149 10.6001 5.69964C10.6001 5.48438 10.6853 5.27786 10.837 5.1252L15.7259 0.23631C15.8777 0.0857776 16.0825 0.00091368 16.2963 1.3619e-05H27.7037C27.8109 -0.000606368 27.9172 0.0199474 28.0165 0.0604963C28.1158 0.101045 28.2061 0.160792 28.2822 0.23631L30.963 2.9252L32.0141 1.87409C32.1275 1.75967 32.2724 1.68147 32.4303 1.64938C32.5882 1.61729 32.7521 1.63274 32.9013 1.69379C33.0504 1.75484 33.1781 1.85875 33.2682 1.99236C33.3583 2.12598 33.4067 2.28331 33.4074 2.44446V11.4074C33.4074 11.6235 33.3216 11.8308 33.1687 11.9836C33.0159 12.1364 32.8087 12.2222 32.5926 12.2222ZM25.5933 10.5926H31.7778V4.40816L31.5415 4.64445C31.3888 4.79621 31.1823 4.8814 30.967 4.8814C30.7518 4.8814 30.5452 4.79621 30.3926 4.64445L27.3696 1.62964H18.26L25.8296 9.19927C25.9814 9.35193 26.0666 9.55845 26.0666 9.77371C26.0666 9.98897 25.9814 10.1955 25.8296 10.3482L25.5933 10.5926ZM12.5563 5.70371L17.1111 10.2585L20.8511 6.51853L16.2963 1.96372L12.5563 5.70371ZM41.5555 33.4074H32.5926C32.3765 33.4074 32.1692 33.3216 32.0164 33.1687C31.8636 33.0159 31.7778 32.8087 31.7778 32.5926V23.6296C31.7768 23.4678 31.8241 23.3093 31.9136 23.1745C32.003 23.0396 32.1306 22.9344 32.2801 22.8724C32.4296 22.8103 32.5942 22.7942 32.7528 22.826C32.9115 22.8578 33.0571 22.9362 33.1711 23.0511L34.2222 24.1104L36.3326 22L32.0222 17.6896C31.8705 17.537 31.7853 17.3305 31.7853 17.1152C31.7853 16.8999 31.8705 16.6934 32.0222 16.5407L37.7259 10.837C37.8786 10.6853 38.0851 10.6001 38.3004 10.6001C38.5156 10.6001 38.7221 10.6853 38.8748 10.837L43.7637 15.7259C43.9142 15.8777 43.9991 16.0825 44 16.2963V27.7037C44.0006 27.8109 43.98 27.9172 43.9395 28.0165C43.8989 28.1158 43.8392 28.2061 43.7637 28.2822L41.0748 30.963L42.1259 32.0141C42.2403 32.1275 42.3185 32.2724 42.3506 32.4303C42.3827 32.5882 42.3673 32.7521 42.3062 32.9013C42.2452 33.0504 42.1413 33.1781 42.0076 33.2682C41.874 33.3583 41.7167 33.4067 41.5555 33.4074ZM33.4074 31.7778H39.5918L39.3555 31.5415C39.2038 31.3888 39.1186 31.1823 39.1186 30.967C39.1186 30.7518 39.2038 30.5452 39.3555 30.3926L42.3704 27.3696V18.26L34.8007 25.8296C34.6481 25.9814 34.4415 26.0666 34.2263 26.0666C34.011 26.0666 33.8045 25.9814 33.6518 25.8296L33.4074 25.5933V31.7778ZM33.7415 17.1111L37.4815 20.8511L42.0363 16.2963L38.2963 12.5563L33.7415 17.1111ZM27.7037 44H16.2963C16.1891 44.0006 16.0828 43.98 15.9835 43.9395C15.8842 43.8989 15.7939 43.8392 15.7178 43.7637L13.037 41.0748L11.9859 42.1259C11.8725 42.2403 11.7276 42.3185 11.5697 42.3506C11.4117 42.3827 11.2479 42.3673 11.0987 42.3062C10.9496 42.2452 10.8219 42.1413 10.7318 42.0076C10.6417 41.874 10.5933 41.7167 10.5926 41.5555V32.5926C10.5926 32.3765 10.6784 32.1692 10.8313 32.0164C10.9841 31.8636 11.1913 31.7778 11.4074 31.7778H20.3704C20.5322 31.7768 20.6907 31.8241 20.8255 31.9136C20.9604 32.003 21.0656 32.1306 21.1276 32.2801C21.1897 32.4296 21.2058 32.5942 21.174 32.7528C21.1422 32.9115 21.0638 33.0571 20.9489 33.1711L19.8896 34.2222L22 36.3326L26.3104 32.0222C26.463 31.8705 26.6695 31.7853 26.8848 31.7853C27.1001 31.7853 27.3066 31.8705 27.4593 32.0222L33.163 37.7259C33.3147 37.8786 33.3999 38.0851 33.3999 38.3004C33.3999 38.5156 33.3147 38.7221 33.163 38.8748L28.2741 43.7637C28.1223 43.9142 27.9175 43.9991 27.7037 44ZM16.6304 42.3704H25.74L18.1704 34.8007C18.0186 34.6481 17.9334 34.4415 17.9334 34.2263C17.9334 34.011 18.0186 33.8045 18.1704 33.6518L18.4067 33.4155H12.2222V39.6L12.4585 39.3637C12.6112 39.2119 12.8177 39.1267 13.033 39.1267C13.2482 39.1267 13.4547 39.2119 13.6074 39.3637L16.6304 42.3704ZM23.1489 37.4815L27.7037 42.0363L31.4437 38.2963L26.8889 33.7415L23.1489 37.4815ZM5.70371 33.4074C5.59648 33.408 5.49018 33.3875 5.3909 33.3469C5.29163 33.3064 5.20133 33.2466 5.1252 33.1711L0.23631 28.2822C0.160792 28.2061 0.101045 28.1158 0.0604963 28.0165C0.0199474 27.9172 -0.000606368 27.8109 1.3619e-05 27.7037V16.2963C-0.000606368 16.1891 0.0199474 16.0828 0.0604963 15.9835C0.101045 15.8842 0.160792 15.7939 0.23631 15.7178L2.9252 13.037L1.86594 11.9859C1.75103 11.872 1.67266 11.7264 1.64082 11.5677C1.60899 11.409 1.62513 11.2444 1.68719 11.0949C1.74925 10.9455 1.85442 10.8179 1.98929 10.7284C2.12416 10.6389 2.28261 10.5917 2.44446 10.5926H11.4074C11.6235 10.5926 11.8308 10.6784 11.9836 10.8313C12.1364 10.9841 12.2222 11.1913 12.2222 11.4074V20.3704C12.2232 20.5322 12.1759 20.6907 12.0864 20.8255C11.997 20.9604 11.8694 21.0656 11.7199 21.1276C11.5704 21.1897 11.4058 21.2058 11.2472 21.174C11.0885 21.1422 10.9429 21.0638 10.8289 20.9489L9.77779 19.8896L7.66742 22L11.9778 26.3104C12.1295 26.463 12.2147 26.6695 12.2147 26.8848C12.2147 27.1001 12.1295 27.3066 11.9778 27.4593L6.27408 33.163C6.12364 33.3165 5.91864 33.4043 5.70371 33.4074ZM1.96372 27.7037L5.70371 31.4437L10.2585 26.8889L6.51853 23.1489L1.96372 27.7037ZM1.62964 16.6304V25.74L9.19927 18.1704C9.35193 18.0186 9.55845 17.9334 9.77371 17.9334C9.98897 17.9334 10.1955 18.0186 10.3482 18.1704L10.5845 18.4067V12.2222H4.40816L4.64445 12.4585C4.79621 12.6112 4.8814 12.8177 4.8814 13.033C4.8814 13.2482 4.79621 13.4547 4.64445 13.6074L1.62964 16.6304Z" fill="white"/>
</svg>
