<svg width="45" height="45" viewBox="0 0 45 45" fill="none" xmlns="http://www.w3.org/2000/svg">
<path fill-rule="evenodd" clip-rule="evenodd" d="M13.2336 7.54926L11.5083 5.14743C11.19 4.70431 10.711 4.40711 10.1764 4.32108C9.64185 4.23505 9.09539 4.3672 8.657 4.68855L8.65654 4.68901C8.2292 5.00223 7.93829 5.47075 7.84481 5.99631C7.75132 6.52187 7.86252 7.06366 8.1551 7.50805L14.8409 17.6599C14.9427 17.811 15.0994 17.9153 15.2768 17.9501C15.4542 17.985 15.638 17.9477 15.7883 17.8462C15.9387 17.7448 16.0435 17.5874 16.0799 17.4083C16.1163 17.2291 16.0814 17.0427 15.9828 16.8894L9.29753 6.73754C9.20154 6.59203 9.16502 6.41453 9.19565 6.24235C9.22628 6.07016 9.32168 5.9167 9.46178 5.81422L9.46224 5.81375C9.53343 5.76145 9.61411 5.72385 9.69966 5.7031C9.78522 5.68236 9.87397 5.67887 9.96085 5.69285C10.0477 5.70682 10.1311 5.73798 10.206 5.78455C10.281 5.83112 10.3462 5.89218 10.3979 5.96424L12.1232 8.36608C12.2302 8.51511 12.3913 8.615 12.5711 8.64379C12.7509 8.67258 12.9347 8.6279 13.0819 8.51958C13.2292 8.41126 13.3279 8.24818 13.3563 8.06621C13.3848 7.88424 13.3406 7.69829 13.2336 7.54926ZM17.4515 12.8646L15.3753 10.4924C15.2729 10.3756 15.1763 10.2538 15.0856 10.1275L14.9809 9.98166C14.8738 9.83263 14.7127 9.73273 14.5329 9.70395C14.3531 9.67516 14.1694 9.71984 14.0221 9.82816C13.8749 9.93647 13.7762 10.0996 13.7477 10.2815C13.7193 10.4635 13.7634 10.6494 13.8705 10.7985L13.9752 10.9443C14.0919 11.1069 14.2163 11.2634 14.3481 11.4134L16.4243 13.7856C16.5462 13.9191 16.7148 13.999 16.8942 14.008C17.0735 14.0171 17.2492 13.9547 17.3836 13.8342C17.518 13.7137 17.6004 13.5447 17.6131 13.3634C17.6258 13.1822 17.5677 13.0031 17.4515 12.8646ZM33.2085 9.78857L28.2197 16.8714C28.1209 17.0216 28.0836 17.2048 28.1159 17.3824C28.1482 17.5599 28.2474 17.7177 28.3926 17.8225C28.5378 17.9273 28.7176 17.9708 28.8939 17.9438C29.0703 17.9169 29.2293 17.8215 29.3374 17.678L34.3263 10.5952C34.3786 10.5209 34.416 10.4369 34.4362 10.348C34.4565 10.2592 34.4592 10.1671 34.4444 10.0771C34.4295 9.98714 34.3972 9.90102 34.3494 9.82366C34.3017 9.74631 34.2393 9.67923 34.1659 9.62627C34.0925 9.5733 34.0095 9.53549 33.9217 9.51498C33.8339 9.49447 33.7429 9.49167 33.654 9.50674C33.5651 9.52181 33.48 9.55446 33.4036 9.60282C33.3271 9.65117 33.2609 9.71429 33.2085 9.78857ZM27.5508 14.1199L30.0544 11.4171C30.1861 11.275 30.3111 11.1268 30.4286 10.973L34.1382 6.13372C34.2445 5.99488 34.4001 5.90336 34.5719 5.87855C34.7437 5.85375 34.9183 5.8976 35.0588 6.00083L35.0601 6.00129C35.358 6.21985 35.4261 6.64076 35.2125 6.94406L34.9027 7.38395C34.7972 7.53401 34.7549 7.7203 34.785 7.90193C34.8151 8.08356 34.9152 8.24566 35.0633 8.35265C35.3717 8.57491 35.8004 8.50222 36.0205 8.19012L36.3302 7.75022C36.643 7.30606 36.7697 6.75476 36.6826 6.21648C36.5956 5.6782 36.3018 5.19656 35.8654 4.87654L35.8645 4.87562C35.4353 4.56107 34.9021 4.42768 34.3776 4.50363C33.8531 4.57958 33.3782 4.85892 33.0534 5.28264L29.3443 10.1215C29.2528 10.2414 29.1554 10.3563 29.0533 10.4669L26.5493 13.1697C26.4249 13.3042 26.3583 13.4832 26.3642 13.6673C26.37 13.8515 26.4478 14.0257 26.5804 14.1519C26.7134 14.2777 26.8902 14.345 27.0721 14.339C27.2541 14.333 27.4262 14.2542 27.5508 14.1199Z" fill="url(#paint0_linear_763_20906)"/>
<path fill-rule="evenodd" clip-rule="evenodd" d="M26.2535 25.4782C26.3506 21.3969 26.8385 17.3371 27.7095 13.3627C27.739 13.2275 27.7307 13.0861 27.6856 12.956C27.6405 12.8259 27.5606 12.7129 27.4559 12.6313C27.3512 12.5497 27.2264 12.503 27.0971 12.4971C26.9677 12.4911 26.8397 12.5262 26.7289 12.598C25.8759 13.1506 25.0123 13.5559 24.1427 13.808C23.9764 13.8588 23.8354 13.9777 23.7502 14.1391C23.6651 14.3005 23.6426 14.4913 23.6877 14.6704C23.7328 14.8494 23.8418 15.0022 23.9911 15.0956C24.1404 15.1891 24.3181 15.2158 24.4856 15.1699C25.0453 15.0066 25.5916 14.7948 26.1193 14.5365C25.4207 18.1262 25.0254 21.7762 24.9382 25.442C24.9342 25.6287 24.9995 25.8095 25.1196 25.9447C25.2397 26.0799 25.4049 26.1586 25.579 26.1633C25.7531 26.1681 25.9219 26.0987 26.0483 25.9703C26.1747 25.8419 26.2485 25.6649 26.2535 25.4782ZM19.9342 13.8085C19.0847 13.5592 18.2405 13.1576 17.4072 12.6022C17.2977 12.5293 17.1707 12.4925 17.0418 12.4964C16.913 12.5002 16.788 12.5446 16.6825 12.6239C16.577 12.7033 16.4955 12.8141 16.4482 12.9427C16.4009 13.0713 16.3899 13.2119 16.4165 13.3471C17.1862 17.2584 17.5129 21.1696 17.5278 25.0809C17.5347 25.2635 17.6074 25.4361 17.7305 25.5625C17.8537 25.6888 18.0178 25.759 18.1882 25.7583C18.3587 25.7576 18.5222 25.686 18.6444 25.5586C18.7667 25.4312 18.838 25.2579 18.8435 25.0752C18.8304 21.5614 18.5699 18.0475 17.9743 14.5336C18.4944 14.7932 19.0338 15.0059 19.5869 15.1694C19.7552 15.2188 19.9349 15.1945 20.0865 15.1018C20.2381 15.0091 20.3491 14.8557 20.3952 14.6752C20.4412 14.4947 20.4185 14.302 20.3321 14.1395C20.2457 13.9769 20.1025 13.8579 19.9342 13.8085Z" fill="url(#paint1_linear_763_20906)"/>
<path fill-rule="evenodd" clip-rule="evenodd" d="M22.0144 10.2521C20.38 10.2521 18.9819 11.8579 18.9819 13.9123C18.9819 15.9667 20.38 17.5729 22.0144 17.5729C23.6483 17.5729 25.0464 15.9667 25.0464 13.9123C25.0464 11.8579 23.6483 10.2521 22.0144 10.2521ZM22.0144 11.6586C22.9771 11.6586 23.6859 12.7017 23.6859 13.9123C23.6859 15.1232 22.9771 16.1664 22.0144 16.1664C21.0512 16.1664 20.3424 15.1232 20.3424 13.9123C20.3424 12.7017 21.0512 11.6586 22.0144 11.6586ZM1.46343 8.64639H2.3704C2.5508 8.64639 2.72382 8.5723 2.85139 8.44041C2.97895 8.30853 3.05062 8.12966 3.05062 7.94315C3.05062 7.75664 2.97895 7.57776 2.85139 7.44588C2.72382 7.314 2.5508 7.23991 2.3704 7.23991H1.46343C1.28302 7.23991 1.11 7.314 0.982436 7.44588C0.854869 7.57776 0.783203 7.75664 0.783203 7.94315C0.783203 8.12966 0.854869 8.30853 0.982436 8.44041C1.11 8.5723 1.28302 8.64639 1.46343 8.64639ZM37.7208 3.75043V14.239C37.7207 14.5161 37.7735 14.7905 37.876 15.0465C37.9785 15.3024 38.1289 15.535 38.3184 15.731C38.5079 15.9269 38.7328 16.0823 38.9805 16.1883C39.2281 16.2943 39.4935 16.3488 39.7615 16.3488H40.9165C41.4577 16.3488 41.9768 16.1265 42.3595 15.7308C42.7422 15.3352 42.9572 14.7986 42.9572 14.239V3.2816C42.9572 2.72206 42.7422 2.18545 42.3595 1.7898C41.9768 1.39415 41.4577 1.17188 40.9165 1.17188H39.7615C39.5811 1.17188 39.408 1.24597 39.2805 1.37785C39.1529 1.50973 39.0812 1.6886 39.0812 1.87512C39.0812 2.06163 39.1529 2.2405 39.2805 2.37238C39.408 2.50427 39.5811 2.57836 39.7615 2.57836H40.9165C41.0968 2.57873 41.2696 2.65294 41.3971 2.78474C41.5246 2.91654 41.5964 3.0952 41.5967 3.2816V14.239C41.5967 14.4255 41.525 14.6044 41.3975 14.7363C41.2699 14.8682 41.0969 14.9423 40.9165 14.9423H39.7615C39.5811 14.9423 39.408 14.8682 39.2805 14.7363C39.1529 14.6044 39.0812 14.4255 39.0812 14.239V3.75043C39.0748 3.56836 39.0003 3.39597 38.8735 3.26951C38.7466 3.14306 38.5772 3.0724 38.401 3.0724C38.2248 3.0724 38.0554 3.14306 37.9286 3.26951C37.8017 3.39597 37.7272 3.56836 37.7208 3.75043Z" fill="url(#paint2_linear_763_20906)"/>
<path fill-rule="evenodd" clip-rule="evenodd" d="M6.85381 3.24748C6.85381 2.697 6.63664 2.16906 6.25007 1.77981C5.86349 1.39055 5.33919 1.17188 4.79249 1.17188H3.62578C3.07908 1.17188 2.55477 1.39055 2.1682 1.77981C1.78163 2.16906 1.56445 2.697 1.56445 3.24748V14.0277C1.56439 14.3003 1.61767 14.5702 1.72124 14.8221C1.82481 15.0739 1.97664 15.3028 2.16807 15.4955C2.35949 15.6883 2.58675 15.8412 2.83687 15.9454C3.08699 16.0497 3.35506 16.1034 3.62578 16.1033H4.79249C5.0632 16.1034 5.33128 16.0497 5.5814 15.9454C5.83151 15.8412 6.05878 15.6883 6.2502 15.4955C6.44162 15.3028 6.59346 15.0739 6.69703 14.8221C6.8006 14.5702 6.85387 14.3003 6.85381 14.0277V3.24748ZM5.4796 3.24748V14.0277C5.4796 14.2112 5.40721 14.3872 5.27835 14.5169C5.14949 14.6467 4.97472 14.7196 4.79249 14.7196H3.62578C3.44366 14.7192 3.2691 14.6462 3.14032 14.5165C3.01154 14.3869 2.93903 14.2111 2.93867 14.0277V3.24748C2.93903 3.0641 3.01154 2.88833 3.14032 2.75866C3.2691 2.62899 3.44366 2.55598 3.62578 2.55561H4.79249C4.97472 2.55561 5.14949 2.62851 5.27835 2.75826C5.40721 2.88801 5.4796 3.06399 5.4796 3.24748ZM29.4565 29.4158C28.4872 30.0366 27.5431 30.7179 26.7016 31.6016C26.3291 31.993 25.8642 32.2829 25.3502 32.4444C24.8363 32.6059 24.2901 32.6336 23.7626 32.5251L23.7613 32.5246C22.9459 32.3585 22.1058 32.3585 21.2904 32.5251C20.7628 32.6338 20.2164 32.6062 19.7023 32.4447C19.1882 32.2832 18.7231 31.9932 18.3505 31.6016C18.2072 31.4515 18.0598 31.3054 17.9085 31.1635C17.8424 31.1016 17.7649 31.0534 17.6803 31.0217C17.5957 30.99 17.5058 30.9754 17.4156 30.9787C17.3254 30.982 17.2368 31.0031 17.1547 31.0409C17.0727 31.0787 16.9988 31.1324 16.9374 31.199C16.8759 31.2655 16.8281 31.3436 16.7966 31.4287C16.7651 31.5139 16.7506 31.6044 16.7539 31.6952C16.7571 31.786 16.7782 31.8753 16.8157 31.9579C16.8532 32.0406 16.9066 32.1149 16.9726 32.1768C17.1036 32.2995 17.2324 32.4268 17.3583 32.5592C17.8914 33.1191 18.5566 33.534 19.2919 33.7651C20.0272 33.9963 20.8087 34.0362 21.5634 33.8811C22.1987 33.7514 22.8534 33.7512 23.4887 33.8807C24.2434 34.036 25.0248 33.9963 25.7601 33.7653C26.4954 33.5342 27.1605 33.1192 27.6934 32.5592C28.456 31.7585 29.3154 31.1459 30.194 30.5837C30.3416 30.4824 30.4443 30.3273 30.4804 30.1512C30.5165 29.975 30.4831 29.7917 30.3872 29.6399C30.2914 29.4881 30.1406 29.3799 29.9669 29.338C29.7932 29.2962 29.6101 29.3241 29.4565 29.4158ZM24.8419 26.3075C27.31 25.0976 29.7776 24.2794 32.2452 23.8075C32.4243 23.7733 32.5825 23.6689 32.6852 23.5172C32.7878 23.3655 32.8263 23.179 32.7924 22.9987C32.7584 22.8184 32.6547 22.6591 32.5041 22.5557C32.3535 22.4524 32.1682 22.4136 31.9892 22.4478C29.4061 22.9418 26.8235 23.7974 24.2404 25.063C24.0823 25.1468 23.9628 25.2891 23.9071 25.4601C23.8515 25.631 23.8641 25.817 23.9422 25.9787C24.0204 26.1404 24.158 26.2652 24.3259 26.3266C24.4938 26.3879 24.6789 26.3811 24.8419 26.3075ZM12.7941 23.8047C14.9699 24.2623 17.1453 24.98 19.3212 25.9458C19.4876 26.0177 19.6754 26.0206 19.8439 25.9538C20.0123 25.887 20.1478 25.7559 20.2208 25.5891C20.2939 25.4223 20.2986 25.2332 20.2339 25.0629C20.1692 24.8926 20.0404 24.7549 19.8754 24.6797C17.6089 23.6733 15.3419 22.9265 13.0749 22.4505C12.8983 22.4174 12.7157 22.4552 12.5665 22.5559C12.4172 22.6566 12.313 22.8122 12.2763 22.9893C12.2396 23.1664 12.2732 23.3509 12.37 23.5033C12.4668 23.6558 12.619 23.764 12.7941 23.8047Z" fill="url(#paint3_linear_763_20906)"/>
<path fill-rule="evenodd" clip-rule="evenodd" d="M15.8387 39.1272V28.414C15.8387 28.2308 15.7662 28.0551 15.6371 27.9256C15.508 27.796 15.333 27.7232 15.1505 27.7232C14.9679 27.7232 14.7929 27.796 14.6638 27.9256C14.5347 28.0551 14.4622 28.2308 14.4622 28.414V39.1272C14.4622 39.3104 14.5347 39.4861 14.6638 39.6157C14.7929 39.7452 14.9679 39.818 15.1505 39.818C15.333 39.818 15.508 39.7452 15.6371 39.6157C15.7662 39.4861 15.8387 39.3104 15.8387 39.1272ZM15.8387 25.8898C15.8386 25.0304 15.4984 24.2063 14.893 23.5986C14.2876 22.991 13.4666 22.6495 12.6105 22.6494H12.6086C12.1569 22.6494 11.7102 22.7443 11.2973 22.9282C10.8844 23.112 10.5144 23.3807 10.2113 23.7168C9.90811 24.0529 9.6785 24.4491 9.53721 24.8798C9.39593 25.3105 9.34612 25.7661 9.39099 26.2172L10.6463 38.8568C10.6662 39.0377 10.7564 39.2034 10.8972 39.3179C11.0381 39.4325 11.2183 39.4866 11.3987 39.4685C11.5791 39.4504 11.7451 39.3616 11.8607 39.2214C11.9762 39.0812 12.032 38.9009 12.0159 38.7196L10.7605 26.08C10.7348 25.8209 10.7635 25.5592 10.8447 25.3119C10.9259 25.0646 11.0578 24.8371 11.2319 24.6441C11.406 24.4511 11.6184 24.2968 11.8556 24.1912C12.0927 24.0856 12.3492 24.031 12.6086 24.031H12.6105C13.1016 24.0312 13.5725 24.227 13.9197 24.5756C14.267 24.9242 14.4621 25.3969 14.4622 25.8898C14.4622 26.073 14.5347 26.2487 14.6638 26.3783C14.7929 26.5078 14.9679 26.5806 15.1505 26.5806C15.333 26.5806 15.508 26.5078 15.6371 26.3783C15.7662 26.2487 15.8387 26.073 15.8387 25.8898ZM30.4518 39.5311V25.8889C30.4518 25.3961 30.6468 24.9236 30.9939 24.5752C31.341 24.2268 31.8118 24.031 32.3027 24.031H32.3041C32.5636 24.0312 32.8202 24.0859 33.0574 24.1916C33.2946 24.2973 33.5072 24.4517 33.6813 24.6448C33.8555 24.838 33.9875 25.0656 34.0687 25.313C34.15 25.5604 34.1787 25.8221 34.1531 26.0814L32.9051 38.6496C32.889 38.8309 32.9447 39.0112 33.0603 39.1514C33.1758 39.2916 33.3418 39.3804 33.5222 39.3985C33.7026 39.4166 33.8828 39.3625 34.0237 39.2479C34.1646 39.1334 34.2548 38.9677 34.2747 38.7868L35.5226 26.2182C35.5673 25.7669 35.5173 25.3113 35.3759 24.8806C35.2345 24.4499 35.0048 24.0537 34.7016 23.7175C34.3984 23.3813 34.0284 23.1126 33.6155 22.9287C33.2026 22.7447 32.7558 22.6496 32.3041 22.6494H32.3027C31.4468 22.6494 30.6259 22.9907 30.0207 23.5982C29.4154 24.2057 29.0754 25.0297 29.0754 25.8889V39.5311C29.0754 39.7143 29.1479 39.89 29.277 40.0196C29.406 40.1491 29.5811 40.2219 29.7636 40.2219C29.9462 40.2219 30.1212 40.1491 30.2503 40.0196C30.3793 39.89 30.4518 39.7143 30.4518 39.5311Z" fill="url(#paint4_linear_763_20906)"/>
<path fill-rule="evenodd" clip-rule="evenodd" d="M16.4515 41.6392C16.4515 40.6419 16.0574 39.6855 15.3558 38.9803C14.6542 38.2751 13.7027 37.8789 12.7105 37.8789H12.3367C11.3445 37.8789 10.393 38.2751 9.69141 38.9803C8.98984 39.6855 8.5957 40.6419 8.5957 41.6392V42.2543C8.5957 42.4402 8.66919 42.6186 8.8 42.7501C8.93081 42.8815 9.10822 42.9554 9.29321 42.9554H15.754C15.939 42.9554 16.1164 42.8815 16.2472 42.7501C16.378 42.6186 16.4515 42.4402 16.4515 42.2543V41.6392ZM15.0551 41.5532H9.99258C10.0146 40.9431 10.2712 40.3654 10.7084 39.9416C11.1456 39.5179 11.7293 39.2811 12.3367 39.2811H12.7105C13.3179 39.2811 13.9017 39.5178 14.3389 39.9416C14.7762 40.3653 15.0329 40.9431 15.0551 41.5532ZM36.3212 41.6392C36.3212 40.6419 35.927 39.6855 35.2255 38.9803C34.5239 38.2751 33.5724 37.8789 32.5802 37.8789H32.2068C31.7155 37.8788 31.229 37.9761 30.7751 38.165C30.3211 38.354 29.9087 38.6309 29.5612 38.9801C29.2138 39.3293 28.9382 39.7438 28.7502 40.2001C28.5622 40.6563 28.4654 41.1453 28.4654 41.6392V42.2543C28.4654 42.4402 28.5389 42.6186 28.6697 42.7501C28.8005 42.8815 28.9779 42.9554 29.1629 42.9554H35.6237C35.8087 42.9554 35.9861 42.8815 36.1169 42.7501C36.2477 42.6186 36.3212 42.4402 36.3212 42.2543V41.6392ZM34.9248 41.5532H29.8623C29.8844 40.9431 30.1411 40.3653 30.5784 39.9416C31.0157 39.5178 31.5994 39.2811 32.2068 39.2811H32.5802C33.1876 39.2811 33.7713 39.5178 34.2086 39.9416C34.6459 40.3653 34.9026 40.9431 34.9248 41.5532Z" fill="url(#paint5_linear_763_20906)"/>
<path fill-rule="evenodd" clip-rule="evenodd" d="M4.1943 42.9553H39.5537C39.7337 42.9553 39.9063 42.8815 40.0336 42.7502C40.1609 42.6189 40.2324 42.4409 40.2324 42.2552C40.2324 42.0696 40.1609 41.8915 40.0336 41.7602C39.9063 41.629 39.7337 41.5552 39.5537 41.5552H4.1943C4.0143 41.5552 3.84168 41.629 3.7144 41.7602C3.58713 41.8915 3.51562 42.0696 3.51562 42.2552C3.51562 42.4409 3.58713 42.6189 3.7144 42.7502C3.84168 42.8815 4.0143 42.9553 4.1943 42.9553ZM13.2474 35.7389H15.1413C15.3213 35.7389 15.494 35.6651 15.6212 35.5339C15.7485 35.4026 15.82 35.2245 15.82 35.0389C15.82 34.8532 15.7485 34.6752 15.6212 34.5439C15.494 34.4126 15.3213 34.3388 15.1413 34.3388H13.2474C13.0674 34.3388 12.8948 34.4126 12.7675 34.5439C12.6402 34.6752 12.5687 34.8532 12.5687 35.0389C12.5687 35.2245 12.6402 35.4026 12.7675 35.5339C12.8948 35.6651 13.0674 35.7389 13.2474 35.7389ZM29.5519 35.7389H33.6868C33.8668 35.7389 34.0394 35.6651 34.1667 35.5339C34.294 35.4026 34.3655 35.2245 34.3655 35.0389C34.3655 34.8532 34.294 34.6752 34.1667 34.5439C34.0394 34.4126 33.8668 34.3388 33.6868 34.3388H29.5519C29.3719 34.3388 29.1992 34.4126 29.072 34.5439C28.9447 34.6752 28.8732 34.8532 28.8732 35.0389C28.8732 35.2245 28.9447 35.4026 29.072 35.5339C29.1992 35.6651 29.3719 35.7389 29.5519 35.7389ZM42.1535 8.42936H43.0584C43.2384 8.42936 43.411 8.3556 43.5383 8.22432C43.6656 8.09304 43.7371 7.91499 43.7371 7.72933C43.7371 7.54367 43.6656 7.36561 43.5383 7.23433C43.411 7.10305 43.2384 7.0293 43.0584 7.0293H42.1535C41.9735 7.0293 41.8009 7.10305 41.6736 7.23433C41.5463 7.36561 41.4748 7.54367 41.4748 7.72933C41.4748 7.91499 41.5463 8.09304 41.6736 8.22432C41.8009 8.3556 41.9735 8.42936 42.1535 8.42936ZM6.20499 8.42936H38.2864C38.4621 8.42274 38.6285 8.34609 38.7505 8.21553C38.8726 8.08497 38.9408 7.91068 38.9408 7.72933C38.9408 7.54797 38.8726 7.37368 38.7505 7.24312C38.6285 7.11257 38.4621 7.03592 38.2864 7.0293H6.20499C6.02928 7.03592 5.86291 7.11257 5.74087 7.24312C5.61884 7.37368 5.55065 7.54797 5.55065 7.72933C5.55065 7.91068 5.61884 8.08497 5.74087 8.21553C5.86291 8.34609 6.02928 8.42274 6.20499 8.42936Z" fill="url(#paint6_linear_763_20906)"/>
<defs>
<linearGradient id="paint0_linear_763_20906" x1="22.261" y1="4.29541" x2="22.261" y2="17.9629" gradientUnits="userSpaceOnUse">
<stop stop-color="#E9682B"/>
<stop offset="1" stop-color="#2D6462"/>
</linearGradient>
<linearGradient id="paint1_linear_763_20906" x1="22.0646" y1="12.4961" x2="22.0646" y2="26.1636" gradientUnits="userSpaceOnUse">
<stop stop-color="#E9682B"/>
<stop offset="1" stop-color="#2D6462"/>
</linearGradient>
<linearGradient id="paint2_linear_763_20906" x1="21.8702" y1="1.17187" x2="21.8702" y2="17.5729" gradientUnits="userSpaceOnUse">
<stop stop-color="#E9682B"/>
<stop offset="1" stop-color="#2D6462"/>
</linearGradient>
<linearGradient id="paint3_linear_763_20906" x1="17.1844" y1="1.17187" x2="17.1844" y2="33.9738" gradientUnits="userSpaceOnUse">
<stop stop-color="#E9682B"/>
<stop offset="1" stop-color="#2D6462"/>
</linearGradient>
<linearGradient id="paint4_linear_763_20906" x1="22.4567" y1="22.6494" x2="22.4567" y2="40.2219" gradientUnits="userSpaceOnUse">
<stop stop-color="#E9682B"/>
<stop offset="1" stop-color="#2D6462"/>
</linearGradient>
<linearGradient id="paint5_linear_763_20906" x1="22.4584" y1="37.8789" x2="22.4584" y2="42.9554" gradientUnits="userSpaceOnUse">
<stop stop-color="#E9682B"/>
<stop offset="1" stop-color="#2D6462"/>
</linearGradient>
<linearGradient id="paint6_linear_763_20906" x1="23.6264" y1="7.0293" x2="23.6264" y2="42.9553" gradientUnits="userSpaceOnUse">
<stop stop-color="#E9682B"/>
<stop offset="1" stop-color="#2D6462"/>
</linearGradient>
</defs>
</svg>
