<svg width="103" height="107" viewBox="0 0 103 107" fill="none" xmlns="http://www.w3.org/2000/svg">
<path d="M101.877 104.771H97.1335C96.469 101.625 93.2496 99.7708 90.2534 100.65C89.4091 97.2577 86.5126 94.6927 82.9691 94.2452C82.9689 94.1157 82.9609 77.7846 82.9729 34.8407H86.6648C89.1416 34.8407 91.1566 32.8411 91.1566 30.3824V18.8315C91.1566 16.7439 89.6983 15.0006 87.7438 14.518C89.8251 12.8266 91.1566 10.2584 91.1566 7.38629C91.1566 3.31334 87.8184 0 83.7148 0H19.285C15.1814 0 11.8432 3.31334 11.8432 7.38629C11.8432 10.2584 13.1746 12.8266 15.256 14.518C13.3015 15.0008 11.8432 16.7439 11.8432 18.8315V30.3822C11.8432 32.8409 13.8582 34.8405 16.335 34.8405H20.0269C19.939 49.5773 20.0138 36.7335 20.0275 94.2012C16.292 94.3745 13.0876 96.9202 12.1098 100.434C9.64881 100.329 7.16358 102.089 6.60144 104.771H1.123C0.502907 104.771 0 105.269 0 105.885C0 106.501 0.502907 107 1.123 107C13.3991 107 89.4934 107 101.877 107C102.497 107 103 106.501 103 105.885C103 105.269 102.497 104.771 101.877 104.771ZM68.0438 104.771H62.7556V97.9865C66.3647 97.9865 71.085 97.9865 74.6907 97.9865C74.1899 98.7284 73.7981 99.5499 73.5519 100.434C71.0903 100.329 68.6061 102.088 68.0438 104.771ZM28.8115 100.65C28.5713 99.6853 28.1626 98.7886 27.6228 97.9863C30.5454 97.9863 37.3072 97.9863 40.2408 97.9863V104.771H35.691C35.0264 101.626 31.8073 99.7702 28.8115 100.65ZM70.6401 34.8405V41.628C70.5056 41.628 52.7572 41.6311 52.6227 41.6314V34.8405H70.6401ZM60.5082 104.771H42.491V97.9821C48.7925 97.9821 54.2069 97.9821 60.5082 97.9821V104.771ZM22.2727 52.8764H30.1103V59.6662H22.2727V52.8764ZM60.5082 43.8606V50.6515C54.2069 50.6515 48.7923 50.6515 42.491 50.6515V43.8606C48.7925 43.8606 54.2069 43.8606 60.5082 43.8606ZM70.639 95.7529C64.3381 95.7529 58.9238 95.7529 52.6229 95.7529V88.962C59.378 88.9628 63.8831 88.9635 70.639 88.9641V95.7529ZM32.3597 95.7529V88.9641C33.719 88.9639 49.0201 88.962 50.3769 88.962V95.7529C44.0754 95.7529 38.661 95.7529 32.3597 95.7529ZM22.2261 79.9452C28.5266 79.9452 33.9403 79.9452 40.2406 79.9452V86.7327C40.1061 86.7327 22.3604 86.7348 22.2261 86.7348V79.9452ZM22.2261 61.8953C24.0681 61.8959 15.5534 61.8932 40.2406 61.9007V68.6916C38.3986 68.6922 46.9132 68.6895 22.2261 68.697V61.8953ZM70.6401 52.8808V59.6662C63.8723 59.6683 59.3658 59.6696 52.6227 59.6717V52.8808C58.9242 52.8808 64.3388 52.8808 70.6401 52.8808ZM80.7737 68.697C78.9317 68.6964 87.4464 68.6991 62.7592 68.6916V61.9007C64.6012 61.9001 56.0865 61.9028 80.7737 61.8953V68.697ZM42.491 86.7329V79.942C48.7925 79.942 54.2069 79.942 60.5082 79.942V86.7329C54.2071 86.7329 48.7923 86.7329 42.491 86.7329ZM60.5082 61.9007V68.6916C54.2069 68.6916 48.7923 68.6916 42.491 68.6916V61.9007C48.7925 61.9007 54.2069 61.9007 60.5082 61.9007ZM32.3597 77.7128V70.9263C39.1275 70.9242 43.634 70.923 50.3769 70.9209V77.7128C44.0754 77.7128 38.661 77.7128 32.3597 77.7128ZM52.6229 70.9209C59.3681 70.923 63.8702 70.9242 70.6403 70.9263V77.7128C64.3388 77.7128 58.9244 77.7128 52.6229 77.7128V70.9209ZM62.759 86.7329V79.9452C69.0595 79.9452 74.4732 79.9452 80.7735 79.9452V86.735C80.6392 86.735 62.8935 86.7329 62.759 86.7329ZM50.3769 59.6717C43.6317 59.6696 39.1296 59.6683 32.3597 59.6662V52.8808C38.661 52.8808 44.0756 52.8808 50.3769 52.8808V59.6717ZM80.7271 77.7161H72.8892V70.9263H80.7269L80.7271 77.7161ZM80.7271 59.6662H72.8892V52.8764H80.7269L80.7271 59.6662ZM22.2727 70.9263H30.1103V77.7161H22.2727V70.9263ZM80.7737 50.6471C74.4732 50.6471 69.0595 50.6471 62.7592 50.6471V43.8606C62.8937 43.8606 80.6394 43.8573 80.7737 43.8573V50.6471ZM50.3769 41.6314C50.2424 41.6314 32.494 41.628 32.3597 41.628V34.8405H50.3769V41.6314ZM40.2408 43.8606V50.6471C33.9403 50.6471 28.5266 50.6471 22.2263 50.6471V43.8573C22.3606 43.8573 40.1063 43.8606 40.2408 43.8606ZM22.2733 88.9697H30.1116V95.7573H25.4341C24.4997 95.0989 23.4294 94.6219 22.2733 94.3722V88.9697ZM76.9034 95.7573H72.8859V88.9697H80.7231V94.2636C79.3204 94.4512 78.0197 94.9747 76.9034 95.7573ZM80.7271 41.6282H72.8892V34.8407H80.7269L80.7271 41.6282ZM14.089 7.38629C14.089 4.54219 16.4199 2.22925 19.2848 2.22925H83.7146C86.5796 2.22925 88.9104 4.54219 88.9104 7.38629C88.9104 11.2383 85.7526 14.3732 81.8709 14.3732H21.128C17.2468 14.373 14.089 11.2383 14.089 7.38629ZM14.089 30.3822V18.8315C14.089 17.6027 15.0963 16.6022 16.335 16.6022H86.6648C87.9035 16.6022 88.9108 17.6024 88.9108 18.8315V30.3822C88.9108 31.611 87.9035 32.6114 86.6648 32.6114C66.5262 32.6112 36.9443 32.6085 16.335 32.6114C15.0963 32.6114 14.089 31.611 14.089 30.3822ZM30.1105 34.8405V41.628H22.2729V34.8405H30.1105ZM12.7012 102.757C13.3593 102.933 14.0163 102.496 14.1077 101.833C14.536 98.7342 17.2519 96.3974 20.4244 96.3974C23.8151 96.3974 26.6178 99.0077 26.8052 102.34C26.8535 103.197 27.823 103.684 28.5449 103.209C30.3839 102.004 32.7041 102.934 33.3778 104.771H8.9267C9.50085 103.236 11.1908 102.356 12.7012 102.757ZM70.3692 104.771C70.9436 103.236 72.6336 102.356 74.1438 102.757C74.7978 102.933 75.4584 102.499 75.5503 101.833C75.9786 98.7344 78.6944 96.3977 81.867 96.3977C85.2572 96.3977 88.0597 99.0079 88.2477 102.341C88.296 103.197 89.2655 103.684 89.9874 103.209C91.8332 102 94.1492 102.941 94.8203 104.771L70.3692 104.771Z" fill="url(#paint0_linear_729_18871)"/>
<defs>
<linearGradient id="paint0_linear_729_18871" x1="51.5" y1="0" x2="51.5" y2="107" gradientUnits="userSpaceOnUse">
<stop stop-color="#E9682B"/>
<stop offset="1" stop-color="#2D6462"/>
</linearGradient>
</defs>
</svg>
