<svg width="30" height="34" viewBox="0 0 30 34" fill="none" xmlns="http://www.w3.org/2000/svg">
<path d="M7.80902 1.04394V3.12728H2.75612C1.99053 3.12728 1.33978 3.4311 0.80387 4.03873C0.267957 4.64637 0 5.38422 0 6.25228V29.1689C0 30.037 0.267957 30.7748 0.80387 31.3825C1.33978 31.9901 1.99053 32.2939 2.75612 32.2939H26.6425C27.4081 32.2939 28.0589 31.9901 28.5948 31.3825C29.1307 30.7748 29.3987 30.037 29.3987 29.1689V6.25228C29.3987 5.38422 29.1307 4.64637 28.5948 4.03873C28.0589 3.4311 27.4081 3.12728 26.6425 3.12728H22.5084V1.04394C22.5084 0.761826 22.4174 0.517685 22.2356 0.311522C22.0538 0.105358 21.8385 0.00227737 21.5896 0.00227737C21.3408 0.00227737 21.1255 0.105358 20.9437 0.311522C20.7618 0.517685 20.6709 0.761826 20.6709 1.04394V3.12728H9.64644V1.04394C9.64644 0.761826 9.55552 0.517685 9.37369 0.311522C9.19187 0.105358 8.97654 0.00227737 8.72773 0.00227737C8.47891 0.00227737 8.26359 0.105358 8.08176 0.311522C7.89993 0.517685 7.80902 0.761826 7.80902 1.04394ZM27.5612 6.25228V10.3213H1.83742V6.25228C1.83742 5.97016 1.92833 5.72602 2.11016 5.51986C2.29199 5.31369 2.50731 5.21061 2.75612 5.21061H7.80902V7.22884C7.80902 7.53266 7.89993 7.78222 8.08176 7.97754C8.26359 8.17285 8.47891 8.27051 8.72773 8.27051C8.97654 8.27051 9.19187 8.17285 9.37369 7.97754C9.55552 7.78222 9.64644 7.53266 9.64644 7.22884V5.21061H20.6709V7.22884C20.6709 7.53266 20.7618 7.78222 20.9437 7.97754C21.1255 8.17285 21.3408 8.27051 21.5896 8.27051C21.8385 8.27051 22.0538 8.17285 22.2356 7.97754C22.4174 7.78222 22.5084 7.53266 22.5084 7.22884V5.21061H26.6425C26.8914 5.21061 27.1067 5.31369 27.2885 5.51986C27.4703 5.72602 27.5612 5.97016 27.5612 6.25228ZM1.83742 29.1689V12.4046H27.5612V29.1689C27.5612 29.4511 27.4703 29.6952 27.2885 29.9014C27.1067 30.1075 26.8914 30.2106 26.6425 30.2106H2.75612C2.50731 30.2106 2.29199 30.1075 2.11016 29.9014C1.92833 29.6952 1.83742 29.4511 1.83742 29.1689ZM3.21548 15.8551C3.21548 16.1373 3.30639 16.3814 3.48822 16.5876C3.67005 16.7937 3.88537 16.8968 4.13419 16.8968H8.72773C8.97654 16.8968 9.19187 16.7937 9.37369 16.5876C9.55552 16.3814 9.64644 16.1373 9.64644 15.8551C9.64644 15.573 9.55552 15.3289 9.37369 15.1227C9.19187 14.9166 8.97654 14.8135 8.72773 14.8135H4.13419C3.88537 14.8135 3.67005 14.9166 3.48822 15.1227C3.30639 15.3289 3.21548 15.573 3.21548 15.8551ZM4.13419 22.1051C3.88537 22.1051 3.67005 22.0021 3.48822 21.7959C3.30639 21.5897 3.21548 21.3456 3.21548 21.0635C3.21548 20.7814 3.30639 20.5372 3.48822 20.3311C3.67005 20.1249 3.88537 20.0218 4.13419 20.0218H8.72773C8.97654 20.0218 9.19187 20.1249 9.37369 20.3311C9.55552 20.5372 9.64644 20.7814 9.64644 21.0635C9.64644 21.3456 9.55552 21.5897 9.37369 21.7959C9.19187 22.0021 8.97654 22.1051 8.72773 22.1051H4.13419ZM3.21548 26.2718C3.21548 26.5539 3.30639 26.7981 3.48822 27.0042C3.67005 27.2104 3.88537 27.3135 4.13419 27.3135H8.72773C8.97654 27.3135 9.19187 27.2104 9.37369 27.0042C9.55552 26.7981 9.64644 26.5539 9.64644 26.2718C9.64644 25.9897 9.55552 25.7456 9.37369 25.5394C9.19187 25.3332 8.97654 25.2301 8.72773 25.2301H4.13419C3.88537 25.2301 3.67005 25.3332 3.48822 25.5394C3.30639 25.7456 3.21548 25.9897 3.21548 26.2718ZM12.4026 16.8968C12.1537 16.8968 11.9384 16.7937 11.7566 16.5876C11.5748 16.3814 11.4839 16.1373 11.4839 15.8551C11.4839 15.573 11.5748 15.3289 11.7566 15.1227C11.9384 14.9166 12.1537 14.8135 12.4026 14.8135H16.9961C17.2449 14.8135 17.4602 14.9166 17.6421 15.1227C17.8239 15.3289 17.9148 15.573 17.9148 15.8551C17.9148 16.1373 17.8239 16.3814 17.6421 16.5876C17.4602 16.7937 17.2449 16.8968 16.9961 16.8968H12.4026ZM11.4839 21.0635C11.4839 21.3456 11.5748 21.5897 11.7566 21.7959C11.9384 22.0021 12.1537 22.1051 12.4026 22.1051H16.9961C17.2449 22.1051 17.4602 22.0021 17.6421 21.7959C17.8239 21.5897 17.9148 21.3456 17.9148 21.0635C17.9148 20.7814 17.8239 20.5372 17.6421 20.3311C17.4602 20.1249 17.2449 20.0218 16.9961 20.0218H12.4026C12.1537 20.0218 11.9384 20.1249 11.7566 20.3311C11.5748 20.5372 11.4839 20.7814 11.4839 21.0635ZM12.4026 27.3135C12.1537 27.3135 11.9384 27.2104 11.7566 27.0042C11.5748 26.7981 11.4839 26.5539 11.4839 26.2718C11.4839 25.9897 11.5748 25.7456 11.7566 25.5394C11.9384 25.3332 12.1537 25.2301 12.4026 25.2301H16.9961C17.2449 25.2301 17.4602 25.3332 17.6421 25.5394C17.8239 25.7456 17.9148 25.9897 17.9148 26.2718C17.9148 26.5539 17.8239 26.7981 17.6421 27.0042C17.4602 27.2104 17.2449 27.3135 16.9961 27.3135H12.4026ZM19.7522 15.8551C19.7522 16.1373 19.8431 16.3814 20.025 16.5876C20.2068 16.7937 20.4221 16.8968 20.6709 16.8968H25.2645C25.5133 16.8968 25.7286 16.7937 25.9104 16.5876C26.0923 16.3814 26.1832 16.1373 26.1832 15.8551C26.1832 15.573 26.0923 15.3289 25.9104 15.1227C25.7286 14.9166 25.5133 14.8135 25.2645 14.8135H20.6709C20.4221 14.8135 20.2068 14.9166 20.025 15.1227C19.8431 15.3289 19.7522 15.573 19.7522 15.8551ZM20.6709 22.1051C20.4221 22.1051 20.2068 22.0021 20.025 21.7959C19.8431 21.5897 19.7522 21.3456 19.7522 21.0635C19.7522 20.7814 19.8431 20.5372 20.025 20.3311C20.2068 20.1249 20.4221 20.0218 20.6709 20.0218H25.2645C25.5133 20.0218 25.7286 20.1249 25.9104 20.3311C26.0923 20.5372 26.1832 20.7814 26.1832 21.0635C26.1832 21.3456 26.0923 21.5897 25.9104 21.7959C25.7286 22.0021 25.5133 22.1051 25.2645 22.1051H20.6709ZM19.7522 26.2718C19.7522 26.5539 19.8431 26.7981 20.025 27.0042C20.2068 27.2104 20.4221 27.3135 20.6709 27.3135H25.2645C25.5133 27.3135 25.7286 27.2104 25.9104 27.0042C26.0923 26.7981 26.1832 26.5539 26.1832 26.2718C26.1832 25.9897 26.0923 25.7456 25.9104 25.5394C25.7286 25.3332 25.5133 25.2301 25.2645 25.2301H20.6709C20.4221 25.2301 20.2068 25.3332 20.025 25.5394C19.8431 25.7456 19.7522 25.9897 19.7522 26.2718Z" fill="#333333"/>
</svg>
