<svg width="28" height="31" viewBox="0 0 28 31" fill="none" xmlns="http://www.w3.org/2000/svg">
<path d="M7.09685 0.948568V2.84191H2.50477C1.809 2.84191 1.2176 3.11802 0.730558 3.67024C0.243519 4.22247 0 4.89302 0 5.68191V26.5086C0 27.2975 0.243519 27.9681 0.730558 28.5203C1.2176 29.0725 1.809 29.3486 2.50477 29.3486H24.2128C24.9086 29.3486 25.5 29.0725 25.987 28.5203C26.474 27.9681 26.7176 27.2975 26.7176 26.5086V5.68191C26.7176 4.89302 26.474 4.22247 25.987 3.67024C25.5 3.11802 24.9086 2.84191 24.2128 2.84191H20.4556V0.948568C20.4556 0.692179 20.373 0.470304 20.2078 0.282942C20.0425 0.0955811 19.8468 0.00189972 19.6207 0.00189972C19.3946 0.00189972 19.1989 0.0955811 19.0337 0.282942C18.8684 0.470304 18.7858 0.692179 18.7858 0.948568V2.84191H8.7667V0.948568C8.7667 0.692179 8.68408 0.470304 8.51883 0.282942C8.35359 0.0955811 8.1579 0.00189972 7.93178 0.00189972C7.70565 0.00189972 7.50997 0.0955811 7.34472 0.282942C7.17948 0.470304 7.09685 0.692179 7.09685 0.948568ZM25.0477 5.68191V9.37984H1.66985V5.68191C1.66985 5.42552 1.75247 5.20365 1.91772 5.01629C2.08296 4.82892 2.27865 4.73524 2.50477 4.73524H7.09685V6.56941C7.09685 6.84553 7.17948 7.07233 7.34472 7.24983C7.50997 7.42733 7.70565 7.51608 7.93178 7.51608C8.1579 7.51608 8.35359 7.42733 8.51883 7.24983C8.68408 7.07233 8.7667 6.84553 8.7667 6.56941V4.73524H18.7858V6.56941C18.7858 6.84553 18.8684 7.07233 19.0337 7.24983C19.1989 7.42733 19.3946 7.51608 19.6207 7.51608C19.8468 7.51608 20.0425 7.42733 20.2078 7.24983C20.373 7.07233 20.4556 6.84553 20.4556 6.56941V4.73524H24.2128C24.4389 4.73524 24.6346 4.82892 24.7999 5.01629C24.9651 5.20365 25.0477 5.42552 25.0477 5.68191ZM1.66985 26.5086V11.2732H25.0477V26.5086C25.0477 26.765 24.9651 26.9869 24.7999 27.1743C24.6346 27.3616 24.4389 27.4553 24.2128 27.4553H2.50477C2.27865 27.4553 2.08296 27.3616 1.91772 27.1743C1.75247 26.9869 1.66985 26.765 1.66985 26.5086ZM2.92223 14.409C2.92223 14.6654 3.00486 14.8873 3.1701 15.0746C3.33535 15.262 3.53103 15.3557 3.75716 15.3557H7.93178C8.1579 15.3557 8.35359 15.262 8.51883 15.0746C8.68408 14.8873 8.7667 14.6654 8.7667 14.409C8.7667 14.1526 8.68408 13.9308 8.51883 13.7434C8.35359 13.556 8.1579 13.4623 7.93178 13.4623H3.75716C3.53103 13.4623 3.33535 13.556 3.1701 13.7434C3.00486 13.9308 2.92223 14.1526 2.92223 14.409ZM3.75716 20.089C3.53103 20.089 3.33535 19.9953 3.1701 19.808C3.00486 19.6206 2.92223 19.3987 2.92223 19.1424C2.92223 18.886 3.00486 18.6641 3.1701 18.4767C3.33535 18.2894 3.53103 18.1957 3.75716 18.1957H7.93178C8.1579 18.1957 8.35359 18.2894 8.51883 18.4767C8.68408 18.6641 8.7667 18.886 8.7667 19.1424C8.7667 19.3987 8.68408 19.6206 8.51883 19.808C8.35359 19.9953 8.1579 20.089 7.93178 20.089H3.75716ZM2.92223 23.8757C2.92223 24.1321 3.00486 24.354 3.1701 24.5413C3.33535 24.7287 3.53103 24.8224 3.75716 24.8224H7.93178C8.1579 24.8224 8.35359 24.7287 8.51883 24.5413C8.68408 24.354 8.7667 24.1321 8.7667 23.8757C8.7667 23.6193 8.68408 23.3974 8.51883 23.2101C8.35359 23.0227 8.1579 22.929 7.93178 22.929H3.75716C3.53103 22.929 3.33535 23.0227 3.1701 23.2101C3.00486 23.3974 2.92223 23.6193 2.92223 23.8757ZM11.2715 15.3557C11.0453 15.3557 10.8497 15.262 10.6844 15.0746C10.5192 14.8873 10.4365 14.6654 10.4365 14.409C10.4365 14.1526 10.5192 13.9308 10.6844 13.7434C10.8497 13.556 11.0453 13.4623 11.2715 13.4623H15.4461C15.6722 13.4623 15.8679 13.556 16.0331 13.7434C16.1984 13.9308 16.281 14.1526 16.281 14.409C16.281 14.6654 16.1984 14.8873 16.0331 15.0746C15.8679 15.262 15.6722 15.3557 15.4461 15.3557H11.2715ZM10.4365 19.1424C10.4365 19.3987 10.5192 19.6206 10.6844 19.808C10.8497 19.9953 11.0453 20.089 11.2715 20.089H15.4461C15.6722 20.089 15.8679 19.9953 16.0331 19.808C16.1984 19.6206 16.281 19.3987 16.281 19.1424C16.281 18.886 16.1984 18.6641 16.0331 18.4767C15.8679 18.2894 15.6722 18.1957 15.4461 18.1957H11.2715C11.0453 18.1957 10.8497 18.2894 10.6844 18.4767C10.5192 18.6641 10.4365 18.886 10.4365 19.1424ZM11.2715 24.8224C11.0453 24.8224 10.8497 24.7287 10.6844 24.5413C10.5192 24.354 10.4365 24.1321 10.4365 23.8757C10.4365 23.6193 10.5192 23.3974 10.6844 23.2101C10.8497 23.0227 11.0453 22.929 11.2715 22.929H15.4461C15.6722 22.929 15.8679 23.0227 16.0331 23.2101C16.1984 23.3974 16.281 23.6193 16.281 23.8757C16.281 24.1321 16.1984 24.354 16.0331 24.5413C15.8679 24.7287 15.6722 24.8224 15.4461 24.8224H11.2715ZM17.9509 14.409C17.9509 14.6654 18.0335 14.8873 18.1987 15.0746C18.364 15.262 18.5597 15.3557 18.7858 15.3557H22.9604C23.1865 15.3557 23.3822 15.262 23.5475 15.0746C23.7127 14.8873 23.7953 14.6654 23.7953 14.409C23.7953 14.1526 23.7127 13.9308 23.5475 13.7434C23.3822 13.556 23.1865 13.4623 22.9604 13.4623H18.7858C18.5597 13.4623 18.364 13.556 18.1987 13.7434C18.0335 13.9308 17.9509 14.1526 17.9509 14.409ZM18.7858 20.089C18.5597 20.089 18.364 19.9953 18.1987 19.808C18.0335 19.6206 17.9509 19.3987 17.9509 19.1424C17.9509 18.886 18.0335 18.6641 18.1987 18.4767C18.364 18.2894 18.5597 18.1957 18.7858 18.1957H22.9604C23.1865 18.1957 23.3822 18.2894 23.5475 18.4767C23.7127 18.6641 23.7953 18.886 23.7953 19.1424C23.7953 19.3987 23.7127 19.6206 23.5475 19.808C23.3822 19.9953 23.1865 20.089 22.9604 20.089H18.7858ZM17.9509 23.8757C17.9509 24.1321 18.0335 24.354 18.1987 24.5413C18.364 24.7287 18.5597 24.8224 18.7858 24.8224H22.9604C23.1865 24.8224 23.3822 24.7287 23.5475 24.5413C23.7127 24.354 23.7953 24.1321 23.7953 23.8757C23.7953 23.6193 23.7127 23.3974 23.5475 23.2101C23.3822 23.0227 23.1865 22.929 22.9604 22.929H18.7858C18.5597 22.929 18.364 23.0227 18.1987 23.2101C18.0335 23.3974 17.9509 23.6193 17.9509 23.8757Z" fill="#010101"/>
</svg>
