<svg width="111" height="107" viewBox="0 0 111 107" fill="none" xmlns="http://www.w3.org/2000/svg">
<path d="M92.4915 100.882C88.846 100.882 87.1636 99.7688 85.0308 98.3586C82.6078 96.7573 79.5918 94.7644 73.9831 94.7644C68.376 94.7644 65.3631 96.7588 62.9418 98.3586C60.8121 99.7688 59.1281 100.882 55.4889 100.882C51.8449 100.882 50.1609 99.7688 48.0297 98.3586C45.6083 96.7588 42.5939 94.7644 36.9852 94.7644C31.3797 94.7644 28.3653 96.7588 25.9439 98.3586C23.8143 99.7688 22.1318 100.882 18.491 100.882C14.8502 100.882 13.1694 99.7688 11.0382 98.3586C8.61836 96.7603 5.6055 94.7644 0 94.7644V100.882C3.63921 100.882 5.32007 101.996 7.45127 103.406C9.87107 105.004 12.8839 107 18.4894 107C24.0965 107 27.1094 105.006 29.5308 103.406C31.6604 101.996 33.3428 100.882 36.9836 100.882C40.6276 100.882 42.3116 101.996 44.4412 103.406C46.8642 105.006 49.8786 107 55.4857 107C61.0928 107 64.1073 105.006 66.5271 103.406C68.6614 101.994 70.3423 100.882 73.9831 100.882C77.6302 100.882 79.3111 101.996 81.4439 103.406C83.8684 105.007 86.8829 107 92.4915 107C98.1002 107 101.116 105.007 103.539 103.406C105.672 101.994 107.353 100.882 111 100.882V94.7644C105.391 94.7644 102.377 96.7573 99.9523 98.3586C97.8195 99.7688 96.1371 100.882 92.4915 100.882ZM92.4915 87.1171C88.846 87.1171 87.1636 86.0037 85.0308 84.5935C82.6078 82.9922 79.5918 80.9993 73.9831 80.9993C68.376 80.9993 65.3631 82.9937 62.9418 84.5935C60.8121 86.0037 59.1281 87.1171 55.4889 87.1171C51.8449 87.1171 50.1609 86.0037 48.0297 84.5935C45.6083 82.9937 42.5939 80.9993 36.9852 80.9993C31.3797 80.9993 28.3653 82.9937 25.9439 84.5935C23.8143 86.0037 22.1318 87.1171 18.491 87.1171C14.8502 87.1171 13.1694 86.0037 11.0382 84.5935C8.61836 82.9953 5.6055 80.9993 0 80.9993V87.1171C3.63921 87.1171 5.32007 88.2306 7.45127 89.6407C9.87107 91.239 12.8839 93.2349 18.4894 93.2349C24.0965 93.2349 27.1094 91.2405 29.5308 89.6407C31.6604 88.2306 33.3428 87.1171 36.9836 87.1171C40.6276 87.1171 42.3116 88.2306 44.4412 89.6407C46.8642 91.2405 49.8786 93.2349 55.4857 93.2349C61.0928 93.2349 64.1073 91.2405 66.5271 89.6407C68.6614 88.2291 70.3423 87.1171 73.9831 87.1171C77.6302 87.1171 79.3111 88.2306 81.4439 89.6407C83.8684 91.2421 86.8829 93.2349 92.4915 93.2349C98.1002 93.2349 101.116 91.2421 103.539 89.6407C105.672 88.2291 107.353 87.1171 111 87.1171V80.9993C105.391 80.9993 102.377 82.9922 99.9523 84.5935C97.8195 86.0037 96.1371 87.1171 92.4915 87.1171ZM92.4915 73.3521C88.846 73.3521 87.1636 72.2386 85.0308 70.8285C82.6078 69.2271 79.5918 67.2343 73.9831 67.2343C68.376 67.2343 65.3631 69.2287 62.9418 70.8285C60.8121 72.2386 59.1281 73.3521 55.4889 73.3521C51.8449 73.3521 50.1609 72.2386 48.0297 70.8285C45.6083 69.2287 42.5939 67.2343 36.9852 67.2343C31.3797 67.2343 28.3653 69.2287 25.9439 70.8285C23.8143 72.2386 22.1318 73.3521 18.491 73.3521C14.8502 73.3521 13.1694 72.2386 11.0382 70.8285C8.61836 69.2302 5.6055 67.2343 0 67.2343V73.3521C3.63921 73.3521 5.32007 74.4655 7.45127 75.8757C9.87107 77.474 12.8839 79.4699 18.4894 79.4699C24.0965 79.4699 27.1094 77.4755 29.5308 75.8757C31.6604 74.4655 33.3428 73.3521 36.9836 73.3521C40.6276 73.3521 42.3116 74.4655 44.4412 75.8757C46.8642 77.4755 49.8786 79.4699 55.4857 79.4699C61.0928 79.4699 64.1073 77.4755 66.5271 75.8757C68.6614 74.464 70.3423 73.3521 73.9831 73.3521C77.6302 73.3521 79.3111 74.4655 81.4439 75.8757C83.8684 77.477 86.8829 79.4699 92.4915 79.4699C98.1002 79.4699 101.116 77.477 103.539 75.8757C105.672 74.464 107.353 73.3521 111 73.3521V67.2343C105.391 67.2343 102.377 69.2271 99.9523 70.8285C97.8195 72.2386 96.1371 73.3521 92.4915 73.3521ZM92.4915 59.587C88.846 59.587 87.1636 58.4736 85.0308 57.0634C82.6078 55.4621 79.5918 53.4692 73.9831 53.4692C68.376 53.4692 65.3631 55.4636 62.9418 57.0634C60.8121 58.4736 59.1281 59.587 55.4889 59.587C51.8449 59.587 50.1609 58.4736 48.0297 57.0634C45.6083 55.4636 42.5939 53.4692 36.9852 53.4692C31.3797 53.4692 28.3653 55.4636 25.9439 57.0634C23.8143 58.4736 22.1318 59.587 18.491 59.587C14.8502 59.587 13.1694 58.4736 11.0382 57.0634C8.61836 55.4652 5.6055 53.4692 0 53.4692V59.587C3.63921 59.587 5.32007 60.7005 7.45127 62.1106C9.87107 63.7089 12.8839 65.7048 18.4894 65.7048C24.0965 65.7048 27.1094 63.7104 29.5308 62.1106C31.6604 60.7005 33.3428 59.587 36.9836 59.587C40.6276 59.587 42.3116 60.7005 44.4412 62.1106C46.8642 63.7104 49.8786 65.7048 55.4857 65.7048C61.0928 65.7048 64.1073 63.7104 66.5271 62.1106C68.6614 60.6989 70.3423 59.587 73.9831 59.587C77.6302 59.587 79.3111 60.7005 81.4439 62.1106C83.8684 63.712 86.8829 65.7048 92.4915 65.7048C98.1002 65.7048 101.116 63.712 103.539 62.1106C105.672 60.6989 107.353 59.587 111 59.587V53.4692C105.391 53.4692 102.377 55.4621 99.9523 57.0634C97.8195 58.4736 96.1371 59.587 92.4915 59.587ZM30.8136 1.09776C30.2031 1.84108 15.8571 19.4542 15.8571 32.0569C15.8571 41.333 23.6826 48.8809 33.3 48.8809C42.9174 48.8809 50.7429 41.333 50.7429 32.0569C50.7429 19.4542 36.3969 1.84108 35.7864 1.09776C34.5828 -0.365921 32.0172 -0.365921 30.8136 1.09776ZM33.3 42.7631C27.1791 42.7631 22.2 37.9606 22.2 32.0569C22.2 24.9037 28.8441 14.248 33.3016 8.13171C37.759 14.2434 44.4 24.8899 44.4 32.0569C44.4 37.9606 39.4209 42.7631 33.3 42.7631ZM75.2152 16.3923C74.2051 17.622 65.3521 28.6401 65.3521 36.9726C65.3536 43.5385 70.8941 48.8809 77.7 48.8809C84.5059 48.8809 90.0464 43.5385 90.0464 36.9726C90.0464 28.6401 81.1949 17.622 80.1848 16.3923C78.9844 14.9286 76.4156 14.9286 75.2152 16.3923ZM83.7035 36.9726C83.7035 40.1661 81.011 42.7631 77.7 42.7631C74.389 42.7631 71.6965 40.1661 71.6965 36.9726C71.6965 33.1 75.0075 27.4104 77.7 23.5226C80.3925 27.4104 83.7035 33.1 83.7035 36.9726Z" fill="url(#paint0_linear_833_23885)"/>
<defs>
<linearGradient id="paint0_linear_833_23885" x1="55.5" y1="0" x2="55.5" y2="107" gradientUnits="userSpaceOnUse">
<stop stop-color="#E9682B"/>
<stop offset="1" stop-color="#2D6462"/>
</linearGradient>
</defs>
</svg>
