<svg width="114" height="114" viewBox="0 0 114 114" fill="none" xmlns="http://www.w3.org/2000/svg">
<path d="M106.752 57.2786C106.686 57.8531 106.624 58.3947 106.564 58.9033C106.512 59.4127 106.464 59.9307 106.419 60.4572C106.375 60.9837 106.335 61.5024 106.3 62.0132C106.272 62.5329 106.242 63.0773 106.21 63.6463C106.13 63.6146 106.062 63.5922 106.005 63.5791C105.948 63.566 105.886 63.5566 105.821 63.551C105.705 63.5412 105.576 63.551 105.433 63.5802C105.472 63.4095 105.509 63.2179 105.544 63.0054C105.579 62.7929 105.61 62.5677 105.639 62.3299C105.675 62.1009 105.703 61.8671 105.723 61.6285C105.751 61.3989 105.774 61.173 105.793 60.9509L104.66 60.8296C104.43 60.8018 104.217 60.7795 104.019 60.7627C103.822 60.7459 103.637 60.7301 103.464 60.7155L100.971 60.5034C100.576 60.4698 100.123 60.4396 99.6116 60.4127C99.0994 60.394 98.5338 60.3707 97.9147 60.3429C97.9409 60.2291 97.9665 60.1236 97.9913 60.0262C98.0072 59.9364 98.0194 59.8422 98.0278 59.7435C98.0362 59.6447 98.0408 59.5415 98.0417 59.4339C98.0336 59.3338 98.0256 59.2336 98.0175 59.1335C98.5666 59.2051 99.1038 59.2715 99.6289 59.3327C100.153 59.4022 100.625 59.4548 101.045 59.4905L103.55 59.7035C103.731 59.7189 103.92 59.735 104.118 59.7518C104.315 59.7686 104.529 59.7827 104.76 59.794L105.886 59.8649C105.928 59.3713 105.953 58.8803 105.961 58.3921C105.977 57.9129 105.981 57.5196 105.974 57.2124C106.111 57.2655 106.241 57.2972 106.364 57.3077C106.43 57.3133 106.492 57.3104 106.551 57.2988C106.61 57.2955 106.676 57.2887 106.752 57.2786Z" fill="black" fill-opacity="0.7"/>
<path d="M101.45 66.4136C100.842 66.2288 100.278 66.1394 99.7582 66.1455C99.2465 66.154 98.7855 66.2513 98.3752 66.4373C97.9649 66.6233 97.6116 66.8913 97.3154 67.2415C97.0271 67.594 96.8062 68.023 96.6525 68.5286C96.4989 69.0343 96.4439 69.5137 96.4874 69.967C96.5364 70.4307 96.6797 70.8539 96.9172 71.2367C97.1547 71.6195 97.4837 71.9568 97.9042 72.2485C98.3326 72.5426 98.851 72.782 99.4593 72.9668C100.676 73.3364 101.701 73.3285 102.534 72.9431C103.375 72.5601 103.952 71.8551 104.264 70.828C104.415 70.3303 104.469 69.8548 104.426 69.4015C104.382 68.9482 104.242 68.5301 104.004 68.1473C103.767 67.7645 103.434 67.426 103.005 67.1319C102.577 66.8378 102.058 66.5984 101.45 66.4136ZM104.699 70.9731C104.497 71.6367 104.215 72.2111 103.852 72.6962C103.497 73.1837 103.079 73.5658 102.598 73.8425C102.114 74.1272 101.575 74.2957 100.981 74.3482C100.395 74.4031 99.7701 74.3298 99.1065 74.1282C98.4429 73.9266 97.8788 73.6387 97.4143 73.2646C96.9577 72.8929 96.6077 72.4543 96.3643 71.9489C96.1184 71.4514 95.9796 70.9001 95.9477 70.295C95.9237 69.6922 96.0125 69.0591 96.2141 68.3954C96.4133 67.7397 96.6905 67.1681 97.0457 66.6806C97.3985 66.201 97.8166 65.8189 98.3 65.5342C98.7811 65.2575 99.3159 65.0878 99.9045 65.025C100.499 64.9725 101.131 65.0482 101.803 65.2522C102.451 65.449 103.004 65.7293 103.463 66.0931C103.922 66.457 104.276 66.8837 104.524 67.3733C104.778 67.8732 104.921 68.4257 104.952 69.0308C104.99 69.6463 104.905 70.2937 104.699 70.9731Z" fill="black" fill-opacity="0.7"/>
<path d="M102.09 77.7404C101.794 78.2374 101.515 78.7056 101.252 79.1449C100.996 79.5882 100.739 80.0407 100.482 80.5025C100.225 80.9642 99.9758 81.4208 99.7341 81.8721C99.4956 82.3347 99.245 82.8189 98.9824 83.3248C98.9223 83.263 98.869 83.2144 98.8225 83.1791C98.776 83.1438 98.7239 83.1101 98.6662 83.0779C98.5652 83.0217 98.4433 82.9776 98.3006 82.9454C98.4066 82.8059 98.5189 82.6464 98.6378 82.4668C98.7566 82.2873 98.8778 82.0949 99.0015 81.8897C99.1283 81.6957 99.2499 81.4941 99.3664 81.2848C99.486 81.0868 99.6 80.8904 99.7084 80.6956L98.7248 80.1199C98.5268 80.0003 98.3412 79.8923 98.168 79.7959C97.9949 79.6996 97.8325 79.6093 97.681 79.5249L95.4949 78.3085C95.1486 78.1158 94.7477 77.9022 94.2924 77.6677C93.833 77.4404 93.3267 77.187 92.7736 76.9076C92.8442 76.8146 92.9108 76.7288 92.9734 76.6503C93.0248 76.5749 93.0746 76.4939 93.1228 76.4074C93.171 76.3208 93.2175 76.2286 93.2625 76.1308C93.2963 76.0362 93.33 75.9416 93.3637 75.847C93.8351 76.1376 94.2977 76.4186 94.7514 76.69C95.2011 76.9686 95.6099 77.2102 95.9779 77.415L98.1749 78.6375C98.3336 78.7258 98.4995 78.8182 98.6727 78.9145C98.8458 79.0109 99.0354 79.1117 99.2415 79.2169L100.238 79.7432C100.479 79.3103 100.704 78.873 100.912 78.4313C101.123 78.0008 101.288 77.644 101.408 77.361C101.511 77.4653 101.616 77.5476 101.724 77.6078C101.782 77.6399 101.84 77.6628 101.899 77.6765C101.953 77.6974 102.017 77.7187 102.09 77.7404Z" fill="black" fill-opacity="0.7"/>
<path d="M92.6101 84.2653C92.5141 84.3788 92.3884 84.5211 92.2328 84.6924C92.0773 84.8636 91.9035 85.0627 91.7116 85.2897C91.6637 85.3464 91.605 85.4158 91.5357 85.4978C91.4727 85.5851 91.4013 85.676 91.3213 85.7706C91.236 85.8715 91.1534 85.9692 91.0734 86.0638C90.9945 86.17 90.9203 86.2641 90.851 86.3461L94.141 87.3271L92.6101 84.2653ZM95.154 88.7187L91.4625 87.5604C89.9815 87.0869 88.7784 86.7131 87.8532 86.4391C86.9343 86.1705 86.3492 86.0057 86.0981 85.9447C86.1916 85.8724 86.2762 85.7979 86.3518 85.7213C86.422 85.651 86.4945 85.5716 86.5691 85.4834C86.6437 85.3951 86.7152 85.3041 86.7835 85.2105C86.8402 85.1179 86.8942 85.0284 86.9456 84.9421C87.3956 85.1387 87.9128 85.3327 88.4972 85.5239C89.0878 85.7205 89.6901 85.9161 90.304 86.1107C90.4872 85.9196 90.6667 85.72 90.8426 85.5119C91.0185 85.3038 91.1918 85.0989 91.3624 84.8971C91.5276 84.7017 91.6924 84.5004 91.8566 84.2933C92.0156 84.0924 92.1723 83.9006 92.3269 83.7178C92.1173 83.3135 91.929 82.9543 91.762 82.6402C91.5898 82.3324 91.4347 82.0554 91.2969 81.8091C91.1538 81.5692 91.0216 81.3547 90.9003 81.1657C90.7853 80.982 90.6744 80.8125 90.5676 80.6574C90.6452 80.6041 90.7111 80.5517 90.7654 80.5003C90.8143 80.4551 90.8628 80.4042 90.9108 80.3475C90.9588 80.2907 91.0036 80.2313 91.0452 80.1692C91.0869 80.1071 91.1249 80.0366 91.1593 79.9575C91.4229 80.5155 91.7318 81.1604 92.0861 81.8924C92.435 82.6307 92.8002 83.3881 93.1817 84.1646C93.5578 84.9475 93.9298 85.7161 94.2977 86.4703C94.6665 87.2362 95.0026 87.9258 95.3059 88.539L95.154 88.7187Z" fill="black" fill-opacity="0.7"/>
<path d="M90.1294 93.7603C90.03 93.8216 89.9401 93.875 89.8597 93.9204C89.7783 93.9775 89.6996 94.0377 89.6234 94.1011C89.5473 94.1646 89.4738 94.2311 89.403 94.3009C89.3311 94.3823 89.2623 94.461 89.1968 94.5371C88.9981 94.2728 88.8126 94.0243 88.6403 93.7917C88.467 93.5707 88.2963 93.3529 88.1283 93.1382C87.9655 92.9299 87.8028 92.7216 87.64 92.5133C87.4709 92.3103 87.2965 92.101 87.1168 91.8853C86.99 91.733 86.8394 91.5522 86.665 91.3428C86.4906 91.1335 86.303 90.9083 86.1022 90.6672C85.9004 90.4377 85.699 90.2025 85.4982 89.9614C85.2911 89.7256 85.0977 89.4998 84.918 89.2841C84.7373 89.0801 84.5782 88.8955 84.4408 88.7306C84.3087 88.572 84.2109 88.4546 84.1475 88.3785L83.9096 88.5767C83.6051 88.8303 83.3413 89.0554 83.1182 89.252C82.895 89.4486 82.6941 89.6267 82.5154 89.7863C82.342 89.9522 82.1845 90.1049 82.0428 90.2445C81.9064 90.3903 81.7668 90.5388 81.624 90.69C81.5892 90.6223 81.5596 90.561 81.5353 90.506C81.5046 90.4563 81.4708 90.4092 81.4338 90.3648C81.3651 90.2824 81.27 90.2004 81.1484 90.119C81.3377 89.9721 81.5111 89.8384 81.6687 89.7179C81.8262 89.5974 81.9774 89.4822 82.1223 89.3723C82.2555 89.2613 82.3914 89.1535 82.5299 89.0489C82.6631 88.9379 82.7995 88.8243 82.9391 88.7081C83.2309 88.465 83.5201 88.2187 83.8067 87.9693C84.0816 87.7188 84.366 87.4604 84.66 87.194C84.9897 87.6286 85.3173 88.0542 85.6429 88.4708C85.962 88.8927 86.259 89.2686 86.5338 89.5985L88.1033 91.4827C88.3781 91.8126 88.6941 92.1726 89.0513 92.5628C89.4022 92.9583 89.7616 93.3575 90.1294 93.7603Z" fill="black" fill-opacity="0.7"/>
<path d="M77.7072 93.8269C77.5409 93.9187 77.3624 93.937 77.1717 93.8819C76.981 93.8268 76.8398 93.7161 76.748 93.5498C76.6563 93.3835 76.638 93.205 76.6931 93.0143C76.7482 92.8236 76.8589 92.6824 77.0252 92.5907C77.1915 92.4989 77.37 92.4806 77.5607 92.5357C77.7514 92.5908 77.8926 92.7015 77.9843 92.8678C78.0761 93.0341 78.0944 93.2126 78.0393 93.4033C77.9841 93.594 77.8735 93.7352 77.7072 93.8269Z" fill="black" fill-opacity="0.7"/>
<path d="M73.3884 103.893C73.2724 103.907 73.1604 103.919 73.0524 103.93C72.9464 103.95 72.8456 103.972 72.7497 103.997C72.5661 104.045 72.3996 104.111 72.2504 104.192C72.2353 104.102 72.2032 103.932 72.1541 103.68C72.1071 103.436 72.0444 103.132 71.9659 102.769C71.8874 102.405 71.7963 101.994 71.6926 101.535C71.581 101.077 71.458 100.593 71.3236 100.082C71.2082 99.6428 71.086 99.2268 70.9571 98.8338C70.8282 98.4408 70.6558 98.0934 70.4398 97.7916C70.1096 97.3149 69.7086 97.0234 69.2367 96.9169C68.7668 96.8185 68.2404 96.8458 67.6575 96.9991C67.1784 97.125 66.799 97.3058 66.5195 97.5415C66.24 97.7772 66.034 98.0491 65.9015 98.3571C65.8393 98.51 65.7903 98.6809 65.7545 98.8695C65.7187 99.0582 65.7033 99.2757 65.7083 99.522C65.7154 99.7762 65.7439 100.063 65.7938 100.383C65.8458 100.711 65.9285 101.09 66.0418 101.522L66.5204 103.342C66.8269 104.508 67.044 105.237 67.1716 105.527C67.0796 105.535 66.9916 105.541 66.9075 105.546C66.8256 105.559 66.7486 105.575 66.6768 105.594C66.6049 105.612 66.5421 105.633 66.4883 105.656C66.4366 105.687 66.3809 105.718 66.3212 105.751C66.2889 105.563 66.2406 105.298 66.1764 104.957C66.1063 104.625 66.0266 104.241 65.9372 103.803C65.8398 103.368 65.7349 102.887 65.6224 102.362C65.504 101.847 65.3775 101.316 65.2427 100.771C64.9585 99.6252 65.0411 98.6729 65.4906 97.9144C65.9422 97.164 66.695 96.6502 67.7491 96.3731C68.923 96.0646 69.8578 96.1134 70.5536 96.5195C71.2495 96.9257 71.7548 97.7277 72.0697 98.9255C72.1474 99.221 72.2244 99.5465 72.3008 99.902C72.3713 100.268 72.4433 100.59 72.5167 100.87C72.5608 101.037 72.6038 101.201 72.6458 101.361C72.6878 101.521 72.7411 101.707 72.8058 101.921C72.8726 102.142 72.9509 102.408 73.0407 102.717C73.1306 103.026 73.2464 103.418 73.3884 103.893Z" fill="black" fill-opacity="0.7"/>
<path d="M61.0148 106.7C60.5297 106.169 60.0196 105.618 59.4845 105.046C58.9495 104.482 58.4104 103.915 57.867 103.343C57.3154 102.771 56.768 102.208 56.2249 101.653C55.6817 101.097 55.1637 100.571 54.6707 100.073L54.6805 100.915C54.686 101.394 54.696 101.902 54.7105 102.438C54.7167 102.975 54.7269 103.499 54.7411 104.011C54.7553 104.523 54.7732 105.005 54.795 105.459C54.8085 105.913 54.8254 106.297 54.8455 106.611C54.6799 106.571 54.5393 106.552 54.4237 106.554C54.2999 106.555 54.168 106.577 54.0281 106.62C54.0427 106.455 54.0605 106.203 54.0813 105.864C54.0939 105.525 54.1102 105.149 54.1302 104.736C54.142 104.331 54.1537 103.914 54.1652 103.485C54.1769 103.064 54.1808 102.688 54.177 102.358C54.1714 101.879 54.1658 101.392 54.16 100.896C54.146 100.401 54.1366 99.9428 54.1317 99.5217C54.1269 99.1089 54.1228 98.7539 54.1194 98.4566C54.1078 98.1678 54.1016 97.9862 54.1007 97.9119L54.2617 97.91C55.9184 99.79 58.0296 102.049 60.5951 104.686C60.6009 104.471 60.607 104.285 60.6134 104.129C60.6116 103.972 60.6138 103.802 60.6199 103.621C60.6179 103.447 60.6155 103.241 60.6127 103.001C60.61 102.762 60.6064 102.452 60.602 102.073C60.5998 101.883 60.5972 101.656 60.5941 101.391C60.5911 101.136 60.5837 100.847 60.5717 100.525L60.5023 98.8162C60.4912 98.5686 60.4807 98.3747 60.4708 98.2344C60.4528 98.1025 60.4436 98.0242 60.4433 97.9994C60.5097 98.0234 60.58 98.0391 60.6544 98.0465C60.7289 98.0539 60.8032 98.0572 60.8775 98.0563C60.9518 98.0555 61.0261 98.0505 61.1003 98.0414C61.1745 98.0322 61.2527 98.0148 61.335 97.9891C61.3193 98.0553 61.3045 98.2083 61.2908 98.4479C61.2688 98.6876 61.2514 98.9686 61.2386 99.2907C61.2259 99.6212 61.2135 99.9764 61.2014 100.356C61.1811 100.745 61.169 101.121 61.1649 101.484C61.1527 101.856 61.1443 102.198 61.1397 102.512C61.1351 102.826 61.1338 103.074 61.1359 103.255L61.1524 104.68C61.1573 105.101 61.1657 105.468 61.1775 105.782C61.1812 106.095 61.193 106.401 61.2129 106.698L61.0148 106.7Z" fill="black" fill-opacity="0.7"/>
<path d="M49.4087 106.078C49.2975 106.042 49.1984 106.009 49.1115 105.978C49.0151 105.953 48.9181 105.933 48.8204 105.917C48.7226 105.9 48.6242 105.888 48.5251 105.88C48.4166 105.878 48.312 105.878 48.2116 105.878C48.3272 105.336 48.4407 104.807 48.5522 104.29C48.6556 103.771 48.7419 103.304 48.8113 102.889L49.2153 100.47C49.2847 100.055 49.3555 99.5812 49.4276 99.0491C49.4902 98.5238 49.5542 97.9903 49.6196 97.4488C49.7214 97.4909 49.8205 97.5242 49.9168 97.5486C50.0132 97.5731 50.1102 97.5935 50.208 97.6098C50.3057 97.6262 50.4041 97.6384 50.5032 97.6466C50.5941 97.6534 50.6987 97.6541 50.8168 97.6487C50.7025 98.1822 50.5938 98.7081 50.4904 99.2266C50.3789 99.7437 50.2878 100.214 50.217 100.638L49.813 103.056C49.7423 103.48 49.6756 103.954 49.6129 104.479C49.5422 105.003 49.4741 105.536 49.4087 106.078Z" fill="black" fill-opacity="0.7"/>
<path d="M44.8623 105.315C44.3162 105.125 43.8015 104.945 43.3184 104.775C42.8328 104.613 42.3381 104.452 41.8342 104.292C41.3304 104.133 40.8332 103.98 40.3426 103.834C39.8416 103.693 39.3171 103.544 38.7689 103.388C38.8174 103.317 38.8543 103.255 38.8796 103.202C38.9049 103.15 38.9275 103.092 38.9474 103.029C38.9823 102.919 39.0012 102.79 39.0041 102.644C39.162 102.72 39.3408 102.798 39.5405 102.879C39.7402 102.959 39.953 103.039 40.1788 103.119C40.3942 103.205 40.6161 103.284 40.8444 103.356C41.0624 103.434 41.2776 103.506 41.4902 103.573L41.8573 102.494C41.9349 102.276 42.0036 102.073 42.0633 101.884C42.1231 101.695 42.1791 101.518 42.2313 101.352L42.9856 98.9671C43.1051 98.5892 43.2342 98.1537 43.3728 97.6607C43.5035 97.1651 43.6504 96.6184 43.8135 96.0204C43.9187 96.071 44.0161 96.1191 44.1056 96.1648C44.1897 96.2 44.279 96.2326 44.3735 96.2625C44.4679 96.2923 44.5676 96.3195 44.6724 96.344C44.7719 96.3581 44.8713 96.3723 44.9708 96.3864C44.7804 96.9064 44.5976 97.4158 44.4226 97.9147C44.2396 98.4111 44.0847 98.86 43.9577 99.2615L43.1997 101.659C43.1449 101.832 43.0876 102.013 43.0279 102.202C42.9681 102.391 42.9074 102.597 42.8455 102.82L42.5293 103.902C43.0017 104.051 43.4751 104.183 43.9495 104.299C44.4136 104.42 44.7963 104.51 45.0975 104.571C45.0158 104.692 44.9563 104.812 44.919 104.93C44.899 104.993 44.8883 105.055 44.8866 105.115C44.877 105.172 44.8689 105.239 44.8623 105.315Z" fill="black" fill-opacity="0.7"/>
<path d="M33.7022 101.208C33.3484 101.03 33.0647 100.831 32.8513 100.613C32.6342 100.401 32.4597 100.151 32.3277 99.863C32.4684 99.7674 32.5961 99.6608 32.711 99.543C32.8185 99.4215 32.9464 99.2687 33.0948 99.0846L33.2275 99.1516C33.1434 99.9784 33.4073 100.546 34.0192 100.855C34.4394 101.067 34.8473 101.111 35.2428 100.986C35.6383 100.862 35.9365 100.601 36.1373 100.203C36.2302 100.019 36.2899 99.836 36.3164 99.6552C36.3392 99.4817 36.3213 99.297 36.2629 99.1011C36.1972 98.9015 36.0871 98.6888 35.9328 98.463C35.7711 98.2335 35.5523 97.9706 35.2764 97.6742C35.0079 97.3816 34.7965 97.1131 34.6422 96.8689C34.4806 96.6209 34.3688 96.3842 34.3068 96.1588C34.2448 95.9333 34.2327 95.7099 34.2704 95.4884C34.3007 95.2633 34.3753 95.0328 34.4943 94.7969C34.6728 94.443 34.9065 94.1447 35.1953 93.902C35.4731 93.6629 35.7894 93.4942 36.1442 93.3957C36.4917 93.2935 36.8629 93.2634 37.2578 93.3054C37.6528 93.3474 38.053 93.4706 38.4585 93.6751C38.8124 93.8536 39.1126 94.0651 39.3591 94.3097C39.5983 94.5505 39.8003 94.8558 39.9652 95.2257C39.8504 95.325 39.7429 95.4372 39.6428 95.5624C39.5353 95.6839 39.4073 95.8644 39.2588 96.1039L39.1261 96.037C39.1387 95.5902 39.0496 95.1893 38.8588 94.8341C38.6569 94.4826 38.3569 94.2065 37.9588 94.0057C37.7303 93.8905 37.5016 93.8214 37.2727 93.7984C37.0328 93.7791 36.8075 93.8042 36.5967 93.8736C36.3823 93.9504 36.1899 94.0661 36.0195 94.2206C35.838 94.3787 35.6878 94.5757 35.5688 94.8117C35.3792 95.1876 35.341 95.5475 35.4543 95.8913C35.5602 96.2314 35.8008 96.607 36.176 97.0182C36.4372 97.3071 36.6688 97.5812 36.871 97.8404C37.0621 98.1032 37.2071 98.3659 37.3059 98.6284C37.4047 98.8909 37.4462 99.1569 37.4305 99.4264C37.4111 99.7033 37.3196 100.004 37.156 100.328C36.9961 100.645 36.7921 100.903 36.544 101.102C36.296 101.3 36.0241 101.436 35.7284 101.509C35.4217 101.585 35.0967 101.597 34.7535 101.544C34.4065 101.499 34.0561 101.387 33.7022 101.208Z" fill="black" fill-opacity="0.7"/>
<path d="M30.8812 90.7471C30.7309 90.6309 30.6432 90.4744 30.618 90.2775C30.5928 90.0806 30.6383 89.907 30.7544 89.7568C30.8706 89.6065 31.0271 89.5188 31.224 89.4936C31.4209 89.4684 31.5945 89.5139 31.7447 89.63C31.895 89.7462 31.9827 89.9027 32.0079 90.0996C32.0331 90.2965 31.9876 90.4701 31.8715 90.6203C31.7553 90.7706 31.5988 90.8583 31.4019 90.8835C31.205 90.9087 31.0314 90.8632 30.8812 90.7471Z" fill="black" fill-opacity="0.7"/>
<path d="M18.3247 88.6151C18.5497 88.4465 18.7811 88.2725 19.0187 88.0932C19.2511 87.9076 19.4739 87.73 19.6873 87.5604C19.9008 87.3908 20.0984 87.2346 20.2803 87.0916C20.4569 86.9424 20.605 86.8171 20.7248 86.7158L22.5692 85.1567C22.8088 84.9541 23.112 84.6924 23.4787 84.3716C23.8338 84.0498 24.2754 83.6387 24.8037 83.138C24.8594 83.2423 24.9134 83.3318 24.9657 83.4065C25.018 83.4812 25.0735 83.5532 25.1322 83.6226C25.1961 83.6982 25.2606 83.7681 25.3255 83.8321C25.3968 83.8908 25.4733 83.9558 25.5552 84.0271C25.0746 84.3794 24.6298 84.723 24.2209 85.0578C23.8004 85.3917 23.464 85.6652 23.2118 85.8784L19.6933 88.8528L21.269 89.4507C21.2326 89.5355 21.2132 89.6276 21.2107 89.727C21.2029 89.8201 21.2014 89.9078 21.2062 89.9903L21.14 90.0462C20.8821 89.9075 20.6381 89.7786 20.4078 89.6597C20.1713 89.5462 19.9432 89.4362 19.7236 89.3299C19.4977 89.229 19.2745 89.1312 19.0539 89.0365C18.828 88.9356 18.5905 88.8336 18.3413 88.7307L18.3247 88.6151Z" fill="black" fill-opacity="0.7"/>
<path d="M14.0437 82.4915C13.6788 81.8632 13.5334 81.2841 13.6074 80.7541C13.6744 80.2282 13.9578 79.8201 14.4575 79.5298C14.8859 79.281 15.3354 79.1918 15.806 79.2622C16.2694 79.3368 16.6925 79.5637 17.0751 79.943L17.1394 79.9057C16.8546 79.3167 16.7638 78.7823 16.8669 78.3022C16.97 77.8222 17.2679 77.4391 17.7605 77.153C18.0889 76.9622 18.4318 76.8538 18.789 76.8277C19.135 76.7986 19.482 76.8453 19.83 76.9678C20.1668 77.0873 20.4898 77.2816 20.7989 77.5508C21.1081 77.8201 21.3808 78.1582 21.6172 78.5651C21.7748 78.8364 21.8997 79.1172 21.9919 79.4074C22.087 79.6863 22.1503 80.0172 22.1817 80.4C22.1121 80.4117 22.0084 80.4386 21.8704 80.4805C21.7253 80.5266 21.59 80.5814 21.4645 80.6447L21.3843 80.6053C21.5038 80.2686 21.5517 79.94 21.5279 79.6196C21.5 79.2921 21.4114 78.9998 21.2621 78.7428C20.9593 78.2216 20.5525 77.8993 20.0416 77.7759C19.5307 77.6525 19.004 77.7484 18.4613 78.0636C17.4046 78.6774 17.1687 79.4876 17.7534 80.4943C17.799 80.5728 17.8559 80.6544 17.9241 80.7389C17.981 80.8204 18.0389 80.8871 18.0976 80.9389C18.0536 80.9454 18.0138 80.959 17.9781 80.9797C17.9352 81.0046 17.896 81.0274 17.8603 81.0481C17.8174 81.073 17.7802 81.0994 17.7487 81.1273C17.713 81.148 17.6794 81.1723 17.6478 81.2002C17.6259 81.1461 17.5952 81.0684 17.5555 80.9673C17.5088 80.8704 17.4605 80.779 17.4107 80.6934C17.1826 80.3007 16.8692 80.0817 16.4705 80.0364C16.0718 79.991 15.6047 80.1239 15.0692 80.4349C14.6551 80.6755 14.3981 80.9728 14.2982 81.3268C14.187 81.6778 14.2268 82.0176 14.4175 82.346C14.5627 82.5959 14.7802 82.7895 15.0699 82.9267C15.3484 83.0609 15.6488 83.1013 15.971 83.0478L16.036 83.1104L15.6007 83.6926C14.9235 83.513 14.4045 83.1127 14.0437 82.4915Z" fill="black" fill-opacity="0.7"/>
<path d="M14.6098 74.4172C17.0362 73.5275 18.0334 72.4935 17.6013 71.3152C17.1693 70.1368 15.7439 69.9911 13.3253 70.878C12.1315 71.3158 11.2824 71.7942 10.778 72.3133C10.2707 72.8247 10.128 73.3827 10.3497 73.9874C10.5657 74.5766 11.0223 74.9104 11.7195 74.989C12.4061 75.0626 13.3695 74.872 14.6098 74.4172ZM9.97331 74.1122C9.80845 73.6626 9.73854 73.2441 9.7636 72.8568C9.78582 72.4617 9.91463 72.0934 10.15 71.7521C10.3826 71.403 10.7295 71.0779 11.1907 70.7769C11.652 70.4758 12.2431 70.1931 12.964 69.9288C13.5609 69.7099 14.1263 69.5729 14.6602 69.5179C15.194 69.4628 15.6819 69.4862 16.1238 69.588C16.5656 69.6898 16.946 69.8757 17.2649 70.1458C17.5838 70.4158 17.8214 70.764 17.9777 71.1903C18.1397 71.6322 18.2135 72.0493 18.199 72.4415C18.174 72.8289 18.0452 73.1971 17.8126 73.5462C17.5772 73.8876 17.2289 74.2088 16.7676 74.5098C16.2986 74.8137 15.6998 75.0992 14.9711 75.3664C13.6765 75.8411 12.6043 75.9749 11.7544 75.7677C10.8939 75.5555 10.3002 75.0037 9.97331 74.1122Z" fill="black" fill-opacity="0.7"/>
<path d="M14.362 63.1461C14.3357 62.958 14.3824 62.7848 14.502 62.6264C14.6216 62.4679 14.7755 62.3756 14.9636 62.3494C15.1517 62.3231 15.3249 62.3698 15.4833 62.4894C15.6417 62.609 15.7341 62.7629 15.7603 62.9509C15.7866 63.139 15.7399 63.3123 15.6203 63.4707C15.5007 63.6291 15.3468 63.7215 15.1587 63.7477C14.9707 63.774 14.7974 63.7273 14.639 63.6077C14.4806 63.4881 14.3882 63.3342 14.362 63.1461Z" fill="black" fill-opacity="0.7"/>
<path d="M6.5168 56.5075C6.5756 55.9323 6.63197 55.39 6.68593 54.8806C6.73165 54.3707 6.77386 53.8522 6.81255 53.3252C6.85125 52.7982 6.88522 52.2791 6.91448 51.768C6.9361 51.248 6.95954 50.7033 6.98478 50.1339C7.06532 50.1646 7.1341 50.1862 7.19114 50.1987C7.24818 50.2112 7.30964 50.2198 7.37551 50.2247C7.4908 50.2331 7.61994 50.2219 7.76296 50.191C7.72556 50.3621 7.69076 50.5541 7.65857 50.767C7.62638 50.9799 7.5974 51.2055 7.57163 51.4437C7.53823 51.673 7.51277 51.9071 7.49523 52.1459C7.47007 52.3759 7.44932 52.602 7.433 52.8244L8.56756 52.9325C8.79753 52.9577 9.01132 52.9775 9.20895 52.992C9.40659 53.0065 9.59186 53.0201 9.76479 53.0328L12.2599 53.216C12.6551 53.245 13.1086 53.2701 13.6204 53.2911C14.1328 53.3039 14.6986 53.3206 15.3181 53.3412C15.2931 53.4553 15.2688 53.5611 15.2451 53.6587C15.2302 53.7487 15.2191 53.8431 15.2119 53.9419C15.2046 54.0407 15.2012 54.144 15.2015 54.2516C15.2108 54.3517 15.22 54.4517 15.2292 54.5517C14.6793 54.4865 14.1414 54.4263 13.6156 54.3711C13.0904 54.3077 12.6178 54.2606 12.1979 54.2298L9.69042 54.0457C9.50926 54.0324 9.31986 54.0185 9.12223 54.004C8.9246 53.9894 8.7102 53.9778 8.47903 53.9691L7.35319 53.9113C7.31691 54.4054 7.29741 54.8966 7.29467 55.3848C7.28431 55.8642 7.28441 56.2575 7.29497 56.5646C7.15801 56.5132 7.02777 56.4829 6.90425 56.4738C6.83837 56.469 6.77601 56.4727 6.71716 56.4849C6.65891 56.4889 6.59212 56.4964 6.5168 56.5075Z" fill="black" fill-opacity="0.7"/>
<path d="M11.6987 47.3512C12.3091 47.5291 12.8741 47.612 13.3936 47.6C13.9052 47.5857 14.365 47.4832 14.7732 47.2926C15.1814 47.1019 15.5316 46.8299 15.8238 46.4764C16.1081 46.1206 16.3242 45.6891 16.472 45.1818C16.6199 44.6744 16.6695 44.1944 16.6208 43.7416C16.5666 43.2786 16.4185 42.857 16.1767 42.4769C15.9348 42.0968 15.602 41.7633 15.1782 41.4764C14.7465 41.1872 14.2255 40.9536 13.6151 40.7757C12.3943 40.4199 11.3695 40.4395 10.5406 40.8343C9.70377 41.2269 9.13519 41.9384 8.83486 42.9689C8.68931 43.4683 8.64086 43.9444 8.68951 44.3972C8.73815 44.85 8.88339 45.2664 9.12523 45.6465C9.36707 46.0266 9.70385 46.3613 10.1356 46.6505C10.5673 46.9397 11.0884 47.1733 11.6987 47.3512ZM8.39838 42.8288C8.59244 42.1629 8.86826 41.5854 9.22584 41.0962C9.57549 40.6047 9.98924 40.2178 10.4671 39.9357C10.9472 39.6456 11.4841 39.4709 12.0775 39.4117C12.6631 39.3501 13.2888 39.4164 13.9547 39.6105C14.6205 39.8045 15.1878 40.086 15.6566 40.4548C16.1174 40.8213 16.4724 41.2558 16.7215 41.7585C16.9729 42.2532 17.118 42.8029 17.1568 43.4076C17.1876 44.01 17.106 44.6441 16.912 45.31C16.7202 45.9679 16.4495 46.5427 16.0999 47.0342C15.7525 47.5178 15.3388 47.9046 14.8586 48.1947C14.3808 48.4768 13.8479 48.6526 13.26 48.7221C12.6666 48.7814 12.0329 48.7128 11.3591 48.5164C10.7091 48.327 10.1525 48.053 9.68943 47.6944C9.22632 47.3358 8.86789 46.9132 8.61414 46.4264C8.35477 45.9294 8.2057 45.3785 8.16693 44.7738C8.12255 44.1589 8.1997 43.5105 8.39838 42.8288Z" fill="black" fill-opacity="0.7"/>
<path d="M10.921 36.0153C11.2109 35.5151 11.4851 35.0439 11.7436 34.6017C11.9948 34.1555 12.2463 33.7002 12.4981 33.2356C12.7499 32.771 12.9942 32.3118 13.2309 31.8578C13.4642 31.3926 13.7094 30.9056 13.9664 30.3969C14.0272 30.458 14.081 30.506 14.1279 30.5408C14.1748 30.5756 14.2272 30.6087 14.2853 30.6402C14.3869 30.6953 14.5093 30.7381 14.6524 30.7687C14.548 30.9093 14.4373 31.0701 14.3205 31.2509C14.2037 31.4318 14.0846 31.6255 13.9633 31.8321C13.8386 32.0275 13.7192 32.2304 13.6051 32.441C13.4876 32.6403 13.3758 32.8379 13.2696 33.0339L14.2595 33.5987C14.4588 33.7161 14.6456 33.822 14.8198 33.9165C14.994 34.0109 15.1574 34.0994 15.3098 34.1821L17.5093 35.3742C17.8577 35.5631 18.2609 35.7723 18.7188 36.0017C19.1807 36.2239 19.6897 36.4716 20.2459 36.7449C20.1763 36.8387 20.1107 36.9252 20.0489 37.0044C19.9984 37.0803 19.9495 37.1618 19.9023 37.249C19.8551 37.3361 19.8095 37.4288 19.7656 37.5271C19.7329 37.622 19.7002 37.717 19.6675 37.812C19.193 37.5266 18.7274 37.2507 18.2707 36.9844C17.8179 36.7108 17.4064 36.4737 17.0362 36.273L14.8258 35.0749C14.6661 34.9883 14.4992 34.8978 14.325 34.8034C14.1507 34.709 13.96 34.6103 13.7529 34.5074L12.7502 33.9921C12.5141 34.4276 12.2945 34.8674 12.0914 35.3114C11.885 35.7443 11.7235 36.1028 11.607 36.3872C11.5032 36.284 11.3969 36.2029 11.288 36.1439C11.23 36.1124 11.1716 36.0901 11.1129 36.0771C11.0581 36.0568 10.9942 36.0362 10.921 36.0153Z" fill="black" fill-opacity="0.7"/>
<path d="M20.1929 29.5409C20.2872 29.4261 20.4108 29.2819 20.5639 29.1084C20.7169 28.9349 20.8878 28.7333 21.0763 28.5035C21.1235 28.4461 21.1811 28.3759 21.2492 28.2929C21.3109 28.2047 21.381 28.1127 21.4596 28.017C21.5434 27.9149 21.6246 27.8159 21.7032 27.7202C21.7806 27.6128 21.8534 27.5177 21.9215 27.4347L18.6176 26.5017L20.1929 29.5409ZM17.5844 25.125L21.2924 26.2295C22.7801 26.6813 23.9885 27.0375 24.9176 27.298C25.8403 27.5533 26.4277 27.7096 26.6798 27.7669C26.5873 27.8405 26.5038 27.9162 26.4293 27.994C26.3601 28.0653 26.2888 28.1457 26.2155 28.235C26.1421 28.3244 26.072 28.4163 26.0051 28.5109C25.9497 28.6044 25.897 28.6946 25.8469 28.7817C25.3941 28.5916 24.8741 28.4053 24.2871 28.2225C23.6936 28.0346 23.0885 27.8478 22.4719 27.6621C22.2915 27.8559 22.1149 28.0581 21.942 28.2687C21.7691 28.4793 21.5989 28.6867 21.4313 28.891C21.2689 29.0888 21.1071 29.2925 20.9459 29.502C20.7899 29.7051 20.6359 29.8992 20.484 30.0843C20.6995 30.4854 20.893 30.8419 21.0645 31.1535C21.2412 31.4588 21.4003 31.7335 21.5417 31.9777C21.6883 32.2155 21.8236 32.4281 21.9477 32.6153C22.0653 32.7973 22.1786 32.9651 22.2876 33.1186C22.2109 33.1731 22.1457 33.2265 22.0922 33.2787C22.0439 33.3245 21.9962 33.3761 21.949 33.4336C21.9019 33.491 21.858 33.5511 21.8172 33.6138C21.7764 33.6765 21.7394 33.7476 21.7062 33.8271C21.4346 33.2731 21.1163 32.6327 20.7514 31.9059C20.3917 31.1728 20.0155 30.4208 19.6228 29.6499C19.2353 28.8726 18.8522 28.1095 18.4734 27.3607C18.0934 26.6002 17.7473 25.9156 17.4351 25.3069L17.5844 25.125Z" fill="black" fill-opacity="0.7"/>
<path d="M22.5088 20.0069C22.6072 19.9442 22.6963 19.8895 22.776 19.8429C22.8566 19.7846 22.9345 19.7232 23.0097 19.6587C23.0849 19.5942 23.1574 19.5266 23.2272 19.4558C23.2979 19.3734 23.3655 19.2936 23.43 19.2166C23.6325 19.478 23.8215 19.7238 23.9972 19.9538C24.1737 20.1723 24.3475 20.3876 24.5187 20.5998C24.6845 20.8057 24.8502 21.0116 25.016 21.2175C25.188 21.418 25.3655 21.6248 25.5483 21.8379C25.6773 21.9883 25.8305 22.1669 26.0079 22.3737C26.1853 22.5805 26.3762 22.8029 26.5805 23.0411C26.7857 23.2676 26.9904 23.4999 27.1947 23.738C27.4053 23.9708 27.6019 24.1937 27.7847 24.4067C27.9684 24.6082 28.1302 24.7903 28.2699 24.9533C28.4043 25.1099 28.5038 25.2259 28.5683 25.3011L28.8033 25.0995C29.1041 24.8414 29.3646 24.6125 29.5848 24.4127C29.8051 24.2129 30.0034 24.0319 30.1797 23.8697C30.3507 23.7012 30.506 23.5462 30.6457 23.4047C30.7799 23.2568 30.9173 23.1063 31.0579 22.9531C31.0937 23.0203 31.1242 23.0812 31.1493 23.1358C31.1807 23.185 31.2152 23.2316 31.2528 23.2754C31.3227 23.3569 31.419 23.4375 31.5417 23.5171C31.3546 23.6668 31.1832 23.803 31.0274 23.9257C30.8716 24.0485 30.7221 24.1659 30.5789 24.2779C30.4473 24.3908 30.313 24.5006 30.176 24.6072C30.0444 24.7201 29.9097 24.8357 29.7718 24.954C29.4835 25.2013 29.198 25.4517 28.9151 25.7053C28.6438 25.9597 28.3632 26.2223 28.0731 26.4929C27.7371 26.0631 27.4033 25.6424 27.0718 25.2305C26.7465 24.8133 26.4441 24.4418 26.1645 24.116L24.5678 22.2548C24.2882 21.9289 23.967 21.5735 23.6041 21.1886C23.2475 20.7982 22.8824 20.4044 22.5088 20.0069Z" fill="black" fill-opacity="0.7"/>
<path d="M35.0012 19.6858C35.1665 19.5922 35.3448 19.5719 35.5361 19.6249C35.7274 19.6779 35.8698 19.787 35.9634 19.9523C36.0569 20.1175 36.0772 20.2958 36.0242 20.4871C35.9712 20.6784 35.8621 20.8209 35.6968 20.9144C35.5316 21.008 35.3533 21.0283 35.162 20.9753C34.9707 20.9223 34.8283 20.8132 34.7347 20.6479C34.6411 20.4826 34.6209 20.3044 34.6738 20.1131C34.7268 19.9218 34.836 19.7793 35.0012 19.6858Z" fill="black" fill-opacity="0.7"/>
<path d="M39.1476 9.54728C39.2634 9.53254 39.3753 9.5189 39.4832 9.50636C39.5888 9.48585 39.6894 9.46246 39.785 9.43618C39.9681 9.38581 40.1338 9.31883 40.282 9.23522C40.2982 9.32499 40.3322 9.49545 40.3842 9.74663C40.434 9.98984 40.5002 10.2928 40.5828 10.6554C40.6654 11.018 40.7612 11.4284 40.8701 11.8866C40.9869 12.3425 41.1154 12.8253 41.2556 13.3348C41.376 13.7727 41.5029 14.1873 41.6363 14.5788C41.7697 14.9703 41.946 15.3157 42.1654 15.615C42.501 16.0879 42.9053 16.3749 43.3784 16.476C43.8494 16.5691 44.3754 16.5357 44.9565 16.3759C45.4342 16.2445 45.8115 16.0593 46.0883 15.8205C46.3651 15.5816 46.568 15.3074 46.697 14.9979C46.7575 14.8443 46.8045 14.6729 46.8382 14.4838C46.8718 14.2948 46.8847 14.0771 46.8769 13.8309C46.867 13.5768 46.8352 13.2901 46.7816 12.9708C46.7259 12.6436 46.6389 12.2651 46.5206 11.8352L46.0214 10.02C45.7016 8.85771 45.4763 8.13186 45.3453 7.84248C45.4373 7.83431 45.5252 7.82724 45.6092 7.82127C45.691 7.80733 45.7677 7.79051 45.8394 7.7708C45.911 7.75109 45.9736 7.72959 46.0272 7.7063C46.0785 7.67505 46.1339 7.6427 46.1932 7.60926C46.2276 7.79675 46.2789 8.06096 46.347 8.40189C46.4208 8.73268 46.5049 9.1163 46.5993 9.55277C46.7016 9.98705 46.812 10.4662 46.9305 10.9902C47.0547 11.5041 47.1873 12.0329 47.3283 12.5764C47.6255 13.7192 47.5537 14.6724 47.1129 15.4359C46.6699 16.1914 45.923 16.7137 44.8721 17.0028C43.7018 17.3247 42.7665 17.2866 42.0661 16.8883C41.3656 16.4901 40.8512 15.6939 40.5227 14.4998C40.4417 14.2052 40.361 13.8806 40.2805 13.5259C40.2059 13.1611 40.1302 12.8394 40.0536 12.5607C40.0076 12.3936 39.9627 12.2304 39.9189 12.0711C39.8751 11.9119 39.8197 11.7259 39.7526 11.5132C39.6833 11.2924 39.602 11.0279 39.5086 10.7196C39.4152 10.4114 39.2949 10.0206 39.1476 9.54728Z" fill="black" fill-opacity="0.7"/>
<path d="M51.456 6.54933C51.9471 7.07479 52.4636 7.62031 53.0053 8.18589C53.5467 8.74322 54.0924 9.30458 54.6424 9.86997C55.2006 10.4352 55.7544 10.9922 56.304 11.5411C56.8535 12.09 57.3776 12.6105 57.8763 13.1028L57.8568 12.2608C57.8457 11.7821 57.8298 11.2745 57.8092 10.7381C57.7967 10.2016 57.7805 9.67753 57.7604 9.16593C57.7403 8.65434 57.7167 8.17174 57.6897 7.71812C57.6709 7.26431 57.6496 6.88076 57.6258 6.56747C57.7919 6.60491 57.9327 6.6223 58.0483 6.61962C58.1721 6.61676 58.3037 6.59306 58.443 6.54854C58.4304 6.71401 58.4156 6.96625 58.3986 7.30526C58.39 7.64408 58.378 8.02014 58.3628 8.43345C58.3557 8.8383 58.3488 9.25554 58.3423 9.68516C58.3355 10.1065 58.3359 10.4823 58.3436 10.8125C58.3547 11.2912 58.366 11.7783 58.3774 12.2735C58.3972 12.7686 58.4119 13.2267 58.4217 13.6476C58.4312 14.0604 58.4394 14.4153 58.4463 14.7125C58.4613 15.0012 58.4696 15.1827 58.4713 15.257L58.3104 15.2607C56.632 13.4 54.4948 11.1659 51.8989 8.55839C51.8956 8.7732 51.8917 8.95912 51.8871 9.11615C51.8907 9.27299 51.8905 9.4423 51.8864 9.62409C51.8905 9.79744 51.8952 10.0038 51.9008 10.2432C51.9063 10.4826 51.9135 10.7921 51.9223 11.1718C51.9267 11.3617 51.9319 11.5887 51.9381 11.8528C51.944 12.1087 51.9548 12.3975 51.9705 12.7193L52.0596 14.4268C52.0736 14.6743 52.0864 14.8681 52.0979 15.0082C52.1174 15.1399 52.1275 15.2181 52.1281 15.2429C52.0615 15.2196 51.9909 15.2048 51.9164 15.1982C51.842 15.1917 51.7676 15.1893 51.6933 15.191C51.619 15.1927 51.5448 15.1986 51.4707 15.2085C51.3966 15.2185 51.3186 15.2368 51.2366 15.2635C51.2516 15.1971 51.2645 15.044 51.2755 14.8042C51.2947 14.5643 51.3089 14.2832 51.3179 13.9608C51.3268 13.6303 51.3351 13.275 51.3428 12.8949C51.3586 12.5063 51.3664 12.1304 51.3662 11.767C51.3741 11.3951 51.3786 11.0523 51.3795 10.7384C51.3805 10.4245 51.3789 10.1768 51.3747 9.99521L51.3417 8.5713C51.332 8.15032 51.3194 7.78308 51.3038 7.4696C51.2966 7.15593 51.2812 6.8507 51.2578 6.55392L51.456 6.54933Z" fill="black" fill-opacity="0.7"/>
<path d="M63.0315 6.99089C63.1432 7.02494 63.2426 7.05709 63.3299 7.08734C63.4265 7.1107 63.5238 7.12998 63.6217 7.14518C63.7196 7.16038 63.8181 7.1715 63.9173 7.17854C64.0259 7.17869 64.1304 7.17821 64.2309 7.17709C64.1215 7.71994 64.0141 8.25056 63.9085 8.76894C63.8112 9.28859 63.7302 9.75646 63.6656 10.1726L63.2894 12.5958C63.2248 13.0119 63.1594 13.4864 63.0934 14.0193C63.0368 14.5453 62.979 15.0794 62.9199 15.6217C62.8176 15.5807 62.7181 15.5486 62.6215 15.5252C62.5248 15.5019 62.4276 15.4826 62.3297 15.4674C62.2318 15.4522 62.1332 15.4411 62.034 15.434C61.943 15.4283 61.8385 15.4287 61.7205 15.4355C61.8286 14.9008 61.9313 14.3736 62.0287 13.854C62.1342 13.3356 62.2199 12.8643 62.2858 12.44L62.662 10.0168C62.7279 9.5925 62.7891 9.11738 62.8457 8.5914C62.9104 8.06669 62.9724 7.53318 63.0315 6.99089Z" fill="black" fill-opacity="0.7"/>
<path d="M67.5831 7.66032C68.1314 7.84412 68.648 8.01833 69.133 8.18293C69.6204 8.33963 70.1169 8.49479 70.6226 8.64839C71.1282 8.80199 71.6271 8.94925 72.1193 9.09015C72.6218 9.22555 73.148 9.36815 73.698 9.51796C73.6503 9.58976 73.6141 9.65211 73.5893 9.70501C73.5646 9.75792 73.5427 9.81597 73.5235 9.87917C73.4899 9.98977 73.4724 10.1182 73.4711 10.2645C73.3124 10.1904 73.1328 10.1143 72.9322 10.0361C72.7316 9.95788 72.5179 9.88002 72.2912 9.80252C72.0748 9.71952 71.852 9.64322 71.6229 9.57362C71.4041 9.49851 71.1881 9.42856 70.9748 9.36376L70.6199 10.4468C70.5448 10.6656 70.4784 10.8698 70.4208 11.0594C70.3632 11.249 70.3092 11.4268 70.2588 11.5927L69.5316 13.9865C69.4164 14.3657 69.2923 14.8026 69.1593 15.2972C69.0342 15.7942 68.8935 16.3426 68.7372 16.9423C68.6314 16.8929 68.5335 16.8459 68.4435 16.8013C68.359 16.767 68.2693 16.7355 68.1745 16.7067C68.0797 16.6779 67.9797 16.6518 67.8746 16.6285C67.775 16.6155 67.6754 16.6025 67.5758 16.5895C67.7603 16.0674 67.9373 15.5559 68.1067 15.0551C68.284 14.5567 68.4338 14.106 68.5563 13.7031L69.2871 11.2975C69.3399 11.1237 69.3951 10.942 69.4527 10.7524C69.5103 10.5628 69.5687 10.3561 69.628 10.1325L69.9319 9.04696C69.4579 8.90295 68.983 8.77595 68.5073 8.66595C68.0419 8.55045 67.6583 8.46409 67.3563 8.40689C67.4366 8.28459 67.4948 8.16418 67.5308 8.04568C67.55 7.98248 67.5601 7.92083 67.5611 7.86072C67.57 7.80302 67.5773 7.73622 67.5831 7.66032Z" fill="black" fill-opacity="0.7"/>
<path d="M78.969 11.6786C79.3248 11.8531 79.6107 12.0485 79.8265 12.2647C80.046 12.4735 80.2233 12.7214 80.3584 13.0084C80.2188 13.1055 80.0923 13.2135 79.9787 13.3326C79.8725 13.4552 79.7463 13.6094 79.6 13.7952L79.4666 13.7298C79.5415 12.902 79.2713 12.3373 78.656 12.0355C78.2335 11.8283 77.8251 11.7889 77.431 11.9175C77.0369 12.0461 76.7416 12.3105 76.5453 12.7108C76.4544 12.8961 76.3967 13.0794 76.3723 13.2605C76.3514 13.4342 76.3713 13.6187 76.4319 13.8139C76.4999 14.0128 76.6123 14.2243 76.7691 14.4483C76.9333 14.676 77.155 14.9365 77.4342 15.2298C77.706 15.5194 77.9204 15.7855 78.0773 16.028C78.2417 16.2741 78.3561 16.5096 78.4206 16.7344C78.4851 16.9591 78.4998 17.1824 78.4645 17.4042C78.4367 17.6297 78.3646 17.861 78.2483 18.0983C78.0738 18.4541 77.8434 18.755 77.5573 19.0009C77.2822 19.243 76.9678 19.4153 76.6141 19.5177C76.2678 19.6237 75.8969 19.658 75.5015 19.6204C75.1061 19.5828 74.7046 19.464 74.2969 19.264C73.941 19.0895 73.6385 18.8814 73.3892 18.6396C73.1474 18.4014 72.9419 18.0983 72.773 17.7304C72.8867 17.6298 72.9929 17.5163 73.0916 17.39C73.1978 17.2674 73.3238 17.0855 73.4696 16.8443L73.6031 16.9098C73.5954 17.3566 73.6889 17.7566 73.8837 18.1096C74.0894 18.4588 74.3925 18.7316 74.7928 18.9279C75.0226 19.0406 75.2521 19.1072 75.4812 19.1276C75.7213 19.1442 75.9463 19.1166 76.1563 19.0449C76.3698 18.9657 76.561 18.8479 76.7296 18.6915C76.9093 18.5313 77.0574 18.3326 77.1737 18.0954C77.3591 17.7174 77.3933 17.3571 77.2762 17.0145C77.1665 16.6757 76.9218 16.3027 76.542 15.8958C76.2776 15.6098 76.0429 15.3383 75.8379 15.0814C75.6438 14.8207 75.496 14.5596 75.3943 14.2982C75.2926 14.0369 75.2481 13.7713 75.2608 13.5017C75.2771 13.2246 75.3653 12.923 75.5253 12.5968C75.6816 12.278 75.8827 12.018 76.1286 11.8167C76.3744 11.6154 76.6448 11.4767 76.9396 11.4006C77.2455 11.3207 77.5703 11.3053 77.9141 11.3544C78.2615 11.396 78.6132 11.5041 78.969 11.6786Z" fill="black" fill-opacity="0.7"/>
<path d="M81.8317 22.0206C81.9832 22.1351 82.0726 22.2907 82.1 22.4873C82.1273 22.6839 82.0838 22.858 81.9693 23.0095C81.8548 23.161 81.6992 23.2504 81.5026 23.2778C81.306 23.3051 81.1319 23.2616 80.9804 23.1471C80.8289 23.0326 80.7395 22.877 80.7121 22.6804C80.6848 22.4838 80.7283 22.3097 80.8428 22.1582C80.9573 22.0067 81.1129 21.9173 81.3095 21.8899C81.5061 21.8626 81.6802 21.9061 81.8317 22.0206Z" fill="black" fill-opacity="0.7"/>
<path d="M100.915 50.6818C101.066 50.7963 101.156 50.9518 101.183 51.1484C101.21 51.3451 101.167 51.5191 101.052 51.6706C100.938 51.8221 100.782 51.9116 100.586 51.9389C100.389 51.9663 100.215 51.9227 100.063 51.8082C99.9119 51.6937 99.8225 51.5382 99.7951 51.3415C99.7678 51.1449 99.8114 50.9709 99.9259 50.8194C100.04 50.6679 100.196 50.5784 100.393 50.5511C100.589 50.5237 100.763 50.5673 100.915 50.6818Z" fill="black" fill-opacity="0.7"/>
<path d="M94.5312 24.0834C94.308 24.2545 94.0786 24.431 93.8429 24.6128C93.6126 24.801 93.3916 24.981 93.1801 25.1529C92.9685 25.3248 92.7726 25.4832 92.5923 25.6282C92.4174 25.7793 92.2706 25.9062 92.1519 26.0088L90.3246 27.588C90.0872 27.7931 89.7869 28.0581 89.4238 28.3829C89.0722 28.7085 88.6351 29.1245 88.1124 29.6309C88.0555 29.5272 88.0005 29.4383 87.9474 29.3642C87.8942 29.2901 87.838 29.2187 87.7786 29.15C87.7138 29.075 87.6486 29.0059 87.5829 28.9425C87.5111 28.8846 87.4338 28.8205 87.3511 28.75C87.8279 28.3926 88.2689 28.0442 88.6741 27.7049C89.0909 27.3664 89.4243 27.0892 89.6742 26.8733L93.16 23.8607L91.5779 23.2801C91.6133 23.1948 91.6318 23.1025 91.6332 23.0031C91.6399 22.9099 91.6405 22.8222 91.6348 22.7398L91.7004 22.6831C91.9597 22.8191 92.2052 22.9452 92.4367 23.0616C92.6745 23.1726 92.9038 23.28 93.1245 23.3839C93.3515 23.4824 93.5758 23.5777 93.7974 23.67C94.0244 23.7685 94.263 23.8678 94.5133 23.968L94.5312 24.0834Z" fill="black" fill-opacity="0.7"/>
<path d="M98.9139 30.1843C99.2857 30.8085 99.4375 31.386 99.3693 31.9168C99.3082 32.4434 99.0293 32.8546 98.5328 33.1504C98.1072 33.4039 97.6587 33.4981 97.1874 33.4329C96.7231 33.3635 96.2976 33.1412 95.9108 32.7662L95.847 32.8042C96.1382 33.3899 96.235 33.9234 96.1372 34.4045C96.0393 34.8857 95.7457 35.272 95.2563 35.5636C94.93 35.758 94.5883 35.8702 94.2314 35.9002C93.8858 35.9331 93.5383 35.8902 93.1889 35.7716C92.8508 35.6558 92.5258 35.4651 92.2137 35.1993C91.9015 34.9335 91.6251 34.5984 91.3842 34.1941C91.2236 33.9246 91.0956 33.6452 91.0003 33.356C90.902 33.0782 90.8351 32.748 90.7995 32.3656C90.8689 32.3531 90.9724 32.3251 91.1099 32.2816C91.2544 32.2339 91.3891 32.1777 91.514 32.1129L91.5945 32.1514C91.4788 32.4895 91.4346 32.8186 91.4619 33.1387C91.4934 33.4659 91.5852 33.7572 91.7374 34.0126C92.0458 34.5304 92.4562 34.8482 92.9684 34.9659C93.4807 35.0836 94.0063 34.9819 94.5454 34.6608C95.5953 34.0353 95.8223 33.2225 95.2265 32.2224C95.18 32.1443 95.1222 32.0634 95.053 31.9797C94.9952 31.8988 94.9367 31.8328 94.8774 31.7816C94.9213 31.7746 94.961 31.7606 94.9965 31.7395C95.039 31.7141 95.078 31.6909 95.1135 31.6698C95.1561 31.6444 95.193 31.6176 95.2242 31.5894C95.2597 31.5683 95.293 31.5436 95.3243 31.5154C95.3468 31.5692 95.3784 31.6465 95.4191 31.7472C95.467 31.8436 95.5162 31.9344 95.5669 32.0195C95.7994 32.4097 96.1152 32.6252 96.5143 32.6661C96.9135 32.707 97.3791 32.569 97.9112 32.2521C98.3226 32.007 98.5763 31.7069 98.6723 31.3518C98.7796 30.9995 98.7361 30.6602 98.5417 30.3339C98.3938 30.0857 98.1742 29.8945 97.8829 29.7605C97.6029 29.6293 97.3022 29.5923 96.9805 29.6493L96.9149 29.5875L97.3437 29.0005C98.0228 29.1726 98.5462 29.5672 98.9139 30.1843Z" fill="black" fill-opacity="0.7"/>
<path d="M98.434 38.2261C96.0178 39.1431 95.0323 40.1883 95.4776 41.3616C95.9229 42.535 97.3498 42.6647 99.7583 41.7506C100.947 41.2994 101.791 40.8115 102.289 40.2867C102.791 39.7696 102.927 39.21 102.699 38.6079C102.476 38.0212 102.016 37.6925 101.318 37.6218C100.63 37.5559 99.6691 37.7574 98.434 38.2261ZM103.074 38.4789C103.244 38.9266 103.318 39.3443 103.298 39.7319C103.28 40.1272 103.155 40.4968 102.924 40.8408C102.695 41.1925 102.352 41.5215 101.894 41.8277C101.436 42.1339 100.848 42.4233 100.13 42.6957C99.5359 42.9213 98.972 43.0646 98.4388 43.1257C97.9056 43.1867 97.4175 43.1688 96.9745 43.072C96.5316 42.9752 96.1491 42.7936 95.8272 42.5272C95.5053 42.2607 95.2638 41.9152 95.1027 41.4907C94.9357 41.0507 94.8572 40.6344 94.8673 40.2421C94.888 39.8544 95.0126 39.4848 95.2412 39.1331C95.4728 38.7891 95.8175 38.464 96.2753 38.1578C96.7408 37.8486 97.3364 37.5564 98.0621 37.281C99.3512 36.7917 100.422 36.6459 101.274 36.8436C102.137 37.046 102.737 37.5911 103.074 38.4789Z" fill="black" fill-opacity="0.7"/>
<path d="M91.1089 57.2623C91.1089 75.9445 75.964 91.0893 57.2819 91.0893C38.5997 91.0893 23.4549 75.9445 23.4549 57.2623C23.4549 38.5802 38.5997 23.4353 57.2819 23.4353C75.964 23.4353 91.1089 38.5802 91.1089 57.2623Z" stroke="black" stroke-opacity="0.7" stroke-width="0.464444"/>
</svg>
