<svg width="31" height="34" viewBox="0 0 31 34" fill="none" xmlns="http://www.w3.org/2000/svg">
<path d="M29.9343 10.093C30.188 10.093 30.3937 9.86838 30.3937 9.59102V6.17324C30.3937 5.89588 30.188 5.6713 29.9343 5.6713H20.3456V4.4232H21.0307C21.2844 4.4232 21.4901 4.19811 21.4901 3.92127V0.501931C21.4901 0.224575 21.2844 0 21.0307 0H9.95046C9.69682 0 9.49011 0.224575 9.49011 0.501931V3.92179C9.49011 4.19863 9.69682 4.42372 9.95046 4.42372H10.6365V5.67182H1.04777C0.794125 5.67182 0.587891 5.8964 0.587891 6.17375V9.59154C0.587891 9.8689 0.794125 10.0935 1.04777 10.0935H2.30746V28.6918H1.04777C0.794125 28.6918 0.587891 28.9164 0.587891 29.1938V32.6115C0.587891 32.8889 0.794125 33.1135 1.04777 33.1135H11.0788C11.085 33.1135 11.0902 33.1176 11.0964 33.1176H19.8857C19.8924 33.1176 19.8976 33.114 19.9042 33.1135H29.9343C30.188 33.1135 30.3937 32.8889 30.3937 32.6115V29.1938C30.3937 28.9164 30.188 28.6918 29.9343 28.6918H28.6742V10.093H29.9343ZM10.4099 3.41986V1.00334H20.5718V3.41934H19.89C19.8891 3.41934 19.8872 3.41831 19.8853 3.41831C19.8843 3.41831 19.8824 3.41934 19.8815 3.41934H11.1011C11.0997 3.41934 11.0978 3.41831 11.0964 3.41831C11.0949 3.41831 11.0935 3.41934 11.0921 3.41934H10.4099V3.41986ZM20.3456 10.093H27.7544V28.6913H20.3456V10.093ZM19.4263 6.18772V9.57654C19.4263 9.58171 19.4235 9.58585 19.4235 9.59102C19.4235 9.5962 19.4263 9.60085 19.4263 9.60551V28.6913H17.592V24.0585C17.592 23.7817 17.3863 23.5571 17.1326 23.5571H13.8495C13.5954 23.5571 13.3896 23.7817 13.3896 24.0585V28.6913H11.5562V9.60086C11.5562 9.59723 11.5581 9.59465 11.5581 9.59102C11.5581 9.58792 11.5562 9.58482 11.5562 9.58119V6.18255C11.5562 6.17944 11.5581 6.17634 11.5581 6.17272C11.5581 6.1691 11.5562 6.16651 11.5562 6.16289V4.4232H19.4263V6.15875C19.4263 6.16392 19.4235 6.16806 19.4235 6.17324C19.4235 6.17841 19.4263 6.18255 19.4263 6.18772ZM16.6723 24.5605V28.6913H14.3094V24.5605H16.6723ZM1.50765 9.08909V6.67517H10.637V9.08961L1.50765 9.08909ZM10.637 10.093V28.6913H3.22722V10.093H10.637ZM29.474 29.6952V32.1096H19.891C19.8891 32.1096 19.8881 32.1086 19.8853 32.1086C19.8777 32.1086 19.8706 32.1132 19.862 32.1138H11.1433C11.1371 32.1132 11.1319 32.1163 11.1262 32.1158C11.1163 32.1153 11.1077 32.1096 11.0978 32.1096H1.50765V29.6952H2.76592C2.76639 29.6952 2.76686 29.6952 2.76686 29.6952C2.76781 29.6952 2.76781 29.6952 2.76829 29.6952H13.8495H17.1326H28.2129C28.2138 29.6952 28.2138 29.6952 28.2148 29.6952C28.2148 29.6952 28.2148 29.6952 28.2157 29.6952H29.474ZM20.3456 9.08909V6.67517H29.474V9.08961L20.3456 9.08909Z" fill="#333333"/>
<path d="M17.295 6.20996H12.7218C12.4683 6.20996 12.2631 6.44312 12.2631 6.73109C12.2631 7.01905 12.4683 7.25221 12.7218 7.25221H17.295C17.548 7.25221 17.7532 7.01905 17.7532 6.73109C17.7532 6.44312 17.548 6.20996 17.295 6.20996ZM17.295 9.15405H12.7218C12.4683 9.15405 12.2631 9.38721 12.2631 9.67517C12.2631 9.96313 12.4683 10.1963 12.7218 10.1963H17.295C17.548 10.1963 17.7532 9.96313 17.7532 9.67517C17.7532 9.38721 17.548 9.15405 17.295 9.15405ZM17.295 12.0981H12.7218C12.4683 12.0981 12.2631 12.3313 12.2631 12.6193C12.2631 12.9072 12.4683 13.1404 12.7218 13.1404H17.295C17.548 13.1404 17.7532 12.9072 17.7532 12.6193C17.7532 12.3313 17.548 12.0981 17.295 12.0981ZM17.295 15.0422H12.7218C12.4683 15.0422 12.2631 15.2759 12.2631 15.5633C12.2631 15.8513 12.4683 16.0845 12.7218 16.0845H17.295C17.548 16.0845 17.7532 15.8513 17.7532 15.5633C17.7532 15.2759 17.548 15.0422 17.295 15.0422ZM17.295 17.9868H12.7218C12.4683 17.9868 12.2631 18.22 12.2631 18.508C12.2631 18.7954 12.4683 19.0285 12.7218 19.0285H17.295C17.548 19.0285 17.7532 18.7954 17.7532 18.508C17.7532 18.22 17.548 17.9868 17.295 17.9868ZM4.89034 14.0961H8.05251C8.3055 14.0961 8.51073 13.863 8.51073 13.575C8.51073 13.287 8.3055 13.0539 8.05251 13.0539H4.89034C4.63687 13.0539 4.43164 13.287 4.43164 13.575C4.43164 13.863 4.63687 14.0961 4.89034 14.0961ZM4.89034 17.0408H8.05251C8.3055 17.0408 8.51073 16.8076 8.51073 16.5196C8.51073 16.2322 8.3055 15.9985 8.05251 15.9985H4.89034C4.63687 15.9985 4.43164 16.2322 4.43164 16.5196C4.43211 16.8076 4.63687 17.0408 4.89034 17.0408ZM4.89034 19.9848H8.05251C8.3055 19.9848 8.51073 19.7511 8.51073 19.4637C8.51073 19.1758 8.3055 18.9426 8.05251 18.9426H4.89034C4.63687 18.9426 4.43164 19.1758 4.43164 19.4637C4.43211 19.7517 4.63687 19.9848 4.89034 19.9848ZM4.89034 22.9295H8.05251C8.3055 22.9295 8.51073 22.6958 8.51073 22.4083C8.51073 22.1204 8.3055 21.8872 8.05251 21.8872H4.89034C4.63687 21.8872 4.43164 22.1204 4.43164 22.4083C4.43211 22.6958 4.63687 22.9295 4.89034 22.9295ZM4.89034 25.8735H8.05251C8.3055 25.8735 8.51073 25.6404 8.51073 25.3524C8.51073 25.0645 8.3055 24.8313 8.05251 24.8313H4.89034C4.63687 24.8313 4.43164 25.0645 4.43164 25.3524C4.43164 25.6404 4.63687 25.8735 4.89034 25.8735ZM25.126 13.0544H21.9633C21.7103 13.0544 21.5051 13.2876 21.5051 13.5755C21.5051 13.8635 21.7103 14.0967 21.9633 14.0967H25.126C25.379 14.0967 25.5842 13.8635 25.5842 13.5755C25.5842 13.2876 25.3794 13.0544 25.126 13.0544ZM25.126 15.9985H21.9633C21.7103 15.9985 21.5051 16.2322 21.5051 16.5196C21.5051 16.8076 21.7103 17.0408 21.9633 17.0408H25.126C25.379 17.0408 25.5842 16.8076 25.5842 16.5196C25.5842 16.2322 25.3794 15.9985 25.126 15.9985ZM25.126 18.9431H21.9633C21.7103 18.9431 21.5051 19.1763 21.5051 19.4643C21.5051 19.7517 21.7103 19.9854 21.9633 19.9854H25.126C25.379 19.9854 25.5842 19.7517 25.5842 19.4643C25.5842 19.1763 25.3794 18.9431 25.126 18.9431ZM25.126 21.8872H21.9633C21.7103 21.8872 21.5051 22.1204 21.5051 22.4083C21.5051 22.6958 21.7103 22.9295 21.9633 22.9295H25.126C25.379 22.9295 25.5842 22.6958 25.5842 22.4083C25.5842 22.1204 25.3794 21.8872 25.126 21.8872ZM25.126 24.8313H21.9633C21.7103 24.8313 21.5051 25.0645 21.5051 25.3524C21.5051 25.6404 21.7103 25.8735 21.9633 25.8735H25.126C25.379 25.8735 25.5842 25.6404 25.5842 25.3524C25.5842 25.0645 25.3794 24.8313 25.126 24.8313Z" fill="#333333"/>
</svg>
